<?xml version="1.0" encoding="utf-8" standalone="no"?>
<!DOCTYPE svg PUBLIC "-//W3C//DTD SVG 1.1//EN"
  "http://www.w3.org/Graphics/SVG/1.1/DTD/svg11.dtd">
<svg xmlns:xlink="http://www.w3.org/1999/xlink" width="1008pt" height="360pt" viewBox="0 0 1008 360" xmlns="http://www.w3.org/2000/svg" version="1.1">
 <metadata>
  <rdf:RDF xmlns:dc="http://purl.org/dc/elements/1.1/" xmlns:cc="http://creativecommons.org/ns#" xmlns:rdf="http://www.w3.org/1999/02/22-rdf-syntax-ns#">
   <cc:Work>
    <dc:type rdf:resource="http://purl.org/dc/dcmitype/StillImage"/>
    <dc:date>2026-07-08T18:35:22.027023</dc:date>
    <dc:format>image/svg+xml</dc:format>
    <dc:creator>
     <cc:Agent>
      <dc:title>Matplotlib v3.11.0, https://matplotlib.org/</dc:title>
     </cc:Agent>
    </dc:creator>
   </cc:Work>
  </rdf:RDF>
 </metadata>
 <defs>
  <style type="text/css">*{stroke-linejoin: round; stroke-linecap: butt}</style>
 </defs>
 <g id="figure_1">
  <g id="patch_1">
   <path d="M 0 360 
L 1008 360 
L 1008 0 
L 0 0 
z
" style="fill: #ffffff"/>
  </g>
  <g id="axes_1">
   <g id="patch_2">
    <path d="M 54.442344 274.351718 
L 997.2 274.351718 
L 997.2 85.648282 
L 54.442344 85.648282 
z
" style="fill: #ffffff"/>
   </g>
   <g id="matplotlib.axis_1">
    <g id="xtick_1">
     <g id="line2d_1">
      <path d="M 114.462496 274.351718 
L 114.462496 85.648282 
" clip-path="url(#pc1b718beb2)" style="fill: none; stroke: #b0b0b0; stroke-opacity: 0.3; stroke-width: 0.8; stroke-linecap: square"/>
     </g>
     <g id="line2d_2">
      <defs>
       <path id="m8891c42ec4" d="M 0 0 
L 0 3.5 
" style="stroke: #000000; stroke-width: 0.8"/>
      </defs>
      <g>
       <use xlink:href="#m8891c42ec4" x="114.462496" y="274.351718" style="stroke: #000000; stroke-width: 0.8"/>
      </g>
     </g>
     <g id="text_1">
      <!-- −0.6 -->
      <g transform="translate(102.32109 288.949374) scale(0.1 -0.1)">
       <defs>
        <path id="DejaVuSans-c9c" d="M 678 2272 
L 4684 2272 
L 4684 1741 
L 678 1741 
L 678 2272 
z
" transform="scale(0.015625)"/>
        <path id="DejaVuSans-13" d="M 2034 4250 
Q 1547 4250 1301 3770 
Q 1056 3291 1056 2328 
Q 1056 1369 1301 889 
Q 1547 409 2034 409 
Q 2525 409 2770 889 
Q 3016 1369 3016 2328 
Q 3016 3291 2770 3770 
Q 2525 4250 2034 4250 
z
M 2034 4750 
Q 2819 4750 3233 4129 
Q 3647 3509 3647 2328 
Q 3647 1150 3233 529 
Q 2819 -91 2034 -91 
Q 1250 -91 836 529 
Q 422 1150 422 2328 
Q 422 3509 836 4129 
Q 1250 4750 2034 4750 
z
" transform="scale(0.015625)"/>
        <path id="DejaVuSans-11" d="M 684 794 
L 1344 794 
L 1344 0 
L 684 0 
L 684 794 
z
" transform="scale(0.015625)"/>
        <path id="DejaVuSans-19" d="M 2113 2584 
Q 1688 2584 1439 2293 
Q 1191 2003 1191 1497 
Q 1191 994 1439 701 
Q 1688 409 2113 409 
Q 2538 409 2786 701 
Q 3034 994 3034 1497 
Q 3034 2003 2786 2293 
Q 2538 2584 2113 2584 
z
M 3366 4563 
L 3366 3988 
Q 3128 4100 2886 4159 
Q 2644 4219 2406 4219 
Q 1781 4219 1451 3797 
Q 1122 3375 1075 2522 
Q 1259 2794 1537 2939 
Q 1816 3084 2150 3084 
Q 2853 3084 3261 2657 
Q 3669 2231 3669 1497 
Q 3669 778 3244 343 
Q 2819 -91 2113 -91 
Q 1303 -91 875 529 
Q 447 1150 447 2328 
Q 447 3434 972 4092 
Q 1497 4750 2381 4750 
Q 2619 4750 2861 4703 
Q 3103 4656 3366 4563 
z
" transform="scale(0.015625)"/>
       </defs>
       <use xlink:href="#DejaVuSans-c9c"/>
       <use xlink:href="#DejaVuSans-13" transform="translate(83.796875 0)"/>
       <use xlink:href="#DejaVuSans-11" transform="translate(147.421875 0)"/>
       <use xlink:href="#DejaVuSans-19" transform="translate(179.203125 0)"/>
      </g>
     </g>
    </g>
    <g id="xtick_2">
     <g id="line2d_3">
      <path d="M 251.582055 274.351718 
L 251.582055 85.648282 
" clip-path="url(#pc1b718beb2)" style="fill: none; stroke: #b0b0b0; stroke-opacity: 0.3; stroke-width: 0.8; stroke-linecap: square"/>
     </g>
     <g id="line2d_4">
      <g>
       <use xlink:href="#m8891c42ec4" x="251.582055" y="274.351718" style="stroke: #000000; stroke-width: 0.8"/>
      </g>
     </g>
     <g id="text_2">
      <!-- −0.4 -->
      <g transform="translate(239.440649 288.949374) scale(0.1 -0.1)">
       <defs>
        <path id="DejaVuSans-17" d="M 2419 4116 
L 825 1625 
L 2419 1625 
L 2419 4116 
z
M 2253 4666 
L 3047 4666 
L 3047 1625 
L 3713 1625 
L 3713 1100 
L 3047 1100 
L 3047 0 
L 2419 0 
L 2419 1100 
L 313 1100 
L 313 1709 
L 2253 4666 
z
" transform="scale(0.015625)"/>
       </defs>
       <use xlink:href="#DejaVuSans-c9c"/>
       <use xlink:href="#DejaVuSans-13" transform="translate(83.796875 0)"/>
       <use xlink:href="#DejaVuSans-11" transform="translate(147.421875 0)"/>
       <use xlink:href="#DejaVuSans-17" transform="translate(179.203125 0)"/>
      </g>
     </g>
    </g>
    <g id="xtick_3">
     <g id="line2d_5">
      <path d="M 388.701613 274.351718 
L 388.701613 85.648282 
" clip-path="url(#pc1b718beb2)" style="fill: none; stroke: #b0b0b0; stroke-opacity: 0.3; stroke-width: 0.8; stroke-linecap: square"/>
     </g>
     <g id="line2d_6">
      <g>
       <use xlink:href="#m8891c42ec4" x="388.701613" y="274.351718" style="stroke: #000000; stroke-width: 0.8"/>
      </g>
     </g>
     <g id="text_3">
      <!-- −0.2 -->
      <g transform="translate(376.560207 288.949374) scale(0.1 -0.1)">
       <defs>
        <path id="DejaVuSans-15" d="M 1228 531 
L 3431 531 
L 3431 0 
L 469 0 
L 469 531 
Q 828 903 1448 1529 
Q 2069 2156 2228 2338 
Q 2531 2678 2651 2914 
Q 2772 3150 2772 3378 
Q 2772 3750 2511 3984 
Q 2250 4219 1831 4219 
Q 1534 4219 1204 4116 
Q 875 4013 500 3803 
L 500 4441 
Q 881 4594 1212 4672 
Q 1544 4750 1819 4750 
Q 2544 4750 2975 4387 
Q 3406 4025 3406 3419 
Q 3406 3131 3298 2873 
Q 3191 2616 2906 2266 
Q 2828 2175 2409 1742 
Q 1991 1309 1228 531 
z
" transform="scale(0.015625)"/>
       </defs>
       <use xlink:href="#DejaVuSans-c9c"/>
       <use xlink:href="#DejaVuSans-13" transform="translate(83.796875 0)"/>
       <use xlink:href="#DejaVuSans-11" transform="translate(147.421875 0)"/>
       <use xlink:href="#DejaVuSans-15" transform="translate(179.203125 0)"/>
      </g>
     </g>
    </g>
    <g id="xtick_4">
     <g id="line2d_7">
      <path d="M 525.821172 274.351718 
L 525.821172 85.648282 
" clip-path="url(#pc1b718beb2)" style="fill: none; stroke: #b0b0b0; stroke-opacity: 0.3; stroke-width: 0.8; stroke-linecap: square"/>
     </g>
     <g id="line2d_8">
      <g>
       <use xlink:href="#m8891c42ec4" x="525.821172" y="274.351718" style="stroke: #000000; stroke-width: 0.8"/>
      </g>
     </g>
     <g id="text_4">
      <!-- 0.0 -->
      <g transform="translate(517.869609 288.949374) scale(0.1 -0.1)">
       <use xlink:href="#DejaVuSans-13"/>
       <use xlink:href="#DejaVuSans-11" transform="translate(63.625 0)"/>
       <use xlink:href="#DejaVuSans-13" transform="translate(95.40625 0)"/>
      </g>
     </g>
    </g>
    <g id="xtick_5">
     <g id="line2d_9">
      <path d="M 662.94073 274.351718 
L 662.94073 85.648282 
" clip-path="url(#pc1b718beb2)" style="fill: none; stroke: #b0b0b0; stroke-opacity: 0.3; stroke-width: 0.8; stroke-linecap: square"/>
     </g>
     <g id="line2d_10">
      <g>
       <use xlink:href="#m8891c42ec4" x="662.94073" y="274.351718" style="stroke: #000000; stroke-width: 0.8"/>
      </g>
     </g>
     <g id="text_5">
      <!-- 0.2 -->
      <g transform="translate(654.989168 288.949374) scale(0.1 -0.1)">
       <use xlink:href="#DejaVuSans-13"/>
       <use xlink:href="#DejaVuSans-11" transform="translate(63.625 0)"/>
       <use xlink:href="#DejaVuSans-15" transform="translate(95.40625 0)"/>
      </g>
     </g>
    </g>
    <g id="xtick_6">
     <g id="line2d_11">
      <path d="M 800.060289 274.351718 
L 800.060289 85.648282 
" clip-path="url(#pc1b718beb2)" style="fill: none; stroke: #b0b0b0; stroke-opacity: 0.3; stroke-width: 0.8; stroke-linecap: square"/>
     </g>
     <g id="line2d_12">
      <g>
       <use xlink:href="#m8891c42ec4" x="800.060289" y="274.351718" style="stroke: #000000; stroke-width: 0.8"/>
      </g>
     </g>
     <g id="text_6">
      <!-- 0.4 -->
      <g transform="translate(792.108726 288.949374) scale(0.1 -0.1)">
       <use xlink:href="#DejaVuSans-13"/>
       <use xlink:href="#DejaVuSans-11" transform="translate(63.625 0)"/>
       <use xlink:href="#DejaVuSans-17" transform="translate(95.40625 0)"/>
      </g>
     </g>
    </g>
    <g id="xtick_7">
     <g id="line2d_13">
      <path d="M 937.179847 274.351718 
L 937.179847 85.648282 
" clip-path="url(#pc1b718beb2)" style="fill: none; stroke: #b0b0b0; stroke-opacity: 0.3; stroke-width: 0.8; stroke-linecap: square"/>
     </g>
     <g id="line2d_14">
      <g>
       <use xlink:href="#m8891c42ec4" x="937.179847" y="274.351718" style="stroke: #000000; stroke-width: 0.8"/>
      </g>
     </g>
     <g id="text_7">
      <!-- 0.6 -->
      <g transform="translate(929.228285 288.949374) scale(0.1 -0.1)">
       <use xlink:href="#DejaVuSans-13"/>
       <use xlink:href="#DejaVuSans-11" transform="translate(63.625 0)"/>
       <use xlink:href="#DejaVuSans-19" transform="translate(95.40625 0)"/>
      </g>
     </g>
    </g>
    <g id="text_8">
     <!-- x (m) -->
     <g transform="translate(512.500859 302.949374) scale(0.1 -0.1)">
      <defs>
       <path id="DejaVuSans-5b" d="M 3513 3500 
L 2247 1797 
L 3578 0 
L 2900 0 
L 1881 1375 
L 863 0 
L 184 0 
L 1544 1831 
L 300 3500 
L 978 3500 
L 1906 2253 
L 2834 3500 
L 3513 3500 
z
" transform="scale(0.015625)"/>
       <path id="DejaVuSans-3" transform="scale(0.015625)"/>
       <path id="DejaVuSans-b" d="M 1984 4856 
Q 1566 4138 1362 3434 
Q 1159 2731 1159 2009 
Q 1159 1288 1364 580 
Q 1569 -128 1984 -844 
L 1484 -844 
Q 1016 -109 783 600 
Q 550 1309 550 2009 
Q 550 2706 781 3412 
Q 1013 4119 1484 4856 
L 1984 4856 
z
" transform="scale(0.015625)"/>
       <path id="DejaVuSans-50" d="M 3328 2828 
Q 3544 3216 3844 3400 
Q 4144 3584 4550 3584 
Q 5097 3584 5394 3201 
Q 5691 2819 5691 2113 
L 5691 0 
L 5113 0 
L 5113 2094 
Q 5113 2597 4934 2840 
Q 4756 3084 4391 3084 
Q 3944 3084 3684 2787 
Q 3425 2491 3425 1978 
L 3425 0 
L 2847 0 
L 2847 2094 
Q 2847 2600 2669 2842 
Q 2491 3084 2119 3084 
Q 1678 3084 1418 2786 
Q 1159 2488 1159 1978 
L 1159 0 
L 581 0 
L 581 3500 
L 1159 3500 
L 1159 2956 
Q 1356 3278 1631 3431 
Q 1906 3584 2284 3584 
Q 2666 3584 2933 3390 
Q 3200 3197 3328 2828 
z
" transform="scale(0.015625)"/>
       <path id="DejaVuSans-c" d="M 513 4856 
L 1013 4856 
Q 1481 4119 1714 3412 
Q 1947 2706 1947 2009 
Q 1947 1309 1714 600 
Q 1481 -109 1013 -844 
L 513 -844 
Q 928 -128 1133 580 
Q 1338 1288 1338 2009 
Q 1338 2731 1133 3434 
Q 928 4138 513 4856 
z
" transform="scale(0.015625)"/>
      </defs>
      <use xlink:href="#DejaVuSans-5b"/>
      <use xlink:href="#DejaVuSans-3" transform="translate(59.1875 0)"/>
      <use xlink:href="#DejaVuSans-b" transform="translate(90.96875 0)"/>
      <use xlink:href="#DejaVuSans-50" transform="translate(129.984375 0)"/>
      <use xlink:href="#DejaVuSans-c" transform="translate(227.390625 0)"/>
     </g>
    </g>
   </g>
   <g id="matplotlib.axis_2">
    <g id="ytick_1">
     <g id="line2d_15">
      <path d="M 54.442344 265.774289 
L 997.2 265.774289 
" clip-path="url(#pc1b718beb2)" style="fill: none; stroke: #b0b0b0; stroke-opacity: 0.3; stroke-width: 0.8; stroke-linecap: square"/>
     </g>
     <g id="line2d_16">
      <defs>
       <path id="maa8f21b8c8" d="M 0 0 
L -3.5 0 
" style="stroke: #000000; stroke-width: 0.8"/>
      </defs>
      <g>
       <use xlink:href="#maa8f21b8c8" x="54.442344" y="265.774289" style="stroke: #000000; stroke-width: 0.8"/>
      </g>
     </g>
     <g id="text_9">
      <!-- 0.00 -->
      <g transform="translate(25.176719 269.573117) scale(0.1 -0.1)">
       <use xlink:href="#DejaVuSans-13"/>
       <use xlink:href="#DejaVuSans-11" transform="translate(63.625 0)"/>
       <use xlink:href="#DejaVuSans-13" transform="translate(95.40625 0)"/>
       <use xlink:href="#DejaVuSans-13" transform="translate(159.03125 0)"/>
      </g>
     </g>
    </g>
    <g id="ytick_2">
     <g id="line2d_17">
      <path d="M 54.442344 231.494399 
L 997.2 231.494399 
" clip-path="url(#pc1b718beb2)" style="fill: none; stroke: #b0b0b0; stroke-opacity: 0.3; stroke-width: 0.8; stroke-linecap: square"/>
     </g>
     <g id="line2d_18">
      <g>
       <use xlink:href="#maa8f21b8c8" x="54.442344" y="231.494399" style="stroke: #000000; stroke-width: 0.8"/>
      </g>
     </g>
     <g id="text_10">
      <!-- 0.05 -->
      <g transform="translate(25.176719 235.293227) scale(0.1 -0.1)">
       <defs>
        <path id="DejaVuSans-18" d="M 691 4666 
L 3169 4666 
L 3169 4134 
L 1269 4134 
L 1269 2991 
Q 1406 3038 1543 3061 
Q 1681 3084 1819 3084 
Q 2600 3084 3056 2656 
Q 3513 2228 3513 1497 
Q 3513 744 3044 326 
Q 2575 -91 1722 -91 
Q 1428 -91 1123 -41 
Q 819 9 494 109 
L 494 744 
Q 775 591 1075 516 
Q 1375 441 1709 441 
Q 2250 441 2565 725 
Q 2881 1009 2881 1497 
Q 2881 1984 2565 2268 
Q 2250 2553 1709 2553 
Q 1456 2553 1204 2497 
Q 953 2441 691 2322 
L 691 4666 
z
" transform="scale(0.015625)"/>
       </defs>
       <use xlink:href="#DejaVuSans-13"/>
       <use xlink:href="#DejaVuSans-11" transform="translate(63.625 0)"/>
       <use xlink:href="#DejaVuSans-13" transform="translate(95.40625 0)"/>
       <use xlink:href="#DejaVuSans-18" transform="translate(159.03125 0)"/>
      </g>
     </g>
    </g>
    <g id="ytick_3">
     <g id="line2d_19">
      <path d="M 54.442344 197.21451 
L 997.2 197.21451 
" clip-path="url(#pc1b718beb2)" style="fill: none; stroke: #b0b0b0; stroke-opacity: 0.3; stroke-width: 0.8; stroke-linecap: square"/>
     </g>
     <g id="line2d_20">
      <g>
       <use xlink:href="#maa8f21b8c8" x="54.442344" y="197.21451" style="stroke: #000000; stroke-width: 0.8"/>
      </g>
     </g>
     <g id="text_11">
      <!-- 0.10 -->
      <g transform="translate(25.176719 201.013338) scale(0.1 -0.1)">
       <defs>
        <path id="DejaVuSans-14" d="M 794 531 
L 1825 531 
L 1825 4091 
L 703 3866 
L 703 4441 
L 1819 4666 
L 2450 4666 
L 2450 531 
L 3481 531 
L 3481 0 
L 794 0 
L 794 531 
z
" transform="scale(0.015625)"/>
       </defs>
       <use xlink:href="#DejaVuSans-13"/>
       <use xlink:href="#DejaVuSans-11" transform="translate(63.625 0)"/>
       <use xlink:href="#DejaVuSans-14" transform="translate(95.40625 0)"/>
       <use xlink:href="#DejaVuSans-13" transform="translate(159.03125 0)"/>
      </g>
     </g>
    </g>
    <g id="ytick_4">
     <g id="line2d_21">
      <path d="M 54.442344 162.93462 
L 997.2 162.93462 
" clip-path="url(#pc1b718beb2)" style="fill: none; stroke: #b0b0b0; stroke-opacity: 0.3; stroke-width: 0.8; stroke-linecap: square"/>
     </g>
     <g id="line2d_22">
      <g>
       <use xlink:href="#maa8f21b8c8" x="54.442344" y="162.93462" style="stroke: #000000; stroke-width: 0.8"/>
      </g>
     </g>
     <g id="text_12">
      <!-- 0.15 -->
      <g transform="translate(25.176719 166.733448) scale(0.1 -0.1)">
       <use xlink:href="#DejaVuSans-13"/>
       <use xlink:href="#DejaVuSans-11" transform="translate(63.625 0)"/>
       <use xlink:href="#DejaVuSans-14" transform="translate(95.40625 0)"/>
       <use xlink:href="#DejaVuSans-18" transform="translate(159.03125 0)"/>
      </g>
     </g>
    </g>
    <g id="ytick_5">
     <g id="line2d_23">
      <path d="M 54.442344 128.65473 
L 997.2 128.65473 
" clip-path="url(#pc1b718beb2)" style="fill: none; stroke: #b0b0b0; stroke-opacity: 0.3; stroke-width: 0.8; stroke-linecap: square"/>
     </g>
     <g id="line2d_24">
      <g>
       <use xlink:href="#maa8f21b8c8" x="54.442344" y="128.65473" style="stroke: #000000; stroke-width: 0.8"/>
      </g>
     </g>
     <g id="text_13">
      <!-- 0.20 -->
      <g transform="translate(25.176719 132.453559) scale(0.1 -0.1)">
       <use xlink:href="#DejaVuSans-13"/>
       <use xlink:href="#DejaVuSans-11" transform="translate(63.625 0)"/>
       <use xlink:href="#DejaVuSans-15" transform="translate(95.40625 0)"/>
       <use xlink:href="#DejaVuSans-13" transform="translate(159.03125 0)"/>
      </g>
     </g>
    </g>
    <g id="ytick_6">
     <g id="line2d_25">
      <path d="M 54.442344 94.374841 
L 997.2 94.374841 
" clip-path="url(#pc1b718beb2)" style="fill: none; stroke: #b0b0b0; stroke-opacity: 0.3; stroke-width: 0.8; stroke-linecap: square"/>
     </g>
     <g id="line2d_26">
      <g>
       <use xlink:href="#maa8f21b8c8" x="54.442344" y="94.374841" style="stroke: #000000; stroke-width: 0.8"/>
      </g>
     </g>
     <g id="text_14">
      <!-- 0.25 -->
      <g transform="translate(25.176719 98.173669) scale(0.1 -0.1)">
       <use xlink:href="#DejaVuSans-13"/>
       <use xlink:href="#DejaVuSans-11" transform="translate(63.625 0)"/>
       <use xlink:href="#DejaVuSans-15" transform="translate(95.40625 0)"/>
       <use xlink:href="#DejaVuSans-18" transform="translate(159.03125 0)"/>
      </g>
     </g>
    </g>
    <g id="text_15">
     <!-- y (m) -->
     <g transform="translate(18.774375 193.320312) rotate(-90) scale(0.1 -0.1)">
      <defs>
       <path id="DejaVuSans-5c" d="M 2059 -325 
Q 1816 -950 1584 -1140 
Q 1353 -1331 966 -1331 
L 506 -1331 
L 506 -850 
L 844 -850 
Q 1081 -850 1212 -737 
Q 1344 -625 1503 -206 
L 1606 56 
L 191 3500 
L 800 3500 
L 1894 763 
L 2988 3500 
L 3597 3500 
L 2059 -325 
z
" transform="scale(0.015625)"/>
      </defs>
      <use xlink:href="#DejaVuSans-5c"/>
      <use xlink:href="#DejaVuSans-3" transform="translate(59.1875 0)"/>
      <use xlink:href="#DejaVuSans-b" transform="translate(90.96875 0)"/>
      <use xlink:href="#DejaVuSans-50" transform="translate(129.984375 0)"/>
      <use xlink:href="#DejaVuSans-c" transform="translate(227.390625 0)"/>
     </g>
    </g>
   </g>
   <g id="line2d_27">
    <path d="M 114.412912 94.362552 
L 937.179213 94.225711 
L 937.185491 128.507639 
L 920.044944 131.938764 
L 920.06001 224.499554 
L 954.343194 231.350494 
L 954.347379 257.404677 
L 946.121306 265.63368 
L 827.834485 265.657554 
L 827.834485 238.238023 
L 831.486603 238.10196 
L 835.123013 237.737275 
L 838.729418 237.145402 
L 842.291639 236.328668 
L 845.795669 235.290284 
L 849.227733 234.034332 
L 852.574335 232.565752 
L 855.822317 230.890317 
L 858.958909 229.014614 
L 861.971779 226.946019 
L 864.849081 224.692664 
L 867.579502 222.26341 
L 870.152306 219.667807 
L 872.557377 216.916061 
L 874.78526 214.018992 
L 876.827195 210.98799 
L 878.675153 207.834972 
L 880.321868 204.572335 
L 881.760867 201.212907 
L 882.986491 197.769897 
L 883.993922 194.256842 
L 884.779198 190.687554 
L 885.339231 187.076068 
L 885.671821 183.436582 
L 885.775659 179.783406 
L 885.650337 176.130905 
L 885.296347 172.493438 
L 884.715082 168.885308 
L 883.908827 165.320701 
L 882.880752 161.813631 
L 881.634899 158.37789 
L 880.176167 155.026983 
L 878.51029 151.774088 
L 876.643819 148.631993 
L 874.584093 145.613053 
L 872.33921 142.729137 
L 869.917995 139.991584 
L 867.32997 137.411159 
L 864.585309 134.998005 
L 861.694804 132.761612 
L 858.66982 130.710773 
L 855.52225 128.853551 
L 852.264469 127.197247 
L 848.909288 125.748376 
L 845.469897 124.512632 
L 841.95982 123.494874 
L 838.392857 122.699106 
L 834.783033 122.128454 
L 831.144541 121.785163 
L 827.491687 121.670582 
L 823.838832 121.785163 
L 820.20034 122.128454 
L 816.590516 122.699106 
L 813.023553 123.494874 
L 809.513476 124.512632 
L 806.074085 125.748376 
L 802.718904 127.197247 
L 799.461123 128.853551 
L 796.313553 130.710773 
L 793.288569 132.761613 
L 790.398064 134.998005 
L 787.653403 137.411159 
L 785.065378 139.991584 
L 782.644163 142.729137 
L 780.39928 145.613053 
L 778.339554 148.631993 
L 776.473083 151.774088 
L 774.807206 155.026983 
L 773.348474 158.37789 
L 772.102621 161.813632 
L 771.074546 165.320701 
L 770.268291 168.885308 
L 769.687026 172.493438 
L 769.333036 176.130905 
L 769.207714 179.783406 
L 769.311552 183.436582 
L 769.644142 187.076068 
L 770.204175 190.687554 
L 770.989451 194.256842 
L 771.996882 197.769897 
L 773.222506 201.212907 
L 774.661505 204.572335 
L 776.30822 207.834972 
L 778.156178 210.98799 
L 780.198113 214.018992 
L 782.425996 216.916061 
L 784.831068 219.667807 
L 787.403871 222.26341 
L 790.134292 224.692664 
L 793.011594 226.946019 
L 796.024464 229.014614 
L 799.161056 230.890317 
L 802.409038 232.565752 
L 805.75564 234.034332 
L 809.187704 235.290284 
L 812.691734 236.328668 
L 816.253955 237.145402 
L 819.860361 237.737275 
L 823.496771 238.10196 
L 827.148888 238.238023 
L 827.148887 265.657554 
L 676.993997 265.68224 
L 676.993997 238.262709 
L 680.646114 238.126646 
L 684.282524 237.761962 
L 687.888929 237.170088 
L 691.45115 236.353354 
L 694.955181 235.31497 
L 698.387244 234.059019 
L 701.733846 232.590438 
L 704.981829 230.915003 
L 708.118421 229.0393 
L 711.131291 226.970705 
L 714.008593 224.71735 
L 716.739013 222.288096 
L 719.311817 219.692493 
L 721.716889 216.940748 
L 723.944771 214.043678 
L 725.986706 211.012676 
L 727.834664 207.859658 
L 729.48138 204.597021 
L 730.920379 201.237593 
L 732.146003 197.794583 
L 733.153433 194.281528 
L 733.938709 190.71224 
L 734.498743 187.100754 
L 734.831333 183.461268 
L 734.93517 179.808093 
L 734.809848 176.155591 
L 734.455859 172.518125 
L 733.874594 168.909994 
L 733.068339 165.345387 
L 732.040264 161.838318 
L 730.794411 158.402576 
L 729.335678 155.05167 
L 727.669802 151.798774 
L 725.803331 148.65668 
L 723.743605 145.637739 
L 721.498721 142.753823 
L 719.077507 140.016271 
L 716.489482 137.435845 
L 713.744821 135.022692 
L 710.854316 132.786299 
L 707.829331 130.735459 
L 704.681761 128.878237 
L 701.423981 127.221934 
L 698.068799 125.773062 
L 694.629409 124.537318 
L 691.119331 123.519561 
L 687.552368 122.723792 
L 683.942544 122.15314 
L 680.304052 121.809849 
L 676.651198 121.695269 
L 672.998344 121.809849 
L 669.359852 122.15314 
L 665.750028 122.723792 
L 662.183065 123.519561 
L 658.672988 124.537318 
L 655.233597 125.773062 
L 651.878415 127.221934 
L 648.620635 128.878237 
L 645.473065 130.73546 
L 642.448081 132.786299 
L 639.557575 135.022692 
L 636.812915 137.435845 
L 634.224889 140.016271 
L 631.803675 142.753823 
L 629.558791 145.637739 
L 627.499065 148.65668 
L 625.632594 151.798774 
L 623.966718 155.05167 
L 622.507986 158.402576 
L 621.262133 161.838318 
L 620.234057 165.345387 
L 619.427802 168.909994 
L 618.846537 172.518125 
L 618.492548 176.155591 
L 618.367226 179.808093 
L 618.471064 183.461268 
L 618.803653 187.100754 
L 619.363687 190.71224 
L 620.148963 194.281528 
L 621.156393 197.794583 
L 622.382017 201.237593 
L 623.821016 204.597021 
L 625.467732 207.859658 
L 627.31569 211.012676 
L 629.357625 214.043678 
L 631.585508 216.940748 
L 633.990579 219.692493 
L 636.563383 222.288096 
L 639.293803 224.71735 
L 642.171105 226.970705 
L 645.183975 229.0393 
L 648.320568 230.915003 
L 651.56855 232.590438 
L 654.915152 234.059019 
L 658.347215 235.31497 
L 661.851246 236.353354 
L 665.413467 237.170088 
L 669.019872 237.761962 
L 672.656282 238.126646 
L 676.308399 238.262709 
L 676.308399 265.68224 
L 526.153508 265.707769 
L 526.153508 238.288239 
L 529.805626 238.152176 
L 533.442036 237.787491 
L 537.048441 237.195618 
L 540.610662 236.378883 
L 544.114692 235.340499 
L 547.546756 234.084548 
L 550.893358 232.615968 
L 554.14134 230.940532 
L 557.277932 229.06483 
L 560.290802 226.996234 
L 563.168104 224.74288 
L 565.898525 222.313625 
L 568.471328 219.718023 
L 570.8764 216.966277 
L 573.104283 214.069208 
L 575.146218 211.038205 
L 576.994176 207.885187 
L 578.640891 204.62255 
L 580.07989 201.263123 
L 581.305514 197.820112 
L 582.312945 194.307057 
L 583.098221 190.73777 
L 583.658254 187.126283 
L 583.990844 183.486797 
L 584.094682 179.833622 
L 583.96936 176.181121 
L 583.61537 172.543654 
L 583.034105 168.935524 
L 582.22785 165.370916 
L 581.199775 161.863847 
L 579.953922 158.428105 
L 578.49519 155.077199 
L 576.829313 151.824304 
L 574.962842 148.682209 
L 572.903116 145.663268 
L 570.658233 142.779353 
L 568.237018 140.0418 
L 565.648993 137.461374 
L 562.904332 135.048221 
L 560.013827 132.811828 
L 556.988843 130.760989 
L 553.841273 128.903766 
L 550.583492 127.247463 
L 547.228311 125.798591 
L 543.78892 124.562847 
L 540.278843 123.54509 
L 536.71188 122.749321 
L 533.102056 122.178669 
L 529.463564 121.835378 
L 525.810709 121.720798 
L 522.157855 121.835378 
L 518.519363 122.178669 
L 514.909539 122.749321 
L 511.342576 123.54509 
L 507.832499 124.562847 
L 504.393108 125.798591 
L 501.037927 127.247463 
L 497.780146 128.903766 
L 494.632576 130.760989 
L 491.607592 132.811828 
L 488.717087 135.048221 
L 485.972426 137.461374 
L 483.384401 140.0418 
L 480.963186 142.779353 
L 478.718303 145.663269 
L 476.658577 148.682209 
L 474.792106 151.824304 
L 473.126229 155.077199 
L 471.667497 158.428105 
L 470.421644 161.863847 
L 469.393569 165.370916 
L 468.587314 168.935524 
L 468.006049 172.543654 
L 467.652059 176.181121 
L 467.526737 179.833622 
L 467.630575 183.486797 
L 467.963165 187.126283 
L 468.523198 190.73777 
L 469.308474 194.307057 
L 470.315905 197.820113 
L 471.541529 201.263123 
L 472.980528 204.62255 
L 474.627243 207.885187 
L 476.475201 211.038205 
L 478.517136 214.069208 
L 480.745019 216.966277 
L 483.150091 219.718023 
L 485.722894 222.313625 
L 488.453315 224.74288 
L 491.330617 226.996234 
L 494.343487 229.06483 
L 497.480079 230.940532 
L 500.728061 232.615968 
L 504.074663 234.084548 
L 507.506727 235.340499 
L 511.010757 236.378883 
L 514.572978 237.195618 
L 518.179383 237.787491 
L 521.815793 238.152176 
L 525.467911 238.288239 
L 525.467911 265.707769 
L 374.970221 265.728921 
L 374.970221 238.30939 
L 378.622338 238.173327 
L 382.258748 237.808642 
L 385.865154 237.216769 
L 389.427374 236.400035 
L 392.931405 235.361651 
L 396.363469 234.1057 
L 399.71007 232.637119 
L 402.958053 230.961684 
L 406.094645 229.085981 
L 409.107515 227.017386 
L 411.984817 224.764031 
L 414.715237 222.334777 
L 417.288041 219.739174 
L 419.693113 216.987429 
L 421.920996 214.090359 
L 423.96293 211.059357 
L 425.810889 207.906339 
L 427.457604 204.643702 
L 428.896603 201.284274 
L 430.122227 197.841264 
L 431.129658 194.328209 
L 431.914934 190.758921 
L 432.474967 187.147435 
L 432.807557 183.507949 
L 432.911395 179.854774 
L 432.786073 176.202272 
L 432.432083 172.564806 
L 431.850818 168.956675 
L 431.044563 165.392068 
L 430.016488 161.884999 
L 428.770635 158.449257 
L 427.311903 155.098351 
L 425.646026 151.845455 
L 423.779555 148.70336 
L 421.719829 145.68442 
L 419.474946 142.800504 
L 417.053731 140.062952 
L 414.465706 137.482526 
L 411.721045 135.069373 
L 408.83054 132.83298 
L 405.805556 130.78214 
L 402.657986 128.924918 
L 399.400205 127.268615 
L 396.045024 125.819743 
L 392.605633 124.583999 
L 389.095556 123.566242 
L 385.528593 122.770473 
L 381.918769 122.199821 
L 378.280277 121.85653 
L 374.627423 121.741949 
L 370.974568 121.85653 
L 367.336076 122.199821 
L 363.726252 122.770473 
L 360.159289 123.566242 
L 356.649212 124.583999 
L 353.209821 125.819743 
L 349.85464 127.268615 
L 346.596859 128.924918 
L 343.449289 130.78214 
L 340.424305 132.83298 
L 337.5338 135.069373 
L 334.789139 137.482526 
L 332.201114 140.062952 
L 329.779899 142.800504 
L 327.535016 145.68442 
L 325.47529 148.70336 
L 323.608819 151.845455 
L 321.942942 155.09835 
L 320.48421 158.449257 
L 319.238357 161.884999 
L 318.210282 165.392068 
L 317.404027 168.956675 
L 316.822762 172.564805 
L 316.468772 176.202272 
L 316.34345 179.854774 
L 316.447288 183.507949 
L 316.779877 187.147435 
L 317.339911 190.758921 
L 318.125187 194.328209 
L 319.132617 197.841264 
L 320.358242 201.284274 
L 321.79724 204.643702 
L 323.443956 207.906339 
L 325.291914 211.059357 
L 327.333849 214.090359 
L 329.561732 216.987429 
L 331.966803 219.739174 
L 334.539607 222.334777 
L 337.270028 224.764031 
L 340.147329 227.017386 
L 343.160199 229.085981 
L 346.296792 230.961684 
L 349.544774 232.637119 
L 352.891376 234.1057 
L 356.323439 235.361651 
L 359.82747 236.400035 
L 363.389691 237.216769 
L 366.996096 237.808642 
L 370.632506 238.173327 
L 374.284623 238.30939 
L 374.284623 265.728921 
L 224.815331 265.75445 
L 224.815331 238.334919 
L 228.467815 238.198845 
L 232.104592 237.834125 
L 235.711361 237.242195 
L 239.273941 236.42538 
L 242.778325 235.386893 
L 246.210734 234.130817 
L 249.557674 232.662091 
L 252.805984 230.986489 
L 255.942893 229.110599 
L 258.956068 227.041796 
L 261.83366 224.788216 
L 264.564357 222.358718 
L 267.137421 219.762856 
L 269.542736 217.010834 
L 271.770844 214.113474 
L 273.812986 211.082167 
L 275.661131 207.928832 
L 277.308014 204.665867 
L 278.747159 201.306102 
L 279.972908 197.862746 
L 280.980441 194.349337 
L 281.765797 190.77969 
L 282.325888 187.16784 
L 282.658512 183.527988 
L 282.762362 179.874445 
L 282.637028 176.221576 
L 282.283004 172.583743 
L 281.701681 168.975249 
L 280.895346 165.410282 
L 279.867168 161.90286 
L 278.621191 158.466772 
L 277.162312 155.115528 
L 275.496269 151.862304 
L 273.629611 148.719893 
L 271.569677 145.700648 
L 269.324568 142.816442 
L 266.903111 140.078613 
L 264.314825 137.497927 
L 261.569888 135.08453 
L 258.679092 132.847912 
L 255.653804 130.796866 
L 252.505917 128.939456 
L 249.247809 127.282986 
L 245.892289 125.833968 
L 242.452552 124.598099 
L 238.942122 123.580239 
L 235.374799 122.78439 
L 231.764612 122.213681 
L 228.125754 121.870355 
L 224.472532 121.755763 
L 220.81931 121.870355 
L 217.180451 122.213681 
L 213.570264 122.78439 
L 210.002942 123.580239 
L 206.492511 124.598099 
L 203.052774 125.833968 
L 199.697255 127.282986 
L 196.439147 128.939456 
L 193.29126 130.796866 
L 190.265971 132.847912 
L 187.375175 135.08453 
L 184.630238 137.497927 
L 182.041953 140.078613 
L 179.620495 142.816442 
L 177.375386 145.700648 
L 175.315453 148.719893 
L 173.448795 151.862304 
L 171.782751 155.115528 
L 170.323873 158.466772 
L 169.077895 161.90286 
L 168.049717 165.410282 
L 167.243382 168.975249 
L 166.662059 172.583743 
L 166.308035 176.221576 
L 166.182701 179.874445 
L 166.286551 183.527988 
L 166.619175 187.16784 
L 167.179266 190.77969 
L 167.964622 194.349337 
L 168.972156 197.862746 
L 170.197904 201.306102 
L 171.637049 204.665867 
L 173.283932 207.928832 
L 175.132078 211.082167 
L 177.174219 214.113474 
L 179.402328 217.010834 
L 181.807642 219.762856 
L 184.380707 222.358718 
L 187.111403 224.788216 
L 189.988996 227.041796 
L 193.00217 229.110599 
L 196.139079 230.986489 
L 199.387389 232.662091 
L 202.734329 234.130817 
L 206.166739 235.386893 
L 209.671123 236.42538 
L 213.233703 237.242195 
L 216.840471 237.834125 
L 220.477248 238.198845 
L 224.129733 238.334919 
L 224.129733 265.75445 
L 105.52857 265.774289 
L 97.299568 257.547802 
L 97.294964 231.493619 
L 131.575638 224.631791 
L 131.560154 132.070165 
L 114.41919 128.644481 
L 114.412912 94.362552 
L 114.412912 94.362552 
" clip-path="url(#pc1b718beb2)" style="fill: none; stroke: #0000ff; stroke-width: 1.1; stroke-linecap: square"/>
   </g>
   <g id="patch_3">
    <path d="M 54.442344 274.351718 
L 54.442344 85.648282 
" style="fill: none; stroke: #000000; stroke-width: 0.8; stroke-linejoin: miter; stroke-linecap: square"/>
   </g>
   <g id="patch_4">
    <path d="M 997.2 274.351718 
L 997.2 85.648282 
" style="fill: none; stroke: #000000; stroke-width: 0.8; stroke-linejoin: miter; stroke-linecap: square"/>
   </g>
   <g id="patch_5">
    <path d="M 54.442344 274.351718 
L 997.2 274.351718 
" style="fill: none; stroke: #000000; stroke-width: 0.8; stroke-linejoin: miter; stroke-linecap: square"/>
   </g>
   <g id="patch_6">
    <path d="M 54.442344 85.648282 
L 997.2 85.648282 
" style="fill: none; stroke: #000000; stroke-width: 0.8; stroke-linejoin: miter; stroke-linecap: square"/>
   </g>
   <g id="text_16">
    <!-- 1 -->
    <g style="fill: #006400" transform="translate(118.412912 88.362552) scale(0.08 -0.08)">
     <use xlink:href="#DejaVuSans-14"/>
    </g>
   </g>
   <g id="text_17">
    <!-- 2 -->
    <g style="fill: #006400" transform="translate(941.179213 88.225711) scale(0.08 -0.08)">
     <use xlink:href="#DejaVuSans-15"/>
    </g>
   </g>
   <g id="text_18">
    <!-- 3 -->
    <g style="fill: #006400" transform="translate(941.185491 122.507639) scale(0.08 -0.08)">
     <defs>
      <path id="DejaVuSans-16" d="M 2597 2516 
Q 3050 2419 3304 2112 
Q 3559 1806 3559 1356 
Q 3559 666 3084 287 
Q 2609 -91 1734 -91 
Q 1441 -91 1130 -33 
Q 819 25 488 141 
L 488 750 
Q 750 597 1062 519 
Q 1375 441 1716 441 
Q 2309 441 2620 675 
Q 2931 909 2931 1356 
Q 2931 1769 2642 2001 
Q 2353 2234 1838 2234 
L 1294 2234 
L 1294 2753 
L 1863 2753 
Q 2328 2753 2575 2939 
Q 2822 3125 2822 3475 
Q 2822 3834 2567 4026 
Q 2313 4219 1838 4219 
Q 1578 4219 1281 4162 
Q 984 4106 628 3988 
L 628 4550 
Q 988 4650 1302 4700 
Q 1616 4750 1894 4750 
Q 2613 4750 3031 4423 
Q 3450 4097 3450 3541 
Q 3450 3153 3228 2886 
Q 3006 2619 2597 2516 
z
" transform="scale(0.015625)"/>
     </defs>
     <use xlink:href="#DejaVuSans-16"/>
    </g>
   </g>
   <g id="text_19">
    <!-- LA25 VPRO-safe - caminhada continua (1030 vertices, horario (CW)) -->
    <g transform="translate(320.369922 79.648282) scale(0.12 -0.12)">
     <defs>
      <path id="DejaVuSans-2f" d="M 628 4666 
L 1259 4666 
L 1259 531 
L 3531 531 
L 3531 0 
L 628 0 
L 628 4666 
z
" transform="scale(0.015625)"/>
      <path id="DejaVuSans-24" d="M 2188 4044 
L 1331 1722 
L 3047 1722 
L 2188 4044 
z
M 1831 4666 
L 2547 4666 
L 4325 0 
L 3669 0 
L 3244 1197 
L 1141 1197 
L 716 0 
L 50 0 
L 1831 4666 
z
" transform="scale(0.015625)"/>
      <path id="DejaVuSans-39" d="M 1831 0 
L 50 4666 
L 709 4666 
L 2188 738 
L 3669 4666 
L 4325 4666 
L 2547 0 
L 1831 0 
z
" transform="scale(0.015625)"/>
      <path id="DejaVuSans-33" d="M 1259 4147 
L 1259 2394 
L 2053 2394 
Q 2494 2394 2734 2622 
Q 2975 2850 2975 3272 
Q 2975 3691 2734 3919 
Q 2494 4147 2053 4147 
L 1259 4147 
z
M 628 4666 
L 2053 4666 
Q 2838 4666 3239 4311 
Q 3641 3956 3641 3272 
Q 3641 2581 3239 2228 
Q 2838 1875 2053 1875 
L 1259 1875 
L 1259 0 
L 628 0 
L 628 4666 
z
" transform="scale(0.015625)"/>
      <path id="DejaVuSans-35" d="M 2841 2188 
Q 3044 2119 3236 1894 
Q 3428 1669 3622 1275 
L 4263 0 
L 3584 0 
L 2988 1197 
Q 2756 1666 2539 1819 
Q 2322 1972 1947 1972 
L 1259 1972 
L 1259 0 
L 628 0 
L 628 4666 
L 2053 4666 
Q 2853 4666 3247 4331 
Q 3641 3997 3641 3322 
Q 3641 2881 3436 2590 
Q 3231 2300 2841 2188 
z
M 1259 4147 
L 1259 2491 
L 2053 2491 
Q 2509 2491 2742 2702 
Q 2975 2913 2975 3322 
Q 2975 3731 2742 3939 
Q 2509 4147 2053 4147 
L 1259 4147 
z
" transform="scale(0.015625)"/>
      <path id="DejaVuSans-32" d="M 2522 4238 
Q 1834 4238 1429 3725 
Q 1025 3213 1025 2328 
Q 1025 1447 1429 934 
Q 1834 422 2522 422 
Q 3209 422 3611 934 
Q 4013 1447 4013 2328 
Q 4013 3213 3611 3725 
Q 3209 4238 2522 4238 
z
M 2522 4750 
Q 3503 4750 4090 4092 
Q 4678 3434 4678 2328 
Q 4678 1225 4090 567 
Q 3503 -91 2522 -91 
Q 1538 -91 948 565 
Q 359 1222 359 2328 
Q 359 3434 948 4092 
Q 1538 4750 2522 4750 
z
" transform="scale(0.015625)"/>
      <path id="DejaVuSans-10" d="M 313 2009 
L 1997 2009 
L 1997 1497 
L 313 1497 
L 313 2009 
z
" transform="scale(0.015625)"/>
      <path id="DejaVuSans-56" d="M 2834 3397 
L 2834 2853 
Q 2591 2978 2328 3040 
Q 2066 3103 1784 3103 
Q 1356 3103 1142 2972 
Q 928 2841 928 2578 
Q 928 2378 1081 2264 
Q 1234 2150 1697 2047 
L 1894 2003 
Q 2506 1872 2764 1633 
Q 3022 1394 3022 966 
Q 3022 478 2636 193 
Q 2250 -91 1575 -91 
Q 1294 -91 989 -36 
Q 684 19 347 128 
L 347 722 
Q 666 556 975 473 
Q 1284 391 1588 391 
Q 1994 391 2212 530 
Q 2431 669 2431 922 
Q 2431 1156 2273 1281 
Q 2116 1406 1581 1522 
L 1381 1569 
Q 847 1681 609 1914 
Q 372 2147 372 2553 
Q 372 3047 722 3315 
Q 1072 3584 1716 3584 
Q 2034 3584 2315 3537 
Q 2597 3491 2834 3397 
z
" transform="scale(0.015625)"/>
      <path id="DejaVuSans-44" d="M 2194 1759 
Q 1497 1759 1228 1600 
Q 959 1441 959 1056 
Q 959 750 1161 570 
Q 1363 391 1709 391 
Q 2188 391 2477 730 
Q 2766 1069 2766 1631 
L 2766 1759 
L 2194 1759 
z
M 3341 1997 
L 3341 0 
L 2766 0 
L 2766 531 
Q 2569 213 2275 61 
Q 1981 -91 1556 -91 
Q 1019 -91 701 211 
Q 384 513 384 1019 
Q 384 1609 779 1909 
Q 1175 2209 1959 2209 
L 2766 2209 
L 2766 2266 
Q 2766 2663 2505 2880 
Q 2244 3097 1772 3097 
Q 1472 3097 1187 3025 
Q 903 2953 641 2809 
L 641 3341 
Q 956 3463 1253 3523 
Q 1550 3584 1831 3584 
Q 2591 3584 2966 3190 
Q 3341 2797 3341 1997 
z
" transform="scale(0.015625)"/>
      <path id="DejaVuSans-49" d="M 2375 4863 
L 2375 4384 
L 1825 4384 
Q 1516 4384 1395 4259 
Q 1275 4134 1275 3809 
L 1275 3500 
L 2222 3500 
L 2222 3053 
L 1275 3053 
L 1275 0 
L 697 0 
L 697 3053 
L 147 3053 
L 147 3500 
L 697 3500 
L 697 3744 
Q 697 4328 969 4595 
Q 1241 4863 1831 4863 
L 2375 4863 
z
" transform="scale(0.015625)"/>
      <path id="DejaVuSans-48" d="M 3597 1894 
L 3597 1613 
L 953 1613 
Q 991 1019 1311 708 
Q 1631 397 2203 397 
Q 2534 397 2845 478 
Q 3156 559 3463 722 
L 3463 178 
Q 3153 47 2828 -22 
Q 2503 -91 2169 -91 
Q 1331 -91 842 396 
Q 353 884 353 1716 
Q 353 2575 817 3079 
Q 1281 3584 2069 3584 
Q 2775 3584 3186 3129 
Q 3597 2675 3597 1894 
z
M 3022 2063 
Q 3016 2534 2758 2815 
Q 2500 3097 2075 3097 
Q 1594 3097 1305 2825 
Q 1016 2553 972 2059 
L 3022 2063 
z
" transform="scale(0.015625)"/>
      <path id="DejaVuSans-46" d="M 3122 3366 
L 3122 2828 
Q 2878 2963 2633 3030 
Q 2388 3097 2138 3097 
Q 1578 3097 1268 2742 
Q 959 2388 959 1747 
Q 959 1106 1268 751 
Q 1578 397 2138 397 
Q 2388 397 2633 464 
Q 2878 531 3122 666 
L 3122 134 
Q 2881 22 2623 -34 
Q 2366 -91 2075 -91 
Q 1284 -91 818 406 
Q 353 903 353 1747 
Q 353 2603 823 3093 
Q 1294 3584 2113 3584 
Q 2378 3584 2631 3529 
Q 2884 3475 3122 3366 
z
" transform="scale(0.015625)"/>
      <path id="DejaVuSans-4c" d="M 603 3500 
L 1178 3500 
L 1178 0 
L 603 0 
L 603 3500 
z
M 603 4863 
L 1178 4863 
L 1178 4134 
L 603 4134 
L 603 4863 
z
" transform="scale(0.015625)"/>
      <path id="DejaVuSans-51" d="M 3513 2113 
L 3513 0 
L 2938 0 
L 2938 2094 
Q 2938 2591 2744 2837 
Q 2550 3084 2163 3084 
Q 1697 3084 1428 2787 
Q 1159 2491 1159 1978 
L 1159 0 
L 581 0 
L 581 3500 
L 1159 3500 
L 1159 2956 
Q 1366 3272 1645 3428 
Q 1925 3584 2291 3584 
Q 2894 3584 3203 3211 
Q 3513 2838 3513 2113 
z
" transform="scale(0.015625)"/>
      <path id="DejaVuSans-4b" d="M 3513 2113 
L 3513 0 
L 2938 0 
L 2938 2094 
Q 2938 2591 2744 2837 
Q 2550 3084 2163 3084 
Q 1697 3084 1428 2787 
Q 1159 2491 1159 1978 
L 1159 0 
L 581 0 
L 581 4863 
L 1159 4863 
L 1159 2956 
Q 1366 3272 1645 3428 
Q 1925 3584 2291 3584 
Q 2894 3584 3203 3211 
Q 3513 2838 3513 2113 
z
" transform="scale(0.015625)"/>
      <path id="DejaVuSans-47" d="M 2906 2969 
L 2906 4863 
L 3481 4863 
L 3481 0 
L 2906 0 
L 2906 525 
Q 2725 213 2448 61 
Q 2172 -91 1784 -91 
Q 1150 -91 751 415 
Q 353 922 353 1747 
Q 353 2572 751 3078 
Q 1150 3584 1784 3584 
Q 2172 3584 2448 3432 
Q 2725 3281 2906 2969 
z
M 947 1747 
Q 947 1113 1208 752 
Q 1469 391 1925 391 
Q 2381 391 2643 752 
Q 2906 1113 2906 1747 
Q 2906 2381 2643 2742 
Q 2381 3103 1925 3103 
Q 1469 3103 1208 2742 
Q 947 2381 947 1747 
z
" transform="scale(0.015625)"/>
      <path id="DejaVuSans-52" d="M 1959 3097 
Q 1497 3097 1228 2736 
Q 959 2375 959 1747 
Q 959 1119 1226 758 
Q 1494 397 1959 397 
Q 2419 397 2687 759 
Q 2956 1122 2956 1747 
Q 2956 2369 2687 2733 
Q 2419 3097 1959 3097 
z
M 1959 3584 
Q 2709 3584 3137 3096 
Q 3566 2609 3566 1747 
Q 3566 888 3137 398 
Q 2709 -91 1959 -91 
Q 1206 -91 779 398 
Q 353 888 353 1747 
Q 353 2609 779 3096 
Q 1206 3584 1959 3584 
z
" transform="scale(0.015625)"/>
      <path id="DejaVuSans-57" d="M 1172 4494 
L 1172 3500 
L 2356 3500 
L 2356 3053 
L 1172 3053 
L 1172 1153 
Q 1172 725 1289 603 
Q 1406 481 1766 481 
L 2356 481 
L 2356 0 
L 1766 0 
Q 1100 0 847 248 
Q 594 497 594 1153 
L 594 3053 
L 172 3053 
L 172 3500 
L 594 3500 
L 594 4494 
L 1172 4494 
z
" transform="scale(0.015625)"/>
      <path id="DejaVuSans-58" d="M 544 1381 
L 544 3500 
L 1119 3500 
L 1119 1403 
Q 1119 906 1312 657 
Q 1506 409 1894 409 
Q 2359 409 2629 706 
Q 2900 1003 2900 1516 
L 2900 3500 
L 3475 3500 
L 3475 0 
L 2900 0 
L 2900 538 
Q 2691 219 2414 64 
Q 2138 -91 1772 -91 
Q 1169 -91 856 284 
Q 544 659 544 1381 
z
M 1991 3584 
L 1991 3584 
z
" transform="scale(0.015625)"/>
      <path id="DejaVuSans-59" d="M 191 3500 
L 800 3500 
L 1894 563 
L 2988 3500 
L 3597 3500 
L 2284 0 
L 1503 0 
L 191 3500 
z
" transform="scale(0.015625)"/>
      <path id="DejaVuSans-55" d="M 2631 2963 
Q 2534 3019 2420 3045 
Q 2306 3072 2169 3072 
Q 1681 3072 1420 2755 
Q 1159 2438 1159 1844 
L 1159 0 
L 581 0 
L 581 3500 
L 1159 3500 
L 1159 2956 
Q 1341 3275 1631 3429 
Q 1922 3584 2338 3584 
Q 2397 3584 2469 3576 
Q 2541 3569 2628 3553 
L 2631 2963 
z
" transform="scale(0.015625)"/>
      <path id="DejaVuSans-f" d="M 750 794 
L 1409 794 
L 1409 256 
L 897 -744 
L 494 -744 
L 750 256 
L 750 794 
z
" transform="scale(0.015625)"/>
      <path id="DejaVuSans-26" d="M 4122 4306 
L 4122 3641 
Q 3803 3938 3442 4084 
Q 3081 4231 2675 4231 
Q 1875 4231 1450 3742 
Q 1025 3253 1025 2328 
Q 1025 1406 1450 917 
Q 1875 428 2675 428 
Q 3081 428 3442 575 
Q 3803 722 4122 1019 
L 4122 359 
Q 3791 134 3420 21 
Q 3050 -91 2638 -91 
Q 1578 -91 968 557 
Q 359 1206 359 2328 
Q 359 3453 968 4101 
Q 1578 4750 2638 4750 
Q 3056 4750 3426 4639 
Q 3797 4528 4122 4306 
z
" transform="scale(0.015625)"/>
      <path id="DejaVuSans-3a" d="M 213 4666 
L 850 4666 
L 1831 722 
L 2809 4666 
L 3519 4666 
L 4500 722 
L 5478 4666 
L 6119 4666 
L 4947 0 
L 4153 0 
L 3169 4050 
L 2175 0 
L 1381 0 
L 213 4666 
z
" transform="scale(0.015625)"/>
     </defs>
     <use xlink:href="#DejaVuSans-2f"/>
     <use xlink:href="#DejaVuSans-24" transform="translate(58.015625 0)"/>
     <use xlink:href="#DejaVuSans-15" transform="translate(126.421875 0)"/>
     <use xlink:href="#DejaVuSans-18" transform="translate(190.046875 0)"/>
     <use xlink:href="#DejaVuSans-3" transform="translate(253.671875 0)"/>
     <use xlink:href="#DejaVuSans-39" transform="translate(285.453125 0)"/>
     <use xlink:href="#DejaVuSans-33" transform="translate(353.859375 0)"/>
     <use xlink:href="#DejaVuSans-35" transform="translate(414.15625 0)"/>
     <use xlink:href="#DejaVuSans-32" transform="translate(483.640625 0)"/>
     <use xlink:href="#DejaVuSans-10" transform="translate(565.140625 0)"/>
     <use xlink:href="#DejaVuSans-56" transform="translate(601.21875 0)"/>
     <use xlink:href="#DejaVuSans-44" transform="translate(653.3125 0)"/>
     <use xlink:href="#DejaVuSans-49" transform="translate(714.59375 0)"/>
     <use xlink:href="#DejaVuSans-48" transform="translate(749.796875 0)"/>
     <use xlink:href="#DejaVuSans-3" transform="translate(811.328125 0)"/>
     <use xlink:href="#DejaVuSans-10" transform="translate(843.109375 0)"/>
     <use xlink:href="#DejaVuSans-3" transform="translate(879.1875 0)"/>
     <use xlink:href="#DejaVuSans-46" transform="translate(910.96875 0)"/>
     <use xlink:href="#DejaVuSans-44" transform="translate(965.953125 0)"/>
     <use xlink:href="#DejaVuSans-50" transform="translate(1027.234375 0)"/>
     <use xlink:href="#DejaVuSans-4c" transform="translate(1124.640625 0)"/>
     <use xlink:href="#DejaVuSans-51" transform="translate(1152.421875 0)"/>
     <use xlink:href="#DejaVuSans-4b" transform="translate(1215.796875 0)"/>
     <use xlink:href="#DejaVuSans-44" transform="translate(1279.171875 0)"/>
     <use xlink:href="#DejaVuSans-47" transform="translate(1340.453125 0)"/>
     <use xlink:href="#DejaVuSans-44" transform="translate(1403.9375 0)"/>
     <use xlink:href="#DejaVuSans-3" transform="translate(1465.21875 0)"/>
     <use xlink:href="#DejaVuSans-46" transform="translate(1497 0)"/>
     <use xlink:href="#DejaVuSans-52" transform="translate(1551.984375 0)"/>
     <use xlink:href="#DejaVuSans-51" transform="translate(1613.171875 0)"/>
     <use xlink:href="#DejaVuSans-57" transform="translate(1676.546875 0)"/>
     <use xlink:href="#DejaVuSans-4c" transform="translate(1715.75 0)"/>
     <use xlink:href="#DejaVuSans-51" transform="translate(1743.53125 0)"/>
     <use xlink:href="#DejaVuSans-58" transform="translate(1806.90625 0)"/>
     <use xlink:href="#DejaVuSans-44" transform="translate(1870.28125 0)"/>
     <use xlink:href="#DejaVuSans-3" transform="translate(1931.5625 0)"/>
     <use xlink:href="#DejaVuSans-b" transform="translate(1963.34375 0)"/>
     <use xlink:href="#DejaVuSans-14" transform="translate(2002.359375 0)"/>
     <use xlink:href="#DejaVuSans-13" transform="translate(2065.984375 0)"/>
     <use xlink:href="#DejaVuSans-16" transform="translate(2129.609375 0)"/>
     <use xlink:href="#DejaVuSans-13" transform="translate(2193.234375 0)"/>
     <use xlink:href="#DejaVuSans-3" transform="translate(2256.859375 0)"/>
     <use xlink:href="#DejaVuSans-59" transform="translate(2288.640625 0)"/>
     <use xlink:href="#DejaVuSans-48" transform="translate(2347.828125 0)"/>
     <use xlink:href="#DejaVuSans-55" transform="translate(2409.359375 0)"/>
     <use xlink:href="#DejaVuSans-57" transform="translate(2450.46875 0)"/>
     <use xlink:href="#DejaVuSans-4c" transform="translate(2489.671875 0)"/>
     <use xlink:href="#DejaVuSans-46" transform="translate(2517.453125 0)"/>
     <use xlink:href="#DejaVuSans-48" transform="translate(2572.4375 0)"/>
     <use xlink:href="#DejaVuSans-56" transform="translate(2633.96875 0)"/>
     <use xlink:href="#DejaVuSans-f" transform="translate(2686.0625 0)"/>
     <use xlink:href="#DejaVuSans-3" transform="translate(2717.84375 0)"/>
     <use xlink:href="#DejaVuSans-4b" transform="translate(2749.625 0)"/>
     <use xlink:href="#DejaVuSans-52" transform="translate(2813 0)"/>
     <use xlink:href="#DejaVuSans-55" transform="translate(2874.1875 0)"/>
     <use xlink:href="#DejaVuSans-44" transform="translate(2915.296875 0)"/>
     <use xlink:href="#DejaVuSans-55" transform="translate(2976.578125 0)"/>
     <use xlink:href="#DejaVuSans-4c" transform="translate(3017.6875 0)"/>
     <use xlink:href="#DejaVuSans-52" transform="translate(3045.46875 0)"/>
     <use xlink:href="#DejaVuSans-3" transform="translate(3106.65625 0)"/>
     <use xlink:href="#DejaVuSans-b" transform="translate(3138.4375 0)"/>
     <use xlink:href="#DejaVuSans-26" transform="translate(3177.453125 0)"/>
     <use xlink:href="#DejaVuSans-3a" transform="translate(3247.28125 0)"/>
     <use xlink:href="#DejaVuSans-c" transform="translate(3346.15625 0)"/>
     <use xlink:href="#DejaVuSans-c" transform="translate(3385.171875 0)"/>
    </g>
   </g>
   <g id="Quiver_1">
    <path d="M 114.412638 92.712727 
L 125.275777 92.71092 
L 123.625402 89.411542 
L 140.124484 94.358276 
L 123.627049 99.310498 
L 125.276326 96.010572 
L 114.413187 96.012378 
L 114.412638 92.712727 
" clip-path="url(#pc1b718beb2)" style="fill: #ff8c00"/>
    <path d="M 875.417076 210.13155 
L 881.056234 200.84674 
L 877.379556 200.543978 
L 890.174315 189.012109 
L 885.84027 205.68262 
L 883.876472 202.55962 
L 878.237314 211.84443 
L 875.417076 210.13155 
" clip-path="url(#pc1b718beb2)" style="fill: #ff8c00"/>
    <path d="M 868.734935 141.141495 
L 861.163446 133.351736 
L 859.947237 136.834617 
L 851.997311 121.554285 
L 867.045597 129.935154 
L 863.529566 131.051915 
L 871.101056 138.841674 
L 868.734935 141.141495 
" clip-path="url(#pc1b718beb2)" style="fill: #ff8c00"/>
    <path d="M 800.277153 130.287434 
L 790.835869 135.660511 
L 793.901811 137.712248 
L 777.114889 141.570892 
L 789.005635 129.108948 
L 789.20381 132.792744 
L 798.645094 127.419667 
L 800.277153 130.287434 
" clip-path="url(#pc1b718beb2)" style="fill: #ff8c00"/>
    <path d="M 772.582291 193.826975 
L 775.412712 204.314897 
L 778.168526 201.862324 
L 777.688672 219.080327 
L 768.611484 204.441524 
L 772.227032 205.174631 
L 769.396611 194.686708 
L 772.582291 193.826975 
" clip-path="url(#pc1b718beb2)" style="fill: #ff8c00"/>
    <path d="M 828.798714 238.238023 
L 828.798713 249.101162 
L 832.098365 247.451336 
L 827.148887 263.949595 
L 822.19941 247.451336 
L 825.499062 249.101162 
L 825.499062 238.238023 
L 828.798714 238.238023 
" clip-path="url(#pc1b718beb2)" style="fill: #ff8c00"/>
    <path d="M 729.997416 198.996847 
L 733.479583 188.706934 
L 729.825198 189.212002 
L 739.802 175.170874 
L 739.201805 192.385102 
L 736.605119 189.764634 
L 733.122952 200.054547 
L 729.997416 198.996847 
" clip-path="url(#pc1b718beb2)" style="fill: #ff8c00"/>
    <path d="M 708.453611 133.117085 
L 699.367635 127.162856 
L 698.938974 130.82699 
L 687.852633 117.644315 
L 704.364721 122.547462 
L 701.176217 124.403014 
L 710.262193 130.357242 
L 708.453611 133.117085 
" clip-path="url(#pc1b718beb2)" style="fill: #ff8c00"/>
    <path d="M 639.274992 137.429547 
L 631.230179 144.729463 
L 634.669307 146.064389 
L 619.125349 153.485659 
L 628.017312 138.733613 
L 629.012847 142.285871 
L 637.05766 134.985954 
L 639.274992 137.429547 
" clip-path="url(#pc1b718beb2)" style="fill: #ff8c00"/>
    <path d="M 626.079818 205.47487 
L 631.125982 215.09485 
L 633.281647 212.101067 
L 636.562379 229.010434 
L 624.515511 216.699347 
L 628.203937 216.62761 
L 623.157773 207.00763 
L 626.079818 205.47487 
" clip-path="url(#pc1b718beb2)" style="fill: #ff8c00"/>
    <path d="M 533.200402 236.155456 
L 543.9464 234.564442 
L 541.831099 231.542005 
L 558.87635 234.021779 
L 543.280898 241.334216 
L 544.429667 237.828513 
L 533.683669 239.419526 
L 533.200402 236.155456 
" clip-path="url(#pc1b718beb2)" style="fill: #ff8c00"/>
    <path d="M 582.01783 186.950402 
L 583.175908 176.149168 
L 579.719178 177.437829 
L 586.399266 161.561233 
L 589.561723 178.493118 
L 586.456756 176.500931 
L 585.298679 187.302165 
L 582.01783 186.950402 
" clip-path="url(#pc1b718beb2)" style="fill: #ff8c00"/>
    <path d="M 546.646183 127.342305 
L 536.481729 123.509333 
L 536.861187 127.178888 
L 523.170432 116.726467 
L 540.353955 117.916605 
L 537.645985 120.421905 
L 547.810439 124.254877 
L 546.646183 127.342305 
" clip-path="url(#pc1b718beb2)" style="fill: #ff8c00"/>
    <path d="M 480.066403 146.614347 
L 473.804108 155.490802 
L 477.451388 156.044858 
L 463.896302 166.672629 
L 469.362784 150.338388 
L 471.107907 153.588645 
L 477.370202 144.71219 
L 480.066403 146.614347 
" clip-path="url(#pc1b718beb2)" style="fill: #ff8c00"/>
    <path d="M 482.004114 215.90016 
L 489.023871 224.190564 
L 490.475944 220.799235 
L 497.359829 236.588536 
L 482.921375 227.195937 
L 486.505681 226.322798 
L 479.485924 218.032394 
L 482.004114 215.90016 
" clip-path="url(#pc1b718beb2)" style="fill: #ff8c00"/>
    <path d="M 394.066086 233.220319 
L 404.20782 229.327631 
L 401.485163 226.838301 
L 418.661388 225.547119 
L 405.032346 236.079881 
L 405.390215 232.408157 
L 395.248481 236.300846 
L 394.066086 233.220319 
" clip-path="url(#pc1b718beb2)" style="fill: #ff8c00"/>
    <path d="M 430.998234 174.56629 
L 429.776649 163.772055 
L 426.683453 165.782469 
L 429.74627 148.832277 
L 436.519621 164.669309 
L 433.055372 163.401001 
L 434.276957 174.195237 
L 430.998234 174.56629 
" clip-path="url(#pc1b718beb2)" style="fill: #ff8c00"/>
    <path d="M 383.496124 124.090274 
L 372.740955 122.562491 
L 373.910322 126.061378 
L 358.272132 118.840791 
L 375.302504 116.260809 
L 373.205015 119.295635 
L 383.960185 120.823418 
L 383.496124 124.090274 
" clip-path="url(#pc1b718beb2)" style="fill: #ff8c00"/>
    <path d="M 322.710149 157.397089 
L 318.53088 167.424127 
L 322.21129 167.170726 
L 311.295544 180.495003 
L 313.074225 163.362398 
L 315.485192 166.154685 
L 319.664461 156.127646 
L 322.710149 157.397089 
" clip-path="url(#pc1b718beb2)" style="fill: #ff8c00"/>
    <path d="M 339.687759 224.598572 
L 348.344253 231.161568 
L 349.023052 227.535433 
L 359.179754 241.446986 
L 343.04257 235.423598 
L 346.350759 233.790957 
L 337.694265 227.22796 
L 339.687759 224.598572 
" clip-path="url(#pc1b718beb2)" style="fill: #ff8c00"/>
    <path d="M 255.030502 227.736019 
L 264.081304 221.728459 
L 260.881943 219.891691 
L 277.36491 214.891521 
L 266.356288 228.139167 
L 265.906086 224.477617 
L 256.855284 230.485178 
L 255.030502 227.736019 
" clip-path="url(#pc1b718beb2)" style="fill: #ff8c00"/>
    <path d="M 278.307538 162.440892 
L 274.764913 152.171636 
L 272.183684 154.80733 
L 271.482258 137.59693 
L 281.541467 151.57914 
L 277.884174 151.095573 
L 281.426799 161.364828 
L 278.307538 162.440892 
" clip-path="url(#pc1b718beb2)" style="fill: #ff8c00"/>
    <path d="M 220.948512 123.515114 
L 210.118735 124.365834 
L 212.021898 127.52615 
L 195.186701 123.883893 
L 211.246685 117.657596 
L 209.86033 121.076316 
L 220.690108 120.225596 
L 220.948512 123.515114 
" clip-path="url(#pc1b718beb2)" style="fill: #ff8c00"/>
    <path d="M 168.867893 169.263154 
L 166.972204 179.95961 
L 170.509131 178.91091 
L 162.756544 194.292303 
L 160.762065 177.183477 
L 163.723182 179.383799 
L 165.618871 168.687343 
L 168.867893 169.263154 
" clip-path="url(#pc1b718beb2)" style="fill: #ff8c00"/>
    <path d="M 200.073957 231.161907 
L 209.951789 235.682552 
L 209.82474 231.995618 
L 222.766874 243.361842 
L 205.705336 240.996719 
L 208.578654 238.682919 
L 198.700822 234.162275 
L 200.073957 231.161907 
" clip-path="url(#pc1b718beb2)" style="fill: #ff8c00"/>
   </g>
   <g id="legend_1">
    <g id="patch_7">
     <path d="M 827.838281 133.350391 
L 990.9 133.350391 
Q 992.7 133.350391 992.7 131.550391 
L 992.7 91.948282 
Q 992.7 90.148282 990.9 90.148282 
L 827.838281 90.148282 
Q 826.038281 90.148282 826.038281 91.948282 
L 826.038281 131.550391 
Q 826.038281 133.350391 827.838281 133.350391 
z
" style="fill: #ffffff; opacity: 0.8; stroke: #cccccc; stroke-linejoin: miter"/>
    </g>
    <g id="line2d_28">
     <path d="M 829.638281 97.436876 
L 838.638281 97.436876 
L 847.638281 97.436876 
" style="fill: none; stroke: #0000ff; stroke-width: 1.1; stroke-linecap: square"/>
    </g>
    <g id="text_20">
     <!-- contorno (ordem de desenho) -->
     <g transform="translate(854.838281 100.586876) scale(0.09 -0.09)">
      <use xlink:href="#DejaVuSans-46"/>
      <use xlink:href="#DejaVuSans-52" transform="translate(54.984375 0)"/>
      <use xlink:href="#DejaVuSans-51" transform="translate(116.171875 0)"/>
      <use xlink:href="#DejaVuSans-57" transform="translate(179.546875 0)"/>
      <use xlink:href="#DejaVuSans-52" transform="translate(218.75 0)"/>
      <use xlink:href="#DejaVuSans-55" transform="translate(279.9375 0)"/>
      <use xlink:href="#DejaVuSans-51" transform="translate(319.296875 0)"/>
      <use xlink:href="#DejaVuSans-52" transform="translate(382.671875 0)"/>
      <use xlink:href="#DejaVuSans-3" transform="translate(443.859375 0)"/>
      <use xlink:href="#DejaVuSans-b" transform="translate(475.640625 0)"/>
      <use xlink:href="#DejaVuSans-52" transform="translate(514.65625 0)"/>
      <use xlink:href="#DejaVuSans-55" transform="translate(575.84375 0)"/>
      <use xlink:href="#DejaVuSans-47" transform="translate(615.203125 0)"/>
      <use xlink:href="#DejaVuSans-48" transform="translate(678.6875 0)"/>
      <use xlink:href="#DejaVuSans-50" transform="translate(740.21875 0)"/>
      <use xlink:href="#DejaVuSans-3" transform="translate(837.625 0)"/>
      <use xlink:href="#DejaVuSans-47" transform="translate(869.40625 0)"/>
      <use xlink:href="#DejaVuSans-48" transform="translate(932.890625 0)"/>
      <use xlink:href="#DejaVuSans-3" transform="translate(994.421875 0)"/>
      <use xlink:href="#DejaVuSans-47" transform="translate(1026.203125 0)"/>
      <use xlink:href="#DejaVuSans-48" transform="translate(1089.6875 0)"/>
      <use xlink:href="#DejaVuSans-56" transform="translate(1151.21875 0)"/>
      <use xlink:href="#DejaVuSans-48" transform="translate(1203.3125 0)"/>
      <use xlink:href="#DejaVuSans-51" transform="translate(1264.84375 0)"/>
      <use xlink:href="#DejaVuSans-4b" transform="translate(1328.21875 0)"/>
      <use xlink:href="#DejaVuSans-52" transform="translate(1391.59375 0)"/>
      <use xlink:href="#DejaVuSans-c" transform="translate(1452.78125 0)"/>
     </g>
    </g>
    <g id="patch_8">
     <path d="M 829.638281 114.087579 
L 847.638281 114.087579 
L 847.638281 107.787579 
L 829.638281 107.787579 
z
" style="fill: #ff8c00"/>
    </g>
    <g id="text_21">
     <!-- sentido da caminhada -->
     <g transform="translate(854.838281 114.087579) scale(0.09 -0.09)">
      <use xlink:href="#DejaVuSans-56"/>
      <use xlink:href="#DejaVuSans-48" transform="translate(52.09375 0)"/>
      <use xlink:href="#DejaVuSans-51" transform="translate(113.625 0)"/>
      <use xlink:href="#DejaVuSans-57" transform="translate(177 0)"/>
      <use xlink:href="#DejaVuSans-4c" transform="translate(216.203125 0)"/>
      <use xlink:href="#DejaVuSans-47" transform="translate(243.984375 0)"/>
      <use xlink:href="#DejaVuSans-52" transform="translate(307.46875 0)"/>
      <use xlink:href="#DejaVuSans-3" transform="translate(368.65625 0)"/>
      <use xlink:href="#DejaVuSans-47" transform="translate(400.4375 0)"/>
      <use xlink:href="#DejaVuSans-44" transform="translate(463.921875 0)"/>
      <use xlink:href="#DejaVuSans-3" transform="translate(525.203125 0)"/>
      <use xlink:href="#DejaVuSans-46" transform="translate(556.984375 0)"/>
      <use xlink:href="#DejaVuSans-44" transform="translate(611.96875 0)"/>
      <use xlink:href="#DejaVuSans-50" transform="translate(673.25 0)"/>
      <use xlink:href="#DejaVuSans-4c" transform="translate(770.65625 0)"/>
      <use xlink:href="#DejaVuSans-51" transform="translate(798.4375 0)"/>
      <use xlink:href="#DejaVuSans-4b" transform="translate(861.8125 0)"/>
      <use xlink:href="#DejaVuSans-44" transform="translate(925.1875 0)"/>
      <use xlink:href="#DejaVuSans-47" transform="translate(986.46875 0)"/>
      <use xlink:href="#DejaVuSans-44" transform="translate(1049.953125 0)"/>
     </g>
    </g>
    <g id="line2d_29">
     <defs>
      <path id="m2f2e5629cb" d="M 0 -8 
L -1.796112 -2.472136 
L -7.608452 -2.472136 
L -2.90617 0.944272 
L -4.702282 6.472136 
L -0 3.055728 
L 4.702282 6.472136 
L 2.90617 0.944272 
L 7.608452 -2.472136 
L 1.796112 -2.472136 
z
" style="stroke: #006400; stroke-linejoin: bevel"/>
     </defs>
     <g>
      <use xlink:href="#m2f2e5629cb" x="838.638281" y="124.438282" style="fill: #008000; stroke: #006400; stroke-linejoin: bevel"/>
     </g>
    </g>
    <g id="text_22">
     <!-- ponto inicial -->
     <g transform="translate(854.838281 127.588282) scale(0.09 -0.09)">
      <defs>
       <path id="DejaVuSans-53" d="M 1159 525 
L 1159 -1331 
L 581 -1331 
L 581 3500 
L 1159 3500 
L 1159 2969 
Q 1341 3281 1617 3432 
Q 1894 3584 2278 3584 
Q 2916 3584 3314 3078 
Q 3713 2572 3713 1747 
Q 3713 922 3314 415 
Q 2916 -91 2278 -91 
Q 1894 -91 1617 61 
Q 1341 213 1159 525 
z
M 3116 1747 
Q 3116 2381 2855 2742 
Q 2594 3103 2138 3103 
Q 1681 3103 1420 2742 
Q 1159 2381 1159 1747 
Q 1159 1113 1420 752 
Q 1681 391 2138 391 
Q 2594 391 2855 752 
Q 3116 1113 3116 1747 
z
" transform="scale(0.015625)"/>
       <path id="DejaVuSans-4f" d="M 603 4863 
L 1178 4863 
L 1178 0 
L 603 0 
L 603 4863 
z
" transform="scale(0.015625)"/>
      </defs>
      <use xlink:href="#DejaVuSans-53"/>
      <use xlink:href="#DejaVuSans-52" transform="translate(63.484375 0)"/>
      <use xlink:href="#DejaVuSans-51" transform="translate(124.671875 0)"/>
      <use xlink:href="#DejaVuSans-57" transform="translate(188.046875 0)"/>
      <use xlink:href="#DejaVuSans-52" transform="translate(227.25 0)"/>
      <use xlink:href="#DejaVuSans-3" transform="translate(288.4375 0)"/>
      <use xlink:href="#DejaVuSans-4c" transform="translate(320.21875 0)"/>
      <use xlink:href="#DejaVuSans-51" transform="translate(348 0)"/>
      <use xlink:href="#DejaVuSans-4c" transform="translate(411.375 0)"/>
      <use xlink:href="#DejaVuSans-46" transform="translate(439.15625 0)"/>
      <use xlink:href="#DejaVuSans-4c" transform="translate(494.140625 0)"/>
      <use xlink:href="#DejaVuSans-44" transform="translate(521.921875 0)"/>
      <use xlink:href="#DejaVuSans-4f" transform="translate(583.203125 0)"/>
     </g>
    </g>
   </g>
   <g id="line2d_30">
    <g clip-path="url(#pc1b718beb2)">
     <use xlink:href="#m2f2e5629cb" x="114.412912" y="94.362552" style="fill: #008000; stroke: #006400; stroke-linejoin: bevel"/>
    </g>
   </g>
  </g>
 </g>
 <defs>
  <clipPath id="pc1b718beb2">
   <rect x="54.442344" y="85.648282" width="942.757656" height="188.703436"/>
  </clipPath>
 </defs>
</svg>
