999
LibreDWG 0.14.8390
  0
SECTION
  2
HEADER
  9
$ACADVER
  1
AC1015
  9
$ACADMAINTVER
 70
     0
  9
$DWGCODEPAGE
  3
ANSI_1252
  9
$INSBASE
 10
0.0
 20
0.0
 30
0.0
  9
$EXTMIN
 10
1E+20
 20
1E+20
 30
1E+20
  9
$EXTMAX
 10
-1E+20
 20
-1E+20
 30
-1E+20
  9
$LIMMIN
 10
0.0
 20
0.0
  9
$LIMMAX
 10
420.0
 20
297.0
  9
$ORTHOMODE
 70
     0
  9
$REGENMODE
 70
     1
  9
$FILLMODE
 70
     1
  9
$QTEXTMODE
 70
     0
  9
$MIRRTEXT
 70
     1
  9
$LTSCALE
 40
1.0
  9
$ATTMODE
 70
     1
  9
$TEXTSIZE
 40
0.2
  9
$TRACEWID
 40
0.05
  9
$TEXTSTYLE
  7
Standard
  9
$CLAYER
  8
0
  9
$CELTYPE
  6
ByLayer
  9
$CECOLOR
 62
   256
  9
$CELTSCALE
 40
1.0
  9
$DISPSILH
 70
     0
  9
$DIMSCALE
 40
1.0
  9
$DIMASZ
 40
0.18
  9
$DIMEXO
 40
0.0625
  9
$DIMDLI
 40
0.38
  9
$DIMRND
 40
0.0
  9
$DIMDLE
 40
0.0
  9
$DIMEXE
 40
0.18
  9
$DIMTP
 40
0.0
  9
$DIMTM
 40
0.0
  9
$DIMTXT
 40
0.18
  9
$DIMCEN
 40
0.09
  9
$DIMTSZ
 40
0.0
  9
$DIMTOL
 70
     0
  9
$DIMLIM
 70
     0
  9
$DIMTIH
 70
     1
  9
$DIMTOH
 70
     1
  9
$DIMSE1
 70
     0
  9
$DIMSE2
 70
     0
  9
$DIMTAD
 70
     0
  9
$DIMZIN
 70
     0
  9
$DIMBLK
  1

  9
$DIMASO
 70
     1
  9
$DIMSHO
 70
     0
  9
$DIMPOST
  1

  9
$DIMAPOST
  1

  9
$DIMALT
 70
     0
  9
$DIMALTD
 70
     2
  9
$DIMALTF
 40
25.4
  9
$DIMLFAC
 40
1.0
  9
$DIMTOFL
 70
     0
  9
$DIMTVP
 40
0.0
  9
$DIMTIX
 70
     0
  9
$DIMSOXD
 70
     0
  9
$DIMSAH
 70
     0
  9
$DIMBLK1
  1

  9
$DIMBLK2
  1

  9
$DIMSTYLE
  2

  9
$DIMCLRD
 70
     0
  9
$DIMCLRE
 70
     0
  9
$DIMCLRT
 70
     0
  9
$DIMTFAC
 40
1.0
  9
$DIMGAP
 40
0.09
  9
$DIMJUST
 70
     0
  9
$DIMSD1
 70
     0
  9
$DIMSD2
 70
     0
  9
$DIMTOLJ
 70
     1
  9
$DIMTZIN
 70
     0
  9
$DIMALTZ
 70
     0
  9
$DIMALTTZ
 70
     0
  9
$DIMUPT
 70
     0
  9
$DIMDEC
 70
     4
  9
$DIMTDEC
 70
     4
  9
$DIMALTU
 70
     2
  9
$DIMALTTD
 70
     2
  9
$DIMTXSTY
  7
Standard
  9
$DIMAUNIT
 70
     0
  9
$DIMADEC
 70
     0
  9
$DIMALTRND
 40
0.0
  9
$DIMAZIN
 70
     0
  9
$DIMDSEP
 70
     0
  9
$DIMATFIT
 70
     0
  9
$DIMFRAC
 70
     0
  9
$DIMLDRBLK
  1

  9
$DIMLUNIT
 70
     0
  9
$DIMLWD
 70
     0
  9
$DIMLWE
 70
     0
  9
$DIMTMOVE
 70
     0
  9
$LUNITS
 70
     2
  9
$LUPREC
 70
     4
  9
$AXISMODE
 70
     0
  9
$AXISUNIT
 10
0.0
 20
0.0
  9
$SKETCHINC
 40
0.1
  9
$FILLETRAD
 40
0.0
  9
$AUNITS
 70
     0
  9
$AUPREC
 70
     0
  9
$MENU
  1
acad
  9
$ELEVATION
 40
0.0
  9
$PELEVATION
 40
0.0
  9
$THICKNESS
 40
0.0
  9
$LIMCHECK
 70
     0
  9
$CHAMFERA
 40
0.0
  9
$CHAMFERB
 40
0.0
  9
$CHAMFERC
 40
0.0
  9
$CHAMFERD
 40
0.0
  9
$SKPOLY
 70
     0
  9
$TDCREATE
 40
2461223.426480000
  9
$TDUCREATE
 40
2461223.534480000
  9
$TDUPDATE
 40
2461223.426480000
  9
$TDUUPDATE
 40
2461223.534480000
  9
$TDINDWG
 40
0.000000000
  9
$TDUSRTIMER
 40
0.000000000
  9
$USRTIMER
 70
     1
  9
$ANGBASE
 50
0.0
  9
$ANGDIR
 70
     0
  9
$PDMODE
 70
     0
  9
$PDSIZE
 40
0.0
  9
$PLINEWID
 40
0.0
  9
$SPLFRAME
 70
     0
  9
$SPLINETYPE
 70
     6
  9
$SPLINESEGS
 70
     8
  9
$HANDSEED
  5
2D
  9
$SURFTAB1
 70
     6
  9
$SURFTAB2
 70
     6
  9
$SURFTYPE
 70
     6
  9
$SURFU
 70
     6
  9
$SURFV
 70
     6
  9
$UCSBASE
  2

  9
$UCSORG
 10
0.0
 20
0.0
 30
0.0
  9
$UCSXDIR
 10
1.0
 20
0.0
 30
0.0
  9
$UCSYDIR
 10
0.0
 20
1.0
 30
0.0
  9
$UCSORTHOREF
  2

  9
$UCSORTHOVIEW
 70
     0
  9
$UCSORGTOP
 10
0.0
 20
0.0
 30
0.0
  9
$UCSORGBOTTOM
 10
0.0
 20
0.0
 30
0.0
  9
$UCSORGLEFT
 10
0.0
 20
0.0
 30
0.0
  9
$UCSORGRIGHT
 10
0.0
 20
0.0
 30
0.0
  9
$UCSORGFRONT
 10
0.0
 20
0.0
 30
0.0
  9
$UCSORGBACK
 10
0.0
 20
0.0
 30
0.0
  9
$PUCSBASE
  2

  9
$PUCSORG
 10
0.0
 20
0.0
 30
0.0
  9
$PUCSXDIR
 10
1.0
 20
0.0
 30
0.0
  9
$PUCSYDIR
 10
0.0
 20
1.0
 30
0.0
  9
$PUCSORTHOREF
  2

  9
$PUCSORTHOVIEW
 70
     0
  9
$PUCSORGTOP
 10
0.0
 20
0.0
 30
0.0
  9
$PUCSORGBOTTOM
 10
0.0
 20
0.0
 30
0.0
  9
$PUCSORGLEFT
 10
0.0
 20
0.0
 30
0.0
  9
$PUCSORGRIGHT
 10
0.0
 20
0.0
 30
0.0
  9
$PUCSORGFRONT
 10
0.0
 20
0.0
 30
0.0
  9
$PUCSORGBACK
 10
0.0
 20
0.0
 30
0.0
  9
$USERI1
 70
     0
  9
$USERI2
 70
     0
  9
$USERI3
 70
     0
  9
$USERI4
 70
     0
  9
$USERI5
 70
     0
  9
$USERR1
 40
0.0
  9
$USERR2
 40
0.0
  9
$USERR3
 40
0.0
  9
$USERR4
 40
0.0
  9
$USERR5
 40
0.0
  9
$WORLDVIEW
 70
     1
  9
$SHADEDGE
 70
     3
  9
$SHADEDIF
 70
    70
  9
$TILEMODE
 70
     1
  9
$MAXACTVP
 70
    48
  9
$PINSBASE
 10
0.0
 20
0.0
 30
0.0
  9
$PLIMCHECK
 70
     0
  9
$PEXTMIN
 10
1E+20
 20
1E+20
 30
1E+20
  9
$PEXTMAX
 10
-1E+20
 20
-1E+20
 30
-1E+20
  9
$PLIMMIN
 10
0.0
 20
0.0
  9
$PLIMMAX
 10
420.0
 20
297.0
  9
$UNITMODE
 70
     0
  9
$VISRETAIN
 70
     1
  9
$PLINEGEN
 70
     0
  9
$PSLTSCALE
 70
     1
  9
$TREEDEPTH
 70
  3020
  9
$CMLSTYLE
  2
Standard
  9
$CMLJUST
 70
     0
  9
$CMLSCALE
 40
20.0
  9
$PROXYGRAPHICS
 70
     1
  9
$MEASUREMENT
 70
     1
  9
$CELWEIGHT
370
    -1
  9
$ENDCAPS
280
     0
  9
$JOINSTYLE
280
     0
  9
$LWDISPLAY
290
     0
  9
$INSUNITS
 70
     6
  9
$HYPERLINKBASE
  1

  9
$STYLESHEET
  1

  9
$XEDIT
290
     1
  9
$CEPSNTYPE
380
     0
  9
$PSTYLEMODE
290
     1
  9
$FINGERPRINTGUID
  2

  9
$VERSIONGUID
  2

  9
$EXTNAMES
290
     1
  9
$PSVPSCALE
 40
0.0
  9
$OLESTARTUP
290
     0
  0
ENDSEC
  0
SECTION
  2
CLASSES
  0
CLASS
  1
ACDBDICTIONARYWDFLT
  2
AcDbDictionaryWithDefault
  3
AutoCAD 2000
 90
        0
280
     0
281
     0
  0
CLASS
  1
ACDBPLACEHOLDER
  2
AcDbPlaceHolder
  3
AutoCAD 2000
 90
        0
280
     0
281
     0
  0
CLASS
  1
LAYOUT
  2
AcDbLayout
  3
AutoCAD 2000
 90
        0
280
     0
281
     0
  0
ENDSEC
  0
SECTION
  2
TABLES
  0
TABLE
  2
VPORT
  5
8
330
0
100
AcDbSymbolTable
 70
     1
  0
VPORT
  5
26
330
8
100
AcDbSymbolTableRecord
100
AcDbViewportTableRecord
  2
*Active
 70
     0
 10
0.0
 20
0.0
 11
1.0
 21
1.0
 12
5771.99757
 22
789.325613
 13
0.0
 23
0.0
 14
10.0
 24
10.0
 15
10.0
 25
10.0
 16
0.0
 26
0.0
 36
1.0
 17
0.0
 27
0.0
 37
0.0
 40
13314.951254
 41
1.42723004699631
 42
50.0
 43
0.0
 44
0.0
 50
0.0
 51
0.0
 71
     0
 72
  1000
 73
     1
 74
     3
 75
     0
 76
     0
 77
     0
 78
     0
281
     0
 65
     1
110
0.0
120
0.0
130
0.0
111
1.0
121
0.0
131
0.0
112
0.0
122
1.0
132
0.0
 79
     0
146
0.0
  0
ENDTAB
  0
TABLE
  2
LTYPE
  5
5
330
0
100
AcDbSymbolTable
 70
     1
  0
LTYPE
  5
14
330
5
100
AcDbSymbolTableRecord
100
AcDbLinetypeTableRecord
  2
ByBlock
 70
     0
  3

 72
    65
 73
     0
 40
0.0
  0
LTYPE
  5
15
330
5
100
AcDbSymbolTableRecord
100
AcDbLinetypeTableRecord
  2
ByLayer
 70
     0
  3

 72
    65
 73
     0
 40
0.0
  0
LTYPE
  5
16
330
5
100
AcDbSymbolTableRecord
100
AcDbLinetypeTableRecord
  2
CONTINUOUS
 70
     0
  3
Solid line
 72
    65
 73
     0
 40
0.0
  0
ENDTAB
  0
TABLE
  2
LAYER
  5
2
330
0
100
AcDbSymbolTable
 70
     1
  0
LAYER
  5
10
330
2
100
AcDbSymbolTableRecord
100
AcDbLayerTableRecord
  2
0
 70
     0
 62
     7
  6
CONTINUOUS
290
     0
390
F
  0
ENDTAB
  0
TABLE
  2
STYLE
  5
3
330
0
100
AcDbSymbolTable
 70
     1
  0
STYLE
  5
11
330
3
100
AcDbSymbolTableRecord
100
AcDbTextStyleTableRecord
  2
Standard
 70
     0
 40
0.0
 41
1.0
 50
0.0
 71
     0
 42
0.2
  3
txt
  4

  0
ENDTAB
  0
TABLE
  2
VIEW
  5
6
330
0
100
AcDbSymbolTable
 70
     0
  0
ENDTAB
  0
TABLE
  2
UCS
  5
7
330
0
100
AcDbSymbolTable
 70
     0
  0
ENDTAB
  0
TABLE
  2
APPID
  5
9
330
0
100
AcDbSymbolTable
 70
     1
  0
APPID
  5
12
330
9
100
AcDbSymbolTableRecord
100
AcDbRegAppTableRecord
  2
ACAD
 70
     0
  0
ENDTAB
  0
TABLE
  2
DIMSTYLE
  5
A
330
0
100
AcDbSymbolTable
 70
     0
100
AcDbDimStyleTable
 71
     0
  0
ENDTAB
  0
TABLE
  2
BLOCK_RECORD
  5
1
330
0
100
AcDbSymbolTable
 70
     0
  0
BLOCK_RECORD
  5
1F
330
1
100
AcDbSymbolTableRecord
100
AcDbBlockTableRecord
  2
*MODEL_SPACE
340
27
310

  0
BLOCK_RECORD
  5
20
330
1
100
AcDbSymbolTableRecord
100
AcDbBlockTableRecord
  2
*PAPER_SPACE
340
29
310

  0
ENDTAB
  0
ENDSEC
  0
SECTION
  2
BLOCKS
  0
BLOCK
  5
24
330
1F
100
AcDbEntity
  8
0
100
AcDbBlockBegin
  2
*MODEL_SPACE
 70
     0
 10
0.0
 20
0.0
 30
0.0
  3
*MODEL_SPACE
  1

  0
ENDBLK
  5
25
330
1F
100
AcDbEntity
  8
0
100
AcDbBlockEnd
  0
BLOCK
  5
21
330
20
100
AcDbEntity
 67
     1
  8
0
100
AcDbBlockBegin
  2
*PAPER_SPACE
 70
     0
 10
0.0
 20
0.0
 30
0.0
  3
*PAPER_SPACE
  1

  0
ENDBLK
  5
22
330
20
100
AcDbEntity
 67
     1
  8
0
100
AcDbBlockEnd
  0
ENDSEC
  0
SECTION
  2
ENTITIES
  0
LWPOLYLINE
  5
2C
330
1F
100
AcDbEntity
  8
0
100
AcDbPolyline
 90
     1035
 70
     1
 43
0.0
 10
-0.615
 20
0.0
 10
-0.462863591
 20
0.0
 10
-0.462863591
 20
0.034500674
 10
-0.465938011
 20
0.034560324
 10
-0.469009046
 20
0.034716401
 10
-0.472073673
 20
0.03496875
 10
-0.475128874
 20
0.035317123
 10
-0.478171641
 20
0.035761178
 10
-0.481198979
 20
0.036300477
 10
-0.484207907
 20
0.03693449
 10
-0.487195462
 20
0.037662591
 10
-0.490158703
 20
0.038484064
 10
-0.493094713
 20
0.039398101
 10
-0.496000601
 20
0.040403802
 10
-0.498873505
 20
0.041500175
 10
-0.501710599
 20
0.042686143
 10
-0.504509087
 20
0.043960536
 10
-0.507266215
 20
0.045322102
 10
-0.509979269
 20
0.046769498
 10
-0.512645578
 20
0.0483013
 10
-0.515262515
 20
0.049916
 10
-0.517827505
 20
0.051612008
 10
-0.520338022
 20
0.053387655
 10
-0.5227915950000001
 20
0.055241191
 10
-0.525185808
 20
0.057170793
 10
-0.527518303
 20
0.059174559
 10
-0.529786785
 20
0.061250519
 10
-0.53198902
 20
0.063396627
 10
-0.534122839
 20
0.065610771
 10
-0.536186142
 20
0.067890771
 10
-0.538176897
 20
0.070234381
 10
-0.540093144
 20
0.07263929600000001
 10
-0.5419329980000001
 20
0.075103146
 10
-0.543694645
 20
0.07762350599999999
 10
-0.545376352
 20
0.08019789500000001
 10
-0.546976464
 20
0.082823777
 10
-0.548493404
 20
0.085498569
 10
-0.549925679
 20
0.088219636
 10
-0.551271879
 20
0.090984299
 10
-0.552530679
 20
0.093789836
 10
-0.55370084
 20
0.096633486
 10
-0.554781208
 20
0.099512447
 10
-0.555770721
 20
0.102423887
 10
-0.556668405
 20
0.105364938
 10
-0.557473375
 20
0.108332705
 10
-0.558184838
 20
0.111324266
 10
-0.558802096
 20
0.114336676
 10
-0.559324539
 20
0.117366968
 10
-0.559751653
 20
0.120412159
 10
-0.560083019
 20
0.123469251
 10
-0.560318309
 20
0.126535235
 10
-0.5604572920000001
 20
0.129607091
 10
-0.560499831
 20
0.132681796
 10
-0.560445885
 20
0.135756321
 10
-0.560295506
 20
0.138827641
 10
-0.560048842
 20
0.14189273
 10
-0.559706137
 20
0.144948572
 10
-0.559267727
 20
0.147992158
 10
-0.558734045
 20
0.151020491
 10
-0.558105615
 20
0.15403059
 10
-0.557383057
 20
0.15701949
 10
-0.556567082
 20
0.15998425
 10
-0.555658494
 20
0.162921951
 10
-0.5546581860000001
 20
0.165829699
 10
-0.553567143
 20
0.168704633
 10
-0.552386441
 20
0.171543921
 10
-0.551117241
 20
0.174344769
 10
-0.5497607920000001
 20
0.177104418
 10
-0.548318431
 20
0.179820153
 10
-0.546791578
 20
0.182489298
 10
-0.545181735
 20
0.185109226
 10
-0.543490488
 20
0.187677358
 10
-0.541719502
 20
0.190191165
 10
-0.539870521
 20
0.192648172
 10
-0.537945364
 20
0.19504596
 10
-0.535945927
 20
0.197382168
 10
-0.533874179
 20
0.199654497
 10
-0.53173216
 20
0.201860709
 10
-0.529521979
 20
0.203998632
 10
-0.52724581
 20
0.206066161
 10
-0.524905897
 20
0.20806126
 10
-0.522504541
 20
0.209981966
 10
-0.520044108
 20
0.211826386
 10
-0.517527021
 20
0.213592706
 10
-0.514955756
 20
0.215279186
 10
-0.512332846
 20
0.216884166
 10
-0.509660873
 20
0.218406065
 10
-0.506942468
 20
0.219843386
 10
-0.504180307
 20
0.221194713
 10
-0.501377109
 20
0.222458715
 10
-0.498535636
 20
0.223634148
 10
-0.495658683
 20
0.224719856
 10
-0.492749084
 20
0.225714768
 10
-0.489809703
 20
0.226617905
 10
-0.486843434
 20
0.227428379
 10
-0.483853198
 20
0.228145391
 10
-0.480841939
 20
0.228768236
 10
-0.477812622
 20
0.2292963
 10
-0.474768228
 20
0.229729062
 10
-0.471711755
 20
0.230066098
 10
-0.468646213
 20
0.230307076
 10
-0.46557462
 20
0.230451757
 10
-0.4625
 20
0.2305
 10
-0.45942538
 20
0.230451757
 10
-0.456353787
 20
0.230307076
 10
-0.453288245
 20
0.230066098
 10
-0.450231772
 20
0.229729062
 10
-0.447187378
 20
0.2292963
 10
-0.444158061
 20
0.228768236
 10
-0.441146802
 20
0.228145391
 10
-0.438156566
 20
0.227428379
 10
-0.435190297
 20
0.226617905
 10
-0.432250916
 20
0.225714768
 10
-0.429341317
 20
0.224719856
 10
-0.426464364
 20
0.223634148
 10
-0.423622891
 20
0.222458715
 10
-0.420819693
 20
0.221194713
 10
-0.418057532
 20
0.219843386
 10
-0.415339127
 20
0.218406065
 10
-0.412667154
 20
0.216884166
 10
-0.410044244
 20
0.215279186
 10
-0.407472979
 20
0.213592706
 10
-0.404955892
 20
0.211826386
 10
-0.402495459
 20
0.209981966
 10
-0.400094103
 20
0.20806126
 10
-0.39775419
 20
0.206066161
 10
-0.395478021
 20
0.203998632
 10
-0.39326784
 20
0.201860709
 10
-0.391125821
 20
0.199654497
 10
-0.389054073
 20
0.197382168
 10
-0.387054636
 20
0.19504596
 10
-0.385129479
 20
0.192648172
 10
-0.383280498
 20
0.190191165
 10
-0.381509512
 20
0.187677358
 10
-0.379818265
 20
0.185109226
 10
-0.378208422
 20
0.182489298
 10
-0.376681569
 20
0.179820153
 10
-0.375239208
 20
0.177104418
 10
-0.373882759
 20
0.174344769
 10
-0.372613559
 20
0.171543921
 10
-0.371432857
 20
0.168704633
 10
-0.370341814
 20
0.165829699
 10
-0.369341506
 20
0.162921951
 10
-0.368432918
 20
0.15998425
 10
-0.367616943
 20
0.15701949
 10
-0.366894385
 20
0.15403059
 10
-0.366265955
 20
0.151020491
 10
-0.365732273
 20
0.147992158
 10
-0.365293863
 20
0.144948572
 10
-0.364951158
 20
0.14189273
 10
-0.364704494
 20
0.138827641
 10
-0.364554115
 20
0.135756321
 10
-0.364500169
 20
0.132681796
 10
-0.364542708
 20
0.129607091
 10
-0.364681691
 20
0.126535235
 10
-0.364916981
 20
0.123469251
 10
-0.365248347
 20
0.120412159
 10
-0.365675461
 20
0.117366968
 10
-0.366197904
 20
0.114336676
 10
-0.366815162
 20
0.111324266
 10
-0.367526625
 20
0.108332705
 10
-0.368331595
 20
0.105364938
 10
-0.369229279
 20
0.102423887
 10
-0.370218792
 20
0.099512447
 10
-0.37129916
 20
0.096633486
 10
-0.372469321
 20
0.093789836
 10
-0.373728121
 20
0.090984299
 10
-0.375074321
 20
0.088219636
 10
-0.376506596
 20
0.085498569
 10
-0.378023536
 20
0.082823777
 10
-0.379623648
 20
0.08019789500000001
 10
-0.381305355
 20
0.07762350599999999
 10
-0.383067002
 20
0.075103146
 10
-0.384906856
 20
0.07263929600000001
 10
-0.386823103
 20
0.070234381
 10
-0.388813858
 20
0.067890771
 10
-0.390877161
 20
0.065610771
 10
-0.39301098
 20
0.063396627
 10
-0.395213215
 20
0.061250519
 10
-0.397481697
 20
0.059174559
 10
-0.399814192
 20
0.057170793
 10
-0.402208405
 20
0.055241191
 10
-0.404661978
 20
0.053387655
 10
-0.407172495
 20
0.051612008
 10
-0.409737485
 20
0.049916
 10
-0.412354422
 20
0.0483013
 10
-0.415020731
 20
0.046769498
 10
-0.417733785
 20
0.045322102
 10
-0.420490913
 20
0.043960536
 10
-0.423289401
 20
0.042686143
 10
-0.426126495
 20
0.041500175
 10
-0.428999399
 20
0.040403802
 10
-0.431905287
 20
0.039398101
 10
-0.434841297
 20
0.038484064
 10
-0.437804538
 20
0.037662591
 10
-0.440792093
 20
0.03693449
 10
-0.443801021
 20
0.036300477
 10
-0.446828359
 20
0.035761178
 10
-0.449871126
 20
0.035317123
 10
-0.452926327
 20
0.03496875
 10
-0.455990954
 20
0.034716401
 10
-0.459061989
 20
0.034560324
 10
-0.462136409
 20
0.034500674
 10
-0.462136409
 20
0.0
 10
-0.231613591
 20
0.0
 10
-0.231613591
 20
0.034500674
 10
-0.234688011
 20
0.034560324
 10
-0.237759046
 20
0.034716401
 10
-0.240823673
 20
0.03496875
 10
-0.243878874
 20
0.035317123
 10
-0.246921641
 20
0.035761178
 10
-0.249948979
 20
0.036300477
 10
-0.252957907
 20
0.03693449
 10
-0.255945462
 20
0.037662591
 10
-0.258908703
 20
0.038484064
 10
-0.261844713
 20
0.039398101
 10
-0.264750601
 20
0.040403802
 10
-0.267623505
 20
0.041500175
 10
-0.270460599
 20
0.042686143
 10
-0.273259087
 20
0.043960536
 10
-0.276016215
 20
0.045322102
 10
-0.278729269
 20
0.046769498
 10
-0.281395578
 20
0.0483013
 10
-0.284012515
 20
0.049916
 10
-0.286577505
 20
0.051612008
 10
-0.289088022
 20
0.053387655
 10
-0.291541595
 20
0.055241191
 10
-0.293935808
 20
0.057170793
 10
-0.296268303
 20
0.059174559
 10
-0.298536785
 20
0.061250519
 10
-0.30073902
 20
0.063396627
 10
-0.302872839
 20
0.065610771
 10
-0.304936142
 20
0.067890771
 10
-0.306926897
 20
0.070234381
 10
-0.308843144
 20
0.07263929600000001
 10
-0.310682998
 20
0.075103146
 10
-0.312444645
 20
0.07762350599999999
 10
-0.314126352
 20
0.08019789500000001
 10
-0.315726464
 20
0.082823777
 10
-0.317243404
 20
0.085498569
 10
-0.318675679
 20
0.088219636
 10
-0.320021879
 20
0.090984299
 10
-0.321280679
 20
0.093789836
 10
-0.32245084
 20
0.096633486
 10
-0.323531208
 20
0.099512447
 10
-0.324520721
 20
0.102423887
 10
-0.325418405
 20
0.105364938
 10
-0.326223375
 20
0.108332705
 10
-0.326934838
 20
0.111324266
 10
-0.327552096
 20
0.114336676
 10
-0.328074539
 20
0.117366968
 10
-0.328501653
 20
0.120412159
 10
-0.328833019
 20
0.123469251
 10
-0.329068309
 20
0.126535235
 10
-0.329207292
 20
0.129607091
 10
-0.329249831
 20
0.132681796
 10
-0.329195885
 20
0.135756321
 10
-0.329045506
 20
0.138827641
 10
-0.328798842
 20
0.14189273
 10
-0.328456137
 20
0.144948572
 10
-0.328017727
 20
0.147992158
 10
-0.327484045
 20
0.151020491
 10
-0.326855615
 20
0.15403059
 10
-0.326133057
 20
0.15701949
 10
-0.325317082
 20
0.15998425
 10
-0.324408494
 20
0.162921951
 10
-0.323408186
 20
0.165829699
 10
-0.322317143
 20
0.168704633
 10
-0.321136441
 20
0.171543921
 10
-0.319867241
 20
0.174344769
 10
-0.318510792
 20
0.177104418
 10
-0.317068431
 20
0.179820153
 10
-0.315541578
 20
0.182489298
 10
-0.313931735
 20
0.185109226
 10
-0.312240488
 20
0.187677358
 10
-0.310469502
 20
0.190191165
 10
-0.308620521
 20
0.192648172
 10
-0.306695364
 20
0.19504596
 10
-0.304695927
 20
0.197382168
 10
-0.302624179
 20
0.199654497
 10
-0.30048216
 20
0.201860709
 10
-0.298271979
 20
0.203998632
 10
-0.29599581
 20
0.206066161
 10
-0.293655897
 20
0.20806126
 10
-0.291254541
 20
0.209981966
 10
-0.288794108
 20
0.211826386
 10
-0.286277021
 20
0.213592706
 10
-0.283705756
 20
0.215279186
 10
-0.281082846
 20
0.216884166
 10
-0.278410873
 20
0.218406065
 10
-0.275692468
 20
0.219843386
 10
-0.272930307
 20
0.221194713
 10
-0.270127109
 20
0.222458715
 10
-0.267285636
 20
0.223634148
 10
-0.264408683
 20
0.224719856
 10
-0.261499084
 20
0.225714768
 10
-0.258559703
 20
0.226617905
 10
-0.255593434
 20
0.227428379
 10
-0.252603198
 20
0.228145391
 10
-0.249591939
 20
0.228768236
 10
-0.246562622
 20
0.2292963
 10
-0.243518228
 20
0.229729062
 10
-0.240461755
 20
0.230066098
 10
-0.237396213
 20
0.230307076
 10
-0.23432462
 20
0.230451757
 10
-0.23125
 20
0.2305
 10
-0.22817538
 20
0.230451757
 10
-0.225103787
 20
0.230307076
 10
-0.222038245
 20
0.230066098
 10
-0.218981772
 20
0.229729062
 10
-0.215937378
 20
0.2292963
 10
-0.212908061
 20
0.228768236
 10
-0.209896802
 20
0.228145391
 10
-0.206906566
 20
0.227428379
 10
-0.203940297
 20
0.226617905
 10
-0.201000916
 20
0.225714768
 10
-0.198091317
 20
0.224719856
 10
-0.195214364
 20
0.223634148
 10
-0.192372891
 20
0.222458715
 10
-0.189569693
 20
0.221194713
 10
-0.186807532
 20
0.219843386
 10
-0.184089127
 20
0.218406065
 10
-0.181417154
 20
0.216884166
 10
-0.178794244
 20
0.215279186
 10
-0.176222979
 20
0.213592706
 10
-0.173705892
 20
0.211826386
 10
-0.171245459
 20
0.209981966
 10
-0.168844103
 20
0.20806126
 10
-0.16650419
 20
0.206066161
 10
-0.164228021
 20
0.203998632
 10
-0.16201784
 20
0.201860709
 10
-0.159875821
 20
0.199654497
 10
-0.157804073
 20
0.197382168
 10
-0.155804636
 20
0.19504596
 10
-0.153879479
 20
0.192648172
 10
-0.152030498
 20
0.190191165
 10
-0.150259512
 20
0.187677358
 10
-0.148568265
 20
0.185109226
 10
-0.146958422
 20
0.182489298
 10
-0.145431569
 20
0.179820153
 10
-0.143989208
 20
0.177104418
 10
-0.142632759
 20
0.174344769
 10
-0.141363559
 20
0.171543921
 10
-0.140182857
 20
0.168704633
 10
-0.139091814
 20
0.165829699
 10
-0.138091506
 20
0.162921951
 10
-0.137182918
 20
0.15998425
 10
-0.136366943
 20
0.15701949
 10
-0.135644385
 20
0.15403059
 10
-0.135015955
 20
0.151020491
 10
-0.134482273
 20
0.147992158
 10
-0.134043863
 20
0.144948572
 10
-0.133701158
 20
0.14189273
 10
-0.133454494
 20
0.138827641
 10
-0.133304115
 20
0.135756321
 10
-0.133250169
 20
0.132681796
 10
-0.133292708
 20
0.129607091
 10
-0.133431691
 20
0.126535235
 10
-0.133666981
 20
0.123469251
 10
-0.133998347
 20
0.120412159
 10
-0.134425461
 20
0.117366968
 10
-0.134947904
 20
0.114336676
 10
-0.135565162
 20
0.111324266
 10
-0.136276625
 20
0.108332705
 10
-0.137081595
 20
0.105364938
 10
-0.137979279
 20
0.102423887
 10
-0.138968792
 20
0.099512447
 10
-0.14004916
 20
0.096633486
 10
-0.141219321
 20
0.093789836
 10
-0.142478121
 20
0.090984299
 10
-0.143824321
 20
0.088219636
 10
-0.145256596
 20
0.085498569
 10
-0.146773536
 20
0.082823777
 10
-0.148373648
 20
0.08019789500000001
 10
-0.150055355
 20
0.07762350599999999
 10
-0.151817002
 20
0.075103146
 10
-0.153656856
 20
0.07263929600000001
 10
-0.155573103
 20
0.070234381
 10
-0.157563858
 20
0.067890771
 10
-0.159627161
 20
0.065610771
 10
-0.16176098
 20
0.063396627
 10
-0.163963215
 20
0.061250519
 10
-0.166231697
 20
0.059174559
 10
-0.168564192
 20
0.057170793
 10
-0.170958405
 20
0.055241191
 10
-0.173411978
 20
0.053387655
 10
-0.175922495
 20
0.051612008
 10
-0.178487485
 20
0.049916
 10
-0.181104422
 20
0.0483013
 10
-0.183770731
 20
0.046769498
 10
-0.186483785
 20
0.045322102
 10
-0.189240913
 20
0.043960536
 10
-0.192039401
 20
0.042686143
 10
-0.194876495
 20
0.041500175
 10
-0.197749399
 20
0.040403802
 10
-0.200655287
 20
0.039398101
 10
-0.203591297
 20
0.038484064
 10
-0.206554538
 20
0.037662591
 10
-0.209542093
 20
0.03693449
 10
-0.212551021
 20
0.036300477
 10
-0.215578359
 20
0.035761178
 10
-0.218621126
 20
0.035317123
 10
-0.221676327
 20
0.03496875
 10
-0.224740954
 20
0.034716401
 10
-0.227811989
 20
0.034560324
 10
-0.230886409
 20
0.034500674
 10
-0.230886409
 20
0.0
 10
-0.000363591
 20
0.0
 10
-0.000363591
 20
0.034500674
 10
-0.003438011
 20
0.034560324
 10
-0.006509046
 20
0.034716401
 10
-0.009573673
 20
0.03496875
 10
-0.012628874
 20
0.035317123
 10
-0.015671641
 20
0.035761178
 10
-0.018698979
 20
0.036300477
 10
-0.021707907
 20
0.03693449
 10
-0.024695462
 20
0.037662591
 10
-0.027658703
 20
0.038484064
 10
-0.030594713
 20
0.039398101
 10
-0.033500601
 20
0.040403802
 10
-0.036373505
 20
0.041500175
 10
-0.039210599
 20
0.042686143
 10
-0.042009087
 20
0.043960536
 10
-0.044766215
 20
0.045322102
 10
-0.047479269
 20
0.046769498
 10
-0.050145578
 20
0.0483013
 10
-0.052762515
 20
0.049916
 10
-0.055327505
 20
0.051612008
 10
-0.057838022
 20
0.053387655
 10
-0.060291595
 20
0.055241191
 10
-0.062685808
 20
0.057170793
 10
-0.065018303
 20
0.059174559
 10
-0.067286785
 20
0.061250519
 10
-0.06948902
 20
0.063396627
 10
-0.07162283899999999
 20
0.065610771
 10
-0.073686142
 20
0.067890771
 10
-0.07567689700000001
 20
0.070234381
 10
-0.077593144
 20
0.07263929600000001
 10
-0.079432998
 20
0.075103146
 10
-0.081194645
 20
0.07762350599999999
 10
-0.082876352
 20
0.08019789500000001
 10
-0.084476464
 20
0.082823777
 10
-0.085993404
 20
0.085498569
 10
-0.08742567900000001
 20
0.088219636
 10
-0.088771879
 20
0.090984299
 10
-0.090030679
 20
0.093789836
 10
-0.09120084000000001
 20
0.096633486
 10
-0.092281208
 20
0.099512447
 10
-0.093270721
 20
0.102423887
 10
-0.094168405
 20
0.105364938
 10
-0.094973375
 20
0.108332705
 10
-0.09568483799999999
 20
0.111324266
 10
-0.096302096
 20
0.114336676
 10
-0.096824539
 20
0.117366968
 10
-0.09725165299999999
 20
0.120412159
 10
-0.09758301899999999
 20
0.123469251
 10
-0.09781830900000001
 20
0.126535235
 10
-0.097957292
 20
0.129607091
 10
-0.097999831
 20
0.132681796
 10
-0.097945885
 20
0.135756321
 10
-0.097795506
 20
0.138827641
 10
-0.097548842
 20
0.14189273
 10
-0.097206137
 20
0.144948572
 10
-0.096767727
 20
0.147992158
 10
-0.096234045
 20
0.151020491
 10
-0.095605615
 20
0.15403059
 10
-0.09488305700000001
 20
0.15701949
 10
-0.094067082
 20
0.15998425
 10
-0.09315849399999999
 20
0.162921951
 10
-0.092158186
 20
0.165829699
 10
-0.091067143
 20
0.168704633
 10
-0.089886441
 20
0.171543921
 10
-0.088617241
 20
0.174344769
 10
-0.087260792
 20
0.177104418
 10
-0.085818431
 20
0.179820153
 10
-0.08429157800000001
 20
0.182489298
 10
-0.08268173500000001
 20
0.185109226
 10
-0.080990488
 20
0.187677358
 10
-0.079219502
 20
0.190191165
 10
-0.077370521
 20
0.192648172
 10
-0.075445364
 20
0.19504596
 10
-0.07344592699999999
 20
0.197382168
 10
-0.071374179
 20
0.199654497
 10
-0.06923216
 20
0.201860709
 10
-0.067021979
 20
0.203998632
 10
-0.06474581
 20
0.206066161
 10
-0.062405897
 20
0.20806126
 10
-0.060004541
 20
0.209981966
 10
-0.057544108
 20
0.211826386
 10
-0.055027021
 20
0.213592706
 10
-0.052455756
 20
0.215279186
 10
-0.049832846
 20
0.216884166
 10
-0.047160873
 20
0.218406065
 10
-0.044442468
 20
0.219843386
 10
-0.041680307
 20
0.221194713
 10
-0.038877109
 20
0.222458715
 10
-0.036035636
 20
0.223634148
 10
-0.033158683
 20
0.224719856
 10
-0.030249084
 20
0.225714768
 10
-0.027309703
 20
0.226617905
 10
-0.024343434
 20
0.227428379
 10
-0.021353198
 20
0.228145391
 10
-0.018341939
 20
0.228768236
 10
-0.015312622
 20
0.2292963
 10
-0.012268228
 20
0.229729062
 10
-0.009211755
 20
0.230066098
 10
-0.006146213
 20
0.230307076
 10
-0.00307462
 20
0.230451757
 10
-0.0
 20
0.2305
 10
0.00307462
 20
0.230451757
 10
0.006146213
 20
0.230307076
 10
0.009211755
 20
0.230066098
 10
0.012268228
 20
0.229729062
 10
0.015312622
 20
0.2292963
 10
0.018341939
 20
0.228768236
 10
0.021353198
 20
0.228145391
 10
0.024343434
 20
0.227428379
 10
0.027309703
 20
0.226617905
 10
0.030249084
 20
0.225714768
 10
0.033158683
 20
0.224719856
 10
0.036035636
 20
0.223634148
 10
0.038877109
 20
0.222458715
 10
0.041680307
 20
0.221194713
 10
0.044442468
 20
0.219843386
 10
0.047160873
 20
0.218406065
 10
0.049832846
 20
0.216884166
 10
0.052455756
 20
0.215279186
 10
0.055027021
 20
0.213592706
 10
0.057544108
 20
0.211826386
 10
0.060004541
 20
0.209981966
 10
0.062405897
 20
0.20806126
 10
0.06474581
 20
0.206066161
 10
0.067021979
 20
0.203998632
 10
0.06923216
 20
0.201860709
 10
0.071374179
 20
0.199654497
 10
0.07344592699999999
 20
0.197382168
 10
0.075445364
 20
0.19504596
 10
0.077370521
 20
0.192648172
 10
0.079219502
 20
0.190191165
 10
0.080990488
 20
0.187677358
 10
0.08268173500000001
 20
0.185109226
 10
0.08429157800000001
 20
0.182489298
 10
0.085818431
 20
0.179820153
 10
0.087260792
 20
0.177104418
 10
0.088617241
 20
0.174344769
 10
0.089886441
 20
0.171543921
 10
0.091067143
 20
0.168704633
 10
0.092158186
 20
0.165829699
 10
0.09315849399999999
 20
0.162921951
 10
0.094067082
 20
0.15998425
 10
0.09488305700000001
 20
0.15701949
 10
0.095605615
 20
0.15403059
 10
0.096234045
 20
0.151020491
 10
0.096767727
 20
0.147992158
 10
0.097206137
 20
0.144948572
 10
0.097548842
 20
0.14189273
 10
0.097795506
 20
0.138827641
 10
0.097945885
 20
0.135756321
 10
0.097999831
 20
0.132681796
 10
0.097957292
 20
0.129607091
 10
0.09781830900000001
 20
0.126535235
 10
0.09758301899999999
 20
0.123469251
 10
0.09725165299999999
 20
0.120412159
 10
0.096824539
 20
0.117366968
 10
0.096302096
 20
0.114336676
 10
0.09568483799999999
 20
0.111324266
 10
0.094973375
 20
0.108332705
 10
0.094168405
 20
0.105364938
 10
0.093270721
 20
0.102423887
 10
0.092281208
 20
0.099512447
 10
0.09120084000000001
 20
0.096633486
 10
0.090030679
 20
0.093789836
 10
0.088771879
 20
0.090984299
 10
0.08742567900000001
 20
0.088219636
 10
0.085993404
 20
0.085498569
 10
0.084476464
 20
0.082823777
 10
0.082876352
 20
0.08019789500000001
 10
0.081194645
 20
0.07762350599999999
 10
0.079432998
 20
0.075103146
 10
0.077593144
 20
0.07263929600000001
 10
0.07567689700000001
 20
0.070234381
 10
0.073686142
 20
0.067890771
 10
0.07162283899999999
 20
0.065610771
 10
0.06948902
 20
0.063396627
 10
0.067286785
 20
0.061250519
 10
0.065018303
 20
0.059174559
 10
0.062685808
 20
0.057170793
 10
0.060291595
 20
0.055241191
 10
0.057838022
 20
0.053387655
 10
0.055327505
 20
0.051612008
 10
0.052762515
 20
0.049916
 10
0.050145578
 20
0.0483013
 10
0.047479269
 20
0.046769498
 10
0.044766215
 20
0.045322102
 10
0.042009087
 20
0.043960536
 10
0.039210599
 20
0.042686143
 10
0.036373505
 20
0.041500175
 10
0.033500601
 20
0.040403802
 10
0.030594713
 20
0.039398101
 10
0.027658703
 20
0.038484064
 10
0.024695462
 20
0.037662591
 10
0.021707907
 20
0.03693449
 10
0.018698979
 20
0.036300477
 10
0.015671641
 20
0.035761178
 10
0.012628874
 20
0.035317123
 10
0.009573673
 20
0.03496875
 10
0.006509046
 20
0.034716401
 10
0.003438011
 20
0.034560324
 10
0.000363591
 20
0.034500674
 10
0.000363591
 20
0.0
 10
0.230886409
 20
0.0
 10
0.230886409
 20
0.034500674
 10
0.227811989
 20
0.034560324
 10
0.224740954
 20
0.034716401
 10
0.221676327
 20
0.03496875
 10
0.218621126
 20
0.035317123
 10
0.215578359
 20
0.035761178
 10
0.212551021
 20
0.036300477
 10
0.209542093
 20
0.03693449
 10
0.206554538
 20
0.037662591
 10
0.203591297
 20
0.038484064
 10
0.200655287
 20
0.039398101
 10
0.197749399
 20
0.040403802
 10
0.194876495
 20
0.041500175
 10
0.192039401
 20
0.042686143
 10
0.189240913
 20
0.043960536
 10
0.186483785
 20
0.045322102
 10
0.183770731
 20
0.046769498
 10
0.181104422
 20
0.0483013
 10
0.178487485
 20
0.049916
 10
0.175922495
 20
0.051612008
 10
0.173411978
 20
0.053387655
 10
0.170958405
 20
0.055241191
 10
0.168564192
 20
0.057170793
 10
0.166231697
 20
0.059174559
 10
0.163963215
 20
0.061250519
 10
0.16176098
 20
0.063396627
 10
0.159627161
 20
0.065610771
 10
0.157563858
 20
0.067890771
 10
0.155573103
 20
0.070234381
 10
0.153656856
 20
0.07263929600000001
 10
0.151817002
 20
0.075103146
 10
0.150055355
 20
0.07762350599999999
 10
0.148373648
 20
0.08019789500000001
 10
0.146773536
 20
0.082823777
 10
0.145256596
 20
0.085498569
 10
0.143824321
 20
0.088219636
 10
0.142478121
 20
0.090984299
 10
0.141219321
 20
0.093789836
 10
0.14004916
 20
0.096633486
 10
0.138968792
 20
0.099512447
 10
0.137979279
 20
0.102423887
 10
0.137081595
 20
0.105364938
 10
0.136276625
 20
0.108332705
 10
0.135565162
 20
0.111324266
 10
0.134947904
 20
0.114336676
 10
0.134425461
 20
0.117366968
 10
0.133998347
 20
0.120412159
 10
0.133666981
 20
0.123469251
 10
0.133431691
 20
0.126535235
 10
0.133292708
 20
0.129607091
 10
0.133250169
 20
0.132681796
 10
0.133304115
 20
0.135756321
 10
0.133454494
 20
0.138827641
 10
0.133701158
 20
0.14189273
 10
0.134043863
 20
0.144948572
 10
0.134482273
 20
0.147992158
 10
0.135015955
 20
0.151020491
 10
0.135644385
 20
0.15403059
 10
0.136366943
 20
0.15701949
 10
0.137182918
 20
0.15998425
 10
0.138091506
 20
0.162921951
 10
0.139091814
 20
0.165829699
 10
0.140182857
 20
0.168704633
 10
0.141363559
 20
0.171543921
 10
0.142632759
 20
0.174344769
 10
0.143989208
 20
0.177104418
 10
0.145431569
 20
0.179820153
 10
0.146958422
 20
0.182489298
 10
0.148568265
 20
0.185109226
 10
0.150259512
 20
0.187677358
 10
0.152030498
 20
0.190191165
 10
0.153879479
 20
0.192648172
 10
0.155804636
 20
0.19504596
 10
0.157804073
 20
0.197382168
 10
0.159875821
 20
0.199654497
 10
0.16201784
 20
0.201860709
 10
0.164228021
 20
0.203998632
 10
0.16650419
 20
0.206066161
 10
0.168844103
 20
0.20806126
 10
0.171245459
 20
0.209981966
 10
0.173705892
 20
0.211826386
 10
0.176222979
 20
0.213592706
 10
0.178794244
 20
0.215279186
 10
0.181417154
 20
0.216884166
 10
0.184089127
 20
0.218406065
 10
0.186807532
 20
0.219843386
 10
0.189569693
 20
0.221194713
 10
0.192372891
 20
0.222458715
 10
0.195214364
 20
0.223634148
 10
0.198091317
 20
0.224719856
 10
0.201000916
 20
0.225714768
 10
0.203940297
 20
0.226617905
 10
0.206906566
 20
0.227428379
 10
0.209896802
 20
0.228145391
 10
0.212908061
 20
0.228768236
 10
0.215937378
 20
0.2292963
 10
0.218981772
 20
0.229729062
 10
0.222038245
 20
0.230066098
 10
0.225103787
 20
0.230307076
 10
0.22817538
 20
0.230451757
 10
0.23125
 20
0.2305
 10
0.23432462
 20
0.230451757
 10
0.237396213
 20
0.230307076
 10
0.240461755
 20
0.230066098
 10
0.243518228
 20
0.229729062
 10
0.246562622
 20
0.2292963
 10
0.249591939
 20
0.228768236
 10
0.252603198
 20
0.228145391
 10
0.255593434
 20
0.227428379
 10
0.258559703
 20
0.226617905
 10
0.261499084
 20
0.225714768
 10
0.264408683
 20
0.224719856
 10
0.267285636
 20
0.223634148
 10
0.270127109
 20
0.222458715
 10
0.272930307
 20
0.221194713
 10
0.275692468
 20
0.219843386
 10
0.278410873
 20
0.218406065
 10
0.281082846
 20
0.216884166
 10
0.283705756
 20
0.215279186
 10
0.286277021
 20
0.213592706
 10
0.288794108
 20
0.211826386
 10
0.291254541
 20
0.209981966
 10
0.293655897
 20
0.20806126
 10
0.29599581
 20
0.206066161
 10
0.298271979
 20
0.203998632
 10
0.30048216
 20
0.201860709
 10
0.302624179
 20
0.199654497
 10
0.304695927
 20
0.197382168
 10
0.306695364
 20
0.19504596
 10
0.308620521
 20
0.192648172
 10
0.310469502
 20
0.190191165
 10
0.312240488
 20
0.187677358
 10
0.313931735
 20
0.185109226
 10
0.315541578
 20
0.182489298
 10
0.317068431
 20
0.179820153
 10
0.318510792
 20
0.177104418
 10
0.319867241
 20
0.174344769
 10
0.321136441
 20
0.171543921
 10
0.322317143
 20
0.168704633
 10
0.323408186
 20
0.165829699
 10
0.324408494
 20
0.162921951
 10
0.325317082
 20
0.15998425
 10
0.326133057
 20
0.15701949
 10
0.326855615
 20
0.15403059
 10
0.327484045
 20
0.151020491
 10
0.328017727
 20
0.147992158
 10
0.328456137
 20
0.144948572
 10
0.328798842
 20
0.14189273
 10
0.329045506
 20
0.138827641
 10
0.329195885
 20
0.135756321
 10
0.329249831
 20
0.132681796
 10
0.329207292
 20
0.129607091
 10
0.329068309
 20
0.126535235
 10
0.328833019
 20
0.123469251
 10
0.328501653
 20
0.120412159
 10
0.328074539
 20
0.117366968
 10
0.327552096
 20
0.114336676
 10
0.326934838
 20
0.111324266
 10
0.326223375
 20
0.108332705
 10
0.325418405
 20
0.105364938
 10
0.324520721
 20
0.102423887
 10
0.323531208
 20
0.099512447
 10
0.32245084
 20
0.096633486
 10
0.321280679
 20
0.093789836
 10
0.320021879
 20
0.090984299
 10
0.318675679
 20
0.088219636
 10
0.317243404
 20
0.085498569
 10
0.315726464
 20
0.082823777
 10
0.314126352
 20
0.08019789500000001
 10
0.312444645
 20
0.07762350599999999
 10
0.310682998
 20
0.075103146
 10
0.308843144
 20
0.07263929600000001
 10
0.306926897
 20
0.070234381
 10
0.304936142
 20
0.067890771
 10
0.302872839
 20
0.065610771
 10
0.30073902
 20
0.063396627
 10
0.298536785
 20
0.061250519
 10
0.296268303
 20
0.059174559
 10
0.293935808
 20
0.057170793
 10
0.291541595
 20
0.055241191
 10
0.289088022
 20
0.053387655
 10
0.286577505
 20
0.051612008
 10
0.284012515
 20
0.049916
 10
0.281395578
 20
0.0483013
 10
0.278729269
 20
0.046769498
 10
0.276016215
 20
0.045322102
 10
0.273259087
 20
0.043960536
 10
0.270460599
 20
0.042686143
 10
0.267623505
 20
0.041500175
 10
0.264750601
 20
0.040403802
 10
0.261844713
 20
0.039398101
 10
0.258908703
 20
0.038484064
 10
0.255945462
 20
0.037662591
 10
0.252957907
 20
0.03693449
 10
0.249948979
 20
0.036300477
 10
0.246921641
 20
0.035761178
 10
0.243878874
 20
0.035317123
 10
0.240823673
 20
0.03496875
 10
0.237759046
 20
0.034716401
 10
0.234688011
 20
0.034560324
 10
0.231613591
 20
0.034500674
 10
0.231613591
 20
0.0
 10
0.462136409
 20
0.0
 10
0.462136409
 20
0.034500674
 10
0.459061989
 20
0.034560324
 10
0.455990954
 20
0.034716401
 10
0.452926327
 20
0.03496875
 10
0.449871126
 20
0.035317123
 10
0.446828359
 20
0.035761178
 10
0.443801021
 20
0.036300477
 10
0.440792093
 20
0.03693449
 10
0.437804538
 20
0.037662591
 10
0.434841297
 20
0.038484064
 10
0.431905287
 20
0.039398101
 10
0.428999399
 20
0.040403802
 10
0.426126495
 20
0.041500175
 10
0.423289401
 20
0.042686143
 10
0.420490913
 20
0.043960536
 10
0.417733785
 20
0.045322102
 10
0.415020731
 20
0.046769498
 10
0.412354422
 20
0.0483013
 10
0.409737485
 20
0.049916
 10
0.407172495
 20
0.051612008
 10
0.404661978
 20
0.053387655
 10
0.402208405
 20
0.055241191
 10
0.399814192
 20
0.057170793
 10
0.397481697
 20
0.059174559
 10
0.395213215
 20
0.061250519
 10
0.39301098
 20
0.063396627
 10
0.390877161
 20
0.065610771
 10
0.388813858
 20
0.067890771
 10
0.386823103
 20
0.070234381
 10
0.384906856
 20
0.07263929600000001
 10
0.383067002
 20
0.075103146
 10
0.381305355
 20
0.07762350599999999
 10
0.379623648
 20
0.08019789500000001
 10
0.378023536
 20
0.082823777
 10
0.376506596
 20
0.085498569
 10
0.375074321
 20
0.088219636
 10
0.373728121
 20
0.090984299
 10
0.372469321
 20
0.093789836
 10
0.37129916
 20
0.096633486
 10
0.370218792
 20
0.099512447
 10
0.369229279
 20
0.102423887
 10
0.368331595
 20
0.105364938
 10
0.367526625
 20
0.108332705
 10
0.366815162
 20
0.111324266
 10
0.366197904
 20
0.114336676
 10
0.365675461
 20
0.117366968
 10
0.365248347
 20
0.120412159
 10
0.364916981
 20
0.123469251
 10
0.364681691
 20
0.126535235
 10
0.364542708
 20
0.129607091
 10
0.364500169
 20
0.132681796
 10
0.364554115
 20
0.135756321
 10
0.364704494
 20
0.138827641
 10
0.364951158
 20
0.14189273
 10
0.365293863
 20
0.144948572
 10
0.365732273
 20
0.147992158
 10
0.366265955
 20
0.151020491
 10
0.366894385
 20
0.15403059
 10
0.367616943
 20
0.15701949
 10
0.368432918
 20
0.15998425
 10
0.369341506
 20
0.162921951
 10
0.370341814
 20
0.165829699
 10
0.371432857
 20
0.168704633
 10
0.372613559
 20
0.171543921
 10
0.373882759
 20
0.174344769
 10
0.375239208
 20
0.177104418
 10
0.376681569
 20
0.179820153
 10
0.378208422
 20
0.182489298
 10
0.379818265
 20
0.185109226
 10
0.381509512
 20
0.187677358
 10
0.383280498
 20
0.190191165
 10
0.385129479
 20
0.192648172
 10
0.387054636
 20
0.19504596
 10
0.389054073
 20
0.197382168
 10
0.391125821
 20
0.199654497
 10
0.39326784
 20
0.201860709
 10
0.395478021
 20
0.203998632
 10
0.39775419
 20
0.206066161
 10
0.400094103
 20
0.20806126
 10
0.402495459
 20
0.209981966
 10
0.404955892
 20
0.211826386
 10
0.407472979
 20
0.213592706
 10
0.410044244
 20
0.215279186
 10
0.412667154
 20
0.216884166
 10
0.415339127
 20
0.218406065
 10
0.418057532
 20
0.219843386
 10
0.420819693
 20
0.221194713
 10
0.423622891
 20
0.222458715
 10
0.426464364
 20
0.223634148
 10
0.429341317
 20
0.224719856
 10
0.432250916
 20
0.225714768
 10
0.435190297
 20
0.226617905
 10
0.438156566
 20
0.227428379
 10
0.441146802
 20
0.228145391
 10
0.444158061
 20
0.228768236
 10
0.447187378
 20
0.2292963
 10
0.450231772
 20
0.229729062
 10
0.453288245
 20
0.230066098
 10
0.456353787
 20
0.230307076
 10
0.45942538
 20
0.230451757
 10
0.4625
 20
0.2305
 10
0.46557462
 20
0.230451757
 10
0.468646213
 20
0.230307076
 10
0.471711755
 20
0.230066098
 10
0.474768228
 20
0.229729062
 10
0.477812622
 20
0.2292963
 10
0.480841939
 20
0.228768236
 10
0.483853198
 20
0.228145391
 10
0.486843434
 20
0.227428379
 10
0.489809703
 20
0.226617905
 10
0.492749084
 20
0.225714768
 10
0.495658683
 20
0.224719856
 10
0.498535636
 20
0.223634148
 10
0.501377109
 20
0.222458715
 10
0.504180307
 20
0.221194713
 10
0.506942468
 20
0.219843386
 10
0.509660873
 20
0.218406065
 10
0.512332846
 20
0.216884166
 10
0.514955756
 20
0.215279186
 10
0.517527021
 20
0.213592706
 10
0.520044108
 20
0.211826386
 10
0.522504541
 20
0.209981966
 10
0.524905897
 20
0.20806126
 10
0.52724581
 20
0.206066161
 10
0.529521979
 20
0.203998632
 10
0.53173216
 20
0.201860709
 10
0.533874179
 20
0.199654497
 10
0.535945927
 20
0.197382168
 10
0.537945364
 20
0.19504596
 10
0.539870521
 20
0.192648172
 10
0.541719502
 20
0.190191165
 10
0.543490488
 20
0.187677358
 10
0.545181735
 20
0.185109226
 10
0.546791578
 20
0.182489298
 10
0.548318431
 20
0.179820153
 10
0.5497607920000001
 20
0.177104418
 10
0.551117241
 20
0.174344769
 10
0.552386441
 20
0.171543921
 10
0.553567143
 20
0.168704633
 10
0.5546581860000001
 20
0.165829699
 10
0.555658494
 20
0.162921951
 10
0.556567082
 20
0.15998425
 10
0.557383057
 20
0.15701949
 10
0.558105615
 20
0.15403059
 10
0.558734045
 20
0.151020491
 10
0.559267727
 20
0.147992158
 10
0.559706137
 20
0.144948572
 10
0.560048842
 20
0.14189273
 10
0.560295506
 20
0.138827641
 10
0.560445885
 20
0.135756321
 10
0.560499831
 20
0.132681796
 10
0.5604572920000001
 20
0.129607091
 10
0.560318309
 20
0.126535235
 10
0.560083019
 20
0.123469251
 10
0.559751653
 20
0.120412159
 10
0.559324539
 20
0.117366968
 10
0.558802096
 20
0.114336676
 10
0.558184838
 20
0.111324266
 10
0.557473375
 20
0.108332705
 10
0.556668405
 20
0.105364938
 10
0.555770721
 20
0.102423887
 10
0.554781208
 20
0.099512447
 10
0.55370084
 20
0.096633486
 10
0.552530679
 20
0.093789836
 10
0.551271879
 20
0.090984299
 10
0.549925679
 20
0.088219636
 10
0.548493404
 20
0.085498569
 10
0.546976464
 20
0.082823777
 10
0.545376352
 20
0.08019789500000001
 10
0.543694645
 20
0.07762350599999999
 10
0.5419329980000001
 20
0.075103146
 10
0.540093144
 20
0.07263929600000001
 10
0.538176897
 20
0.070234381
 10
0.536186142
 20
0.067890771
 10
0.534122839
 20
0.065610771
 10
0.53198902
 20
0.063396627
 10
0.529786785
 20
0.061250519
 10
0.527518303
 20
0.059174559
 10
0.525185808
 20
0.057170793
 10
0.5227915950000001
 20
0.055241191
 10
0.520338022
 20
0.053387655
 10
0.517827505
 20
0.051612008
 10
0.515262515
 20
0.049916
 10
0.512645578
 20
0.0483013
 10
0.509979269
 20
0.046769498
 10
0.507266215
 20
0.045322102
 10
0.504509087
 20
0.043960536
 10
0.501710599
 20
0.042686143
 10
0.498873505
 20
0.041500175
 10
0.496000601
 20
0.040403802
 10
0.493094713
 20
0.039398101
 10
0.490158703
 20
0.038484064
 10
0.487195462
 20
0.037662591
 10
0.484207907
 20
0.03693449
 10
0.481198979
 20
0.036300477
 10
0.478171641
 20
0.035761178
 10
0.475128874
 20
0.035317123
 10
0.472073673
 20
0.03496875
 10
0.469009046
 20
0.034716401
 10
0.465938011
 20
0.034560324
 10
0.462863591
 20
0.034500674
 10
0.462863591
 20
0.0
 10
0.615
 20
0.0
 10
0.625
 20
0.01
 10
0.625
 20
0.038031
 10
0.6045
 20
0.056
 10
0.6015
 20
0.121
 10
0.5915
 20
0.131
 10
0.5885
 20
0.196
 10
0.5985
 20
0.206
 10
0.5975
 20
0.255
 10
0.587491
 20
0.265
 10
-0.587491
 20
0.265
 10
-0.5975
 20
0.255
 10
-0.5985
 20
0.206
 10
-0.5885
 20
0.196
 10
-0.5915
 20
0.131
 10
-0.6015
 20
0.121
 10
-0.6045
 20
0.056
 10
-0.625
 20
0.038031
 10
-0.625
 20
0.01
  0
ENDSEC
  0
SECTION
  2
OBJECTS
  0
DICTIONARY
  5
C
330
0
100
AcDbDictionary
281
     1
  3
ACAD_GROUP
350
D
  3
ACAD_PLOTSTYLENAME
350
E
  3
ACAD_MLINESTYLE
350
17
  3
ACAD_PLOTSETTINGS
350
19
  3
ACAD_LAYOUT
350
1A
  0
DICTIONARY
  5
D
102
{ACAD_REACTORS
330
C
102
}
330
C
100
AcDbDictionary
281
     1
  0
ACDBDICTIONARYWDFLT
  5
E
102
{ACAD_REACTORS
330
C
102
}
330
C
100
AcDbDictionary
281
     1
  3
Normal
350
F
100
AcDbDictionaryWithDefault
340
F
  0
ACDBPLACEHOLDER
  5
F
102
{ACAD_REACTORS
330
E
102
}
330
E
  0
DICTIONARY
  5
17
102
{ACAD_REACTORS
330
C
102
}
330
C
100
AcDbDictionary
281
     1
  3
Standard
350
18
  0
MLINESTYLE
  5
18
102
{ACAD_REACTORS
330
17
102
}
330
17
100
AcDbMlineStyle
  2
Standard
 70
     0
  3

 62
   256
 51
90.0
 52
90.0
 71
     2
 49
0.5
 62
   256
  6
BYLAYER
 49
-0.5
 62
   256
  6
BYLAYER
  0
DICTIONARY
  5
19
102
{ACAD_REACTORS
330
C
102
}
330
C
100
AcDbDictionary
281
     1
  0
DICTIONARY
  5
1A
102
{ACAD_REACTORS
330
C
102
}
330
C
100
AcDbDictionary
281
     1
  3
Model
350
27
  3
Layout1
350
29
  0
LAYOUT
  5
27
102
{ACAD_REACTORS
330
1A
102
}
330
1A
100
AcDbPlotSettings
  1

  2

  4
ISO_A1_(841.00_x_594.00_MM)
  6

 40
0.0
 41
0.0
 42
0.0
 43
0.0
 44
0.0
 45
0.0
 46
0.0
 47
0.0
 48
0.0
 49
0.0
140
0.0
141
0.0
  6

142
0.0
143
0.0
 70
     0
 72
     0
 73
     0
 74
     0
  7

 75
     0
147
0.0
148
0.0
149
0.0
100
AcDbLayout
  1
Model
 70
     1
 71
     0
 10
0.0
 20
0.0
 11
420.0
 21
297.0
 12
0.0
 22
0.0
 32
0.0
 14
1E+20
 24
1E+20
 34
1E+20
 15
-1E+20
 25
-1E+20
 35
-1E+20
146
0.0
 13
0.0
 23
0.0
 33
0.0
 16
1.0
 26
0.0
 36
0.0
 17
0.0
 27
1.0
 37
0.0
 76
     0
330
1F
  0
LAYOUT
  5
29
102
{ACAD_REACTORS
330
1A
102
}
330
1A
100
AcDbPlotSettings
  1

  2

  4
ISO_A1_(841.00_x_594.00_MM)
  6

 40
0.0
 41
0.0
 42
0.0
 43
0.0
 44
0.0
 45
0.0
 46
0.0
 47
0.0
 48
0.0
 49
0.0
140
0.0
141
0.0
  6

142
0.0
143
0.0
 70
     0
 72
     0
 73
     0
 74
     0
  7

 75
     0
147
0.0
148
0.0
149
0.0
100
AcDbLayout
  1
Layout1
 70
     1
 71
     0
 10
0.0
 20
0.0
 11
420.0
 21
297.0
 12
0.0
 22
0.0
 32
0.0
 14
1E+20
 24
1E+20
 34
1E+20
 15
-1E+20
 25
-1E+20
 35
-1E+20
146
0.0
 13
0.0
 23
0.0
 33
0.0
 16
1.0
 26
0.0
 36
0.0
 17
0.0
 27
1.0
 37
0.0
 76
     0
330
20
  0
ENDSEC
  0
EOF
