  0
SECTION
  2
HEADER
  9
$ACADVER
  1
AC1015
  9
$ACADMAINTVER
 70
6
  9
$DWGCODEPAGE
  3
ANSI_1252
  9
$INSBASE
 10
0.0
 20
0.0
 30
0.0
  9
$EXTMIN
 10
1e+20
 20
1e+20
 30
1e+20
  9
$EXTMAX
 10
-1e+20
 20
-1e+20
 30
-1e+20
  9
$LIMMIN
 10
0.0
 20
0.0
  9
$LIMMAX
 10
420.0
 20
297.0
  9
$ORTHOMODE
 70
0
  9
$REGENMODE
 70
1
  9
$FILLMODE
 70
1
  9
$QTEXTMODE
 70
0
  9
$MIRRTEXT
 70
1
  9
$LTSCALE
 40
1.0
  9
$ATTMODE
 70
1
  9
$TEXTSIZE
 40
2.5
  9
$TRACEWID
 40
1.0
  9
$TEXTSTYLE
  7
Standard
  9
$CLAYER
  8
0
  9
$CELTYPE
  6
ByLayer
  9
$CECOLOR
 62
256
  9
$CELTSCALE
 40
1.0
  9
$DISPSILH
 70
0
  9
$DIMSCALE
 40
1.0
  9
$DIMASZ
 40
2.5
  9
$DIMEXO
 40
0.625
  9
$DIMDLI
 40
3.75
  9
$DIMRND
 40
0.0
  9
$DIMDLE
 40
0.0
  9
$DIMEXE
 40
1.25
  9
$DIMTP
 40
0.0
  9
$DIMTM
 40
0.0
  9
$DIMTXT
 40
2.5
  9
$DIMCEN
 40
2.5
  9
$DIMTSZ
 40
0.0
  9
$DIMTOL
 70
0
  9
$DIMLIM
 70
0
  9
$DIMTIH
 70
0
  9
$DIMTOH
 70
0
  9
$DIMSE1
 70
0
  9
$DIMSE2
 70
0
  9
$DIMTAD
 70
1
  9
$DIMZIN
 70
8
  9
$DIMBLK
  1

  9
$DIMASO
 70
1
  9
$DIMSHO
 70
1
  9
$DIMPOST
  1

  9
$DIMAPOST
  1

  9
$DIMALT
 70
0
  9
$DIMALTD
 70
3
  9
$DIMALTF
 40
0.03937007874
  9
$DIMLFAC
 40
1.0
  9
$DIMTOFL
 70
1
  9
$DIMTVP
 40
0.0
  9
$DIMTIX
 70
0
  9
$DIMSOXD
 70
0
  9
$DIMSAH
 70
0
  9
$DIMBLK1
  1

  9
$DIMBLK2
  1

  9
$DIMSTYLE
  2
ISO-25
  9
$DIMCLRD
 70
0
  9
$DIMCLRE
 70
0
  9
$DIMCLRT
 70
0
  9
$DIMTFAC
 40
1.0
  9
$DIMGAP
 40
0.625
  9
$DIMJUST
 70
0
  9
$DIMSD1
 70
0
  9
$DIMSD2
 70
0
  9
$DIMTOLJ
 70
0
  9
$DIMTZIN
 70
8
  9
$DIMALTZ
 70
0
  9
$DIMALTTZ
 70
0
  9
$DIMUPT
 70
0
  9
$DIMDEC
 70
2
  9
$DIMTDEC
 70
2
  9
$DIMALTU
 70
2
  9
$DIMALTTD
 70
3
  9
$DIMTXSTY
  7
Standard
  9
$DIMAUNIT
 70
0
  9
$DIMADEC
 70
0
  9
$DIMALTRND
 40
0.0
  9
$DIMAZIN
 70
0
  9
$DIMDSEP
 70
44
  9
$DIMATFIT
 70
3
  9
$DIMFRAC
 70
0
  9
$DIMLDRBLK
  1

  9
$DIMLUNIT
 70
2
  9
$DIMLWD
 70
-2
  9
$DIMLWE
 70
-2
  9
$DIMTMOVE
 70
0
  9
$LUNITS
 70
2
  9
$LUPREC
 70
4
  9
$SKETCHINC
 40
1.0
  9
$FILLETRAD
 40
10.0
  9
$AUNITS
 70
0
  9
$AUPREC
 70
2
  9
$MENU
  1
.
  9
$ELEVATION
 40
0.0
  9
$PELEVATION
 40
0.0
  9
$THICKNESS
 40
0.0
  9
$LIMCHECK
 70
0
  9
$CHAMFERA
 40
0.0
  9
$CHAMFERB
 40
0.0
  9
$CHAMFERC
 40
0.0
  9
$CHAMFERD
 40
0.0
  9
$SKPOLY
 70
0
  9
$TDCREATE
 40
2461230.735532407
  9
$TDUCREATE
 40
2458532.153996898
  9
$TDUPDATE
 40
2461230.735532407
  9
$TDUUPDATE
 40
2458532.1544311
  9
$TDINDWG
 40
0.0
  9
$TDUSRTIMER
 40
0.0
  9
$USRTIMER
 70
1
  9
$ANGBASE
 50
0.0
  9
$ANGDIR
 70
0
  9
$PDMODE
 70
0
  9
$PDSIZE
 40
0.0
  9
$PLINEWID
 40
0.0
  9
$SPLFRAME
 70
0
  9
$SPLINETYPE
 70
6
  9
$SPLINESEGS
 70
8
  9
$HANDSEED
  5
34
  9
$SURFTAB1
 70
6
  9
$SURFTAB2
 70
6
  9
$SURFTYPE
 70
6
  9
$SURFU
 70
6
  9
$SURFV
 70
6
  9
$UCSBASE
  2

  9
$UCSNAME
  2

  9
$UCSORG
 10
0.0
 20
0.0
 30
0.0
  9
$UCSXDIR
 10
1.0
 20
0.0
 30
0.0
  9
$UCSYDIR
 10
0.0
 20
1.0
 30
0.0
  9
$UCSORTHOREF
  2

  9
$UCSORTHOVIEW
 70
0
  9
$UCSORGTOP
 10
0.0
 20
0.0
 30
0.0
  9
$UCSORGBOTTOM
 10
0.0
 20
0.0
 30
0.0
  9
$UCSORGLEFT
 10
0.0
 20
0.0
 30
0.0
  9
$UCSORGRIGHT
 10
0.0
 20
0.0
 30
0.0
  9
$UCSORGFRONT
 10
0.0
 20
0.0
 30
0.0
  9
$UCSORGBACK
 10
0.0
 20
0.0
 30
0.0
  9
$PUCSBASE
  2

  9
$PUCSNAME
  2

  9
$PUCSORG
 10
0.0
 20
0.0
 30
0.0
  9
$PUCSXDIR
 10
1.0
 20
0.0
 30
0.0
  9
$PUCSYDIR
 10
0.0
 20
1.0
 30
0.0
  9
$PUCSORTHOREF
  2

  9
$PUCSORTHOVIEW
 70
0
  9
$PUCSORGTOP
 10
0.0
 20
0.0
 30
0.0
  9
$PUCSORGBOTTOM
 10
0.0
 20
0.0
 30
0.0
  9
$PUCSORGLEFT
 10
0.0
 20
0.0
 30
0.0
  9
$PUCSORGRIGHT
 10
0.0
 20
0.0
 30
0.0
  9
$PUCSORGFRONT
 10
0.0
 20
0.0
 30
0.0
  9
$PUCSORGBACK
 10
0.0
 20
0.0
 30
0.0
  9
$USERI1
 70
0
  9
$USERI2
 70
0
  9
$USERI3
 70
0
  9
$USERI4
 70
0
  9
$USERI5
 70
0
  9
$USERR1
 40
0.0
  9
$USERR2
 40
0.0
  9
$USERR3
 40
0.0
  9
$USERR4
 40
0.0
  9
$USERR5
 40
0.0
  9
$WORLDVIEW
 70
1
  9
$SHADEDGE
 70
3
  9
$SHADEDIF
 70
70
  9
$TILEMODE
 70
1
  9
$MAXACTVP
 70
64
  9
$PINSBASE
 10
0.0
 20
0.0
 30
0.0
  9
$PLIMCHECK
 70
0
  9
$PEXTMIN
 10
1e+20
 20
1e+20
 30
1e+20
  9
$PEXTMAX
 10
-1e+20
 20
-1e+20
 30
-1e+20
  9
$PLIMMIN
 10
0.0
 20
0.0
  9
$PLIMMAX
 10
420.0
 20
297.0
  9
$UNITMODE
 70
0
  9
$VISRETAIN
 70
1
  9
$PLINEGEN
 70
0
  9
$PSLTSCALE
 70
1
  9
$TREEDEPTH
 70
3020
  9
$CMLSTYLE
  2
Standard
  9
$CMLJUST
 70
0
  9
$CMLSCALE
 40
20.0
  9
$PROXYGRAPHICS
 70
1
  9
$MEASUREMENT
 70
1
  9
$CELWEIGHT
370
-1
  9
$ENDCAPS
280
0
  9
$JOINSTYLE
280
0
  9
$LWDISPLAY
290
0
  9
$INSUNITS
 70
6
  9
$HYPERLINKBASE
  1

  9
$STYLESHEET
  1

  9
$XEDIT
290
1
  9
$CEPSNTYPE
380
0
  9
$PSTYLEMODE
290
1
  9
$FINGERPRINTGUID
  2
{25B37AC3-EEC8-43F2-9CDC-FD75F550B27C}
  9
$VERSIONGUID
  2
{4425D819-6356-4766-8899-C1BF52541AFA}
  9
$EXTNAMES
290
1
  9
$PSVPSCALE
 40
0.0
  9
$OLESTARTUP
290
0
  0
ENDSEC
  0
SECTION
  2
CLASSES
  0
CLASS
  1
ACDBDICTIONARYWDFLT
  2
AcDbDictionaryWithDefault
  3
ObjectDBX Classes
 90
0
280
0
281
0
  0
CLASS
  1
SUN
  2
AcDbSun
  3
SCENEOE
 90
1153
280
0
281
0
  0
CLASS
  1
VISUALSTYLE
  2
AcDbVisualStyle
  3
ObjectDBX Classes
 90
4095
280
0
281
0
  0
CLASS
  1
MATERIAL
  2
AcDbMaterial
  3
ObjectDBX Classes
 90
1153
280
0
281
0
  0
CLASS
  1
SCALE
  2
AcDbScale
  3
ObjectDBX Classes
 90
1153
280
0
281
0
  0
CLASS
  1
TABLESTYLE
  2
AcDbTableStyle
  3
ObjectDBX Classes
 90
4095
280
0
281
0
  0
CLASS
  1
MLEADERSTYLE
  2
AcDbMLeaderStyle
  3
ACDB_MLEADERSTYLE_CLASS
 90
4095
280
0
281
0
  0
CLASS
  1
DICTIONARYVAR
  2
AcDbDictionaryVar
  3
ObjectDBX Classes
 90
0
280
0
281
0
  0
CLASS
  1
CELLSTYLEMAP
  2
AcDbCellStyleMap
  3
ObjectDBX Classes
 90
1152
280
0
281
0
  0
CLASS
  1
MENTALRAYRENDERSETTINGS
  2
AcDbMentalRayRenderSettings
  3
SCENEOE
 90
1024
280
0
281
0
  0
CLASS
  1
ACDBDETAILVIEWSTYLE
  2
AcDbDetailViewStyle
  3
ObjectDBX Classes
 90
1025
280
0
281
0
  0
CLASS
  1
ACDBSECTIONVIEWSTYLE
  2
AcDbSectionViewStyle
  3
ObjectDBX Classes
 90
1025
280
0
281
0
  0
CLASS
  1
RASTERVARIABLES
  2
AcDbRasterVariables
  3
ISM
 90
0
280
0
281
0
  0
CLASS
  1
ACDBPLACEHOLDER
  2
AcDbPlaceHolder
  3
ObjectDBX Classes
 90
0
280
0
281
0
  0
CLASS
  1
LAYOUT
  2
AcDbLayout
  3
ObjectDBX Classes
 90
0
280
0
281
0
  0
ENDSEC
  0
SECTION
  2
TABLES
  0
TABLE
  2
VPORT
  5
8
330
0
100
AcDbSymbolTable
 70
1
  0
VPORT
  5
23
330
8
100
AcDbSymbolTableRecord
100
AcDbViewportTableRecord
  2
*Active
 70
0
 10
0.0
 20
0.0
 11
1.0
 21
1.0
 12
0.0
 22
0.0
 13
0.0
 23
0.0
 14
0.5
 24
0.5
 15
0.5
 25
0.5
 16
0.0
 26
0.0
 36
1.0
 17
0.0
 27
0.0
 37
0.0
 40
1000.0
 41
1.34
 42
50.0
 43
0.0
 44
0.0
 50
0.0
 51
0.0
 71
0
 72
1000
 73
1
 74
3
 75
0
 76
0
 77
0
 78
0
281
0
 65
0
146
0.0
  0
ENDTAB
  0
TABLE
  2
LTYPE
  5
2
330
0
100
AcDbSymbolTable
 70
3
  0
LTYPE
  5
24
330
2
100
AcDbSymbolTableRecord
100
AcDbLinetypeTableRecord
  2
ByBlock
 70
0
  3

 72
65
 73
0
 40
0.0
  0
LTYPE
  5
25
330
2
100
AcDbSymbolTableRecord
100
AcDbLinetypeTableRecord
  2
ByLayer
 70
0
  3

 72
65
 73
0
 40
0.0
  0
LTYPE
  5
26
330
2
100
AcDbSymbolTableRecord
100
AcDbLinetypeTableRecord
  2
Continuous
 70
0
  3

 72
65
 73
0
 40
0.0
  0
ENDTAB
  0
TABLE
  2
LAYER
  5
1
330
0
100
AcDbSymbolTable
 70
3
  0
LAYER
  5
27
330
1
100
AcDbSymbolTableRecord
100
AcDbLayerTableRecord
  2
0
 70
0
 62
7
  6
Continuous
370
-3
390
13
  0
LAYER
  5
28
330
1
100
AcDbSymbolTableRecord
100
AcDbLayerTableRecord
  2
Defpoints
 70
0
 62
7
  6
Continuous
290
0
370
-3
390
13
  0
LAYER
  5
2F
330
1
100
AcDbSymbolTableRecord
100
AcDbLayerTableRecord
  2
SECTION
 70
0
 62
7
  6
Continuous
370
-3
390
13
  0
ENDTAB
  0
TABLE
  2
STYLE
  5
5
330
0
100
AcDbSymbolTable
 70
1
  0
STYLE
  5
29
330
5
100
AcDbSymbolTableRecord
100
AcDbTextStyleTableRecord
  2
Standard
 70
0
 40
0.0
 41
1.0
 50
0.0
 71
0
 42
2.5
  3
txt
  4

  0
ENDTAB
  0
TABLE
  2
VIEW
  5
7
330
0
100
AcDbSymbolTable
 70
0
  0
ENDTAB
  0
TABLE
  2
UCS
  5
6
330
0
100
AcDbSymbolTable
 70
0
  0
ENDTAB
  0
TABLE
  2
APPID
  5
3
330
0
100
AcDbSymbolTable
 70
3
  0
APPID
  5
2A
330
3
100
AcDbSymbolTableRecord
100
AcDbRegAppTableRecord
  2
ACAD
 70
0
  0
APPID
  5
31
330
3
100
AcDbSymbolTableRecord
100
AcDbRegAppTableRecord
  2
HATCHBACKGROUNDCOLOR
 70
0
  0
APPID
  5
32
330
3
100
AcDbSymbolTableRecord
100
AcDbRegAppTableRecord
  2
EZDXF
 70
0
  0
ENDTAB
  0
TABLE
  2
DIMSTYLE
  5
4
330
0
100
AcDbSymbolTable
 70
1
100
AcDbDimStyleTable
  0
DIMSTYLE
105
2B
330
4
100
AcDbSymbolTableRecord
100
AcDbDimStyleTableRecord
  2
Standard
 70
0
  3

  4

 40
1.0
 41
2.5
 42
0.625
 43
3.75
 44
1.25
 45
0.0
 46
0.0
 47
0.0
 48
0.0
140
2.5
141
2.5
142
0.0
143
0.03937007874
144
1.0
145
0.0
146
1.0
147
0.625
148
0.0
 71
0
 72
0
 73
0
 74
0
 75
0
 76
0
 77
1
 78
8
 79
3
170
0
171
3
172
1
173
0
174
0
175
0
176
0
177
0
178
0
179
2
271
2
272
2
273
2
274
3
275
0
276
0
277
2
278
44
279
0
280
0
281
0
282
0
283
0
284
8
285
0
286
0
288
0
289
3
371
-2
372
-2
  0
ENDTAB
  0
TABLE
  2
BLOCK_RECORD
  5
9
330
0
100
AcDbSymbolTable
 70
2
  0
BLOCK_RECORD
  5
17
330
9
100
AcDbSymbolTableRecord
100
AcDbBlockTableRecord
  2
*Model_Space
340
1A
  0
BLOCK_RECORD
  5
1B
330
9
100
AcDbSymbolTableRecord
100
AcDbBlockTableRecord
  2
*Paper_Space
340
1E
  0
ENDTAB
  0
ENDSEC
  0
SECTION
  2
BLOCKS
  0
BLOCK
  5
18
330
17
100
AcDbEntity
  8
0
100
AcDbBlockBegin
  2
*Model_Space
 70
0
 10
0.0
 20
0.0
 30
0.0
  3
*Model_Space
  1

  0
ENDBLK
  5
19
330
17
100
AcDbEntity
  8
0
100
AcDbBlockEnd
  0
BLOCK
  5
1C
330
1B
100
AcDbEntity
  8
0
100
AcDbBlockBegin
  2
*Paper_Space
 70
0
 10
0.0
 20
0.0
 30
0.0
  3
*Paper_Space
  1

  0
ENDBLK
  5
1D
330
1B
100
AcDbEntity
  8
0
100
AcDbBlockEnd
  0
ENDSEC
  0
SECTION
  2

  0
LWPOLYLINE
  5
30
330
0
100
AcDbEntity
  8
0
100
AcDbPolyline
 90
1030
 70
1
 10
0.599999074267544
 20
0.250217517965211
 10
-0.600072322482447
 20
0.250017923663108
 10
-0.600063165871688
 20
0.200014949914475
 10
-0.575061678999191
 20
0.195018311922468
 10
-0.575039094244858
 20
0.0600096708876663
 10
-0.62504023783913
 20
0.0500011389340216
 10
-0.625033523767343
 20
0.0119989984741551
 10
-0.613030856828118
 20
0
 10
-0.440041438811022
 20
2.8936539820279e-05
 10
-0.440041438811022
 20
0.0400225466255506
 10
-0.442706717650253
 20
0.0400800176234952
 10
-0.445368884424624
 20
0.0402210221343466
 10
-0.44802532172298
 20
0.0404454215236001
 10
-0.450673417767575
 20
0.0407529951648939
 10
-0.453310568981578
 20
0.0411434406551052
 10
-0.455934182548845
 20
0.0416163741131186
 10
-0.458541678963229
 20
0.0421713305559024
 10
-0.461130494565623
 20
0.0428077643573488
 10
-0.463698084062344
 20
0.0435250497828292
 10
-0.466241923030339
 20
0.0443224816060592
 10
-0.468759510396012
 20
0.0451992758012238
 10
-0.471248370898138
 20
0.046154570314684
 10
-0.473706057518029
 20
0.0471874259121705
 10
-0.47613015388697
 20
0.0482968271021491
 10
-0.478518276661816
 20
0.0494816831344451
 10
-0.480868077869218
 20
0.0507408290727653
 10
-0.483177247211188
 20
0.0520730269390697
 10
-0.485443514340204
 20
0.0534769669327488
 10
-0.48766465108929
 20
0.054951268716195
 10
-0.48983847366253
 20
0.0564944827733598
 10
-0.491962844783302
 20
0.0581050918342498
 10
-0.494035675794748
 20
0.0597815123671808
 10
-0.496054928714329
 20
0.0615220961351497
 10
-0.498018618236074
 20
0.0633251318165549
 10
-0.49992481368372
 20
0.0651888466879882
 10
-0.501771640907918
 20
0.0671114083670545
 10
-0.503557284130238
 20
0.0690909266136259
 10
-0.505279987727135
 20
0.0711254551888487
 10
-0.506938057957086
 20
0.0732129937680384
 10
-0.508529864624052
 20
0.075351489907689
 10
-0.510053842683647
 20
0.0775388410640971
 10
-0.51150849377791
 20
0.0797728966588238
 10
-0.512892387710963
 20
0.0820514601948616
 10
-0.514204163854629
 20
0.0843722914155478
 10
-0.515442532486304
 20
0.086733108506678
 10
-0.516606276056336
 20
0.0891315903409122
 10
-0.517694250386285
 20
0.0915653787590145
 10
-0.518705385791691
 20
0.0940320808890647
 10
-0.519638688136638
 20
0.0965292714984116
 10
-0.520493239808729
 20
0.0990544953785957
 10
-0.521268200623581
 20
0.101605269759375
 10
-0.521962808648823
 20
0.104179086749127
 10
-0.522576380953524
 20
0.106773415801854
 10
-0.523108314280762
 20
0.109385706203284
 10
-0.523558085640161
 20
0.112013389580397
 10
-0.5239252528213
 20
0.114653882425955
 10
-0.52420945483027
 20
0.117304588638262
 10
-0.524410412243014
 20
0.119962902074349
 10
-0.524527927480449
 20
0.122626209111559
 10
-0.52456188500264
 20
0.125291891218012
 10
-0.524512251423403
 20
0.127957327526474
 10
-0.524379075541219
 20
0.130619897411179
 10
-0.524162488294223
 20
0.133276983064661
 10
-0.523862702627412
 20
0.135925972071846
 10
-0.523480013287099
 20
0.138564259977784
 10
-0.523014796528514
 20
0.141189252849017
 10
-0.522467509747457
 20
0.143798369823344
 10
-0.521838691029643
 20
0.146389045647538
 10
-0.521128958622739
 20
0.148958733199834
 10
-0.520339010327461
 20
0.151504905993761
 10
-0.519469622810448
 20
0.154025060662207
 10
-0.518521650844377
 20
0.156516719418278
 10
-0.517496026463959
 20
0.158977432493202
 10
-0.516393758050981
 20
0.161404780542171
 10
-0.515215929342503
 20
0.163796377025619
 10
-0.513963698365842
 20
0.166149870553909
 10
-0.512638296299883
 20
0.168462947199714
 10
-0.511241026264088
 20
0.17073333277358
 10
-0.509773262038379
 20
0.172958795059003
 10
-0.50823644671118
 20
0.175137146007728
 10
-0.506632091261054
 20
0.177266243890699
 10
-0.5049617730715
 20
0.179343995404224
 10
-0.503227134379358
 20
0.181368357727024
 10
-0.501429880661362
 20
0.183337340529988
 10
-0.499571778955669
 20
0.185249007932725
 10
-0.497654656126997
 20
0.187101480406227
 10
-0.495680397066735
 20
0.188892936621187
 10
-0.493650942844397
 20
0.190621615239024
 10
-0.491568288794042
 20
0.192285816643562
 10
-0.489434482557954
 20
0.193883904611084
 10
-0.48725162206847
 20
0.195414307920601
 10
-0.485021853488888
 20
0.196875521897709
 10
-0.482747369100707
 20
0.198266109893666
 10
-0.480430405150855
 20
0.199584704699191
 10
-0.478073239650712
 20
0.200830009887113
 10
-0.475678190137387
 20
0.202000801087934
 10
-0.473247611395891
 20
0.203095927193772
 10
-0.470783893142652
 20
0.20411431148932
 10
-0.468289457675837
 20
0.205054952711407
 10
-0.465766757495658
 20
0.205916926032387
 10
-0.463218272890572
 20
0.206699383970545
 10
-0.460646509501203
 20
0.207401557222056
 10
-0.458053995855153
 20
0.208022755418597
 10
-0.455443280880445
 20
0.208562367805598
 10
-0.45281693140214
 20
0.209019863842514
 10
-0.450177529615758
 20
0.209394793724186
 10
-0.447527670550244
 20
0.209686788824456
 10
-0.444869959515472
 20
0.209895562057
 10
-0.442207009542017
 20
0.210020908158413
 10
-0.43954143881092
 20
0.210062703889889
 10
-0.436875868079824
 20
0.210020908158413
 10
-0.434212918106368
 20
0.209895562057
 10
-0.431555207071597
 20
0.209686788824456
 10
-0.428905348006083
 20
0.209394793724186
 10
-0.426265946219701
 20
0.209019863842514
 10
-0.423639596741396
 20
0.208562367805598
 10
-0.421028881766688
 20
0.208022755418597
 10
-0.418436368120638
 20
0.207401557222056
 10
-0.415864604731269
 20
0.206699383970545
 10
-0.413316120126183
 20
0.205916926032387
 10
-0.410793419946003
 20
0.205054952711407
 10
-0.408298984479188
 20
0.20411431148932
 10
-0.405835266225949
 20
0.203095927193772
 10
-0.403404687484453
 20
0.202000801087934
 10
-0.401009637971129
 20
0.200830009887113
 10
-0.398652472470985
 20
0.199584704699191
 10
-0.396335508521133
 20
0.198266109893666
 10
-0.394061024132952
 20
0.196875521897709
 10
-0.39183125555337
 20
0.195414307920601
 10
-0.389648395063887
 20
0.193883904611084
 10
-0.387514588827798
 20
0.192285816643562
 10
-0.385431934777444
 20
0.190621615239024
 10
-0.383402480555105
 20
0.188892936621187
 10
-0.381428221494843
 20
0.187101480406227
 10
-0.379511098666171
 20
0.185249007932725
 10
-0.377652996960478
 20
0.183337340529988
 10
-0.375855743242482
 20
0.181368357727024
 10
-0.374121104550341
 20
0.179343995404224
 10
-0.372450786360787
 20
0.177266243890699
 10
-0.37084643091066
 20
0.175137146007728
 10
-0.369309615583461
 20
0.172958795059003
 10
-0.367841851357753
 20
0.17073333277358
 10
-0.366444581321957
 20
0.168462947199714
 10
-0.365119179255998
 20
0.166149870553909
 10
-0.363866948279338
 20
0.163796377025619
 10
-0.362689119570859
 20
0.161404780542171
 10
-0.361586851157881
 20
0.158977432493202
 10
-0.360561226777463
 20
0.156516719418278
 10
-0.359613254811393
 20
0.154025060662207
 10
-0.358743867294379
 20
0.151504905993761
 10
-0.357953918999101
 20
0.148958733199834
 10
-0.357244186592197
 20
0.146389045647538
 10
-0.356615367874383
 20
0.143798369823344
 10
-0.356068081093326
 20
0.141189252849017
 10
-0.355602864334742
 20
0.138564259977784
 10
-0.355220174994429
 20
0.135925972071846
 10
-0.354920389327617
 20
0.133276983064661
 10
-0.354703802080621
 20
0.130619897411179
 10
-0.354570626198438
 20
0.127957327526474
 10
-0.3545209926192
 20
0.125291891218012
 10
-0.354554950141392
 20
0.122626209111559
 10
-0.354672465378826
 20
0.119962902074349
 10
-0.35487342279157
 20
0.117304588638262
 10
-0.35515762480054
 20
0.114653882425955
 10
-0.355524791981679
 20
0.112013389580397
 10
-0.355974563341078
 20
0.109385706203284
 10
-0.356506496668317
 20
0.106773415801854
 10
-0.357120068973018
 20
0.104179086749127
 10
-0.35781467699826
 20
0.101605269759375
 10
-0.358589637813111
 20
0.0990544953785957
 10
-0.359444189485203
 20
0.0965292714984116
 10
-0.36037749183015
 20
0.0940320808890647
 10
-0.361388627235556
 20
0.0915653787590145
 10
-0.362476601565504
 20
0.0891315903409122
 10
-0.363640345135536
 20
0.086733108506678
 10
-0.364878713767212
 20
0.0843722914155478
 10
-0.366190489910878
 20
0.0820514601948616
 10
-0.36757438384393
 20
0.0797728966588238
 10
-0.369029034938194
 20
0.0775388410640971
 10
-0.370553012997789
 20
0.075351489907689
 10
-0.372144819664754
 20
0.0732129937680384
 10
-0.373802889894705
 20
0.0711254551888487
 10
-0.375525593491602
 20
0.0690909266136259
 10
-0.377311236713922
 20
0.0671114083670545
 10
-0.379158063938121
 20
0.0651888466879882
 10
-0.381064259385766
 20
0.0633251318165549
 10
-0.383027948907511
 20
0.0615220961351497
 10
-0.385047201827092
 20
0.0597815123671808
 10
-0.387120032838538
 20
0.0581050918342498
 10
-0.38924440395931
 20
0.0564944827733598
 10
-0.391418226532551
 20
0.054951268716195
 10
-0.393639363281636
 20
0.0534769669327488
 10
-0.395905630410653
 20
0.0520730269390697
 10
-0.398214799752623
 20
0.0507408290727653
 10
-0.400564600960024
 20
0.0494816831344451
 10
-0.40295272373487
 20
0.0482968271021491
 10
-0.405376820103811
 20
0.0471874259121705
 10
-0.407834506723702
 20
0.046154570314684
 10
-0.410323367225828
 20
0.0451992758012238
 10
-0.412840954591502
 20
0.0443224816060592
 10
-0.415384793559497
 20
0.0435250497828292
 10
-0.417952383056218
 20
0.0428077643573488
 10
-0.420541198658611
 20
0.0421713305559024
 10
-0.423148695072996
 20
0.0416163741131186
 10
-0.425772308640262
 20
0.0411434406551052
 10
-0.428409459854265
 20
0.0407529951648939
 10
-0.43105755589886
 20
0.0404454215236001
 10
-0.433713993197216
 20
0.0402210221343466
 10
-0.436376159971587
 20
0.0400800176234952
 10
-0.439041438810818
 20
0.0400225466255506
 10
-0.439041438810818
 20
2.89365416392684e-05
 10
-0.221028349427797
 20
6.61730337014887e-05
 10
-0.221028349427797
 20
0.0400597831180676
 10
-0.223693359885146
 20
0.0401172499025506
 10
-0.226355258541844
 20
0.0402582417718804
 10
-0.229011428252761
 20
0.0404826201040578
 10
-0.231659257502997
 20
0.0407901642936395
 10
-0.234296142979929
 20
0.0411805719666063
 10
-0.236919492128891
 20
0.0416534592789048
 10
-0.239526725705218
 20
0.042208361293433
 10
-0.242115280308553
 20
0.0428447324372883
 10
-0.244682610903965
 20
0.0435619470381425
 10
-0.247226193322149
 20
0.0443592999392877
 10
-0.249743526744624
 20
0.0452360071931253
 10
-0.252232136158909
 20
0.0461912068317361
 10
-0.25468957479552
 20
0.0472239597143016
 10
-0.257113426529941
 20
0.0483332504506961
 10
-0.259501308260496
 20
0.049517988399657
 10
-0.261850872251216
 20
0.0507770087417612
 10
-0.264159808439217
 20
0.0521090736228871
 10
-0.266425846706625
 20
0.0535128733733927
 10
-0.268646759111562
 20
0.0549870277941409
 10
-0.270820362080485
 20
0.0565300875146022
 10
-0.272944518553686
 20
0.0581405354171238
 10
-0.275017140085311
 20
0.0598167881289555
 10
-0.277036188899729
 20
0.0615571975788498
 10
-0.278999679892422
 20
0.0633600526170994
 10
-0.280905682583125
 20
0.0652235806987846
 10
-0.282752323013028
 20
0.067145949625683
 10
-0.284537785587418
 20
0.0691252693479782
 10
-0.286260314861465
 20
0.0711595938223581
 10
-0.287918217265542
 20
0.073246922926046
 10
-0.289509862769592
 20
0.0753852044222185
 10
-0.291033686487481
 20
0.0775723359786298
 10
-0.292488190214044
 20
0.0798061672339827
 10
-0.293871943898921
 20
0.0820845019125045
 10
-0.295183587052634
 20
0.0844050999833144
 10
-0.296421830083091
 20
0.0867656798623102
 10
-0.297585455564786
 20
0.0891639206563468
 10
-0.298673319435238
 20
0.0915974644440212
 10
-0.299684352120494
 20
0.0940639185948839
 10
-0.300617559585135
 20
0.0965608581207107
 10
-0.301472024310442
 20
0.0990858280613338
 10
-0.302246906197979
 20
0.101636345896623
 10
-0.302941443392683
 20
0.104209903988703
 10
-0.303554953034109
 20
0.106803972046237
 10
-0.304086831927179
 20
0.109415999613475
 10
-0.304536557134725
 20
0.11204341857615
 10
-0.304903686492707
 20
0.114683645688046
 10
-0.305187859044054
 20
0.11733408510986
 10
-0.305388795393355
 20
0.119992130961919
 10
-0.305506297982902
 20
0.122655169885547
 10
-0.305540251285038
 20
0.125320583613529
 10
-0.30549062191767
 20
0.127985751543292
 10
-0.305357458675644
 20
0.130648053314189
 10
-0.305140892483905
 20
0.133304871383416
 10
-0.304841136266987
 20
0.135953593599424
 10
-0.304458484741644
 20
0.138591615771247
 10
-0.303993314126728
 20
0.141216344227132
 10
-0.303446081772108
 20
0.143825198365903
 10
-0.302817325709839
 20
0.146415613193994
 10
-0.302107664125742
 20
0.148985041847254
 10
-0.301317794749593
 20
0.151530958094327
 10
-0.300448494172088
 20
0.154050858821165
 10
-0.299500617078593
 20
0.156542266492352
 10
-0.298475095410595
 20
0.159002731585815
 10
-0.297372937448017
 20
0.161429835002309
 10
-0.296195226820146
 20
0.163821190443059
 10
-0.294943121436972
 20
0.166174446756713
 10
-0.293617852354146
 20
0.168487290250141
 10
-0.292220722558795
 20
0.170757446963762
 10
-0.290753105693057
 20
0.172982684906856
 10
-0.289216444699832
 20
0.175160816252628
 10
-0.287612250405346
 20
0.177289699488711
 10
-0.285942100033935
 20
0.179367241523323
 10
-0.284207635657367
 20
0.181391399741869
 10
-0.282410562579571
 20
0.183360184016692
 10
-0.280552647661352
 20
0.185271658663396
 10
-0.278635717581892
 20
0.187123944342829
 10
-0.27666165704386
 20
0.188915219910541
 10
-0.274632406918954
 20
0.190643724205984
 10
-0.272549962342055
 20
0.192307757784647
 10
-0.270416370746716
 20
0.193905684589254
 10
-0.268233729854728
 20
0.195435933557292
 10
-0.266004185611564
 20
0.196897000166473
 10
-0.263729930078625
 20
0.198287447914254
 10
-0.261413199276376
 20
0.199605909728916
 10
-0.259056270985639
 20
0.200851089315165
 10
-0.256661462510692
 20
0.202021762427194
 10
-0.25423112839735
 20
0.203116778073536
 10
-0.251767658121025
 20
0.204135059648252
 10
-0.249273473735684
 20
0.205075605989123
 10
-0.246751027492792
 20
0.205937492362409
 10
-0.244202799431605
 20
0.206719871371888
 10
-0.241631294938088
 20
0.207421973792179
 10
-0.23903904228473
 20
0.208043109324535
 10
-0.236428590143078
 20
0.208582667276005
 10
-0.233802505077165
 20
0.20904011715993
 10
-0.231163369022852
 20
0.209415009217082
 10
-0.22851377674624
 20
0.209706974858136
 10
-0.22585633329436
 20
0.2099157270261
 10
-0.223193651433121
 20
0.210041060478261
 10
-0.220528349079359
 20
0.210082851988318
 10
-0.217863046725597
 20
0.210041060467347
 10
-0.215200364864813
 20
0.209915727004272
 10
-0.212542921413842
 20
0.209706974825394
 10
-0.209893329138595
 20
0.209415009173654
 10
-0.207254193085646
 20
0.209040117105587
 10
-0.204628108022007
 20
0.208582667210749
 10
-0.202017655882173
 20
0.208043109248592
 10
-0.199425403231544
 20
0.20742197370555
 10
-0.19685389874121
 20
0.2067198712748
 10
-0.194305670682752
 20
0.205937492254861
 10
-0.191783224443498
 20
0.205075605871343
 10
-0.189289040062249
 20
0.20413505952024
 10
-0.186825569790017
 20
0.20311677793552
 10
-0.184395235681222
 20
0.202021762279173
 10
-0.182000427210824
 20
0.20085108915714
 10
-0.179643498925543
 20
0.199605909561569
 10
-0.177326768128296
 20
0.198287447737357
 10
-0.175052512601269
 20
0.196896999980254
 10
-0.172822968364017
 20
0.19543593336175
 10
-0.170640327478395
 20
0.193905684384845
 10
-0.168506735889423
 20
0.192307757571598
 10
-0.166424291319345
 20
0.190643723984294
 10
-0.164395041201715
 20
0.188915219680439
 10
-0.162420980670959
 20
0.187123944104769
 10
-0.160504050599229
 20
0.185271658417378
 10
-0.158646135688741
 20
0.18336018376317
 10
-0.156849062619131
 20
0.181391399480844
 10
-0.155114598250748
 20
0.17936724125525
 10
-0.153444447887523
 20
0.177289699213816
 10
-0.151840253601677
 20
0.17516081597114
 10
-0.150303592617547
 20
0.172982684619001
 10
-0.148835975760903
 20
0.170757446669995
 10
-0.147438845975103
 20
0.16848728995069
 10
-0.146113576901371
 20
0.166174446451805
 10
-0.144861471528202
 20
0.163821190133149
 10
-0.14368376090988
 20
0.161429834687397
 10
-0.142581602957762
 20
0.159002731266355
 10
-0.141556081299768
 20
0.156542266168572
 10
-0.140608204216278
 20
0.154050858493747
 10
-0.139738903649231
 20
0.151530957763271
 10
-0.138949034283542
 20
0.148985041513015
 10
-0.13823937270945
 20
0.146415612856799
 10
-0.137610616658094
 20
0.143825198026207
 10
-0.137063384313933
 20
0.141216343884935
 10
-0.136598213709931
 20
0.138591615427231
 10
-0.136215562195503
 20
0.135953593254044
 10
-0.135915805989498
 20
0.133304871036671
 10
-0.135699239808673
 20
0.130648052966535
 10
-0.135566076577561
 20
0.127985751195183
 10
-0.135516447221107
 20
0.125320583265193
 10
-0.135550400534157
 20
0.122655169537438
 10
-0.135667903134618
 20
0.119992130614264
 10
-0.135868839494833
 20
0.117334084762888
 10
-0.136153012056639
 20
0.114683645342211
 10
-0.136520141425535
 20
0.112043418231906
 10
-0.136969866643994
 20
0.10941599927105
 10
-0.137501745547979
 20
0.106803971706086
 10
-0.138115255199864
 20
0.104209903651054
 10
-0.138809792405027
 20
0.101636345561701
 10
-0.139584674303023
 20
0.0990858277295956
 10
-0.14043913903879
 20
0.0965608577926105
 10
-0.141372346513435
 20
0.0940639182704217
 10
-0.142383379208695
 20
0.091597464123879
 10
-0.143471243089607
 20
0.0891639203405248
 10
-0.144634868581306
 20
0.086765679551263
 10
-0.145873111621313
 20
0.0844050996772694
 10
-0.147184754784121
 20
0.0820845016119165
 10
-0.148568508478547
 20
0.079806166939079
 10
-0.150023012214206
 20
0.0775723356896378
 10
-0.15154683594119
 20
0.075385204139593
 10
-0.15313848145388
 20
0.0732469226500143
 10
-0.154796383866142
 20
0.0711595935531477
 10
-0.15651891314883
 20
0.069125269085589
 10
-0.158304375731404
 20
0.0671459493705697
 10
-0.160151016169038
 20
0.0652235804514021
 10
-0.162057018867472
 20
0.0633600523774476
 10
-0.164020509867441
 20
0.0615571973473834
 10
-0.166039558689135
 20
0.0598167879056746
 10
-0.168112180228036
 20
0.0581405352024831
 10
-0.170236336707148
 20
0.0565300873086017
 10
-0.172409939682439
 20
0.0549870275970079
 10
-0.174630852093742
 20
0.0535128731853547
 10
-0.176896890366606
 20
0.0521090734441714
 10
-0.179205826560064
 20
0.0507770085723678
 10
-0.181555390556241
 20
0.0495179882400407
 10
-0.183943272291799
 20
0.0483332503006295
 10
-0.186367124030767
 20
0.0472239595742394
 10
-0.188824562671016
 20
0.0461912067016783
 10
-0.191313172089849
 20
0.0452360070735267
 10
-0.193830505515507
 20
0.0443592998299209
 10
-0.196374087937329
 20
0.043561946939235
 10
-0.198941418535014
 20
0.0428447323488399
 10
-0.201529973141078
 20
0.0422083612154438
 10
-0.204137206720134
 20
0.0416534592116022
 10
-0.206760555870915
 20
0.0411805719102176
 10
-0.209397441349211
 20
0.0407901642479374
 10
-0.212045270600811
 20
0.0404826200692696
 10
-0.214701440312638
 20
0.0402582417480062
 10
-0.217363338970245
 20
0.0401172498895903
 10
-0.220028349427594
 20
0.0400597831160212
 10
-0.220028349427594
 20
6.61730337014887e-05
 10
-0.000515260218435287
 20
9.70243729625508e-05
 10
-0.000515260218890035
 20
0.0400906344550549
 10
-0.00318027067623916
 20
0.0401481012333988
 10
-0.00584216933339121
 20
0.0402890930963622
 10
-0.00849833904476327
 20
0.0405134714228552
 10
-0.0111461682959089
 20
0.0408210156062978
 10
-0.0137830537732953
 20
0.0412114232731255
 10
-0.0164064029236215
 20
0.0416843105795124
 10
-0.0190136365013132
 20
0.0422392125881288
 10
-0.0216021911060125
 20
0.0428755837260724
 10
-0.0241695217027882
 20
0.0435927983210149
 10
-0.0267131041227913
 20
0.0443901512164757
 10
-0.0292304375470849
 20
0.045266858464629
 10
-0.0317190469636444
 20
0.0462220580975554
 10
-0.0341764856025293
 20
0.0472548109744366
 10
-0.0366003373392232
 20
0.0483641017051468
 10
-0.0389882190725075
 20
0.0495488396488781
 10
-0.0413377830664103
 20
0.0508078599855253
 10
-0.0436467192571399
 20
0.0521399248614216
 10
-0.0459127575277307
 20
0.0535437246066977
 10
-0.0481336699363055
 20
0.0550178790224436
 10
-0.0503072729088672
 20
0.0565609387381301
 10
-0.0524314293852512
 20
0.0581713866356495
 10
-0.0545040509209684
 20
0.0598476393429337
 10
-0.0565230997390245
 20
0.0615880487880531
 10
-0.0584865907358108
 20
0.0633909038219826
 10
-0.060392593431061
 20
0.0652544318991204
 10
-0.062239233865057
 20
0.067176800821926
 10
-0.0640246964439939
 20
0.0691561205399012
 10
-0.0657472257230438
 20
0.0711904450106431
 10
-0.0674051281316679
 20
0.0732777741104655
 10
-0.068996773640265
 20
0.0754160556030001
 10
-0.0705205973631564
 20
0.0776031871560008
 10
-0.0719751010951768
 20
0.0798370184079431
 10
-0.0733588547850559
 20
0.0821153530832817
 10
-0.0746704979437709
 20
0.0844359511509083
 10
-0.0759087409796848
 20
0.0867965310271757
 10
-0.0770723664668367
 20
0.0891947718187112
 10
-0.078160230343201
 20
0.0916283156038844
 10
-0.0791712630339134
 20
0.0940947697522461
 10
-0.0801044705040113
 20
0.0965917092760264
 10
-0.0809589352352305
 20
0.0991166792146032
 10
-0.0817338171282245
 20
0.101667197048073
 10
-0.0824283543288402
 20
0.104240755138562
 10
-0.0830418639761774
 20
0.106834823194731
 10
-0.08357374287516
 20
0.109446850760605
 10
-0.0840234680886169
 20
0.11207426972237
 10
-0.0843905974529662
 20
0.114714496833358
 10
-0.0846747700102242
 20
0.117364936254489
 10
-0.0848757063654375
 20
0.120022982106093
 10
-0.0849932089608956
 20
0.122686021029494
 10
-0.0850271622693981
 20
0.125351434757476
 10
-0.0849775329079421
 20
0.128016602687239
 10
-0.0848443696722825
 20
0.130678904458364
 10
-0.0846278034860006
 20
0.133335722528045
 10
-0.0843280472754486
 20
0.135984444744736
 10
-0.0839453957564729
 20
0.138622466917241
 10
-0.0834802251474684
 20
0.141247195374262
 10
-0.0829329927987601
 20
0.143856049514397
 10
-0.0823042367424023
 20
0.146446464343853
 10
-0.0815945751637628
 20
0.149015892998705
 10
-0.0808047057935255
 20
0.151561809247369
 10
-0.0799354052214767
 20
0.154081709976253
 10
-0.0789875281338936
 20
0.156573117649486
 10
-0.0779620064713527
 20
0.159033582745451
 10
-0.0768598485146867
 20
0.161460686164446
 10
-0.0756821378922723
 20
0.163852041607925
 10
-0.0744300325145559
 20
0.166205297924307
 10
-0.0731047634367314
 20
0.168518141420691
 10
-0.0717076336468381
 20
0.170788298137495
 10
-0.0702400167861015
 20
0.173013536083772
 10
-0.0687033557978793
 20
0.175191667433182
 10
-0.0670991615079402
 20
0.177320550672903
 10
-0.0654290111415321
 20
0.179398092711153
 10
-0.0636945467695114
 20
0.181422250933565
 10
-0.0618974736962628
 20
0.183391035212708
 10
-0.0600395587821367
 20
0.185302509863504
 10
-0.0581226287072241
 20
0.187154795547258
 10
-0.05614856817283
 20
0.188946071119517
 10
-0.0541193180520168
 20
0.190674575419507
 10
-0.0520368734787553
 20
0.192338609002945
 10
-0.0499032818870546
 20
0.193936535812327
 10
-0.0477206409987048
 20
0.195466784785367
 10
-0.0454910967591786
 20
0.196927851399778
 10
-0.0432168412294232
 20
0.198318299152561
 10
-0.0409001104299023
 20
0.19963676097268
 10
-0.0385431821423481
 20
0.200881940563931
 10
-0.0361483736696755
 20
0.202052613681417
 10
-0.0337180395590622
 20
0.203147629333444
 10
-0.0312545692850108
 20
0.204165910913616
 10
-0.0287603849019433
 20
0.205106457260172
 10
-0.02623793866087
 20
0.205968343639142
 10
-0.0236897106015022
 20
0.206750722654533
 10
-0.0211182061098043
 20
0.207452825080509
 10
-0.0185259534578108
 20
0.208073960618776
 10
-0.0159155013170675
 20
0.208613518576385
 10
-0.013289416252519
 20
0.209070968466222
 10
-0.0106502801991155
 20
0.209445860529513
 10
-0.00800068792341335
 20
0.209737826176479
 10
-0.00534324447198742
 20
0.209946578350582
 10
-0.00268056261120364
 20
0.210071911808654
 10
-1.5260257441696e-05
 20
0.210113703324851
 10
0.002650042096775
 20
0.210071911810019
 10
0.00531272395755877
 20
0.209946578352856
 10
0.00797016740898471
 20
0.209737826180117
 10
0.0106197596851416
 20
0.209445860534288
 10
0.0132588957385451
 20
0.209070968472361
 10
0.0158849808035484
 20
0.208613518583661
 10
0.0184954329442917
 20
0.208073960627189
 10
0.0210876855962852
 20
0.207452825090286
 10
0.0236591900884378
 20
0.20675072266522
 10
0.0262074181487151
 20
0.205968343651193
 10
0.0287298643897884
 20
0.205106457273359
 10
0.0312240487733106
 20
0.204165910927941
 10
0.0336875190478167
 20
0.203147629348678
 10
0.0361178531593396
 20
0.202052613698015
 10
0.0385126616320122
 20
0.200881940581439
 10
0.0408695899204758
 20
0.199636760991098
 10
0.0431863207204515
 20
0.198318299172342
 10
0.0454605762506617
 20
0.196927851420469
 10
0.0476901204910973
 20
0.195466784806968
 10
0.0498727613803567
 20
0.193936535835064
 10
0.0520063529725121
 20
0.192338609026592
 10
0.0540887975466831
 20
0.190674575444064
 10
0.056118047667951
 20
0.188946071144983
 10
0.0580921082032546
 20
0.187154795573861
 10
0.0600090382790768
 20
0.185302509890789
 10
0.0618669531936575
 20
0.183391035240902
 10
0.0636640262678156
 20
0.181422250962669
 10
0.0653984906407459
 20
0.179398092740939
 10
0.0670686410085182
 20
0.177320550703371
 10
0.0686728352993669
 20
0.175191667464333
 10
0.0702094962884985
 20
0.173013536115832
 10
0.0716771131501446
 20
0.17078829817001
 10
0.0730742429409474
 20
0.168518141453887
 10
0.0743995120201362
 20
0.166205297958186
 10
0.075651617398762
 20
0.163852041642258
 10
0.0768293280225407
 20
0.161460686199234
 10
0.0779314859801161
 20
0.159033582780921
 10
0.0789570076435666
 20
0.156573117685411
 10
0.0799048847325139
 20
0.154081710012633
 10
0.0807741853054722
 20
0.151561809284203
 10
0.0815640546770737
 20
0.149015893035767
 10
0.0822737162566227
 20
0.14644646438137
 10
0.0829024723143448
 20
0.143856049552141
 10
0.0834497046644174
 20
0.141247195412234
 10
0.0839148752743313
 20
0.138622466955439
 10
0.0842975267946713
 20
0.135984444783162
 10
0.0845972830065875
 20
0.133335722566471
 10
0.0848138491937789
 20
0.130678904497017
 10
0.0849470124308027
 20
0.128016602725893
 10
0.0849966417931682
 20
0.12535143479613
 10
0.0849626884860299
 20
0.122686021068148
 10
0.0848451858919361
 20
0.120022982144746
 10
0.0846442495376323
 20
0.117364936293143
 10
0.0843600769817385
 20
0.114714496871784
 10
0.0839929476192083
 20
0.112074269760569
 10
0.0835432224066608
 20
0.109446850798577
 10
0.0830113435085877
 20
0.106834823232703
 10
0.0823978338626148
 20
0.104240755176079
 10
0.0817032966633633
 20
0.101667197085362
 10
0.0809284147712788
 20
0.0991166792514377
 10
0.0800739500409691
 20
0.0965917093124062
 10
0.0791407425722355
 20
0.0940947697881711
 10
0.0781297098824325
 20
0.0916283156393547
 10
0.0770418460074325
 20
0.0891947718537267
 10
0.0758782205211901
 20
0.0867965310617365
 10
0.0746399774866404
 20
0.0844359511850143
 10
0.0733283343288349
 20
0.0821153531167056
 10
0.0719445806398653
 20
0.0798370184406849
 10
0.0704900769092092
 20
0.0776031871880605
 10
0.0689662531872273
 20
0.0754160556343777
 10
0.0673746076790849
 20
0.073277774141161
 10
0.0657167052713703
 20
0.071190445040429
 10
0.0639941759936846
 20
0.069156120569005
 10
0.0622087134156573
 20
0.0671768008501203
 10
0.0603620729821159
 20
0.0652544319266326
 10
0.05845607028823
 20
0.063390903848358
 10
0.0564925792923532
 20
0.0615880488137464
 10
0.0544735304747519
 20
0.0598476393677174
 10
0.0524009089399442
 20
0.0581713866595237
 10
0.0502767524640149
 20
0.0565609387608674
 10
0.0481031494923627
 20
0.0550178790442715
 10
0.0458822370846974
 20
0.053543724627616
 10
0.0436161988145614
 20
0.0521399248812031
 10
0.0413072626242865
 20
0.0508078600043973
 10
0.0389576986312932
 20
0.0495488396666133
 10
0.0365698168984636
 20
0.0483641017219725
 10
0.0341459651622245
 20
0.047254810989898
 10
0.0316885265237943
 20
0.04622205811188
 10
0.0291999171076895
 20
0.0452668584778166
 10
0.0266825836838507
 20
0.0443901512287539
 10
0.0241390012638476
 20
0.0435927983321562
 10
0.0215716706675266
 20
0.0428755837358494
 10
0.0189831160628273
 20
0.042239212596769
 10
0.0163758824855904
 20
0.0416843105867883
 10
0.0137525333357189
 20
0.041211423279492
 10
0.0111156478583325
 20
0.0408210156113
 10
0.00846781860718693
 20
0.0405134714264932
 10
0.00581164889626962
 20
0.0402890930990907
 10
0.00314975023911757
 20
0.0401481012347631
 10
0.00048473978176844
 20
0.0400906344552823
 10
0.00048473978176844
 20
9.70243729625508e-05
 10
0.219497829164993
 20
0.000134260865024771
 10
0.219497829396914
 20
0.0401278709466624
 10
0.216832818939565
 20
0.0401853377250063
 10
0.214170920282413
 20
0.0403263295879697
 10
0.211514750571041
 20
0.0405507079144627
 10
0.208866921319895
 20
0.0408582520979053
 10
0.206230035842509
 20
0.041248659764733
 10
0.203606686692183
 20
0.0417215470711199
 10
0.200999453114491
 20
0.0422764490797363
 10
0.198410898509792
 20
0.0429128202176798
 10
0.195843567913016
 20
0.0436300348126224
 10
0.193299985493013
 20
0.0444273877080832
 10
0.190782652068719
 20
0.0453040949562364
 10
0.18829404265216
 20
0.0462592945891629
 10
0.185836604013275
 20
0.0472920474660441
 10
0.183412752276581
 20
0.0484013381967543
 10
0.181024870543297
 20
0.0495860761404856
 10
0.178675306549394
 20
0.0508450964771328
 10
0.176366370358664
 20
0.0521771613530291
 10
0.174100332088074
 20
0.0535809610983051
 10
0.171879419679499
 20
0.0550551155140511
 10
0.169705816706937
 20
0.0565981752297375
 10
0.167581660230553
 20
0.0582086231272569
 10
0.165509038694836
 20
0.0598848758345412
 10
0.16348998987678
 20
0.0616252852796606
 10
0.161526498879994
 20
0.0634281403135901
 10
0.159620496184743
 20
0.0652916683907279
 10
0.157773855750747
 20
0.0672140373135335
 10
0.15598839317181
 20
0.0691933570315086
 10
0.154265863892761
 20
0.0712276815022506
 10
0.152607961484136
 20
0.073315010602073
 10
0.151016315975539
 20
0.0754532920946076
 10
0.149492492252648
 20
0.0776404236476083
 10
0.148037988520628
 20
0.0798742548995506
 10
0.146654234830748
 20
0.0821525895748891
 10
0.145342591672033
 20
0.0844731876425158
 10
0.14410434863612
 20
0.0868337675187831
 10
0.142940723148968
 20
0.0892320083103186
 10
0.141852859272603
 20
0.0916655520954919
 10
0.140841826581891
 20
0.0941320062438535
 10
0.139908619111793
 20
0.0966289457676339
 10
0.139054154380574
 20
0.0991539157062107
 10
0.13827927248758
 20
0.10170443353968
 10
0.137584735286964
 20
0.10427799163017
 10
0.136971225639627
 20
0.106872059686339
 10
0.136439346740644
 20
0.109484087252213
 10
0.135989621527187
 20
0.112111506213978
 10
0.135622492162838
 20
0.114751733324965
 10
0.13533831960558
 20
0.117402172746097
 10
0.135137383250367
 20
0.1200602185977
 10
0.135019880654909
 20
0.122723257521102
 10
0.134985927346406
 20
0.125388671249084
 10
0.135035556707862
 20
0.128053839178847
 10
0.135168719943522
 20
0.130716140949971
 10
0.135385286129804
 20
0.133372959019653
 10
0.135685042340356
 20
0.136021681236343
 10
0.136067693859331
 20
0.138659703408848
 10
0.136532864468336
 20
0.14128443186587
 10
0.137080096817044
 20
0.143893286006005
 10
0.137708852873402
 20
0.146483700835461
 10
0.138418514452042
 20
0.149053129490312
 10
0.139208383822279
 20
0.151599045738976
 10
0.140077684394328
 20
0.154118946467861
 10
0.141025561481911
 20
0.156610354141094
 10
0.142051083144452
 20
0.159070819237058
 10
0.143153241101118
 20
0.161497922656054
 10
0.144330951723532
 20
0.163889278099532
 10
0.145583057101248
 20
0.166242534415915
 10
0.146908326179073
 20
0.168555377912298
 10
0.148305455968966
 20
0.170825534629103
 10
0.149773072829703
 20
0.17305077257538
 10
0.151309733817925
 20
0.17522890392479
 10
0.152913928107864
 20
0.17735778716451
 10
0.154584078474272
 20
0.179435329202761
 10
0.156318542846293
 20
0.181459487425172
 10
0.158115615919542
 20
0.183428271704315
 10
0.159973530833668
 20
0.185339746355112
 10
0.16189046090858
 20
0.187192032038865
 10
0.163864521442974
 20
0.188983307611124
 10
0.165893771563788
 20
0.190711811911115
 10
0.167976216137049
 20
0.192375845494553
 10
0.17010980772875
 20
0.193973772303934
 10
0.1722924486171
 20
0.195504021276975
 10
0.174521992856626
 20
0.196965087891385
 10
0.176796248386381
 20
0.198355535644168
 10
0.179112979185902
 20
0.199673997464288
 10
0.181469907473456
 20
0.200919177055539
 10
0.183864715946129
 20
0.202089850173024
 10
0.186295050056742
 20
0.203184865825051
 10
0.188758520330794
 20
0.204203147405224
 10
0.191252704713861
 20
0.205143693751779
 10
0.193775150954934
 20
0.20600558013075
 10
0.196323379014302
 20
0.206787959146141
 10
0.198894883506
 20
0.207490061572116
 10
0.201487136157994
 20
0.208111197110384
 10
0.204097588298737
 20
0.208650755067993
 10
0.206723673363285
 20
0.209108204957829
 10
0.209362809416689
 20
0.209483097021121
 10
0.212012401692391
 20
0.209775062668086
 10
0.214669845143817
 20
0.20998381484219
 10
0.217332527004601
 20
0.210109148300262
 10
0.219997829358363
 20
0.210150939816458
 10
0.222663131712579
 20
0.210109148301626
 10
0.225325813573363
 20
0.209983814844463
 10
0.227983257024789
 20
0.209775062671724
 10
0.230632849300946
 20
0.209483097025895
 10
0.233271985354349
 20
0.209108204963968
 10
0.235898070419353
 20
0.208650755075269
 10
0.238508522560096
 20
0.208111197118797
 10
0.24110077521209
 20
0.207490061581893
 10
0.243672279704242
 20
0.206787959156827
 10
0.246220507764519
 20
0.206005580142801
 10
0.248742954005593
 20
0.205143693764967
 10
0.251237138389115
 20
0.204203147419548
 10
0.253700608663621
 20
0.203184865840285
 10
0.256130942775144
 20
0.202089850189623
 10
0.258525751247817
 20
0.200919177073047
 10
0.26088267953628
 20
0.199673997482705
 10
0.263199410336256
 20
0.19835553566395
 10
0.265473665866466
 20
0.196965087912076
 10
0.267703210106902
 20
0.195504021298575
 10
0.269885850996161
 20
0.193973772326672
 10
0.272019442588316
 20
0.1923758455182
 10
0.274101887162487
 20
0.190711811935671
 10
0.276131137283755
 20
0.18898330763659
 10
0.278105197819059
 20
0.187192032065468
 10
0.280022127894881
 20
0.185339746382397
 10
0.281880042809462
 20
0.18342827173251
 10
0.28367711588362
 20
0.181459487454276
 10
0.28541158025655
 20
0.179435329232547
 10
0.287081730624323
 20
0.177357787194978
 10
0.288685924915171
 20
0.17522890395594
 10
0.290222585904303
 20
0.173050772607439
 10
0.291690202765949
 20
0.170825534661617
 10
0.293087332556752
 20
0.168555377945495
 10
0.294412601635941
 20
0.166242534449793
 10
0.295664707014566
 20
0.163889278133865
 10
0.296842417638345
 20
0.161497922690842
 10
0.29794457559592
 20
0.159070819272529
 10
0.298970097259371
 20
0.156610354177019
 10
0.299917974348318
 20
0.154118946504241
 10
0.300787274921277
 20
0.151599045775811
 10
0.301577144292878
 20
0.149053129527374
 10
0.302286805872427
 20
0.146483700872977
 10
0.302915561930149
 20
0.143893286043749
 10
0.303462794280222
 20
0.141284431903841
 10
0.303927964890136
 20
0.138659703447047
 10
0.304310616410476
 20
0.136021681274769
 10
0.304610372622392
 20
0.133372959058079
 10
0.304826938809583
 20
0.130716140988625
 10
0.304960102046607
 20
0.1280538392175
 10
0.305009731408973
 20
0.125388671287737
 10
0.304975778101834
 20
0.122723257559755
 10
0.30485827550774
 20
0.120060218636354
 10
0.304657339153437
 20
0.11740217278475
 10
0.304373166597543
 20
0.114751733363391
 10
0.304006037235013
 20
0.112111506252177
 10
0.303556312022465
 20
0.109484087290184
 10
0.303024433124392
 20
0.10687205972431
 10
0.302410923478419
 20
0.104277991667686
 10
0.301716386279168
 20
0.10170443357697
 10
0.300941504387083
 20
0.0991539157430452
 10
0.300087039656773
 20
0.0966289458040137
 10
0.29915383218804
 20
0.0941320062797786
 10
0.298142799498237
 20
0.0916655521309622
 10
0.297054935623237
 20
0.0892320083453342
 10
0.295891310136994
 20
0.0868337675533439
 10
0.294653067102445
 20
0.0844731876766218
 10
0.293341423944639
 20
0.0821525896083131
 10
0.29195767025567
 20
0.0798742549322924
 10
0.290503166525014
 20
0.0776404236796679
 10
0.288979342803032
 20
0.0754532921259852
 10
0.287387697294889
 20
0.0733150106327685
 10
0.285729794887175
 20
0.0712276815320365
 10
0.284007265609489
 20
0.0691933570606125
 10
0.282221803031462
 20
0.0672140373417278
 10
0.28037516259792
 20
0.0652916684182401
 10
0.278469159904034
 20
0.0634281403399655
 10
0.276505668908158
 20
0.0616252853053538
 10
0.274486620090556
 20
0.0598848758593249
 10
0.272413998555749
 20
0.0582086231511312
 10
0.270289842079819
 20
0.0565981752524749
 10
0.268116239108167
 20
0.0550551155358789
 10
0.265895326700502
 20
0.0535809611192235
 10
0.263629288430366
 20
0.0521771613728106
 10
0.261320352240091
 20
0.0508450964960048
 10
0.258970788247098
 20
0.0495860761582207
 10
0.256582906514268
 20
0.0484013382135799
 10
0.254159054778029
 20
0.0472920474815055
 10
0.251701616139599
 20
0.0462592946034874
 10
0.249213006723494
 20
0.0453040949694241
 10
0.246695673299655
 20
0.0444273877203614
 10
0.244152090879652
 20
0.0436300348237637
 10
0.241584760283331
 20
0.0429128202274569
 10
0.238996205678632
 20
0.0422764490883765
 10
0.236388972101395
 20
0.0417215470783958
 10
0.233765622951523
 20
0.0412486597710995
 10
0.231128737474137
 20
0.0408582521029075
 10
0.228480908222991
 20
0.0405507079181007
 10
0.225824738512074
 20
0.0403263295906982
 10
0.223162839854922
 20
0.0401853377263706
 10
0.220497829397573
 20
0.0401278709468897
 10
0.220497829165197
 20
0.000134260865024771
 10
0.439510918548422
 20
0.000170267934890944
 10
0.439510918780343
 20
0.0401638780165285
 10
0.436845908322994
 20
0.0402213447948725
 10
0.434184009665842
 20
0.0403623366578358
 10
0.43152783995447
 20
0.0405867149843289
 10
0.428880010703324
 20
0.0408942591677715
 10
0.426243125225938
 20
0.0412846668345992
 10
0.423619776075611
 20
0.041757554140986
 10
0.42101254249792
 20
0.0423124561496024
 10
0.41842398789322
 20
0.042948827287546
 10
0.415856657296445
 20
0.0436660418824886
 10
0.413313074876442
 20
0.0444633947779494
 10
0.410795741452148
 20
0.0453401020261026
 10
0.408307132035588
 20
0.0462953016590291
 10
0.405849693396704
 20
0.0473280545359103
 10
0.40342584166001
 20
0.0484373452666205
 10
0.401037959926725
 20
0.0496220832103518
 10
0.398688395932822
 20
0.0508811035469989
 10
0.396379459742093
 20
0.0522131684228953
 10
0.394113421471502
 20
0.0536169681681713
 10
0.391892509062927
 20
0.0550911225839172
 10
0.389718906090366
 20
0.0566341822996037
 10
0.387594749613982
 20
0.0582446301971231
 10
0.385522128078264
 20
0.0599208829044073
 10
0.383503079260208
 20
0.0616612923495268
 10
0.381539588263422
 20
0.0634641473834563
 10
0.379633585568172
 20
0.065327675460594
 10
0.377786945134176
 20
0.0672500443833997
 10
0.376001482555239
 20
0.0692293641013748
 10
0.374278953276189
 20
0.0712636885721167
 10
0.372621050867565
 20
0.0733510176719392
 10
0.371029405358968
 20
0.0754892991644738
 10
0.369505581636076
 20
0.0776764307174744
 10
0.368051077904056
 20
0.0799102619694168
 10
0.366667324214177
 20
0.0821885966447553
 10
0.365355681055462
 20
0.0845091947123819
 10
0.364117438019548
 20
0.0868697745886493
 10
0.362953812532396
 20
0.0892680153801848
 10
0.361865948656032
 20
0.091701559165358
 10
0.360854915965319
 20
0.0941680133137197
 10
0.359921708495222
 20
0.0966649528375001
 10
0.359067243764002
 20
0.0991899227760769
 10
0.358292361871008
 20
0.101740440609547
 10
0.357597824670393
 20
0.104313998700036
 10
0.356984315023055
 20
0.106908066756205
 10
0.356452436124073
 20
0.109520094322079
 10
0.356002710910616
 20
0.112147513283844
 10
0.355635581546267
 20
0.114787740394831
 10
0.355351408989009
 20
0.117438179815963
 10
0.355150472633795
 20
0.120096225667567
 10
0.355032970038337
 20
0.122759264590968
 10
0.354999016729835
 20
0.12542467831895
 10
0.355048646091291
 20
0.128089846248713
 10
0.35518180932695
 20
0.130752148019837
 10
0.355398375513232
 20
0.133408966089519
 10
0.355698131723784
 20
0.136057688306209
 10
0.35608078324276
 20
0.138695710478714
 10
0.356545953851764
 20
0.141320438935736
 10
0.357093186200473
 20
0.143929293075871
 10
0.357721942256831
 20
0.146519707905327
 10
0.35843160383547
 20
0.149089136560178
 10
0.359221473205707
 20
0.151635052808842
 10
0.360090773777756
 20
0.154154953537727
 10
0.361038650865339
 20
0.15664636121096
 10
0.36206417252788
 20
0.159106826306925
 10
0.363166330484546
 20
0.16153392972592
 10
0.364344041106961
 20
0.163925285169398
 10
0.365596146484677
 20
0.166278541485781
 10
0.366921415562501
 20
0.168591384982165
 10
0.368318545352395
 20
0.170861541698969
 10
0.369786162213131
 20
0.173086779645246
 10
0.371322823201353
 20
0.175264910994656
 10
0.372927017491293
 20
0.177393794234376
 10
0.374597167857701
 20
0.179471336272627
 10
0.376331632229721
 20
0.181495494495039
 10
0.37812870530297
 20
0.183464278774181
 10
0.379986620217096
 20
0.185375753424978
 10
0.381903550292009
 20
0.187228039108732
 10
0.383877610826403
 20
0.189019314680991
 10
0.385906860947216
 20
0.190747818980981
 10
0.387989305520478
 20
0.192411852564419
 10
0.390122897112178
 20
0.1940097793738
 10
0.392305538000528
 20
0.195540028346841
 10
0.394535082240054
 20
0.197001094961252
 10
0.39680933776981
 20
0.198391542714035
 10
0.399126068569331
 20
0.199710004534154
 10
0.401482996856885
 20
0.200955184125405
 10
0.403877805329557
 20
0.202125857242891
 10
0.406308139440171
 20
0.203220872894917
 10
0.408771609714222
 20
0.20423915447509
 10
0.411265794097289
 20
0.205179700821645
 10
0.413788240338363
 20
0.206041587200616
 10
0.416336468397731
 20
0.206823966216007
 10
0.418907972889428
 20
0.207526068641982
 10
0.421500225541422
 20
0.20814720418025
 10
0.424110677682165
 20
0.208686762137859
 10
0.426736762746714
 20
0.209144212027695
 10
0.429375898800117
 20
0.209519104090987
 10
0.432025491075819
 20
0.209811069737952
 10
0.434682934527245
 20
0.210019821912056
 10
0.437345616388029
 20
0.210145155370128
 10
0.440010918741791
 20
0.210186946886324
 10
0.442676221096008
 20
0.210145155371492
 10
0.445338902956792
 20
0.210019821914329
 10
0.447996346408218
 20
0.20981106974159
 10
0.450645938684374
 20
0.209519104095762
 10
0.453285074737778
 20
0.209144212033834
 10
0.455911159802781
 20
0.208686762145135
 10
0.458521611943524
 20
0.208147204188663
 10
0.461113864595518
 20
0.207526068651759
 10
0.463685369087671
 20
0.206823966226693
 10
0.466233597147948
 20
0.206041587212667
 10
0.468756043389021
 20
0.205179700834833
 10
0.471250227772543
 20
0.204239154489414
 10
0.47371369804705
 20
0.203220872910151
 10
0.476144032158572
 20
0.202125857259489
 10
0.478538840631245
 20
0.200955184142913
 10
0.480895768919709
 20
0.199710004552571
 10
0.483212499719684
 20
0.198391542733816
 10
0.485486755249894
 20
0.197001094981943
 10
0.48771629949033
 20
0.195540028368441
 10
0.489898940379589
 20
0.194009779396538
 10
0.492032531971745
 20
0.192411852588066
 10
0.494114976545916
 20
0.190747819005537
 10
0.496144226667184
 20
0.189019314706456
 10
0.498118287202487
 20
0.187228039135334
 10
0.50003521727831
 20
0.185375753452263
 10
0.50189313219289
 20
0.183464278802376
 10
0.503690205267048
 20
0.181495494524142
 10
0.505424669639979
 20
0.179471336302413
 10
0.507094820007751
 20
0.177393794264844
 10
0.5086990142986
 20
0.175264911025806
 10
0.510235675287731
 20
0.173086779677305
 10
0.511703292149377
 20
0.170861541731483
 10
0.51310042194018
 20
0.168591385015361
 10
0.514425691019369
 20
0.166278541519659
 10
0.515677796397995
 20
0.163925285203732
 10
0.516855507021774
 20
0.161533929760708
 10
0.517957664979349
 20
0.159106826342395
 10
0.518983186642799
 20
0.156646361246885
 10
0.519931063731747
 20
0.154154953574107
 10
0.520800364304705
 20
0.151635052845677
 10
0.521590233676307
 20
0.14908913659724
 10
0.522299895255856
 20
0.146519707942844
 10
0.522928651313578
 20
0.143929293113615
 10
0.52347588366365
 20
0.141320438973707
 10
0.523941054273564
 20
0.138695710516913
 10
0.524323705793904
 20
0.136057688344636
 10
0.52462346200582
 20
0.133408966127945
 10
0.524840028193012
 20
0.130752148058491
 10
0.524973191430036
 20
0.128089846287367
 10
0.525022820792401
 20
0.125424678357604
 10
0.524988867485263
 20
0.122759264629622
 10
0.524871364891169
 20
0.12009622570622
 10
0.524670428536865
 20
0.117438179854616
 10
0.524386255980971
 20
0.114787740433258
 10
0.524019126618441
 20
0.112147513322043
 10
0.523569401405894
 20
0.10952009436005
 10
0.523037522507821
 20
0.106908066794176
 10
0.522424012861848
 20
0.104313998737553
 10
0.521729475662596
 20
0.101740440646836
 10
0.520954593770512
 20
0.0991899228129114
 10
0.520100129040202
 20
0.0966649528738799
 10
0.519166921571468
 20
0.0941680133496448
 10
0.518155888881665
 20
0.0917015592008283
 10
0.517068025006665
 20
0.0892680154152004
 10
0.515904399520423
 20
0.0868697746232101
 10
0.514666156485873
 20
0.084509194746488
 10
0.513354513328068
 20
0.0821885966781792
 10
0.511970759639098
 20
0.0799102620021586
 10
0.510516255908442
 20
0.0776764307495341
 10
0.50899243218646
 20
0.0754892991958513
 10
0.507400786678318
 20
0.0733510177026346
 10
0.505742884270603
 20
0.0712636886019027
 10
0.504020354992917
 20
0.0692293641304786
 10
0.50223489241489
 20
0.067250044411594
 10
0.500388251981349
 20
0.0653276754881063
 10
0.498482249287463
 20
0.0634641474098316
 10
0.496518758291586
 20
0.06166129237522
 10
0.494499709473985
 20
0.0599208829291911
 10
0.492427087939177
 20
0.0582446302209974
 10
0.490302931463248
 20
0.0566341823223411
 10
0.488129328491596
 20
0.0550911226057451
 10
0.48590841608393
 20
0.0536169681890897
 10
0.483642377813794
 20
0.0522131684426768
 10
0.481333441623519
 20
0.0508811035658709
 10
0.478983877630526
 20
0.0496220832280869
 10
0.476595995897696
 20
0.0484373452834461
 10
0.474172144161457
 20
0.0473280545513717
 10
0.471714705523027
 20
0.0462953016733536
 10
0.469226096106922
 20
0.0453401020392903
 10
0.466708762683083
 20
0.0444633947902275
 10
0.46416518026308
 20
0.0436660418936299
 10
0.461597849666759
 20
0.0429488272973231
 10
0.45900929506206
 20
0.0423124561582426
 10
0.456402061484823
 20
0.041757554148262
 10
0.453778712334952
 20
0.0412846668409657
 10
0.451141826857565
 20
0.0408942591727737
 10
0.44849399760642
 20
0.0405867149879668
 10
0.445837827895502
 20
0.0403623366605643
 10
0.44317592923835
 20
0.0402213447962367
 10
0.440510918781001
 20
0.0401638780167559
 10
0.440510918548625
 20
0.000170267934890944
 10
0.44051091854908
 20
0.000176319498450539
 10
0.613041842432722
 20
0.000205089432711247
 10
0.62504023783913
 20
0.012207757536089
 10
0.625034133827285
 20
0.0502098979959555
 10
0.575029327588709
 20
0.0602025499538286
 10
0.575007352887042
 20
0.195209970886935
 10
0.600008230878302
 20
0.200214544216578
  0
ENDSEC
  0
EOF
