  0
SECTION
  2
HEADER
  9
$ACADVER
  1
AC1009
9
$INSUNITS
70
6
  9
$DWGCODEPAGE
  3
ANSI_1252
  9
$INSBASE
 10
0.0
 20
0.0
 30
0.0
  9
$EXTMIN
 10
1e+20
 20
1e+20
 30
1e+20
  9
$EXTMAX
 10
-1e+20
 20
-1e+20
 30
-1e+20
  9
$LIMMIN
 10
0.0
 20
0.0
  9
$LIMMAX
 10
420.0
 20
297.0
  9
$ORTHOMODE
 70
0
  9
$REGENMODE
 70
1
  9
$FILLMODE
 70
1
  9
$DRAGMODE
 70
2
  9
$QTEXTMODE
 70
0
  9
$MIRRTEXT
 70
1
  9
$OSMODE
 70
20583
  9
$LTSCALE
 40
1.0
  9
$ATTMODE
 70
1
  9
$TEXTSIZE
 40
2.5
  9
$TRACEWID
 40
1.0
  9
$TEXTSTYLE
  7
Standard
  9
$CLAYER
  8
0
  9
$CELTYPE
  6
ByLayer
  9
$CECOLOR
 62
256
  9
$DIMSCALE
 40
1.0
  9
$DIMASZ
 40
2.5
  9
$DIMEXO
 40
0.625
  9
$DIMDLI
 40
3.75
  9
$DIMRND
 40
0.0
  9
$DIMDLE
 40
0.0
  9
$DIMEXE
 40
1.25
  9
$DIMTP
 40
0.0
  9
$DIMTM
 40
0.0
  9
$DIMTXT
 40
2.5
  9
$DIMCEN
 40
2.5
  9
$DIMTSZ
 40
0.0
  9
$DIMTOL
 70
0
  9
$DIMLIM
 70
0
  9
$DIMTIH
 70
0
  9
$DIMTOH
 70
0
  9
$DIMSE1
 70
0
  9
$DIMSE2
 70
0
  9
$DIMTAD
 70
1
  9
$DIMZIN
 70
8
  9
$DIMBLK
  1

  9
$DIMASO
 70
1
  9
$DIMSHO
 70
1
  9
$DIMPOST
  1

  9
$DIMAPOST
  1

  9
$DIMALT
 70
0
  9
$DIMALTD
 70
3
  9
$DIMALTF
 40
0.03937007874
  9
$DIMLFAC
 40
1.0
  9
$DIMTOFL
 70
1
  9
$DIMTVP
 40
0.0
  9
$DIMTIX
 70
0
  9
$DIMSOXD
 70
0
  9
$DIMSAH
 70
0
  9
$DIMBLK1
  1

  9
$DIMBLK2
  1

  9
$DIMSTYLE
  2
ISO-25
  9
$DIMCLRD
 70
0
  9
$DIMCLRE
 70
0
  9
$DIMCLRT
 70
0
  9
$DIMTFAC
 40
1.0
  9
$DIMGAP
 40
0.625
  9
$COORDS
 70
1
  9
$ATTDIA
 70
0
  9
$ATTREQ
 70
1
  9
$HANDLING
 70
1
  9
$LUNITS
 70
2
  9
$LUPREC
 70
4
  9
$SKETCHINC
 40
1.0
  9
$FILLETRAD
 40
10.0
  9
$AUNITS
 70
0
  9
$AUPREC
 70
2
  9
$MENU
  1
.
  9
$ELEVATION
 40
0.0
  9
$PELEVATION
 40
0.0
  9
$THICKNESS
 40
0.0
  9
$LIMCHECK
 70
0
  9
$CHAMFERA
 40
0.0
  9
$CHAMFERB
 40
0.0
  9
$SKPOLY
 70
0
  9
$TDCREATE
 40
2461230.798599537
  9
$TDUPDATE
 40
2461230.798599537
  9
$TDINDWG
 40
0.0
  9
$TDUSRTIMER
 40
0.0
  9
$USRTIMER
 70
1
  9
$ANGBASE
 50
0.0
  9
$ANGDIR
 70
0
  9
$PDMODE
 70
0
  9
$PDSIZE
 40
0.0
  9
$PLINEWID
 40
0.0
  9
$SPLFRAME
 70
0
  9
$SPLINETYPE
 70
6
  9
$SPLINESEGS
 70
8
  9
$HANDSEED
  5
F0
  9
$SURFTAB1
 70
6
  9
$SURFTAB2
 70
6
  9
$SURFTYPE
 70
6
  9
$SURFU
 70
6
  9
$SURFV
 70
6
  9
$UCSNAME
  2

  9
$UCSORG
 10
0.0
 20
0.0
 30
0.0
  9
$UCSXDIR
 10
1.0
 20
0.0
 30
0.0
  9
$UCSYDIR
 10
0.0
 20
1.0
 30
0.0
  9
$PUCSNAME
  2

  9
$PUCSORG
 10
0.0
 20
0.0
 30
0.0
  9
$PUCSXDIR
 10
1.0
 20
0.0
 30
0.0
  9
$PUCSYDIR
 10
0.0
 20
1.0
 30
0.0
  9
$USERI1
 70
0
  9
$USERI2
 70
0
  9
$USERI3
 70
0
  9
$USERI4
 70
0
  9
$USERI5
 70
0
  9
$USERR1
 40
0.0
  9
$USERR2
 40
0.0
  9
$USERR3
 40
0.0
  9
$USERR4
 40
0.0
  9
$USERR5
 40
0.0
  9
$WORLDVIEW
 70
1
  9
$SHADEDGE
 70
3
  9
$SHADEDIF
 70
70
  9
$TILEMODE
 70
1
  9
$MAXACTVP
 70
64
  9
$PLIMCHECK
 70
0
  9
$PEXTMIN
 10
1e+20
 20
1e+20
 30
1e+20
  9
$PEXTMAX
 10
-1e+20
 20
-1e+20
 30
-1e+20
  9
$PLIMMIN
 10
0.0
 20
0.0
  9
$PLIMMAX
 10
420.0
 20
297.0
  9
$UNITMODE
 70
0
  9
$VISRETAIN
 70
1
  9
$PLINEGEN
 70
0
  9
$PSLTSCALE
 70
1
  0
ENDSEC
  0
SECTION
  2
TABLES
  0
TABLE
  2
VPORT
 70
1
  0
VPORT
  5
23
  2
*Active
 70
0
 10
0.0
 20
0.0
 11
1.0
 21
1.0
 12
0.0
 22
0.0
 13
0.0
 23
0.0
 14
0.5
 24
0.5
 15
0.5
 25
0.5
 16
0.0
 26
0.0
 36
1.0
 17
0.0
 27
0.0
 37
0.0
 40
1000.0
 41
1.34
 42
50.0
 43
0.0
 44
0.0
 50
0.0
 51
0.0
 71
0
 72
1000
 73
1
 74
3
 75
0
 76
0
 77
0
 78
0
  0
ENDTAB
  0
TABLE
  2
LTYPE
 70
3
  0
LTYPE
  5
24
  2
ByBlock
 70
0
  3

 72
65
 73
0
 40
0.0
  0
LTYPE
  5
25
  2
ByLayer
 70
0
  3

 72
65
 73
0
 40
0.0
  0
LTYPE
  5
26
  2
Continuous
 70
0
  3

 72
65
 73
0
 40
0.0
  0
ENDTAB
  0
TABLE
  2
LAYER
 70
3
  0
LAYER
  5
27
  2
0
 70
0
 62
7
  6
Continuous
  0
LAYER
  5
28
  2
Defpoints
 70
0
 62
7
  6
Continuous
  0
LAYER
  5
2D
  2
SECTION
 70
0
 62
7
  6
Continuous
  0
ENDTAB
  0
TABLE
  2
STYLE
 70
1
  0
STYLE
  5
29
  2
Standard
 70
0
 40
0.0
 41
1.0
 50
0.0
 71
0
 42
2.5
  3
txt
  4

  0
ENDTAB
  0
TABLE
  2
VIEW
 70
0
  0
ENDTAB
  0
TABLE
  2
UCS
 70
0
  0
ENDTAB
  0
TABLE
  2
APPID
 70
3
  0
APPID
  5
2A
  2
ACAD
 70
0
  0
APPID
  5
EE
  2
HATCHBACKGROUNDCOLOR
 70
0
  0
APPID
  5
EF
  2
EZDXF
 70
0
  0
ENDTAB
  0
TABLE
  2
DIMSTYLE
 70
1
  0
DIMSTYLE
105
2B
  2
Standard
 70
0
  3

  4

  5

  6

  7

 40
1.0
 41
2.5
 42
0.625
 43
3.75
 44
1.25
 45
0.0
 46
0.0
 47
0.0
 48
0.0
140
2.5
141
2.5
142
0.0
143
0.03937007874
144
1.0
145
0.0
146
1.0
147
0.625
 71
0
 72
0
 73
0
 74
0
 75
0
 76
0
 77
1
 78
8
170
0
171
3
172
1
173
0
174
0
175
0
176
0
177
0
178
0
  0
ENDTAB
  0
ENDSEC
  0
SECTION
  2
BLOCKS
  0
BLOCK
  5
18
  8
0
  2
$Model_Space
 70
0
 10
0.0
 20
0.0
 30
0.0
  3
$Model_Space
  1

1001
EZDXF
1000
CREATED_BY_EZDXF
1000
1.4.4 @ 2026-07-08T22:09:59.580902+00:00
1000
WRITTEN_BY_EZDXF
1000
1.4.4 @ 2026-07-08T22:09:59.584841+00:00
  0
ENDBLK
  5
19
  8
0
  0
BLOCK
  5
1C
  8
0
  2
$Paper_Space
 70
0
 10
0.0
 20
0.0
 30
0.0
  3
$Paper_Space
  1

  0
ENDBLK
  5
1D
  8
0
  0
ENDSEC
  0
SECTION
  2
ENTITIES
  0
POLYLINE
  5
2E
  8
SECTION
 66
1
 10
0.0
 20
0.0
 30
0.0
 70
1
  0
VERTEX
  5
30
  8
SECTION
 10
-0.6000723224824469
 20
0.2500179236631084
 30
0.0
 70
0
  0
VERTEX
  5
31
  8
SECTION
 10
0.5999990742675436
 20
0.2502175179652113
 30
0.0
 70
0
  0
VERTEX
  5
32
  8
SECTION
 10
0.6000082308783021
 20
0.20021454421657836
 30
0.0
 70
0
  0
VERTEX
  5
33
  8
SECTION
 10
0.5750073528870416
 20
0.19520997088693548
 30
0.0
 70
0
  0
VERTEX
  5
34
  8
SECTION
 10
0.5750293275887088
 20
0.060202549953828566
 30
0.0
 70
0
  0
VERTEX
  5
35
  8
SECTION
 10
0.6250341338272847
 20
0.050209897995955544
 30
0.0
 70
0
  0
VERTEX
  5
36
  8
SECTION
 10
0.62504023783913
 20
0.012207757536089048
 30
0.0
 70
0
  0
VERTEX
  5
37
  8
SECTION
 10
0.6130418424327218
 20
0.00020508943271124735
 30
0.0
 70
0
  0
VERTEX
  5
38
  8
SECTION
 10
0.4405109185490801
 20
0.00017631949845053896
 30
0.0
 70
0
  0
VERTEX
  5
39
  8
SECTION
 10
0.44051091854862534
 20
0.00017026793489094416
 30
0.0
 70
0
  0
VERTEX
  5
3A
  8
SECTION
 10
0.44051091878100124
 20
0.040163878016755916
 30
0.0
 70
0
  0
VERTEX
  5
3B
  8
SECTION
 10
0.45711195908143054
 20
0.04161263848300223
 30
0.0
 70
0
  0
VERTEX
  5
3C
  8
SECTION
 10
0.4730566097364317
 20
0.04654235430984954
 30
0.0
 70
0
  0
VERTEX
  5
3D
  8
SECTION
 10
0.48773606834674865
 20
0.05448259848458292
 30
0.0
 70
0
  0
VERTEX
  5
3E
  8
SECTION
 10
0.5005883150629415
 20
0.06512936968488248
 30
0.0
 70
0
  0
VERTEX
  5
3F
  8
SECTION
 10
0.5111212869314841
 20
0.07807504410743604
 30
0.0
 70
0
  0
VERTEX
  5
40
  8
SECTION
 10
0.5189317170870709
 20
0.09282398181244389
 30
0.0
 70
0
  0
VERTEX
  5
41
  8
SECTION
 10
0.5237205742851074
 20
0.1088115028642278
 30
0.0
 70
0
  0
VERTEX
  5
42
  8
SECTION
 10
0.525304511655122
 20
0.125425506747888
 30
0.0
 70
0
  0
VERTEX
  5
43
  8
SECTION
 10
0.5236228863441283
 20
0.14202990733815568
 30
0.0
 70
0
  0
VERTEX
  5
44
  8
SECTION
 10
0.5187400812992564
 20
0.15798898618163548
 30
0.0
 70
0
  0
VERTEX
  5
45
  8
SECTION
 10
0.5108430402924569
 20
0.172691731706891
 30
0.0
 70
0
  0
VERTEX
  5
46
  8
SECTION
 10
0.5002341105628147
 20
0.1855752324979676
 30
0.0
 70
0
  0
VERTEX
  5
47
  8
SECTION
 10
0.48731946710995544
 20
0.19614622900371614
 30
0.0
 70
0
  0
VERTEX
  5
48
  8
SECTION
 10
0.47259356181712064
 20
0.2039999985418035
 30
0.0
 70
0
  0
VERTEX
  5
49
  8
SECTION
 10
0.45662019279870947
 20
0.20883585057003984
 30
0.0
 70
0
  0
VERTEX
  5
4A
  8
SECTION
 10
0.4400109187417911
 20
0.21046863896685863
 30
0.0
 70
0
  0
VERTEX
  5
4B
  8
SECTION
 10
0.42340164468578223
 20
0.2088358505625365
 30
0.0
 70
0
  0
VERTEX
  5
4C
  8
SECTION
 10
0.4074282756696448
 20
0.20399999852702422
 30
0.0
 70
0
  0
VERTEX
  5
4D
  8
SECTION
 10
0.392702370380448
 20
0.19614622898211564
 30
0.0
 70
0
  0
VERTEX
  5
4E
  8
SECTION
 10
0.3797877269325909
 20
0.18557523247068275
 30
0.0
 70
0
  0
VERTEX
  5
4F
  8
SECTION
 10
0.3691787972088605
 20
0.17269173167460394
 30
0.0
 70
0
  0
VERTEX
  5
50
  8
SECTION
 10
0.3612817562084274
 20
0.15798898614593782
 30
0.0
 70
0
  0
VERTEX
  5
51
  8
SECTION
 10
0.3563989511708314
 20
0.1420299072999569
 30
0.0
 70
0
  0
VERTEX
  5
52
  8
SECTION
 10
0.35471732586756843
 20
0.12542550670923447
 30
0.0
 70
0
  0
VERTEX
  5
53
  8
SECTION
 10
0.356301263244859
 20
0.10881150282602903
 30
0.0
 70
0
  0
VERTEX
  5
54
  8
SECTION
 10
0.3610901204501715
 20
0.09282398177651885
 30
0.0
 70
0
  0
VERTEX
  5
55
  8
SECTION
 10
0.36890055061257954
 20
0.07807504407514898
 30
0.0
 70
0
  0
VERTEX
  5
56
  8
SECTION
 10
0.37943352248703377
 20
0.06512936965737026
 30
0.0
 70
0
  0
VERTEX
  5
57
  8
SECTION
 10
0.3922857692082289
 20
0.05448259846298242
 30
0.0
 70
0
  0
VERTEX
  5
58
  8
SECTION
 10
0.40696522782172906
 20
0.04654235429484288
 30
0.0
 70
0
  0
VERTEX
  5
59
  8
SECTION
 10
0.42290987847900396
 20
0.041612638475271524
 30
0.0
 70
0
  0
VERTEX
  5
5A
  8
SECTION
 10
0.43951091878034276
 20
0.04016387801652854
 30
0.0
 70
0
  0
VERTEX
  5
5B
  8
SECTION
 10
0.4395109185484216
 20
0.00017026793489094416
 30
0.0
 70
0
  0
VERTEX
  5
5C
  8
SECTION
 10
0.2204978291651969
 20
0.0001342608650247712
 30
0.0
 70
0
  0
VERTEX
  5
5D
  8
SECTION
 10
0.2204978293975728
 20
0.04012787094688974
 30
0.0
 70
0
  0
VERTEX
  5
5E
  8
SECTION
 10
0.2370988696980021
 20
0.041576631413136056
 30
0.0
 70
0
  0
VERTEX
  5
5F
  8
SECTION
 10
0.25304352035300326
 20
0.04650634723998337
 30
0.0
 70
0
  0
VERTEX
  5
60
  8
SECTION
 10
0.2677229789633202
 20
0.05444659141471675
 30
0.0
 70
0
  0
VERTEX
  5
61
  8
SECTION
 10
0.2805752256795131
 20
0.0650933626150163
 30
0.0
 70
0
  0
VERTEX
  5
62
  8
SECTION
 10
0.2911081975480556
 20
0.07803903703756987
 30
0.0
 70
0
  0
VERTEX
  5
63
  8
SECTION
 10
0.2989186277036424
 20
0.09278797474257772
 30
0.0
 70
0
  0
VERTEX
  5
64
  8
SECTION
 10
0.303707484901679
 20
0.10877549579436163
 30
0.0
 70
0
  0
VERTEX
  5
65
  8
SECTION
 10
0.3052914222716936
 20
0.12538949967802182
 30
0.0
 70
0
  0
VERTEX
  5
66
  8
SECTION
 10
0.3036097969606999
 20
0.1419939002682895
 30
0.0
 70
0
  0
VERTEX
  5
67
  8
SECTION
 10
0.29872699191582797
 20
0.1579529791117693
 30
0.0
 70
0
  0
VERTEX
  5
68
  8
SECTION
 10
0.2908299509090284
 20
0.17265572463702483
 30
0.0
 70
0
  0
VERTEX
  5
69
  8
SECTION
 10
0.2802210211793863
 20
0.18553922542810142
 30
0.0
 70
0
  0
VERTEX
  5
6A
  8
SECTION
 10
0.267306377726527
 20
0.19611022193384997
 30
0.0
 70
0
  0
VERTEX
  5
6B
  8
SECTION
 10
0.2525804724336922
 20
0.20396399147193733
 30
0.0
 70
0
  0
VERTEX
  5
6C
  8
SECTION
 10
0.23660710341528102
 20
0.20879984350017367
 30
0.0
 70
0
  0
VERTEX
  5
6D
  8
SECTION
 10
0.21999782935836265
 20
0.21043263189699246
 30
0.0
 70
0
  0
VERTEX
  5
6E
  8
SECTION
 10
0.20338855530235378
 20
0.20879984349267033
 30
0.0
 70
0
  0
VERTEX
  5
6F
  8
SECTION
 10
0.18741518628621634
 20
0.20396399145715804
 30
0.0
 70
0
  0
VERTEX
  5
70
  8
SECTION
 10
0.17268928099701952
 20
0.19611022191224947
 30
0.0
 70
0
  0
VERTEX
  5
71
  8
SECTION
 10
0.15977463754916243
 20
0.18553922540081658
 30
0.0
 70
0
  0
VERTEX
  5
72
  8
SECTION
 10
0.14916570782543204
 20
0.17265572460473777
 30
0.0
 70
0
  0
VERTEX
  5
73
  8
SECTION
 10
0.14126866682499895
 20
0.15795297907607164
 30
0.0
 70
0
  0
VERTEX
  5
74
  8
SECTION
 10
0.13638586178740297
 20
0.14199390023009073
 30
0.0
 70
0
  0
VERTEX
  5
75
  8
SECTION
 10
0.13470423648413998
 20
0.1253894996393683
 30
0.0
 70
0
  0
VERTEX
  5
76
  8
SECTION
 10
0.13628817386143055
 20
0.10877549575616285
 30
0.0
 70
0
  0
VERTEX
  5
77
  8
SECTION
 10
0.14107703106674307
 20
0.09278797470665268
 30
0.0
 70
0
  0
VERTEX
  5
78
  8
SECTION
 10
0.14888746122915109
 20
0.07803903700528281
 30
0.0
 70
0
  0
VERTEX
  5
79
  8
SECTION
 10
0.15942043310360532
 20
0.06509336258750409
 30
0.0
 70
0
  0
VERTEX
  5
7A
  8
SECTION
 10
0.17227267982480043
 20
0.05444659139311625
 30
0.0
 70
0
  0
VERTEX
  5
7B
  8
SECTION
 10
0.1869521384383006
 20
0.04650634722497671
 30
0.0
 70
0
  0
VERTEX
  5
7C
  8
SECTION
 10
0.2028967890955755
 20
0.04157663140540535
 30
0.0
 70
0
  0
VERTEX
  5
7D
  8
SECTION
 10
0.2194978293969143
 20
0.04012787094666237
 30
0.0
 70
0
  0
VERTEX
  5
7E
  8
SECTION
 10
0.21949782916499316
 20
0.0001342608650247712
 30
0.0
 70
0
  0
VERTEX
  5
7F
  8
SECTION
 10
0.00048473978176843957
 20
9.702437296255084e-05
 30
0.0
 70
0
  0
VERTEX
  5
80
  8
SECTION
 10
0.00048473978176843957
 20
0.04009063445528227
 30
0.0
 70
0
  0
VERTEX
  5
81
  8
SECTION
 10
0.017085780082197743
 20
0.04153939492175596
 30
0.0
 70
0
  0
VERTEX
  5
82
  8
SECTION
 10
0.03303043073719891
 20
0.04646911074860327
 30
0.0
 70
0
  0
VERTEX
  5
83
  8
SECTION
 10
0.047709889347515855
 20
0.054409354923564024
 30
0.0
 70
0
  0
VERTEX
  5
84
  8
SECTION
 10
0.060562136063254
 20
0.0650561261236362
 30
0.0
 70
0
  0
VERTEX
  5
85
  8
SECTION
 10
0.07109510793179652
 20
0.07800180054641714
 30
0.0
 70
0
  0
VERTEX
  5
86
  8
SECTION
 10
0.07890553808738332
 20
0.09275073825142499
 30
0.0
 70
0
  0
VERTEX
  5
87
  8
SECTION
 10
0.08369439528541989
 20
0.1087382593032089
 30
0.0
 70
0
  0
VERTEX
  5
88
  8
SECTION
 10
0.0852783326554345
 20
0.1253522631868691
 30
0.0
 70
0
  0
VERTEX
  5
89
  8
SECTION
 10
0.0835967073444408
 20
0.14195666377713678
 30
0.0
 70
0
  0
VERTEX
  5
8A
  8
SECTION
 10
0.07871390229956887
 20
0.15791574262061658
 30
0.0
 70
0
  0
VERTEX
  5
8B
  8
SECTION
 10
0.07081686129231457
 20
0.17261848814564473
 30
0.0
 70
0
  0
VERTEX
  5
8C
  8
SECTION
 10
0.060207931562672456
 20
0.18550198893672132
 30
0.0
 70
0
  0
VERTEX
  5
8D
  8
SECTION
 10
0.04729328810981315
 20
0.19607298544246987
 30
0.0
 70
0
  0
VERTEX
  5
8E
  8
SECTION
 10
0.03256738281697835
 20
0.20392675498055723
 30
0.0
 70
0
  0
VERTEX
  5
8F
  8
SECTION
 10
0.016594013798567175
 20
0.20876260700879357
 30
0.0
 70
0
  0
VERTEX
  5
90
  8
SECTION
 10
-1.5260258351190714e-05
 20
0.210395395405385
 30
0.0
 70
0
  0
VERTEX
  5
91
  8
SECTION
 10
-0.016624534314360062
 20
0.20876260700106286
 30
0.0
 70
0
  0
VERTEX
  5
92
  8
SECTION
 10
-0.0325979033304975
 20
0.2039267549653232
 30
0.0
 70
0
  0
VERTEX
  5
93
  8
SECTION
 10
-0.04732380861923957
 20
0.19607298542041462
 30
0.0
 70
0
  0
VERTEX
  5
94
  8
SECTION
 10
-0.06023845206755141
 20
0.18550198890875436
 30
0.0
 70
0
  0
VERTEX
  5
95
  8
SECTION
 10
-0.0708473817912818
 20
0.17261848811267555
 30
0.0
 70
0
  0
VERTEX
  5
96
  8
SECTION
 10
-0.0787444227917149
 20
0.15791574258400942
 30
0.0
 70
0
  0
VERTEX
  5
97
  8
SECTION
 10
-0.08362722782885612
 20
0.1419566637380285
 30
0.0
 70
0
  0
VERTEX
  5
98
  8
SECTION
 10
-0.08530885313211911
 20
0.12535226314730608
 30
0.0
 70
0
  0
VERTEX
  5
99
  8
SECTION
 10
-0.08372491575482854
 20
0.10873825926410063
 30
0.0
 70
0
  0
VERTEX
  5
9A
  8
SECTION
 10
-0.07893605854906127
 20
0.09275073821481783
 30
0.0
 70
0
  0
VERTEX
  5
9B
  8
SECTION
 10
-0.07112562838665326
 20
0.07800180051322059
 30
0.0
 70
0
  0
VERTEX
  5
9C
  8
SECTION
 10
-0.06059265651219903
 20
0.06505612609544187
 30
0.0
 70
0
  0
VERTEX
  5
9D
  8
SECTION
 10
-0.04774040979100391
 20
0.054409354901281404
 30
0.0
 70
0
  0
VERTEX
  5
9E
  8
SECTION
 10
-0.03306095117750374
 20
0.04646911073314186
 30
0.0
 70
0
  0
VERTEX
  5
9F
  8
SECTION
 10
-0.017116300520228833
 20
0.04153939491379788
 30
0.0
 70
0
  0
VERTEX
  5
A0
  8
SECTION
 10
-0.0005152602188900346
 20
0.0400906344550549
 30
0.0
 70
0
  0
VERTEX
  5
A1
  8
SECTION
 10
-0.0005152602184352872
 20
9.702437296255084e-05
 30
0.0
 70
0
  0
VERTEX
  5
A2
  8
SECTION
 10
-0.22002834942759364
 20
6.617303370148875e-05
 30
0.0
 70
0
  0
VERTEX
  5
A3
  8
SECTION
 10
-0.22002834942759364
 20
0.04005978311602121
 30
0.0
 70
0
  0
VERTEX
  5
A4
  8
SECTION
 10
-0.20342730912352636
 20
0.04150854354452349
 30
0.0
 70
0
  0
VERTEX
  5
A5
  8
SECTION
 10
-0.1874826584571565
 20
0.04643825933499102
 30
0.0
 70
0
  0
VERTEX
  5
A6
  8
SECTION
 10
-0.17280319982910441
 20
0.05437850347652784
 30
0.0
 70
0
  0
VERTEX
  5
A7
  8
SECTION
 10
-0.15995095308835516
 20
0.06502527464749619
 30
0.0
 70
0
  0
VERTEX
  5
A8
  8
SECTION
 10
-0.14941798119025407
 20
0.07797094904617552
 30
0.0
 70
0
  0
VERTEX
  5
A9
  8
SECTION
 10
-0.14160755100101596
 20
0.09271988673344822
 30
0.0
 70
0
  0
VERTEX
  5
AA
  8
SECTION
 10
-0.13681869376614486
 20
0.10870740777454557
 30
0.0
 70
0
  0
VERTEX
  5
AB
  8
SECTION
 10
-0.13523475635884097
 20
0.12532141165479516
 30
0.0
 70
0
  0
VERTEX
  5
AC
  8
SECTION
 10
-0.1369163816316359
 20
0.1419258122489282
 30
0.0
 70
0
  0
VERTEX
  5
AD
  8
SECTION
 10
-0.14179918664012803
 20
0.15788489110377668
 30
0.0
 70
0
  0
VERTEX
  5
AE
  8
SECTION
 10
-0.14969622761373103
 20
0.17258763664699472
 30
0.0
 70
0
  0
VERTEX
  5
AF
  8
SECTION
 10
-0.1603051573142693
 20
0.1854711374624003
 30
0.0
 70
0
  0
VERTEX
  5
B0
  8
SECTION
 10
-0.173219800743027
 20
0.19604213399770742
 30
0.0
 70
0
  0
VERTEX
  5
B1
  8
SECTION
 10
-0.1879457060176719
 20
0.2038959035694461
 30
0.0
 70
0
  0
VERTEX
  5
B2
  8
SECTION
 10
-0.2039190750256239
 20
0.2087317556340622
 30
0.0
 70
0
  0
VERTEX
  5
B3
  8
SECTION
 10
-0.22052834907890428
 20
0.21036454406862504
 30
0.0
 70
0
  0
VERTEX
  5
B4
  8
SECTION
 10
-0.23713762313855113
 20
0.20873175570204694
 30
0.0
 70
0
  0
VERTEX
  5
B5
  8
SECTION
 10
-0.25311099216605726
 20
0.20389590370291444
 30
0.0
 70
0
  0
VERTEX
  5
B6
  8
SECTION
 10
-0.2678368974729892
 20
0.1960421341914298
 30
0.0
 70
0
  0
VERTEX
  5
B7
  8
SECTION
 10
-0.28075154094540267
 20
0.18547113770910073
 30
0.0
 70
0
  0
VERTEX
  5
B8
  8
SECTION
 10
-0.29136047069869164
 20
0.17258763693712353
 30
0.0
 70
0
  0
VERTEX
  5
B9
  8
SECTION
 10
-0.2992575117323213
 20
0.15788489142641993
 30
0.0
 70
0
  0
VERTEX
  5
BA
  8
SECTION
 10
-0.30414031680629705
 20
0.14192581259158032
 30
0.0
 70
0
  0
VERTEX
  5
BB
  8
SECTION
 10
-0.30582194214730407
 20
0.1253214120042685
 30
0.0
 70
0
  0
VERTEX
  5
BC
  8
SECTION
 10
-0.30423800480775753
 20
0.10870740811742508
 30
0.0
 70
0
  0
VERTEX
  5
BD
  8
SECTION
 10
-0.2994491476388248
 20
0.09271988705700096
 30
0.0
 70
0
  0
VERTEX
  5
BE
  8
SECTION
 10
-0.2916387175100681
 20
0.07797094933766857
 30
0.0
 70
0
  0
VERTEX
  5
BF
  8
SECTION
 10
-0.2811057456647177
 20
0.06502527489556087
 30
0.0
 70
0
  0
VERTEX
  5
C0
  8
SECTION
 10
-0.2682534989676242
 20
0.0543785036720692
 30
0.0
 70
0
  0
VERTEX
  5
C1
  8
SECTION
 10
-0.25357404037185916
 20
0.04643825947050573
 30
0.0
 70
0
  0
VERTEX
  5
C2
  8
SECTION
 10
-0.23762938972595293
 20
0.04150854361455458
 30
0.0
 70
0
  0
VERTEX
  5
C3
  8
SECTION
 10
-0.22102834942779737
 20
0.04005978311806757
 30
0.0
 70
0
  0
VERTEX
  5
C4
  8
SECTION
 10
-0.22102834942779737
 20
6.617303370148875e-05
 30
0.0
 70
0
  0
VERTEX
  5
C5
  8
SECTION
 10
-0.43904143881081836
 20
2.8936541639268398e-05
 30
0.0
 70
0
  0
VERTEX
  5
C6
  8
SECTION
 10
-0.43904143881081836
 20
0.040022546625550603
 30
0.0
 70
0
  0
VERTEX
  5
C7
  8
SECTION
 10
-0.42243872606422883
 20
0.041471443409136555
 30
0.0
 70
0
  0
VERTEX
  5
C8
  8
SECTION
 10
-0.406492467240696
 20
0.04640164708212069
 30
0.0
 70
0
  0
VERTEX
  5
C9
  8
SECTION
 10
-0.39181152653827667
 20
0.05434268346493809
 30
0.0
 70
0
  0
VERTEX
  5
CA
  8
SECTION
 10
-0.37895798076215215
 20
0.0649905207901611
 30
0.0
 70
0
  0
VERTEX
  5
CB
  8
SECTION
 10
-0.3684239427857392
 20
0.07793749428356023
 30
0.0
 70
0
  0
VERTEX
  5
CC
  8
SECTION
 10
-0.3606127204434415
 20
0.09268791408294419
 30
0.0
 70
0
  0
VERTEX
  5
CD
  8
SECTION
 10
-0.35582337542246023
 20
0.1086770432962112
 30
0.0
 70
0
  0
VERTEX
  5
CE
  8
SECTION
 10
-0.3542392733388624
 20
0.12529271960852384
 30
0.0
 70
0
  0
VERTEX
  5
CF
  8
SECTION
 10
-0.35592106337435325
 20
0.14189879262426075
 30
0.0
 70
0
  0
VERTEX
  5
D0
  8
SECTION
 10
-0.3608043562508101
 20
0.15785947962126556
 30
0.0
 70
0
  0
VERTEX
  5
D1
  8
SECTION
 10
-0.36870218944932276
 20
0.17256370722748215
 30
0.0
 70
0
  0
VERTEX
  5
D2
  8
SECTION
 10
-0.37931218528729005
 20
0.18544850707280602
 30
0.0
 70
0
  0
VERTEX
  5
D3
  8
SECTION
 10
-0.392228127794624
 20
0.1960205696848334
 30
0.0
 70
0
  0
VERTEX
  5
D4
  8
SECTION
 10
-0.40695551516682826
 20
0.20387513141190539
 30
0.0
 70
0
  0
VERTEX
  5
D5
  8
SECTION
 10
-0.4229304923346717
 20
0.2087114712692255
 30
0.0
 70
0
  0
VERTEX
  5
D6
  8
SECTION
 10
-0.4395414388109202
 20
0.21034442438826773
 30
0.0
 70
0
  0
VERTEX
  5
D7
  8
SECTION
 10
-0.4561523852871687
 20
0.2087114712692255
 30
0.0
 70
0
  0
VERTEX
  5
D8
  8
SECTION
 10
-0.4721273624550122
 20
0.20387513141190539
 30
0.0
 70
0
  0
VERTEX
  5
D9
  8
SECTION
 10
-0.48685474982721644
 20
0.1960205696848334
 30
0.0
 70
0
  0
VERTEX
  5
DA
  8
SECTION
 10
-0.4997706923345504
 20
0.18544850707280602
 30
0.0
 70
0
  0
VERTEX
  5
DB
  8
SECTION
 10
-0.5103806881725177
 20
0.17256370722748215
 30
0.0
 70
0
  0
VERTEX
  5
DC
  8
SECTION
 10
-0.5182785213710304
 20
0.15785947962126556
 30
0.0
 70
0
  0
VERTEX
  5
DD
  8
SECTION
 10
-0.5231618142474872
 20
0.14189879262426075
 30
0.0
 70
0
  0
VERTEX
  5
DE
  8
SECTION
 10
-0.524843604282978
 20
0.12529271960852384
 30
0.0
 70
0
  0
VERTEX
  5
DF
  8
SECTION
 10
-0.5232595021993802
 20
0.1086770432962112
 30
0.0
 70
0
  0
VERTEX
  5
E0
  8
SECTION
 10
-0.518470157178399
 20
0.09268791408294419
 30
0.0
 70
0
  0
VERTEX
  5
E1
  8
SECTION
 10
-0.5106589348361013
 20
0.07793749428356023
 30
0.0
 70
0
  0
VERTEX
  5
E2
  8
SECTION
 10
-0.5001248968596883
 20
0.0649905207901611
 30
0.0
 70
0
  0
VERTEX
  5
E3
  8
SECTION
 10
-0.4872713510835638
 20
0.05434268346493809
 30
0.0
 70
0
  0
VERTEX
  5
E4
  8
SECTION
 10
-0.47259041038114447
 20
0.04640164708212069
 30
0.0
 70
0
  0
VERTEX
  5
E5
  8
SECTION
 10
-0.4566441515576116
 20
0.041471443409136555
 30
0.0
 70
0
  0
VERTEX
  5
E6
  8
SECTION
 10
-0.4400414388110221
 20
0.040022546625550603
 30
0.0
 70
0
  0
VERTEX
  5
E7
  8
SECTION
 10
-0.4400414388110221
 20
2.8936539820278995e-05
 30
0.0
 70
0
  0
VERTEX
  5
E8
  8
SECTION
 10
-0.613030856828118
 20
0.0
 30
0.0
 70
0
  0
VERTEX
  5
E9
  8
SECTION
 10
-0.6250335237673426
 20
0.011998998474155087
 30
0.0
 70
0
  0
VERTEX
  5
EA
  8
SECTION
 10
-0.62504023783913
 20
0.05000113893402158
 30
0.0
 70
0
  0
VERTEX
  5
EB
  8
SECTION
 10
-0.5750390942448576
 20
0.06000967088766629
 30
0.0
 70
0
  0
VERTEX
  5
EC
  8
SECTION
 10
-0.5750616789991909
 20
0.19501831192246755
 30
0.0
 70
0
  0
VERTEX
  5
ED
  8
SECTION
 10
-0.6000631658716884
 20
0.20001494991447544
 30
0.0
 70
0
  0
SEQEND
  5
2F
  8
SECTION
  0
ENDSEC
  0
EOF
