  0
SECTION
  2
HEADER
  9
$ACADVER
  1
AC1009
9
$INSUNITS
70
6
  9
$DWGCODEPAGE
  3
ANSI_1252
  9
$INSBASE
 10
0.0
 20
0.0
 30
0.0
  9
$EXTMIN
 10
1e+20
 20
1e+20
 30
1e+20
  9
$EXTMAX
 10
-1e+20
 20
-1e+20
 30
-1e+20
  9
$LIMMIN
 10
0.0
 20
0.0
  9
$LIMMAX
 10
420.0
 20
297.0
  9
$ORTHOMODE
 70
0
  9
$REGENMODE
 70
1
  9
$FILLMODE
 70
1
  9
$DRAGMODE
 70
2
  9
$QTEXTMODE
 70
0
  9
$MIRRTEXT
 70
1
  9
$OSMODE
 70
20583
  9
$LTSCALE
 40
1.0
  9
$ATTMODE
 70
1
  9
$TEXTSIZE
 40
2.5
  9
$TRACEWID
 40
1.0
  9
$TEXTSTYLE
  7
Standard
  9
$CLAYER
  8
0
  9
$CELTYPE
  6
ByLayer
  9
$CECOLOR
 62
256
  9
$DIMSCALE
 40
1.0
  9
$DIMASZ
 40
2.5
  9
$DIMEXO
 40
0.625
  9
$DIMDLI
 40
3.75
  9
$DIMRND
 40
0.0
  9
$DIMDLE
 40
0.0
  9
$DIMEXE
 40
1.25
  9
$DIMTP
 40
0.0
  9
$DIMTM
 40
0.0
  9
$DIMTXT
 40
2.5
  9
$DIMCEN
 40
2.5
  9
$DIMTSZ
 40
0.0
  9
$DIMTOL
 70
0
  9
$DIMLIM
 70
0
  9
$DIMTIH
 70
0
  9
$DIMTOH
 70
0
  9
$DIMSE1
 70
0
  9
$DIMSE2
 70
0
  9
$DIMTAD
 70
1
  9
$DIMZIN
 70
8
  9
$DIMBLK
  1

  9
$DIMASO
 70
1
  9
$DIMSHO
 70
1
  9
$DIMPOST
  1

  9
$DIMAPOST
  1

  9
$DIMALT
 70
0
  9
$DIMALTD
 70
3
  9
$DIMALTF
 40
0.03937007874
  9
$DIMLFAC
 40
1.0
  9
$DIMTOFL
 70
1
  9
$DIMTVP
 40
0.0
  9
$DIMTIX
 70
0
  9
$DIMSOXD
 70
0
  9
$DIMSAH
 70
0
  9
$DIMBLK1
  1

  9
$DIMBLK2
  1

  9
$DIMSTYLE
  2
ISO-25
  9
$DIMCLRD
 70
0
  9
$DIMCLRE
 70
0
  9
$DIMCLRT
 70
0
  9
$DIMTFAC
 40
1.0
  9
$DIMGAP
 40
0.625
  9
$COORDS
 70
1
  9
$ATTDIA
 70
0
  9
$ATTREQ
 70
1
  9
$HANDLING
 70
1
  9
$LUNITS
 70
2
  9
$LUPREC
 70
4
  9
$SKETCHINC
 40
1.0
  9
$FILLETRAD
 40
10.0
  9
$AUNITS
 70
0
  9
$AUPREC
 70
2
  9
$MENU
  1
.
  9
$ELEVATION
 40
0.0
  9
$PELEVATION
 40
0.0
  9
$THICKNESS
 40
0.0
  9
$LIMCHECK
 70
0
  9
$CHAMFERA
 40
0.0
  9
$CHAMFERB
 40
0.0
  9
$SKPOLY
 70
0
  9
$TDCREATE
 40
2461229.7211574074
  9
$TDUPDATE
 40
2461229.7211574074
  9
$TDINDWG
 40
0.0
  9
$TDUSRTIMER
 40
0.0
  9
$USRTIMER
 70
1
  9
$ANGBASE
 50
0.0
  9
$ANGDIR
 70
0
  9
$PDMODE
 70
0
  9
$PDSIZE
 40
0.0
  9
$PLINEWID
 40
0.0
  9
$SPLFRAME
 70
0
  9
$SPLINETYPE
 70
6
  9
$SPLINESEGS
 70
8
  9
$HANDSEED
  5
116
  9
$SURFTAB1
 70
6
  9
$SURFTAB2
 70
6
  9
$SURFTYPE
 70
6
  9
$SURFU
 70
6
  9
$SURFV
 70
6
  9
$UCSNAME
  2

  9
$UCSORG
 10
0.0
 20
0.0
 30
0.0
  9
$UCSXDIR
 10
1.0
 20
0.0
 30
0.0
  9
$UCSYDIR
 10
0.0
 20
1.0
 30
0.0
  9
$PUCSNAME
  2

  9
$PUCSORG
 10
0.0
 20
0.0
 30
0.0
  9
$PUCSXDIR
 10
1.0
 20
0.0
 30
0.0
  9
$PUCSYDIR
 10
0.0
 20
1.0
 30
0.0
  9
$USERI1
 70
0
  9
$USERI2
 70
0
  9
$USERI3
 70
0
  9
$USERI4
 70
0
  9
$USERI5
 70
0
  9
$USERR1
 40
0.0
  9
$USERR2
 40
0.0
  9
$USERR3
 40
0.0
  9
$USERR4
 40
0.0
  9
$USERR5
 40
0.0
  9
$WORLDVIEW
 70
1
  9
$SHADEDGE
 70
3
  9
$SHADEDIF
 70
70
  9
$TILEMODE
 70
1
  9
$MAXACTVP
 70
64
  9
$PLIMCHECK
 70
0
  9
$PEXTMIN
 10
1e+20
 20
1e+20
 30
1e+20
  9
$PEXTMAX
 10
-1e+20
 20
-1e+20
 30
-1e+20
  9
$PLIMMIN
 10
0.0
 20
0.0
  9
$PLIMMAX
 10
420.0
 20
297.0
  9
$UNITMODE
 70
0
  9
$VISRETAIN
 70
1
  9
$PLINEGEN
 70
0
  9
$PSLTSCALE
 70
1
  0
ENDSEC
  0
SECTION
  2
TABLES
  0
TABLE
  2
VPORT
 70
1
  0
VPORT
  5
23
  2
*Active
 70
0
 10
0.0
 20
0.0
 11
1.0
 21
1.0
 12
0.0
 22
0.0
 13
0.0
 23
0.0
 14
0.5
 24
0.5
 15
0.5
 25
0.5
 16
0.0
 26
0.0
 36
1.0
 17
0.0
 27
0.0
 37
0.0
 40
1000.0
 41
1.34
 42
50.0
 43
0.0
 44
0.0
 50
0.0
 51
0.0
 71
0
 72
1000
 73
1
 74
3
 75
0
 76
0
 77
0
 78
0
  0
ENDTAB
  0
TABLE
  2
LTYPE
 70
3
  0
LTYPE
  5
24
  2
ByBlock
 70
0
  3

 72
65
 73
0
 40
0.0
  0
LTYPE
  5
25
  2
ByLayer
 70
0
  3

 72
65
 73
0
 40
0.0
  0
LTYPE
  5
26
  2
Continuous
 70
0
  3

 72
65
 73
0
 40
0.0
  0
ENDTAB
  0
TABLE
  2
LAYER
 70
3
  0
LAYER
  5
27
  2
0
 70
0
 62
7
  6
Continuous
  0
LAYER
  5
28
  2
Defpoints
 70
0
 62
7
  6
Continuous
  0
LAYER
  5
2D
  2
SECTION
 70
0
 62
7
  6
Continuous
  0
ENDTAB
  0
TABLE
  2
STYLE
 70
1
  0
STYLE
  5
29
  2
Standard
 70
0
 40
0.0
 41
1.0
 50
0.0
 71
0
 42
2.5
  3
txt
  4

  0
ENDTAB
  0
TABLE
  2
VIEW
 70
0
  0
ENDTAB
  0
TABLE
  2
UCS
 70
0
  0
ENDTAB
  0
TABLE
  2
APPID
 70
3
  0
APPID
  5
2A
  2
ACAD
 70
0
  0
APPID
  5
114
  2
HATCHBACKGROUNDCOLOR
 70
0
  0
APPID
  5
115
  2
EZDXF
 70
0
  0
ENDTAB
  0
TABLE
  2
DIMSTYLE
 70
1
  0
DIMSTYLE
105
2B
  2
Standard
 70
0
  3

  4

  5

  6

  7

 40
1.0
 41
2.5
 42
0.625
 43
3.75
 44
1.25
 45
0.0
 46
0.0
 47
0.0
 48
0.0
140
2.5
141
2.5
142
0.0
143
0.03937007874
144
1.0
145
0.0
146
1.0
147
0.625
 71
0
 72
0
 73
0
 74
0
 75
0
 76
0
 77
1
 78
8
170
0
171
3
172
1
173
0
174
0
175
0
176
0
177
0
178
0
  0
ENDTAB
  0
ENDSEC
  0
SECTION
  2
BLOCKS
  0
BLOCK
  5
18
  8
0
  2
$Model_Space
 70
0
 10
0.0
 20
0.0
 30
0.0
  3
$Model_Space
  1

1001
EZDXF
1000
CREATED_BY_EZDXF
1000
1.4.4 @ 2026-07-07T20:18:28.672165+00:00
1000
WRITTEN_BY_EZDXF
1000
1.4.4 @ 2026-07-07T20:18:28.675500+00:00
  0
ENDBLK
  5
19
  8
0
  0
BLOCK
  5
1C
  8
0
  2
$Paper_Space
 70
0
 10
0.0
 20
0.0
 30
0.0
  3
$Paper_Space
  1

  0
ENDBLK
  5
1D
  8
0
  0
ENDSEC
  0
SECTION
  2
ENTITIES
  0
LINE
  5
2E
  8
SECTION
 10
0.44051091854862534
 20
0.00017026793489094416
 30
0.0
 11
0.44051091878100124
 21
0.040163878016755916
 31
0.0
  0
LINE
  5
2F
  8
SECTION
 10
0.44051091878100124
 20
0.040163878016755916
 30
0.0
 11
0.4537787123349517
 21
0.041284666840965656
 31
0.0
  0
LINE
  5
30
  8
SECTION
 10
0.4537787123349517
 20
0.041284666840965656
 30
0.0
 11
0.4667087626830835
 21
0.04446339479022754
 31
0.0
  0
LINE
  5
31
  8
SECTION
 10
0.4667087626830835
 20
0.04446339479022754
 30
0.0
 11
0.47898387763052597
 21
0.04962208322808692
 31
0.0
  0
LINE
  5
32
  8
SECTION
 10
0.47898387763052597
 20
0.04962208322808692
 30
0.0
 11
0.49030293146324766
 21
0.056634182322341076
 31
0.0
  0
LINE
  5
33
  8
SECTION
 10
0.49030293146324766
 20
0.056634182322341076
 30
0.0
 11
0.5003882519813487
 21
0.06532767548810625
 31
0.0
  0
LINE
  5
34
  8
SECTION
 10
0.5003882519813487
 20
0.06532767548810625
 30
0.0
 11
0.5089924321864601
 21
0.07548929919585134
 31
0.0
  0
LINE
  5
35
  8
SECTION
 10
0.5089924321864601
 20
0.07548929919585134
 30
0.0
 11
0.5159043995204229
 21
0.0868697746232101
 31
0.0
  0
LINE
  5
36
  8
SECTION
 10
0.5159043995204229
 20
0.0868697746232101
 30
0.0
 11
0.5209545937705116
 21
0.09918992281291139
 31
0.0
  0
LINE
  5
37
  8
SECTION
 10
0.5209545937705116
 20
0.09918992281291139
 30
0.0
 11
0.5240191266184411
 21
0.11214751332204287
 31
0.0
  0
LINE
  5
38
  8
SECTION
 10
0.5240191266184411
 20
0.11214751332204287
 30
0.0
 11
0.525022820792401
 21
0.12542467835760363
 31
0.0
  0
LINE
  5
39
  8
SECTION
 10
0.525022820792401
 20
0.12542467835760363
 30
0.0
 11
0.5239410542735641
 21
0.1386957105169131
 31
0.0
  0
LINE
  5
3A
  8
SECTION
 10
0.5239410542735641
 20
0.1386957105169131
 30
0.0
 11
0.520800364304705
 21
0.1516350528456769
 31
0.0
  0
LINE
  5
3B
  8
SECTION
 10
0.520800364304705
 20
0.1516350528456769
 30
0.0
 11
0.5156777963979948
 21
0.16392528520373162
 31
0.0
  0
LINE
  5
3C
  8
SECTION
 10
0.5156777963979948
 20
0.16392528520373162
 30
0.0
 11
0.5086990142985996
 21
0.1752649110258062
 31
0.0
  0
LINE
  5
3D
  8
SECTION
 10
0.5086990142985996
 20
0.1752649110258062
 30
0.0
 11
0.5000352172783096
 21
0.18537575345226287
 31
0.0
  0
LINE
  5
3E
  8
SECTION
 10
0.5000352172783096
 20
0.18537575345226287
 30
0.0
 11
0.4898989403795895
 21
0.19400977939653785
 31
0.0
  0
LINE
  5
3F
  8
SECTION
 10
0.4898989403795895
 20
0.19400977939653785
 30
0.0
 11
0.47853884063124497
 21
0.2009551841429129
 31
0.0
  0
LINE
  5
40
  8
SECTION
 10
0.47853884063124497
 20
0.2009551841429129
 30
0.0
 11
0.4662335971479479
 21
0.20604158721266685
 31
0.0
  0
LINE
  5
41
  8
SECTION
 10
0.4662335971479479
 20
0.20604158721266685
 30
0.0
 11
0.4532850747377779
 21
0.20914421203383426
 31
0.0
  0
LINE
  5
42
  8
SECTION
 10
0.4532850747377779
 20
0.20914421203383426
 30
0.0
 11
0.4400109187417911
 21
0.21018694688632422
 31
0.0
  0
LINE
  5
43
  8
SECTION
 10
0.4400109187417911
 20
0.21018694688632422
 30
0.0
 11
0.4267367627467138
 21
0.20914421202769518
 31
0.0
  0
LINE
  5
44
  8
SECTION
 10
0.4267367627467138
 20
0.20914421202769518
 30
0.0
 11
0.4137882403383628
 21
0.20604158720061605
 31
0.0
  0
LINE
  5
45
  8
SECTION
 10
0.4137882403383628
 20
0.20604158720061605
 30
0.0
 11
0.4014829968568847
 21
0.20095518412540514
 31
0.0
  0
LINE
  5
46
  8
SECTION
 10
0.4014829968568847
 20
0.20095518412540514
 30
0.0
 11
0.3901228971121782
 21
0.19400977937380048
 31
0.0
  0
LINE
  5
47
  8
SECTION
 10
0.3901228971121782
 20
0.19400977937380048
 30
0.0
 11
0.37998662021709606
 21
0.18537575342497803
 31
0.0
  0
LINE
  5
48
  8
SECTION
 10
0.37998662021709606
 20
0.18537575342497803
 30
0.0
 11
0.37132282320135346
 21
0.17526491099465602
 31
0.0
  0
LINE
  5
49
  8
SECTION
 10
0.37132282320135346
 20
0.17526491099465602
 30
0.0
 11
0.3643440411069605
 21
0.1639252851693982
 31
0.0
  0
LINE
  5
4A
  8
SECTION
 10
0.3643440411069605
 20
0.1639252851693982
 30
0.0
 11
0.3592214732057073
 21
0.15163505280884237
 31
0.0
  0
LINE
  5
4B
  8
SECTION
 10
0.3592214732057073
 20
0.15163505280884237
 30
0.0
 11
0.35608078324275994
 21
0.13869571047871432
 31
0.0
  0
LINE
  5
4C
  8
SECTION
 10
0.35608078324275994
 20
0.13869571047871432
 30
0.0
 11
0.3549990167298347
 21
0.1254246783189501
 31
0.0
  0
LINE
  5
4D
  8
SECTION
 10
0.3549990167298347
 20
0.1254246783189501
 30
0.0
 11
0.35600271091061586
 21
0.11214751328384409
 31
0.0
  0
LINE
  5
4E
  8
SECTION
 10
0.35600271091061586
 20
0.11214751328384409
 30
0.0
 11
0.35906724376400234
 21
0.09918992277607686
 31
0.0
  0
LINE
  5
4F
  8
SECTION
 10
0.35906724376400234
 20
0.09918992277607686
 30
0.0
 11
0.364117438019548
 21
0.0868697745886493
 31
0.0
  0
LINE
  5
50
  8
SECTION
 10
0.364117438019548
 20
0.0868697745886493
 30
0.0
 11
0.3710294053589678
 21
0.07548929916447378
 31
0.0
  0
LINE
  5
51
  8
SECTION
 10
0.3710294053589678
 20
0.07548929916447378
 30
0.0
 11
0.37963358556817184
 21
0.06532767546059404
 31
0.0
  0
LINE
  5
52
  8
SECTION
 10
0.37963358556817184
 20
0.06532767546059404
 30
0.0
 11
0.38971890609036564
 21
0.05663418229960371
 31
0.0
  0
LINE
  5
53
  8
SECTION
 10
0.38971890609036564
 20
0.05663418229960371
 30
0.0
 11
0.4010379599267253
 21
0.049622083210351775
 31
0.0
  0
LINE
  5
54
  8
SECTION
 10
0.4010379599267253
 20
0.049622083210351775
 30
0.0
 11
0.41331307487644153
 21
0.04446339477794936
 31
0.0
  0
LINE
  5
55
  8
SECTION
 10
0.41331307487644153
 20
0.04446339477794936
 30
0.0
 11
0.42624312522593755
 21
0.04128466683459919
 31
0.0
  0
LINE
  5
56
  8
SECTION
 10
0.42624312522593755
 20
0.04128466683459919
 30
0.0
 11
0.43951091878034276
 21
0.04016387801652854
 31
0.0
  0
LINE
  5
57
  8
SECTION
 10
0.43951091878034276
 20
0.04016387801652854
 30
0.0
 11
0.4395109185484216
 21
0.00017026793489094416
 31
0.0
  0
LINE
  5
58
  8
SECTION
 10
0.4395109185484216
 20
0.00017026793489094416
 30
0.0
 11
0.2204978291651969
 21
0.0001342608650247712
 31
0.0
  0
LINE
  5
59
  8
SECTION
 10
0.2204978291651969
 20
0.0001342608650247712
 30
0.0
 11
0.2204978293975728
 21
0.04012787094688974
 31
0.0
  0
LINE
  5
5A
  8
SECTION
 10
0.2204978293975728
 20
0.04012787094688974
 30
0.0
 11
0.23376562295152326
 21
0.04124865977109948
 31
0.0
  0
LINE
  5
5B
  8
SECTION
 10
0.23376562295152326
 20
0.04124865977109948
 30
0.0
 11
0.24669567329965503
 21
0.044427387720361367
 31
0.0
  0
LINE
  5
5C
  8
SECTION
 10
0.24669567329965503
 20
0.044427387720361367
 30
0.0
 11
0.2589707882470975
 21
0.04958607615822075
 31
0.0
  0
LINE
  5
5D
  8
SECTION
 10
0.2589707882470975
 20
0.04958607615822075
 30
0.0
 11
0.2702898420798192
 21
0.0565981752524749
 31
0.0
  0
LINE
  5
5E
  8
SECTION
 10
0.2702898420798192
 20
0.0565981752524749
 30
0.0
 11
0.2803751625979203
 21
0.06529166841824008
 31
0.0
  0
LINE
  5
5F
  8
SECTION
 10
0.2803751625979203
 20
0.06529166841824008
 30
0.0
 11
0.2889793428030316
 21
0.07545329212598517
 31
0.0
  0
LINE
  5
60
  8
SECTION
 10
0.2889793428030316
 20
0.07545329212598517
 30
0.0
 11
0.29589131013699443
 21
0.08683376755334393
 31
0.0
  0
LINE
  5
61
  8
SECTION
 10
0.29589131013699443
 20
0.08683376755334393
 30
0.0
 11
0.3009415043870831
 21
0.09915391574304522
 31
0.0
  0
LINE
  5
62
  8
SECTION
 10
0.3009415043870831
 20
0.09915391574304522
 30
0.0
 11
0.3040060372350126
 21
0.1121115062521767
 31
0.0
  0
LINE
  5
63
  8
SECTION
 10
0.3040060372350126
 20
0.1121115062521767
 30
0.0
 11
0.3050097314089726
 21
0.12538867128773745
 31
0.0
  0
LINE
  5
64
  8
SECTION
 10
0.3050097314089726
 20
0.12538867128773745
 30
0.0
 11
0.3039279648901356
 21
0.13865970344704692
 31
0.0
  0
LINE
  5
65
  8
SECTION
 10
0.3039279648901356
 20
0.13865970344704692
 30
0.0
 11
0.30078727492127655
 21
0.15159904577581074
 31
0.0
  0
LINE
  5
66
  8
SECTION
 10
0.30078727492127655
 20
0.15159904577581074
 30
0.0
 11
0.2956647070145664
 21
0.16388927813386545
 31
0.0
  0
LINE
  5
67
  8
SECTION
 10
0.2956647070145664
 20
0.16388927813386545
 30
0.0
 11
0.2886859249151712
 21
0.17522890395594004
 31
0.0
  0
LINE
  5
68
  8
SECTION
 10
0.2886859249151712
 20
0.17522890395594004
 30
0.0
 11
0.2800221278948811
 21
0.1853397463823967
 31
0.0
  0
LINE
  5
69
  8
SECTION
 10
0.2800221278948811
 20
0.1853397463823967
 30
0.0
 11
0.269885850996161
 21
0.19397377232667168
 31
0.0
  0
LINE
  5
6A
  8
SECTION
 10
0.269885850996161
 20
0.19397377232667168
 30
0.0
 11
0.2585257512478165
 21
0.20091917707304674
 31
0.0
  0
LINE
  5
6B
  8
SECTION
 10
0.2585257512478165
 20
0.20091917707304674
 30
0.0
 11
0.24622050776451943
 21
0.20600558014280068
 31
0.0
  0
LINE
  5
6C
  8
SECTION
 10
0.24622050776451943
 20
0.20600558014280068
 30
0.0
 11
0.23327198535434945
 21
0.2091082049639681
 31
0.0
  0
LINE
  5
6D
  8
SECTION
 10
0.23327198535434945
 20
0.2091082049639681
 30
0.0
 11
0.21999782935836265
 21
0.21015093981645805
 31
0.0
  0
LINE
  5
6E
  8
SECTION
 10
0.21999782935836265
 20
0.21015093981645805
 30
0.0
 11
0.20672367336328534
 21
0.209108204957829
 31
0.0
  0
LINE
  5
6F
  8
SECTION
 10
0.20672367336328534
 20
0.209108204957829
 30
0.0
 11
0.19377515095493436
 21
0.20600558013074988
 31
0.0
  0
LINE
  5
70
  8
SECTION
 10
0.19377515095493436
 20
0.20600558013074988
 30
0.0
 11
0.18146990747345626
 21
0.20091917705553897
 31
0.0
  0
LINE
  5
71
  8
SECTION
 10
0.18146990747345626
 20
0.20091917705553897
 30
0.0
 11
0.17010980772874973
 21
0.1939737723039343
 31
0.0
  0
LINE
  5
72
  8
SECTION
 10
0.17010980772874973
 20
0.1939737723039343
 30
0.0
 11
0.1599735308336676
 21
0.18533974635511186
 31
0.0
  0
LINE
  5
73
  8
SECTION
 10
0.1599735308336676
 20
0.18533974635511186
 30
0.0
 11
0.151309733817925
 21
0.17522890392478985
 31
0.0
  0
LINE
  5
74
  8
SECTION
 10
0.151309733817925
 20
0.17522890392478985
 30
0.0
 11
0.14433095172353205
 21
0.16388927809953202
 31
0.0
  0
LINE
  5
75
  8
SECTION
 10
0.14433095172353205
 20
0.16388927809953202
 30
0.0
 11
0.13920838382227885
 21
0.1515990457389762
 31
0.0
  0
LINE
  5
76
  8
SECTION
 10
0.13920838382227885
 20
0.1515990457389762
 30
0.0
 11
0.13606769385933148
 21
0.13865970340884815
 31
0.0
  0
LINE
  5
77
  8
SECTION
 10
0.13606769385933148
 20
0.13865970340884815
 30
0.0
 11
0.13498592734640624
 21
0.12538867124908393
 31
0.0
  0
LINE
  5
78
  8
SECTION
 10
0.13498592734640624
 20
0.12538867124908393
 30
0.0
 11
0.1359896215271874
 21
0.11211150621397792
 31
0.0
  0
LINE
  5
79
  8
SECTION
 10
0.1359896215271874
 20
0.11211150621397792
 30
0.0
 11
0.1390541543805739
 21
0.09915391570621068
 31
0.0
  0
LINE
  5
7A
  8
SECTION
 10
0.1390541543805739
 20
0.09915391570621068
 30
0.0
 11
0.14410434863611954
 21
0.08683376751878313
 31
0.0
  0
LINE
  5
7B
  8
SECTION
 10
0.14410434863611954
 20
0.08683376751878313
 30
0.0
 11
0.15101631597553933
 21
0.0754532920946076
 31
0.0
  0
LINE
  5
7C
  8
SECTION
 10
0.15101631597553933
 20
0.0754532920946076
 30
0.0
 11
0.1596204961847434
 21
0.06529166839072786
 31
0.0
  0
LINE
  5
7D
  8
SECTION
 10
0.1596204961847434
 20
0.06529166839072786
 30
0.0
 11
0.16970581670693718
 21
0.056598175229737535
 31
0.0
  0
LINE
  5
7E
  8
SECTION
 10
0.16970581670693718
 20
0.056598175229737535
 30
0.0
 11
0.18102487054329686
 21
0.0495860761404856
 31
0.0
  0
LINE
  5
7F
  8
SECTION
 10
0.18102487054329686
 20
0.0495860761404856
 30
0.0
 11
0.19329998549301308
 21
0.04442738770808319
 31
0.0
  0
LINE
  5
80
  8
SECTION
 10
0.19329998549301308
 20
0.04442738770808319
 30
0.0
 11
0.2062300358425091
 21
0.04124865976473302
 31
0.0
  0
LINE
  5
81
  8
SECTION
 10
0.2062300358425091
 20
0.04124865976473302
 30
0.0
 11
0.2194978293969143
 21
0.04012787094666237
 31
0.0
  0
LINE
  5
82
  8
SECTION
 10
0.2194978293969143
 20
0.04012787094666237
 30
0.0
 11
0.21949782916499316
 21
0.0001342608650247712
 31
0.0
  0
LINE
  5
83
  8
SECTION
 10
0.21949782916499316
 20
0.0001342608650247712
 30
0.0
 11
0.00048473978176843957
 21
9.702437296255084e-05
 31
0.0
  0
LINE
  5
84
  8
SECTION
 10
0.00048473978176843957
 20
9.702437296255084e-05
 30
0.0
 11
0.00048473978176843957
 21
0.04009063445528227
 31
0.0
  0
LINE
  5
85
  8
SECTION
 10
0.00048473978176843957
 20
0.04009063445528227
 30
0.0
 11
0.013752533335718908
 21
0.04121142327949201
 31
0.0
  0
LINE
  5
86
  8
SECTION
 10
0.013752533335718908
 20
0.04121142327949201
 30
0.0
 11
0.02668258368385068
 21
0.044390151228753894
 31
0.0
  0
LINE
  5
87
  8
SECTION
 10
0.02668258368385068
 20
0.044390151228753894
 30
0.0
 11
0.03895769863129317
 21
0.049548839666613276
 31
0.0
  0
LINE
  5
88
  8
SECTION
 10
0.03895769863129317
 20
0.049548839666613276
 30
0.0
 11
0.05027675246401486
 21
0.05656093876086743
 31
0.0
  0
LINE
  5
89
  8
SECTION
 10
0.05027675246401486
 20
0.05656093876086743
 30
0.0
 11
0.06036207298211593
 21
0.0652544319266326
 31
0.0
  0
LINE
  5
8A
  8
SECTION
 10
0.06036207298211593
 20
0.0652544319266326
 30
0.0
 11
0.06896625318722727
 21
0.0754160556343777
 31
0.0
  0
LINE
  5
8B
  8
SECTION
 10
0.06896625318722727
 20
0.0754160556343777
 30
0.0
 11
0.07587822052119009
 21
0.08679653106173646
 31
0.0
  0
LINE
  5
8C
  8
SECTION
 10
0.07587822052119009
 20
0.08679653106173646
 30
0.0
 11
0.08092841477127877
 21
0.09911667925143774
 31
0.0
  0
LINE
  5
8D
  8
SECTION
 10
0.08092841477127877
 20
0.09911667925143774
 30
0.0
 11
0.08399294761920828
 21
0.11207426976056922
 31
0.0
  0
LINE
  5
8E
  8
SECTION
 10
0.08399294761920828
 20
0.11207426976056922
 30
0.0
 11
0.08499664179316824
 21
0.12535143479612998
 31
0.0
  0
LINE
  5
8F
  8
SECTION
 10
0.08499664179316824
 20
0.12535143479612998
 30
0.0
 11
0.08391487527433128
 21
0.13862246695543945
 31
0.0
  0
LINE
  5
90
  8
SECTION
 10
0.08391487527433128
 20
0.13862246695543945
 30
0.0
 11
0.0807741853054722
 21
0.15156180928420326
 31
0.0
  0
LINE
  5
91
  8
SECTION
 10
0.0807741853054722
 20
0.15156180928420326
 30
0.0
 11
0.07565161739876203
 21
0.16385204164225797
 31
0.0
  0
LINE
  5
92
  8
SECTION
 10
0.07565161739876203
 20
0.16385204164225797
 30
0.0
 11
0.06867283529936685
 21
0.17519166746433257
 31
0.0
  0
LINE
  5
93
  8
SECTION
 10
0.06867283529936685
 20
0.17519166746433257
 30
0.0
 11
0.060009038279076776
 21
0.18530250989078922
 31
0.0
  0
LINE
  5
94
  8
SECTION
 10
0.060009038279076776
 20
0.18530250989078922
 30
0.0
 11
0.04987276138035668
 21
0.1939365358350642
 31
0.0
  0
LINE
  5
95
  8
SECTION
 10
0.04987276138035668
 20
0.1939365358350642
 30
0.0
 11
0.03851266163201217
 21
0.20088194058143927
 31
0.0
  0
LINE
  5
96
  8
SECTION
 10
0.03851266163201217
 20
0.20088194058143927
 30
0.0
 11
0.026207418148715078
 21
0.2059683436511932
 31
0.0
  0
LINE
  5
97
  8
SECTION
 10
0.026207418148715078
 20
0.2059683436511932
 30
0.0
 11
0.013258895738545107
 21
0.20907096847236062
 31
0.0
  0
LINE
  5
98
  8
SECTION
 10
0.013258895738545107
 20
0.20907096847236062
 30
0.0
 11
-1.5260257441696012e-05
 21
0.21011370332485058
 31
0.0
  0
LINE
  5
99
  8
SECTION
 10
-1.5260257441696012e-05
 20
0.21011370332485058
 30
0.0
 11
-0.013289416252519004
 21
0.20907096846622153
 31
0.0
  0
LINE
  5
9A
  8
SECTION
 10
-0.013289416252519004
 20
0.20907096846622153
 30
0.0
 11
-0.026237938660869986
 21
0.2059683436391424
 31
0.0
  0
LINE
  5
9B
  8
SECTION
 10
-0.026237938660869986
 20
0.2059683436391424
 30
0.0
 11
-0.03854318214234809
 21
0.2008819405639315
 31
0.0
  0
LINE
  5
9C
  8
SECTION
 10
-0.03854318214234809
 20
0.2008819405639315
 30
0.0
 11
-0.04990328188705462
 21
0.19393653581232684
 31
0.0
  0
LINE
  5
9D
  8
SECTION
 10
-0.04990328188705462
 20
0.19393653581232684
 30
0.0
 11
-0.06003955878213674
 21
0.18530250986350438
 31
0.0
  0
LINE
  5
9E
  8
SECTION
 10
-0.06003955878213674
 20
0.18530250986350438
 30
0.0
 11
-0.06870335579787934
 21
0.17519166743318237
 31
0.0
  0
LINE
  5
9F
  8
SECTION
 10
-0.06870335579787934
 20
0.17519166743318237
 30
0.0
 11
-0.0756821378922723
 21
0.16385204160792455
 31
0.0
  0
LINE
  5
A0
  8
SECTION
 10
-0.0756821378922723
 20
0.16385204160792455
 30
0.0
 11
-0.0808047057935255
 21
0.15156180924736873
 31
0.0
  0
LINE
  5
A1
  8
SECTION
 10
-0.0808047057935255
 20
0.15156180924736873
 30
0.0
 11
-0.08394539575647286
 21
0.13862246691724067
 31
0.0
  0
LINE
  5
A2
  8
SECTION
 10
-0.08394539575647286
 20
0.13862246691724067
 30
0.0
 11
-0.0850271622693981
 21
0.12535143475747645
 31
0.0
  0
LINE
  5
A3
  8
SECTION
 10
-0.0850271622693981
 20
0.12535143475747645
 30
0.0
 11
-0.08402346808861694
 21
0.11207426972237045
 31
0.0
  0
LINE
  5
A4
  8
SECTION
 10
-0.08402346808861694
 20
0.11207426972237045
 30
0.0
 11
-0.08095893523523046
 21
0.09911667921460321
 31
0.0
  0
LINE
  5
A5
  8
SECTION
 10
-0.08095893523523046
 20
0.09911667921460321
 30
0.0
 11
-0.07590874097968481
 21
0.08679653102717566
 31
0.0
  0
LINE
  5
A6
  8
SECTION
 10
-0.07590874097968481
 20
0.08679653102717566
 30
0.0
 11
-0.06899677364026502
 21
0.07541605560300013
 31
0.0
  0
LINE
  5
A7
  8
SECTION
 10
-0.06899677364026502
 20
0.07541605560300013
 30
0.0
 11
-0.06039259343106096
 21
0.06525443189912039
 31
0.0
  0
LINE
  5
A8
  8
SECTION
 10
-0.06039259343106096
 20
0.06525443189912039
 30
0.0
 11
-0.05030727290886716
 21
0.05656093873813006
 31
0.0
  0
LINE
  5
A9
  8
SECTION
 10
-0.05030727290886716
 20
0.05656093873813006
 30
0.0
 11
-0.03898821907250749
 21
0.04954883964887813
 31
0.0
  0
LINE
  5
AA
  8
SECTION
 10
-0.03898821907250749
 20
0.04954883964887813
 30
0.0
 11
-0.026713104122791265
 21
0.044390151216475715
 31
0.0
  0
LINE
  5
AB
  8
SECTION
 10
-0.026713104122791265
 20
0.044390151216475715
 30
0.0
 11
-0.01378305377329525
 21
0.04121142327312555
 31
0.0
  0
LINE
  5
AC
  8
SECTION
 10
-0.01378305377329525
 20
0.04121142327312555
 30
0.0
 11
-0.0005152602188900346
 21
0.0400906344550549
 31
0.0
  0
LINE
  5
AD
  8
SECTION
 10
-0.0005152602188900346
 20
0.0400906344550549
 30
0.0
 11
-0.0005152602184352872
 21
9.702437296255084e-05
 31
0.0
  0
LINE
  5
AE
  8
SECTION
 10
-0.0005152602184352872
 20
9.702437296255084e-05
 30
0.0
 11
-0.22002834942759364
 21
6.617303370148875e-05
 31
0.0
  0
LINE
  5
AF
  8
SECTION
 10
-0.22002834942759364
 20
6.617303370148875e-05
 30
0.0
 11
-0.22002834942759364
 21
0.04005978311602121
 31
0.0
  0
LINE
  5
B0
  8
SECTION
 10
-0.22002834942759364
 20
0.04005978311602121
 30
0.0
 11
-0.2067605558709147
 21
0.04118057191021762
 31
0.0
  0
LINE
  5
B1
  8
SECTION
 10
-0.2067605558709147
 20
0.04118057191021762
 30
0.0
 11
-0.19383050551550696
 21
0.04435929982992093
 31
0.0
  0
LINE
  5
B2
  8
SECTION
 10
-0.19383050551550696
 20
0.04435929982992093
 30
0.0
 11
-0.18155539055624104
 21
0.04951798824004072
 31
0.0
  0
LINE
  5
B3
  8
SECTION
 10
-0.18155539055624104
 20
0.04951798824004072
 30
0.0
 11
-0.17023633670714844
 21
0.05653008730860165
 31
0.0
  0
LINE
  5
B4
  8
SECTION
 10
-0.17023633670714844
 20
0.05653008730860165
 30
0.0
 11
-0.16015101616903848
 21
0.06522358045140209
 31
0.0
  0
LINE
  5
B5
  8
SECTION
 10
-0.16015101616903848
 20
0.06522358045140209
 30
0.0
 11
-0.15154683594118978
 21
0.07538520413959304
 31
0.0
  0
LINE
  5
B6
  8
SECTION
 10
-0.15154683594118978
 20
0.07538520413959304
 30
0.0
 11
-0.14463486858130636
 21
0.08676567955126302
 31
0.0
  0
LINE
  5
B7
  8
SECTION
 10
-0.14463486858130636
 20
0.08676567955126302
 30
0.0
 11
-0.13958467430302335
 21
0.09908582772959562
 31
0.0
  0
LINE
  5
B8
  8
SECTION
 10
-0.13958467430302335
 20
0.09908582772959562
 30
0.0
 11
-0.13652014142553526
 21
0.11204341823190589
 31
0.0
  0
LINE
  5
B9
  8
SECTION
 10
-0.13652014142553526
 20
0.11204341823190589
 30
0.0
 11
-0.13551644722110723
 21
0.1253205832651929
 31
0.0
  0
LINE
  5
BA
  8
SECTION
 10
-0.13551644722110723
 20
0.1253205832651929
 30
0.0
 11
-0.13659821370993086
 21
0.13859161542723086
 31
0.0
  0
LINE
  5
BB
  8
SECTION
 10
-0.13659821370993086
 20
0.13859161542723086
 30
0.0
 11
-0.13973890364923136
 21
0.15153095776327064
 31
0.0
  0
LINE
  5
BC
  8
SECTION
 10
-0.13973890364923136
 20
0.15153095776327064
 30
0.0
 11
-0.14486147152820195
 21
0.16382119013314878
 31
0.0
  0
LINE
  5
BD
  8
SECTION
 10
-0.14486147152820195
 20
0.16382119013314878
 30
0.0
 11
-0.15184025360167652
 21
0.17516081597113953
 31
0.0
  0
LINE
  5
BE
  8
SECTION
 10
-0.15184025360167652
 20
0.17516081597113953
 30
0.0
 11
-0.16050405059922923
 21
0.1852716584173777
 31
0.0
  0
LINE
  5
BF
  8
SECTION
 10
-0.16050405059922923
 20
0.1852716584173777
 30
0.0
 11
-0.1706403274783952
 21
0.1939056843848448
 31
0.0
  0
LINE
  5
C0
  8
SECTION
 10
-0.1706403274783952
 20
0.1939056843848448
 30
0.0
 11
-0.18200042721082355
 21
0.20085108915714045
 31
0.0
  0
LINE
  5
C1
  8
SECTION
 10
-0.18200042721082355
 20
0.20085108915714045
 30
0.0
 11
-0.19430567068275195
 21
0.20593749225486135
 31
0.0
  0
LINE
  5
C2
  8
SECTION
 10
-0.19430567068275195
 20
0.20593749225486135
 30
0.0
 11
-0.20725419308564597
 21
0.20904011710558734
 31
0.0
  0
LINE
  5
C3
  8
SECTION
 10
-0.20725419308564597
 20
0.20904011710558734
 30
0.0
 11
-0.22052834907935903
 21
0.210082851988318
 31
0.0
  0
LINE
  5
C4
  8
SECTION
 10
-0.22052834907935903
 20
0.210082851988318
 30
0.0
 11
-0.23380250507716482
 21
0.20904011715992965
 31
0.0
  0
LINE
  5
C5
  8
SECTION
 10
-0.23380250507716482
 20
0.20904011715992965
 30
0.0
 11
-0.24675102749279176
 21
0.2059374923624091
 31
0.0
  0
LINE
  5
C6
  8
SECTION
 10
-0.24675102749279176
 20
0.2059374923624091
 30
0.0
 11
-0.25905627098563855
 21
0.20085108931516515
 31
0.0
  0
LINE
  5
C7
  8
SECTION
 10
-0.25905627098563855
 20
0.20085108931516515
 30
0.0
 11
-0.270416370746716
 21
0.19390568458925372
 31
0.0
  0
LINE
  5
C8
  8
SECTION
 10
-0.270416370746716
 20
0.19390568458925372
 30
0.0
 11
-0.28055264766135224
 21
0.185271658663396
 31
0.0
  0
LINE
  5
C9
  8
SECTION
 10
-0.28055264766135224
 20
0.185271658663396
 30
0.0
 11
-0.2892164446998322
 21
0.17516081625262814
 31
0.0
  0
LINE
  5
CA
  8
SECTION
 10
-0.2892164446998322
 20
0.17516081625262814
 30
0.0
 11
-0.29619522682014576
 21
0.1638211904430591
 31
0.0
  0
LINE
  5
CB
  8
SECTION
 10
-0.29619522682014576
 20
0.1638211904430591
 30
0.0
 11
-0.3013177947495933
 21
0.1515309580943267
 31
0.0
  0
LINE
  5
CC
  8
SECTION
 10
-0.3013177947495933
 20
0.1515309580943267
 30
0.0
 11
-0.3044584847416445
 21
0.13859161577124723
 31
0.0
  0
LINE
  5
CD
  8
SECTION
 10
-0.3044584847416445
 20
0.13859161577124723
 30
0.0
 11
-0.3055402512850378
 21
0.12532058361352938
 31
0.0
  0
LINE
  5
CE
  8
SECTION
 10
-0.3055402512850378
 20
0.12532058361352938
 30
0.0
 11
-0.3045365571347247
 21
0.11204341857614963
 31
0.0
  0
LINE
  5
CF
  8
SECTION
 10
-0.3045365571347247
 20
0.11204341857614963
 30
0.0
 11
-0.30147202431044207
 21
0.09908582806133381
 31
0.0
  0
LINE
  5
D0
  8
SECTION
 10
-0.30147202431044207
 20
0.09908582806133381
 30
0.0
 11
-0.29642183008309075
 21
0.08676567986231021
 31
0.0
  0
LINE
  5
D1
  8
SECTION
 10
-0.29642183008309075
 20
0.08676567986231021
 30
0.0
 11
-0.28950986276959156
 21
0.07538520442221852
 31
0.0
  0
LINE
  5
D2
  8
SECTION
 10
-0.28950986276959156
 20
0.07538520442221852
 30
0.0
 11
-0.28090568258312487
 21
0.06522358069878464
 31
0.0
  0
LINE
  5
D3
  8
SECTION
 10
-0.28090568258312487
 20
0.06522358069878464
 30
0.0
 11
-0.2708203620804852
 21
0.0565300875146022
 31
0.0
  0
LINE
  5
D4
  8
SECTION
 10
-0.2708203620804852
 20
0.0565300875146022
 30
0.0
 11
-0.25950130826049644
 21
0.04951798839965704
 31
0.0
  0
LINE
  5
D5
  8
SECTION
 10
-0.25950130826049644
 20
0.04951798839965704
 30
0.0
 11
-0.2472261933221489
 21
0.044359299939287666
 31
0.0
  0
LINE
  5
D6
  8
SECTION
 10
-0.2472261933221489
 20
0.044359299939287666
 30
0.0
 11
-0.23429614297992885
 21
0.041180571966606294
 31
0.0
  0
LINE
  5
D7
  8
SECTION
 10
-0.23429614297992885
 20
0.041180571966606294
 30
0.0
 11
-0.22102834942779737
 21
0.04005978311806757
 31
0.0
  0
LINE
  5
D8
  8
SECTION
 10
-0.22102834942779737
 20
0.04005978311806757
 30
0.0
 11
-0.22102834942779737
 21
6.617303370148875e-05
 31
0.0
  0
LINE
  5
D9
  8
SECTION
 10
-0.22102834942779737
 20
6.617303370148875e-05
 30
0.0
 11
-0.43904143881081836
 21
2.8936541639268398e-05
 31
0.0
  0
LINE
  5
DA
  8
SECTION
 10
-0.43904143881081836
 20
2.8936541639268398e-05
 30
0.0
 11
-0.43904143881081836
 21
0.040022546625550603
 31
0.0
  0
LINE
  5
DB
  8
SECTION
 10
-0.43904143881081836
 20
0.040022546625550603
 30
0.0
 11
-0.42577230864026205
 21
0.04114344065510522
 31
0.0
  0
LINE
  5
DC
  8
SECTION
 10
-0.42577230864026205
 20
0.04114344065510522
 30
0.0
 11
-0.41284095459150194
 21
0.04432248160605923
 31
0.0
  0
LINE
  5
DD
  8
SECTION
 10
-0.41284095459150194
 20
0.04432248160605923
 30
0.0
 11
-0.4005646009600241
 21
0.04948168313444512
 31
0.0
  0
LINE
  5
DE
  8
SECTION
 10
-0.4005646009600241
 20
0.04948168313444512
 30
0.0
 11
-0.38924440395931015
 21
0.05649448277335978
 31
0.0
  0
LINE
  5
DF
  8
SECTION
 10
-0.38924440395931015
 20
0.05649448277335978
 30
0.0
 11
-0.3791580639381209
 21
0.06518884668798819
 31
0.0
  0
LINE
  5
E0
  8
SECTION
 10
-0.3791580639381209
 20
0.06518884668798819
 30
0.0
 11
-0.37055301299778876
 21
0.07535148990768903
 31
0.0
  0
LINE
  5
E1
  8
SECTION
 10
-0.37055301299778876
 20
0.07535148990768903
 30
0.0
 11
-0.36364034513553634
 21
0.08673310850667804
 31
0.0
  0
LINE
  5
E2
  8
SECTION
 10
-0.36364034513553634
 20
0.08673310850667804
 30
0.0
 11
-0.35858963781311104
 21
0.09905449537859567
 31
0.0
  0
LINE
  5
E3
  8
SECTION
 10
-0.35858963781311104
 20
0.09905449537859567
 30
0.0
 11
-0.3555247919816793
 21
0.11201338958039742
 31
0.0
  0
LINE
  5
E4
  8
SECTION
 10
-0.3555247919816793
 20
0.11201338958039742
 30
0.0
 11
-0.3545209926192001
 21
0.1252918912180121
 31
0.0
  0
LINE
  5
E5
  8
SECTION
 10
-0.3545209926192001
 20
0.1252918912180121
 30
0.0
 11
-0.35560286433474175
 21
0.13856425997778388
 31
0.0
  0
LINE
  5
E6
  8
SECTION
 10
-0.35560286433474175
 20
0.13856425997778388
 30
0.0
 11
-0.358743867294379
 21
0.15150490599376099
 31
0.0
  0
LINE
  5
E7
  8
SECTION
 10
-0.358743867294379
 20
0.15150490599376099
 30
0.0
 11
-0.3638669482793375
 21
0.16379637702561922
 31
0.0
  0
LINE
  5
E8
  8
SECTION
 10
-0.3638669482793375
 20
0.16379637702561922
 30
0.0
 11
-0.3708464309106603
 21
0.175137146007728
 31
0.0
  0
LINE
  5
E9
  8
SECTION
 10
-0.3708464309106603
 20
0.175137146007728
 30
0.0
 11
-0.37951109866617116
 21
0.18524900793272536
 31
0.0
  0
LINE
  5
EA
  8
SECTION
 10
-0.37951109866617116
 20
0.18524900793272536
 30
0.0
 11
-0.3896483950638867
 21
0.1938839046110843
 31
0.0
  0
LINE
  5
EB
  8
SECTION
 10
-0.3896483950638867
 20
0.1938839046110843
 30
0.0
 11
-0.40100963797112854
 21
0.2008300098871132
 31
0.0
  0
LINE
  5
EC
  8
SECTION
 10
-0.40100963797112854
 20
0.2008300098871132
 30
0.0
 11
-0.4133161201261828
 21
0.20591692603238698
 31
0.0
  0
LINE
  5
ED
  8
SECTION
 10
-0.4133161201261828
 20
0.20591692603238698
 30
0.0
 11
-0.4262659462197007
 21
0.2090198638425136
 31
0.0
  0
LINE
  5
EE
  8
SECTION
 10
-0.4262659462197007
 20
0.2090198638425136
 30
0.0
 11
-0.4395414388109202
 21
0.21006270388988924
 31
0.0
  0
LINE
  5
EF
  8
SECTION
 10
-0.4395414388109202
 20
0.21006270388988924
 30
0.0
 11
-0.45281693140213974
 21
0.2090198638425136
 31
0.0
  0
LINE
  5
F0
  8
SECTION
 10
-0.45281693140213974
 20
0.2090198638425136
 30
0.0
 11
-0.46576675749565766
 21
0.20591692603238698
 31
0.0
  0
LINE
  5
F1
  8
SECTION
 10
-0.46576675749565766
 20
0.20591692603238698
 30
0.0
 11
-0.4780732396507119
 21
0.2008300098871132
 31
0.0
  0
LINE
  5
F2
  8
SECTION
 10
-0.4780732396507119
 20
0.2008300098871132
 30
0.0
 11
-0.48943448255795374
 21
0.1938839046110843
 31
0.0
  0
LINE
  5
F3
  8
SECTION
 10
-0.48943448255795374
 20
0.1938839046110843
 30
0.0
 11
-0.4995717789556693
 21
0.18524900793272536
 31
0.0
  0
LINE
  5
F4
  8
SECTION
 10
-0.4995717789556693
 20
0.18524900793272536
 30
0.0
 11
-0.5082364467111802
 21
0.175137146007728
 31
0.0
  0
LINE
  5
F5
  8
SECTION
 10
-0.5082364467111802
 20
0.175137146007728
 30
0.0
 11
-0.5152159293425029
 21
0.16379637702561922
 31
0.0
  0
LINE
  5
F6
  8
SECTION
 10
-0.5152159293425029
 20
0.16379637702561922
 30
0.0
 11
-0.5203390103274614
 21
0.15150490599376099
 31
0.0
  0
LINE
  5
F7
  8
SECTION
 10
-0.5203390103274614
 20
0.15150490599376099
 30
0.0
 11
-0.5234800132870987
 21
0.13856425997778388
 31
0.0
  0
LINE
  5
F8
  8
SECTION
 10
-0.5234800132870987
 20
0.13856425997778388
 30
0.0
 11
-0.5245618850026403
 21
0.1252918912180121
 31
0.0
  0
LINE
  5
F9
  8
SECTION
 10
-0.5245618850026403
 20
0.1252918912180121
 30
0.0
 11
-0.5235580856401612
 21
0.11201338958039742
 31
0.0
  0
LINE
  5
FA
  8
SECTION
 10
-0.5235580856401612
 20
0.11201338958039742
 30
0.0
 11
-0.5204932398087294
 21
0.09905449537859567
 31
0.0
  0
LINE
  5
FB
  8
SECTION
 10
-0.5204932398087294
 20
0.09905449537859567
 30
0.0
 11
-0.5154425324863041
 21
0.08673310850667804
 31
0.0
  0
LINE
  5
FC
  8
SECTION
 10
-0.5154425324863041
 20
0.08673310850667804
 30
0.0
 11
-0.5085298646240517
 21
0.07535148990768903
 31
0.0
  0
LINE
  5
FD
  8
SECTION
 10
-0.5085298646240517
 20
0.07535148990768903
 30
0.0
 11
-0.49992481368371955
 21
0.06518884668798819
 31
0.0
  0
LINE
  5
FE
  8
SECTION
 10
-0.49992481368371955
 20
0.06518884668798819
 30
0.0
 11
-0.4898384736625303
 21
0.05649448277335978
 31
0.0
  0
LINE
  5
FF
  8
SECTION
 10
-0.4898384736625303
 20
0.05649448277335978
 30
0.0
 11
-0.47851827666181634
 21
0.04948168313444512
 31
0.0
  0
LINE
  5
100
  8
SECTION
 10
-0.47851827666181634
 20
0.04948168313444512
 30
0.0
 11
-0.4662419230303385
 21
0.04432248160605923
 31
0.0
  0
LINE
  5
101
  8
SECTION
 10
-0.4662419230303385
 20
0.04432248160605923
 30
0.0
 11
-0.4533105689815784
 21
0.04114344065510522
 31
0.0
  0
LINE
  5
102
  8
SECTION
 10
-0.4533105689815784
 20
0.04114344065510522
 30
0.0
 11
-0.4400414388110221
 21
0.040022546625550603
 31
0.0
  0
LINE
  5
103
  8
SECTION
 10
-0.4400414388110221
 20
0.040022546625550603
 30
0.0
 11
-0.4400414388110221
 21
2.8936539820278995e-05
 31
0.0
  0
LINE
  5
104
  8
SECTION
 10
-0.4400414388110221
 20
2.8936539820278995e-05
 30
0.0
 11
-0.613030856828118
 21
0.0
 31
0.0
  0
LINE
  5
105
  8
SECTION
 10
-0.613030856828118
 20
0.0
 30
0.0
 11
-0.6250335237673426
 21
0.011998998474155087
 31
0.0
  0
LINE
  5
106
  8
SECTION
 10
-0.6250335237673426
 20
0.011998998474155087
 30
0.0
 11
-0.62504023783913
 21
0.05000113893402158
 31
0.0
  0
LINE
  5
107
  8
SECTION
 10
-0.62504023783913
 20
0.05000113893402158
 30
0.0
 11
-0.5750390942448576
 21
0.06000967088766629
 31
0.0
  0
LINE
  5
108
  8
SECTION
 10
-0.5750390942448576
 20
0.06000967088766629
 30
0.0
 11
-0.5750616789991909
 21
0.19501831192246755
 31
0.0
  0
LINE
  5
109
  8
SECTION
 10
-0.5750616789991909
 20
0.19501831192246755
 30
0.0
 11
-0.6000631658716884
 21
0.20001494991447544
 31
0.0
  0
LINE
  5
10A
  8
SECTION
 10
-0.6000631658716884
 20
0.20001494991447544
 30
0.0
 11
-0.6000723224824469
 21
0.2500179236631084
 31
0.0
  0
LINE
  5
10B
  8
SECTION
 10
-0.6000723224824469
 20
0.2500179236631084
 30
0.0
 11
0.5999990742675436
 21
0.2502175179652113
 31
0.0
  0
LINE
  5
10C
  8
SECTION
 10
0.5999990742675436
 20
0.2502175179652113
 30
0.0
 11
0.6000082308783021
 21
0.20021454421657836
 31
0.0
  0
LINE
  5
10D
  8
SECTION
 10
0.6000082308783021
 20
0.20021454421657836
 30
0.0
 11
0.5750073528870416
 21
0.19520997088693548
 31
0.0
  0
LINE
  5
10E
  8
SECTION
 10
0.5750073528870416
 20
0.19520997088693548
 30
0.0
 11
0.5750293275887088
 21
0.060202549953828566
 31
0.0
  0
LINE
  5
10F
  8
SECTION
 10
0.5750293275887088
 20
0.060202549953828566
 30
0.0
 11
0.6250341338272847
 21
0.050209897995955544
 31
0.0
  0
LINE
  5
110
  8
SECTION
 10
0.6250341338272847
 20
0.050209897995955544
 30
0.0
 11
0.62504023783913
 21
0.012207757536089048
 31
0.0
  0
LINE
  5
111
  8
SECTION
 10
0.62504023783913
 20
0.012207757536089048
 30
0.0
 11
0.6130418424327218
 21
0.00020508943271124735
 31
0.0
  0
LINE
  5
112
  8
SECTION
 10
0.6130418424327218
 20
0.00020508943271124735
 30
0.0
 11
0.4405109185490801
 21
0.00017631949845053896
 31
0.0
  0
LINE
  5
113
  8
SECTION
 10
0.4405109185490801
 20
0.00017631949845053896
 30
0.0
 11
0.44051091854862534
 21
0.00017026793489094416
 31
0.0
  0
ENDSEC
  0
EOF
