0
SECTION
2
HEADER
9
$ACADVER
1
AC1009
9
$INSUNITS
70
6
0
ENDSEC
0
SECTION
2
ENTITIES
0
POLYLINE
8
0
66
1
70
1
10
0.0
20
0.0
30
0.0
0
VERTEX
8
0
10
0.6130418424327218
20
0.00020508943271124735
30
0.0
0
VERTEX
8
0
10
0.62504023783913
20
0.012207757536089048
30
0.0
0
VERTEX
8
0
10
0.6250341338272847
20
0.050209897995955544
30
0.0
0
VERTEX
8
0
10
0.5750293275887088
20
0.060202549953828566
30
0.0
0
VERTEX
8
0
10
0.5750073528870416
20
0.19520997088693548
30
0.0
0
VERTEX
8
0
10
0.6000082308783021
20
0.20021454421657836
30
0.0
0
VERTEX
8
0
10
0.5999990742675436
20
0.2502175179652113
30
0.0
0
VERTEX
8
0
10
-0.6000723224824469
20
0.2500179236631084
30
0.0
0
VERTEX
8
0
10
-0.6000631658716884
20
0.20001494991447544
30
0.0
0
VERTEX
8
0
10
-0.5750616789991909
20
0.19501831192246755
30
0.0
0
VERTEX
8
0
10
-0.5750390942448576
20
0.06000967088766629
30
0.0
0
VERTEX
8
0
10
-0.62504023783913
20
0.05000113893402158
30
0.0
0
VERTEX
8
0
10
-0.6250335237673426
20
0.011998998474155087
30
0.0
0
VERTEX
8
0
10
-0.613030856828118
20
0.0
30
0.0
0
VERTEX
8
0
10
-0.465
20
0.0
30
0.0
0
VERTEX
8
0
10
-0.465
20
0.02710545072709647
30
0.0
0
VERTEX
8
0
10
-0.49278366544874486
20
0.03190191213017142
30
0.0
0
VERTEX
8
0
10
-0.5201029547246624
20
0.04582178527835164
30
0.0
0
VERTEX
8
0
10
-0.5417836654487449
20
0.06750249600243412
30
0.0
0
VERTEX
8
0
10
-0.5557035385969251
20
0.09482178527835164
30
0.0
0
VERTEX
8
0
10
-0.5605
20
0.12510545072709647
30
0.0
0
VERTEX
8
0
10
-0.5557035385969251
20
0.15538911617584134
30
0.0
0
VERTEX
8
0
10
-0.5417836654487449
20
0.18270840545175887
30
0.0
0
VERTEX
8
0
10
-0.5201029547246624
20
0.20438911617584132
30
0.0
0
VERTEX
8
0
10
-0.4927836654487448
20
0.21830898932402154
30
0.0
0
VERTEX
8
0
10
-0.4625
20
0.22310545072709648
30
0.0
0
VERTEX
8
0
10
-0.4322163345512552
20
0.21830898932402154
30
0.0
0
VERTEX
8
0
10
-0.40489704527533765
20
0.20438911617584132
30
0.0
0
VERTEX
8
0
10
-0.38321633455125514
20
0.18270840545175884
30
0.0
0
VERTEX
8
0
10
-0.369296461403075
20
0.1553891161758413
30
0.0
0
VERTEX
8
0
10
-0.36450000000000005
20
0.12510545072709647
30
0.0
0
VERTEX
8
0
10
-0.369296461403075
20
0.09482178527835163
30
0.0
0
VERTEX
8
0
10
-0.38321633455125514
20
0.0675024960024341
30
0.0
0
VERTEX
8
0
10
-0.40489704527533765
20
0.04582178527835162
30
0.0
0
VERTEX
8
0
10
-0.4322163345512552
20
0.03190191213017142
30
0.0
0
VERTEX
8
0
10
-0.4625
20
0.02710545072709647
30
0.0
0
VERTEX
8
0
10
-0.46
20
0.02710545072709647
30
0.0
0
VERTEX
8
0
10
-0.46
20
0.0
30
0.0
0
VERTEX
8
0
10
-0.23375
20
0.0
30
0.0
0
VERTEX
8
0
10
-0.23375
20
0.02710545072709647
30
0.0
0
VERTEX
8
0
10
-0.2615336654487449
20
0.03190191213017142
30
0.0
0
VERTEX
8
0
10
-0.2888529547246624
20
0.04582178527835164
30
0.0
0
VERTEX
8
0
10
-0.3105336654487449
20
0.06750249600243412
30
0.0
0
VERTEX
8
0
10
-0.32445353859692505
20
0.09482178527835164
30
0.0
0
VERTEX
8
0
10
-0.32925000000000004
20
0.12510545072709647
30
0.0
0
VERTEX
8
0
10
-0.32445353859692505
20
0.15538911617584134
30
0.0
0
VERTEX
8
0
10
-0.31053366544874483
20
0.18270840545175887
30
0.0
0
VERTEX
8
0
10
-0.2888529547246624
20
0.20438911617584132
30
0.0
0
VERTEX
8
0
10
-0.2615336654487448
20
0.21830898932402154
30
0.0
0
VERTEX
8
0
10
-0.23125
20
0.22310545072709648
30
0.0
0
VERTEX
8
0
10
-0.20096633455125515
20
0.21830898932402154
30
0.0
0
VERTEX
8
0
10
-0.17364704527533764
20
0.20438911617584132
30
0.0
0
VERTEX
8
0
10
-0.15196633455125516
20
0.18270840545175884
30
0.0
0
VERTEX
8
0
10
-0.13804646140307497
20
0.1553891161758413
30
0.0
0
VERTEX
8
0
10
-0.13325
20
0.12510545072709647
30
0.0
0
VERTEX
8
0
10
-0.13804646140307497
20
0.09482178527835163
30
0.0
0
VERTEX
8
0
10
-0.15196633455125516
20
0.0675024960024341
30
0.0
0
VERTEX
8
0
10
-0.17364704527533764
20
0.04582178527835162
30
0.0
0
VERTEX
8
0
10
-0.20096633455125515
20
0.03190191213017142
30
0.0
0
VERTEX
8
0
10
-0.23125
20
0.02710545072709647
30
0.0
0
VERTEX
8
0
10
-0.22875
20
0.02710545072709647
30
0.0
0
VERTEX
8
0
10
-0.22875
20
0.0
30
0.0
0
VERTEX
8
0
10
-0.0025
20
0.0
30
0.0
0
VERTEX
8
0
10
-0.0025
20
0.02710545072709647
30
0.0
0
VERTEX
8
0
10
-0.030283665448744862
20
0.03190191213017142
30
0.0
0
VERTEX
8
0
10
-0.057602954724662384
20
0.04582178527835164
30
0.0
0
VERTEX
8
0
10
-0.07928366544874486
20
0.06750249600243412
30
0.0
0
VERTEX
8
0
10
-0.09320353859692507
20
0.09482178527835164
30
0.0
0
VERTEX
8
0
10
-0.098
20
0.12510545072709647
30
0.0
0
VERTEX
8
0
10
-0.09320353859692505
20
0.15538911617584134
30
0.0
0
VERTEX
8
0
10
-0.07928366544874484
20
0.18270840545175887
30
0.0
0
VERTEX
8
0
10
-0.057602954724662356
20
0.20438911617584132
30
0.0
0
VERTEX
8
0
10
-0.030283665448744803
20
0.21830898932402154
30
0.0
0
VERTEX
8
0
10
6.000769315822031e-18
20
0.22310545072709648
30
0.0
0
VERTEX
8
0
10
0.03028366544874485
20
0.21830898932402154
30
0.0
0
VERTEX
8
0
10
0.05760295472466237
20
0.20438911617584132
30
0.0
0
VERTEX
8
0
10
0.07928366544874485
20
0.18270840545175884
30
0.0
0
VERTEX
8
0
10
0.09320353859692505
20
0.1553891161758413
30
0.0
0
VERTEX
8
0
10
0.098
20
0.12510545072709647
30
0.0
0
VERTEX
8
0
10
0.09320353859692505
20
0.09482178527835163
30
0.0
0
VERTEX
8
0
10
0.07928366544874485
20
0.0675024960024341
30
0.0
0
VERTEX
8
0
10
0.05760295472466237
20
0.04582178527835162
30
0.0
0
VERTEX
8
0
10
0.03028366544874485
20
0.03190191213017142
30
0.0
0
VERTEX
8
0
10
6.000769315822031e-18
20
0.02710545072709647
30
0.0
0
VERTEX
8
0
10
0.0025
20
0.02710545072709647
30
0.0
0
VERTEX
8
0
10
0.0025
20
0.0
30
0.0
0
VERTEX
8
0
10
0.22875
20
0.0
30
0.0
0
VERTEX
8
0
10
0.22875
20
0.02710545072709647
30
0.0
0
VERTEX
8
0
10
0.20096633455125515
20
0.03190191213017142
30
0.0
0
VERTEX
8
0
10
0.17364704527533764
20
0.04582178527835164
30
0.0
0
VERTEX
8
0
10
0.15196633455125513
20
0.06750249600243412
30
0.0
0
VERTEX
8
0
10
0.13804646140307494
20
0.09482178527835164
30
0.0
0
VERTEX
8
0
10
0.13325
20
0.12510545072709647
30
0.0
0
VERTEX
8
0
10
0.13804646140307497
20
0.15538911617584134
30
0.0
0
VERTEX
8
0
10
0.1519663345512552
20
0.18270840545175887
30
0.0
0
VERTEX
8
0
10
0.17364704527533764
20
0.20438911617584132
30
0.0
0
VERTEX
8
0
10
0.2009663345512552
20
0.21830898932402154
30
0.0
0
VERTEX
8
0
10
0.23125
20
0.22310545072709648
30
0.0
0
VERTEX
8
0
10
0.26153366544874485
20
0.21830898932402154
30
0.0
0
VERTEX
8
0
10
0.2888529547246624
20
0.20438911617584132
30
0.0
0
VERTEX
8
0
10
0.31053366544874483
20
0.18270840545175884
30
0.0
0
VERTEX
8
0
10
0.32445353859692505
20
0.1553891161758413
30
0.0
0
VERTEX
8
0
10
0.32925000000000004
20
0.12510545072709647
30
0.0
0
VERTEX
8
0
10
0.32445353859692505
20
0.09482178527835163
30
0.0
0
VERTEX
8
0
10
0.31053366544874483
20
0.0675024960024341
30
0.0
0
VERTEX
8
0
10
0.2888529547246624
20
0.04582178527835162
30
0.0
0
VERTEX
8
0
10
0.26153366544874485
20
0.03190191213017142
30
0.0
0
VERTEX
8
0
10
0.23125
20
0.02710545072709647
30
0.0
0
VERTEX
8
0
10
0.23375
20
0.02710545072709647
30
0.0
0
VERTEX
8
0
10
0.23375
20
0.0
30
0.0
0
VERTEX
8
0
10
0.46
20
0.0
30
0.0
0
VERTEX
8
0
10
0.46
20
0.02710545072709647
30
0.0
0
VERTEX
8
0
10
0.4322163345512552
20
0.03190191213017142
30
0.0
0
VERTEX
8
0
10
0.40489704527533765
20
0.04582178527835164
30
0.0
0
VERTEX
8
0
10
0.38321633455125514
20
0.06750249600243412
30
0.0
0
VERTEX
8
0
10
0.3692964614030749
20
0.09482178527835164
30
0.0
0
VERTEX
8
0
10
0.36450000000000005
20
0.12510545072709647
30
0.0
0
VERTEX
8
0
10
0.369296461403075
20
0.15538911617584134
30
0.0
0
VERTEX
8
0
10
0.3832163345512552
20
0.18270840545175887
30
0.0
0
VERTEX
8
0
10
0.40489704527533765
20
0.20438911617584132
30
0.0
0
VERTEX
8
0
10
0.43221633455125524
20
0.21830898932402154
30
0.0
0
VERTEX
8
0
10
0.4625
20
0.22310545072709648
30
0.0
0
VERTEX
8
0
10
0.49278366544874486
20
0.21830898932402154
30
0.0
0
VERTEX
8
0
10
0.5201029547246624
20
0.20438911617584132
30
0.0
0
VERTEX
8
0
10
0.5417836654487449
20
0.18270840545175884
30
0.0
0
VERTEX
8
0
10
0.5557035385969251
20
0.1553891161758413
30
0.0
0
VERTEX
8
0
10
0.5605
20
0.12510545072709647
30
0.0
0
VERTEX
8
0
10
0.5557035385969251
20
0.09482178527835163
30
0.0
0
VERTEX
8
0
10
0.5417836654487449
20
0.0675024960024341
30
0.0
0
VERTEX
8
0
10
0.5201029547246624
20
0.04582178527835162
30
0.0
0
VERTEX
8
0
10
0.49278366544874486
20
0.03190191213017142
30
0.0
0
VERTEX
8
0
10
0.4625
20
0.02710545072709647
30
0.0
0
VERTEX
8
0
10
0.465
20
0.02710545072709647
30
0.0
0
VERTEX
8
0
10
0.465
20
0.0
30
0.0
0
SEQEND
8
0
0
ENDSEC
0
EOF
