  0
SECTION
  2
HEADER
  9
$ACADVER
  1
AC1009
9
$INSUNITS
70
6
  9
$DWGCODEPAGE
  3
ANSI_1252
  9
$INSBASE
 10
0.0
 20
0.0
 30
0.0
  9
$EXTMIN
 10
1e+20
 20
1e+20
 30
1e+20
  9
$EXTMAX
 10
-1e+20
 20
-1e+20
 30
-1e+20
  9
$LIMMIN
 10
0.0
 20
0.0
  9
$LIMMAX
 10
420.0
 20
297.0
  9
$ORTHOMODE
 70
0
  9
$REGENMODE
 70
1
  9
$FILLMODE
 70
1
  9
$DRAGMODE
 70
2
  9
$QTEXTMODE
 70
0
  9
$MIRRTEXT
 70
1
  9
$OSMODE
 70
20583
  9
$LTSCALE
 40
1.0
  9
$ATTMODE
 70
1
  9
$TEXTSIZE
 40
2.5
  9
$TRACEWID
 40
1.0
  9
$TEXTSTYLE
  7
Standard
  9
$CLAYER
  8
0
  9
$CELTYPE
  6
ByLayer
  9
$CECOLOR
 62
256
  9
$DIMSCALE
 40
1.0
  9
$DIMASZ
 40
2.5
  9
$DIMEXO
 40
0.625
  9
$DIMDLI
 40
3.75
  9
$DIMRND
 40
0.0
  9
$DIMDLE
 40
0.0
  9
$DIMEXE
 40
1.25
  9
$DIMTP
 40
0.0
  9
$DIMTM
 40
0.0
  9
$DIMTXT
 40
2.5
  9
$DIMCEN
 40
2.5
  9
$DIMTSZ
 40
0.0
  9
$DIMTOL
 70
0
  9
$DIMLIM
 70
0
  9
$DIMTIH
 70
0
  9
$DIMTOH
 70
0
  9
$DIMSE1
 70
0
  9
$DIMSE2
 70
0
  9
$DIMTAD
 70
1
  9
$DIMZIN
 70
8
  9
$DIMBLK
  1

  9
$DIMASO
 70
1
  9
$DIMSHO
 70
1
  9
$DIMPOST
  1

  9
$DIMAPOST
  1

  9
$DIMALT
 70
0
  9
$DIMALTD
 70
3
  9
$DIMALTF
 40
0.03937007874
  9
$DIMLFAC
 40
1.0
  9
$DIMTOFL
 70
1
  9
$DIMTVP
 40
0.0
  9
$DIMTIX
 70
0
  9
$DIMSOXD
 70
0
  9
$DIMSAH
 70
0
  9
$DIMBLK1
  1

  9
$DIMBLK2
  1

  9
$DIMSTYLE
  2
ISO-25
  9
$DIMCLRD
 70
0
  9
$DIMCLRE
 70
0
  9
$DIMCLRT
 70
0
  9
$DIMTFAC
 40
1.0
  9
$DIMGAP
 40
0.625
  9
$COORDS
 70
1
  9
$ATTDIA
 70
0
  9
$ATTREQ
 70
1
  9
$HANDLING
 70
1
  9
$LUNITS
 70
2
  9
$LUPREC
 70
4
  9
$SKETCHINC
 40
1.0
  9
$FILLETRAD
 40
10.0
  9
$AUNITS
 70
0
  9
$AUPREC
 70
2
  9
$MENU
  1
.
  9
$ELEVATION
 40
0.0
  9
$PELEVATION
 40
0.0
  9
$THICKNESS
 40
0.0
  9
$LIMCHECK
 70
0
  9
$CHAMFERA
 40
0.0
  9
$CHAMFERB
 40
0.0
  9
$SKPOLY
 70
0
  9
$TDCREATE
 40
2461231.432685185
  9
$TDUPDATE
 40
2461231.432685185
  9
$TDINDWG
 40
0.0
  9
$TDUSRTIMER
 40
0.0
  9
$USRTIMER
 70
1
  9
$ANGBASE
 50
0.0
  9
$ANGDIR
 70
0
  9
$PDMODE
 70
0
  9
$PDSIZE
 40
0.0
  9
$PLINEWID
 40
0.0
  9
$SPLFRAME
 70
0
  9
$SPLINETYPE
 70
6
  9
$SPLINESEGS
 70
8
  9
$HANDSEED
  5
C8
  9
$SURFTAB1
 70
6
  9
$SURFTAB2
 70
6
  9
$SURFTYPE
 70
6
  9
$SURFU
 70
6
  9
$SURFV
 70
6
  9
$UCSNAME
  2

  9
$UCSORG
 10
0.0
 20
0.0
 30
0.0
  9
$UCSXDIR
 10
1.0
 20
0.0
 30
0.0
  9
$UCSYDIR
 10
0.0
 20
1.0
 30
0.0
  9
$PUCSNAME
  2

  9
$PUCSORG
 10
0.0
 20
0.0
 30
0.0
  9
$PUCSXDIR
 10
1.0
 20
0.0
 30
0.0
  9
$PUCSYDIR
 10
0.0
 20
1.0
 30
0.0
  9
$USERI1
 70
0
  9
$USERI2
 70
0
  9
$USERI3
 70
0
  9
$USERI4
 70
0
  9
$USERI5
 70
0
  9
$USERR1
 40
0.0
  9
$USERR2
 40
0.0
  9
$USERR3
 40
0.0
  9
$USERR4
 40
0.0
  9
$USERR5
 40
0.0
  9
$WORLDVIEW
 70
1
  9
$SHADEDGE
 70
3
  9
$SHADEDIF
 70
70
  9
$TILEMODE
 70
1
  9
$MAXACTVP
 70
64
  9
$PLIMCHECK
 70
0
  9
$PEXTMIN
 10
1e+20
 20
1e+20
 30
1e+20
  9
$PEXTMAX
 10
-1e+20
 20
-1e+20
 30
-1e+20
  9
$PLIMMIN
 10
0.0
 20
0.0
  9
$PLIMMAX
 10
420.0
 20
297.0
  9
$UNITMODE
 70
0
  9
$VISRETAIN
 70
1
  9
$PLINEGEN
 70
0
  9
$PSLTSCALE
 70
1
  0
ENDSEC
  0
SECTION
  2
TABLES
  0
TABLE
  2
VPORT
 70
1
  0
VPORT
  5
23
  2
*Active
 70
0
 10
0.0
 20
0.0
 11
1.0
 21
1.0
 12
0.0
 22
0.0
 13
0.0
 23
0.0
 14
0.5
 24
0.5
 15
0.5
 25
0.5
 16
0.0
 26
0.0
 36
1.0
 17
0.0
 27
0.0
 37
0.0
 40
1000.0
 41
1.34
 42
50.0
 43
0.0
 44
0.0
 50
0.0
 51
0.0
 71
0
 72
1000
 73
1
 74
3
 75
0
 76
0
 77
0
 78
0
  0
ENDTAB
  0
TABLE
  2
LTYPE
 70
3
  0
LTYPE
  5
24
  2
ByBlock
 70
0
  3

 72
65
 73
0
 40
0.0
  0
LTYPE
  5
25
  2
ByLayer
 70
0
  3

 72
65
 73
0
 40
0.0
  0
LTYPE
  5
26
  2
Continuous
 70
0
  3

 72
65
 73
0
 40
0.0
  0
ENDTAB
  0
TABLE
  2
LAYER
 70
3
  0
LAYER
  5
27
  2
0
 70
0
 62
7
  6
Continuous
  0
LAYER
  5
28
  2
Defpoints
 70
0
 62
7
  6
Continuous
  0
LAYER
  5
2D
  2
SECTION
 70
0
 62
7
  6
Continuous
  0
ENDTAB
  0
TABLE
  2
STYLE
 70
1
  0
STYLE
  5
29
  2
Standard
 70
0
 40
0.0
 41
1.0
 50
0.0
 71
0
 42
2.5
  3
txt
  4

  0
ENDTAB
  0
TABLE
  2
VIEW
 70
0
  0
ENDTAB
  0
TABLE
  2
UCS
 70
0
  0
ENDTAB
  0
TABLE
  2
APPID
 70
3
  0
APPID
  5
2A
  2
ACAD
 70
0
  0
APPID
  5
C6
  2
HATCHBACKGROUNDCOLOR
 70
0
  0
APPID
  5
C7
  2
EZDXF
 70
0
  0
ENDTAB
  0
TABLE
  2
DIMSTYLE
 70
1
  0
DIMSTYLE
105
2B
  2
Standard
 70
0
  3

  4

  5

  6

  7

 40
1.0
 41
2.5
 42
0.625
 43
3.75
 44
1.25
 45
0.0
 46
0.0
 47
0.0
 48
0.0
140
2.5
141
2.5
142
0.0
143
0.03937007874
144
1.0
145
0.0
146
1.0
147
0.625
 71
0
 72
0
 73
0
 74
0
 75
0
 76
0
 77
1
 78
8
170
0
171
3
172
1
173
0
174
0
175
0
176
0
177
0
178
0
  0
ENDTAB
  0
ENDSEC
  0
SECTION
  2
BLOCKS
  0
BLOCK
  5
18
  8
0
  2
$Model_Space
 70
0
 10
0.0
 20
0.0
 30
0.0
  3
$Model_Space
  1

1001
EZDXF
1000
CREATED_BY_EZDXF
1000
1.4.4 @ 2026-07-09T13:23:04.340984+00:00
1000
WRITTEN_BY_EZDXF
1000
1.4.4 @ 2026-07-09T13:23:04.343581+00:00
  0
ENDBLK
  5
19
  8
0
  0
BLOCK
  5
1C
  8
0
  2
$Paper_Space
 70
0
 10
0.0
 20
0.0
 30
0.0
  3
$Paper_Space
  1

  0
ENDBLK
  5
1D
  8
0
  0
ENDSEC
  0
SECTION
  2
ENTITIES
  0
POLYLINE
  5
2E
  8
SECTION
 66
1
 10
0.0
 20
0.0
 30
0.0
 70
1
  0
VERTEX
  5
30
  8
SECTION
 10
-0.6000723224824469
 20
0.2500179236631084
 30
0.0
 70
0
  0
VERTEX
  5
31
  8
SECTION
 10
0.5999990742675436
 20
0.2502175179652113
 30
0.0
 70
0
  0
VERTEX
  5
32
  8
SECTION
 10
0.6000082308783021
 20
0.20021454421657836
 30
0.0
 70
0
  0
VERTEX
  5
33
  8
SECTION
 10
0.5750073528870416
 20
0.19520997088693548
 30
0.0
 70
0
  0
VERTEX
  5
34
  8
SECTION
 10
0.5750293275887088
 20
0.060202549953828566
 30
0.0
 70
0
  0
VERTEX
  5
35
  8
SECTION
 10
0.6250341338272847
 20
0.050209897995955544
 30
0.0
 70
0
  0
VERTEX
  5
36
  8
SECTION
 10
0.62504023783913
 20
0.012207757536089048
 30
0.0
 70
0
  0
VERTEX
  5
37
  8
SECTION
 10
0.6130418424327218
 20
0.00020508943271124735
 30
0.0
 70
0
  0
VERTEX
  5
38
  8
SECTION
 10
0.4405109185490801
 20
0.00017631949845053896
 30
0.0
 70
0
  0
VERTEX
  5
39
  8
SECTION
 10
0.44051091854862534
 20
0.00017026793489094416
 30
0.0
 70
0
  0
VERTEX
  5
3A
  8
SECTION
 10
0.44051091878100124
 20
0.040163878016755916
 30
0.0
 70
0
  0
VERTEX
  5
3B
  8
SECTION
 10
0.4625900676855963
 20
0.04268958091734021
 30
0.0
 70
0
  0
VERTEX
  5
3C
  8
SECTION
 10
0.48313322408876047
 20
0.05132296185661289
 30
0.0
 70
0
  0
VERTEX
  5
3D
  8
SECTION
 10
0.500748597157326
 20
0.06497049544714173
 30
0.0
 70
0
  0
VERTEX
  5
3E
  8
SECTION
 10
0.5142401934185727
 20
0.08270558416325002
 30
0.0
 70
0
  0
VERTEX
  5
3F
  8
SECTION
 10
0.5226920026921107
 20
0.10332410645401069
 30
0.0
 70
0
  0
VERTEX
  5
40
  8
SECTION
 10
0.5255301904817316
 20
0.12542617041913218
 30
0.0
 70
0
  0
VERTEX
  5
41
  8
SECTION
 10
0.522562058395124
 20
0.147511159288797
 30
0.0
 70
0
  0
VERTEX
  5
42
  8
SECTION
 10
0.513989127376135
 20
0.16807961560402873
 30
0.0
 70
0
  0
VERTEX
  5
43
  8
SECTION
 10
0.5003934554656553
 20
0.18573504668756868
 30
0.0
 70
0
  0
VERTEX
  5
44
  8
SECTION
 10
0.482698119046745
 20
0.19927873933329465
 30
0.0
 70
0
  0
VERTEX
  5
45
  8
SECTION
 10
0.46210454069387197
 20
0.20779114628294337
 30
0.0
 70
0
  0
VERTEX
  5
46
  8
SECTION
 10
0.4400109187417911
 20
0.21069431876935596
 30
0.0
 70
0
  0
VERTEX
  5
47
  8
SECTION
 10
0.4179172967910745
 20
0.20779114627293893
 30
0.0
 70
0
  0
VERTEX
  5
48
  8
SECTION
 10
0.3973237184422942
 20
0.19927873931374052
 30
0.0
 70
0
  0
VERTEX
  5
49
  8
SECTION
 10
0.37962838202975036
 20
0.18573504666028384
 30
0.0
 70
0
  0
VERTEX
  5
4A
  8
SECTION
 10
0.36603271012700134
 20
0.16807961557037743
 30
0.0
 70
0
  0
VERTEX
  5
4B
  8
SECTION
 10
0.357459779117562
 20
0.14751115925128033
 30
0.0
 70
0
  0
VERTEX
  5
4C
  8
SECTION
 10
0.3544916470409589
 20
0.12542617038025128
 30
0.0
 70
0
  0
VERTEX
  5
4D
  8
SECTION
 10
0.3573298348405842
 20
0.10332410641649403
 30
0.0
 70
0
  0
VERTEX
  5
4E
  8
SECTION
 10
0.3657816441232171
 20
0.08270558412959872
 30
0.0
 70
0
  0
VERTEX
  5
4F
  8
SECTION
 10
0.3792732403926493
 20
0.06497049541940214
 30
0.0
 70
0
  0
VERTEX
  5
50
  8
SECTION
 10
0.3968886134675813
 20
0.051322961837058756
 30
0.0
 70
0
  0
VERTEX
  5
51
  8
SECTION
 10
0.4174317698748382
 20
0.04268958090710839
 30
0.0
 70
0
  0
VERTEX
  5
52
  8
SECTION
 10
0.43951091878034276
 20
0.04016387801652854
 30
0.0
 70
0
  0
VERTEX
  5
53
  8
SECTION
 10
0.4395109185484216
 20
0.00017026793489094416
 30
0.0
 70
0
  0
VERTEX
  5
54
  8
SECTION
 10
0.2204978291651969
 20
0.0001342608650247712
 30
0.0
 70
0
  0
VERTEX
  5
55
  8
SECTION
 10
0.2204978293975728
 20
0.04012787094688974
 30
0.0
 70
0
  0
VERTEX
  5
56
  8
SECTION
 10
0.24257697830216784
 20
0.042653573847474036
 30
0.0
 70
0
  0
VERTEX
  5
57
  8
SECTION
 10
0.263120134705332
 20
0.05128695478674672
 30
0.0
 70
0
  0
VERTEX
  5
58
  8
SECTION
 10
0.28073550777389755
 20
0.06493448837727556
 30
0.0
 70
0
  0
VERTEX
  5
59
  8
SECTION
 10
0.2942271040351443
 20
0.08266957709338385
 30
0.0
 70
0
  0
VERTEX
  5
5A
  8
SECTION
 10
0.30267891330868224
 20
0.10328809938414452
 30
0.0
 70
0
  0
VERTEX
  5
5B
  8
SECTION
 10
0.3055171010983031
 20
0.125390163349266
 30
0.0
 70
0
  0
VERTEX
  5
5C
  8
SECTION
 10
0.3025489690116956
 20
0.14747515221893082
 30
0.0
 70
0
  0
VERTEX
  5
5D
  8
SECTION
 10
0.29397603799270655
 20
0.16804360853416256
 30
0.0
 70
0
  0
VERTEX
  5
5E
  8
SECTION
 10
0.28038036608222683
 20
0.1856990396177025
 30
0.0
 70
0
  0
VERTEX
  5
5F
  8
SECTION
 10
0.2626850296633165
 20
0.19924273226342848
 30
0.0
 70
0
  0
VERTEX
  5
60
  8
SECTION
 10
0.24209145131044352
 20
0.2077551392130772
 30
0.0
 70
0
  0
VERTEX
  5
61
  8
SECTION
 10
0.21999782935836265
 20
0.2106583116994898
 30
0.0
 70
0
  0
VERTEX
  5
62
  8
SECTION
 10
0.19790420740764603
 20
0.20775513920307276
 30
0.0
 70
0
  0
VERTEX
  5
63
  8
SECTION
 10
0.17731062905886574
 20
0.19924273224387434
 30
0.0
 70
0
  0
VERTEX
  5
64
  8
SECTION
 10
0.1596152926463219
 20
0.18569903959041767
 30
0.0
 70
0
  0
VERTEX
  5
65
  8
SECTION
 10
0.1460196207435729
 20
0.16804360850051125
 30
0.0
 70
0
  0
VERTEX
  5
66
  8
SECTION
 10
0.13744668973413354
 20
0.14747515218141416
 30
0.0
 70
0
  0
VERTEX
  5
67
  8
SECTION
 10
0.13447855765753047
 20
0.1253901633103851
 30
0.0
 70
0
  0
VERTEX
  5
68
  8
SECTION
 10
0.13731674545715578
 20
0.10328809934662786
 30
0.0
 70
0
  0
VERTEX
  5
69
  8
SECTION
 10
0.14576855473978867
 20
0.08266957705973255
 30
0.0
 70
0
  0
VERTEX
  5
6A
  8
SECTION
 10
0.15926015100922086
 20
0.06493448834953597
 30
0.0
 70
0
  0
VERTEX
  5
6B
  8
SECTION
 10
0.17687552408415286
 20
0.05128695476719258
 30
0.0
 70
0
  0
VERTEX
  5
6C
  8
SECTION
 10
0.19741868049140976
 20
0.04265357383724222
 30
0.0
 70
0
  0
VERTEX
  5
6D
  8
SECTION
 10
0.2194978293969143
 20
0.04012787094666237
 30
0.0
 70
0
  0
VERTEX
  5
6E
  8
SECTION
 10
0.21949782916499316
 20
0.0001342608650247712
 30
0.0
 70
0
  0
VERTEX
  5
6F
  8
SECTION
 10
0.00048473978176843957
 20
9.702437296255084e-05
 30
0.0
 70
0
  0
VERTEX
  5
70
  8
SECTION
 10
0.00048473978176843957
 20
0.04009063445528227
 30
0.0
 70
0
  0
VERTEX
  5
71
  8
SECTION
 10
0.022563888686363498
 20
0.04261633735586656
 30
0.0
 70
0
  0
VERTEX
  5
72
  8
SECTION
 10
0.043107045089527674
 20
0.05124971829536662
 30
0.0
 70
0
  0
VERTEX
  5
73
  8
SECTION
 10
0.060722418158093205
 20
0.06489725188589546
 30
0.0
 70
0
  0
VERTEX
  5
74
  8
SECTION
 10
0.0742140144188852
 20
0.08263234060223112
 30
0.0
 70
0
  0
VERTEX
  5
75
  8
SECTION
 10
0.08266582369242315
 20
0.10325086289299179
 30
0.0
 70
0
  0
VERTEX
  5
76
  8
SECTION
 10
0.085504011482044
 20
0.12535292685811328
 30
0.0
 70
0
  0
VERTEX
  5
77
  8
SECTION
 10
0.0825358793954365
 20
0.1474379157277781
 30
0.0
 70
0
  0
VERTEX
  5
78
  8
SECTION
 10
0.07396294837599271
 20
0.16800637204278246
 30
0.0
 70
0
  0
VERTEX
  5
79
  8
SECTION
 10
0.06036727646551299
 20
0.18566180312654978
 30
0.0
 70
0
  0
VERTEX
  5
7A
  8
SECTION
 10
0.042671940046602685
 20
0.19920549577204838
 30
0.0
 70
0
  0
VERTEX
  5
7B
  8
SECTION
 10
0.022078361693729676
 20
0.20771790272146973
 30
0.0
 70
0
  0
VERTEX
  5
7C
  8
SECTION
 10
-1.5260258351190714e-05
 20
0.2106210752078823
 30
0.0
 70
0
  0
VERTEX
  5
7D
  8
SECTION
 10
-0.022108882209067815
 20
0.2077179027112379
 30
0.0
 70
0
  0
VERTEX
  5
7E
  8
SECTION
 10
-0.0427024605578481
 20
0.1992054957520395
 30
0.0
 70
0
  0
VERTEX
  5
7F
  8
SECTION
 10
-0.06039779697039194
 20
0.18566180309835545
 30
0.0
 70
0
  0
VERTEX
  5
80
  8
SECTION
 10
-0.07399346887268621
 20
0.16800637200844903
 30
0.0
 70
0
  0
VERTEX
  5
81
  8
SECTION
 10
-0.08256639988212555
 20
0.14743791568935194
 30
0.0
 70
0
  0
VERTEX
  5
82
  8
SECTION
 10
-0.08553453195872862
 20
0.12535292681832289
 30
0.0
 70
0
  0
VERTEX
  5
83
  8
SECTION
 10
-0.08269634415910332
 20
0.10325086285456564
 30
0.0
 70
0
  0
VERTEX
  5
84
  8
SECTION
 10
-0.07424453487601568
 20
0.08263234056767033
 30
0.0
 70
0
  0
VERTEX
  5
85
  8
SECTION
 10
-0.060752938606583484
 20
0.06489725185770112
 30
0.0
 70
0
  0
VERTEX
  5
86
  8
SECTION
 10
-0.04313756553165149
 20
0.051249718275357736
 30
0.0
 70
0
  0
VERTEX
  5
87
  8
SECTION
 10
-0.022594409124394588
 20
0.042616337345407374
 30
0.0
 70
0
  0
VERTEX
  5
88
  8
SECTION
 10
-0.0005152602188900346
 20
0.0400906344550549
 30
0.0
 70
0
  0
VERTEX
  5
89
  8
SECTION
 10
-0.0005152602184352872
 20
9.702437296255084e-05
 30
0.0
 70
0
  0
VERTEX
  5
8A
  8
SECTION
 10
-0.22002834942759364
 20
6.617303370148875e-05
 30
0.0
 70
0
  0
VERTEX
  5
8B
  8
SECTION
 10
-0.22002834942759364
 20
0.04005978311602121
 30
0.0
 70
0
  0
VERTEX
  5
8C
  8
SECTION
 10
-0.19794920051708687
 20
0.04258548596635592
 30
0.0
 70
0
  0
VERTEX
  5
8D
  8
SECTION
 10
-0.1774060440939138
 20
0.051218866858789625
 30
0.0
 70
0
  0
VERTEX
  5
8E
  8
SECTION
 10
-0.15979067099442545
 20
0.0648664004093007
 30
0.0
 70
0
  0
VERTEX
  5
8F
  8
SECTION
 10
-0.14629907469225145
 20
0.08260148909494092
 30
0.0
 70
0
  0
VERTEX
  5
90
  8
SECTION
 10
-0.13784726537187453
 20
0.1032200113666022
 30
0.0
 70
0
  0
VERTEX
  5
91
  8
SECTION
 10
-0.13500907753223146
 20
0.1253220753255846
 30
0.0
 70
0
  0
VERTEX
  5
92
  8
SECTION
 10
-0.137977209568362
 20
0.14740706420207061
 30
0.0
 70
0
  0
VERTEX
  5
93
  8
SECTION
 10
-0.14655014054051207
 20
0.1679755205368565
 30
0.0
 70
0
  0
VERTEX
  5
94
  8
SECTION
 10
-0.16014581241097403
 20
0.185630951651774
 30
0.0
 70
0
  0
VERTEX
  5
95
  8
SECTION
 10
-0.1778411487989615
 20
0.19917464433774512
 30
0.0
 70
0
  0
VERTEX
  5
96
  8
SECTION
 10
-0.19843472713273513
 20
0.2076870513344602
 30
0.0
 70
0
  0
VERTEX
  5
97
  8
SECTION
 10
-0.22052834907844954
 20
0.21059022387112236
 30
0.0
 70
0
  0
VERTEX
  5
98
  8
SECTION
 10
-0.24262197103598737
 20
0.20768705142495492
 30
0.0
 70
0
  0
VERTEX
  5
99
  8
SECTION
 10
-0.2632155494043218
 20
0.19917464451259548
 30
0.0
 70
0
  0
VERTEX
  5
9A
  8
SECTION
 10
-0.28091088584778845
 20
0.18563095189915657
 30
0.0
 70
0
  0
VERTEX
  5
9B
  8
SECTION
 10
-0.29450655779055523
 20
0.16797552084017298
 30
0.0
 70
0
  0
VERTEX
  5
9C
  8
SECTION
 10
-0.3030794888472883
 20
0.14740706454017527
 30
0.0
 70
0
  0
VERTEX
  5
9D
  8
SECTION
 10
-0.3060476209739136
 20
0.12532207567596743
 30
0.0
 70
0
  0
VERTEX
  5
9E
  8
SECTION
 10
-0.30320943322476523
 20
0.10322001170538897
 30
0.0
 70
0
  0
VERTEX
  5
9F
  8
SECTION
 10
-0.29475762398851657
 20
0.0826014893991669
 30
0.0
 70
0
  0
VERTEX
  5
A0
  8
SECTION
 10
-0.2812660277595569
 20
0.06486640065827487
 30
0.0
 70
0
  0
VERTEX
  5
A1
  8
SECTION
 10
-0.2636506547155477
 20
0.051218867035686344
 30
0.0
 70
0
  0
VERTEX
  5
A2
  8
SECTION
 10
-0.24310749832784495
 20
0.04258548605866963
 30
0.0
 70
0
  0
VERTEX
  5
A3
  8
SECTION
 10
-0.22102834942779737
 20
0.04005978311806757
 30
0.0
 70
0
  0
VERTEX
  5
A4
  8
SECTION
 10
-0.22102834942779737
 20
6.617303370148875e-05
 30
0.0
 70
0
  0
VERTEX
  5
A5
  8
SECTION
 10
-0.43904143881081836
 20
2.8936541639268398e-05
 30
0.0
 70
0
  0
VERTEX
  5
A6
  8
SECTION
 10
-0.43904143881081836
 20
0.040022546625550603
 30
0.0
 70
0
  0
VERTEX
  5
A7
  8
SECTION
 10
-0.41696006524261975
 20
0.0425484912407228
 30
0.0
 70
0
  0
VERTEX
  5
A8
  8
SECTION
 10
-0.396414835793621
 20
0.05118273088191927
 30
0.0
 70
0
  0
VERTEX
  5
A9
  8
SECTION
 10
-0.3787976825678925
 20
0.06483163045322726
 30
0.0
 70
0
  0
VERTEX
  5
AA
  8
SECTION
 10
-0.36530472035019557
 20
0.0825684993392315
 30
0.0
 70
0
  0
VERTEX
  5
AB
  8
SECTION
 10
-0.3568520524054293
 20
0.10318909467287085
 30
0.0
 70
0
  0
VERTEX
  5
AC
  8
SECTION
 10
-0.3540135717444173
 20
0.1252933832799954
 30
0.0
 70
0
  0
VERTEX
  5
AD
  8
SECTION
 10
-0.3569819967165131
 20
0.14738059678643367
 30
0.0
 70
0
  0
VERTEX
  5
AE
  8
SECTION
 10
-0.36555578641628017
 20
0.1679511261299922
 30
0.0
 70
0
  0
VERTEX
  5
AF
  8
SECTION
 10
-0.3791528242854838
 20
0.1856083373616002
 30
0.0
 70
0
  0
VERTEX
  5
B0
  8
SECTION
 10
-0.3968499408520074
 20
0.19915339596286685
 30
0.0
 70
0
  0
VERTEX
  5
B1
  8
SECTION
 10
-0.4174455922297966
 20
0.20766666158965563
 30
0.0
 70
0
  0
VERTEX
  5
B2
  8
SECTION
 10
-0.4395414388109202
 20
0.2105701269583733
 30
0.0
 70
0
  0
VERTEX
  5
B3
  8
SECTION
 10
-0.46163728539204385
 20
0.20766666158965563
 30
0.0
 70
0
  0
VERTEX
  5
B4
  8
SECTION
 10
-0.48223293676983303
 20
0.19915339596286685
 30
0.0
 70
0
  0
VERTEX
  5
B5
  8
SECTION
 10
-0.49993005333635665
 20
0.1856083373616002
 30
0.0
 70
0
  0
VERTEX
  5
B6
  8
SECTION
 10
-0.5135270912055603
 20
0.1679511261299922
 30
0.0
 70
0
  0
VERTEX
  5
B7
  8
SECTION
 10
-0.5221008809053274
 20
0.14738059678643367
 30
0.0
 70
0
  0
VERTEX
  5
B8
  8
SECTION
 10
-0.5250693058774232
 20
0.1252933832799954
 30
0.0
 70
0
  0
VERTEX
  5
B9
  8
SECTION
 10
-0.5222308252164112
 20
0.10318909467287085
 30
0.0
 70
0
  0
VERTEX
  5
BA
  8
SECTION
 10
-0.5137781572716449
 20
0.0825684993392315
 30
0.0
 70
0
  0
VERTEX
  5
BB
  8
SECTION
 10
-0.500285195053948
 20
0.06483163045322726
 30
0.0
 70
0
  0
VERTEX
  5
BC
  8
SECTION
 10
-0.48266804182821943
 20
0.05118273088191927
 30
0.0
 70
0
  0
VERTEX
  5
BD
  8
SECTION
 10
-0.4621228123792207
 20
0.0425484912407228
 30
0.0
 70
0
  0
VERTEX
  5
BE
  8
SECTION
 10
-0.4400414388110221
 20
0.040022546625550603
 30
0.0
 70
0
  0
VERTEX
  5
BF
  8
SECTION
 10
-0.4400414388110221
 20
2.8936539820278995e-05
 30
0.0
 70
0
  0
VERTEX
  5
C0
  8
SECTION
 10
-0.613030856828118
 20
0.0
 30
0.0
 70
0
  0
VERTEX
  5
C1
  8
SECTION
 10
-0.6250335237673426
 20
0.011998998474155087
 30
0.0
 70
0
  0
VERTEX
  5
C2
  8
SECTION
 10
-0.62504023783913
 20
0.05000113893402158
 30
0.0
 70
0
  0
VERTEX
  5
C3
  8
SECTION
 10
-0.5750390942448576
 20
0.06000967088766629
 30
0.0
 70
0
  0
VERTEX
  5
C4
  8
SECTION
 10
-0.5750616789991909
 20
0.19501831192246755
 30
0.0
 70
0
  0
VERTEX
  5
C5
  8
SECTION
 10
-0.6000631658716884
 20
0.20001494991447544
 30
0.0
 70
0
  0
SEQEND
  5
2F
  8
SECTION
  0
ENDSEC
  0
EOF
