  0
SECTION
  2
HEADER
  9
$ACADVER
  1
AC1015
  9
$ACADMAINTVER
 70
6
  9
$DWGCODEPAGE
  3
ANSI_1252
  9
$INSBASE
 10
0.0
 20
0.0
 30
0.0
  9
$EXTMIN
 10
1e+20
 20
1e+20
 30
1e+20
  9
$EXTMAX
 10
-1e+20
 20
-1e+20
 30
-1e+20
  9
$LIMMIN
 10
0.0
 20
0.0
  9
$LIMMAX
 10
420.0
 20
297.0
  9
$ORTHOMODE
 70
0
  9
$REGENMODE
 70
1
  9
$FILLMODE
 70
1
  9
$QTEXTMODE
 70
0
  9
$MIRRTEXT
 70
1
  9
$LTSCALE
 40
1.0
  9
$ATTMODE
 70
1
  9
$TEXTSIZE
 40
2.5
  9
$TRACEWID
 40
1.0
  9
$TEXTSTYLE
  7
Standard
  9
$CLAYER
  8
0
  9
$CELTYPE
  6
ByLayer
  9
$CECOLOR
 62
256
  9
$CELTSCALE
 40
1.0
  9
$DISPSILH
 70
0
  9
$DIMSCALE
 40
1.0
  9
$DIMASZ
 40
2.5
  9
$DIMEXO
 40
0.625
  9
$DIMDLI
 40
3.75
  9
$DIMRND
 40
0.0
  9
$DIMDLE
 40
0.0
  9
$DIMEXE
 40
1.25
  9
$DIMTP
 40
0.0
  9
$DIMTM
 40
0.0
  9
$DIMTXT
 40
2.5
  9
$DIMCEN
 40
2.5
  9
$DIMTSZ
 40
0.0
  9
$DIMTOL
 70
0
  9
$DIMLIM
 70
0
  9
$DIMTIH
 70
0
  9
$DIMTOH
 70
0
  9
$DIMSE1
 70
0
  9
$DIMSE2
 70
0
  9
$DIMTAD
 70
1
  9
$DIMZIN
 70
8
  9
$DIMBLK
  1

  9
$DIMASO
 70
1
  9
$DIMSHO
 70
1
  9
$DIMPOST
  1

  9
$DIMAPOST
  1

  9
$DIMALT
 70
0
  9
$DIMALTD
 70
3
  9
$DIMALTF
 40
0.03937007874
  9
$DIMLFAC
 40
1.0
  9
$DIMTOFL
 70
1
  9
$DIMTVP
 40
0.0
  9
$DIMTIX
 70
0
  9
$DIMSOXD
 70
0
  9
$DIMSAH
 70
0
  9
$DIMBLK1
  1

  9
$DIMBLK2
  1

  9
$DIMSTYLE
  2
ISO-25
  9
$DIMCLRD
 70
0
  9
$DIMCLRE
 70
0
  9
$DIMCLRT
 70
0
  9
$DIMTFAC
 40
1.0
  9
$DIMGAP
 40
0.625
  9
$DIMJUST
 70
0
  9
$DIMSD1
 70
0
  9
$DIMSD2
 70
0
  9
$DIMTOLJ
 70
0
  9
$DIMTZIN
 70
8
  9
$DIMALTZ
 70
0
  9
$DIMALTTZ
 70
0
  9
$DIMUPT
 70
0
  9
$DIMDEC
 70
2
  9
$DIMTDEC
 70
2
  9
$DIMALTU
 70
2
  9
$DIMALTTD
 70
3
  9
$DIMTXSTY
  7
Standard
  9
$DIMAUNIT
 70
0
  9
$DIMADEC
 70
0
  9
$DIMALTRND
 40
0.0
  9
$DIMAZIN
 70
0
  9
$DIMDSEP
 70
44
  9
$DIMATFIT
 70
3
  9
$DIMFRAC
 70
0
  9
$DIMLDRBLK
  1

  9
$DIMLUNIT
 70
2
  9
$DIMLWD
 70
-2
  9
$DIMLWE
 70
-2
  9
$DIMTMOVE
 70
0
  9
$LUNITS
 70
2
  9
$LUPREC
 70
4
  9
$SKETCHINC
 40
1.0
  9
$FILLETRAD
 40
10.0
  9
$AUNITS
 70
0
  9
$AUPREC
 70
2
  9
$MENU
  1
.
  9
$ELEVATION
 40
0.0
  9
$PELEVATION
 40
0.0
  9
$THICKNESS
 40
0.0
  9
$LIMCHECK
 70
0
  9
$CHAMFERA
 40
0.0
  9
$CHAMFERB
 40
0.0
  9
$CHAMFERC
 40
0.0
  9
$CHAMFERD
 40
0.0
  9
$SKPOLY
 70
0
  9
$TDCREATE
 40
2461230.735532407
  9
$TDUCREATE
 40
2458532.153996898
  9
$TDUPDATE
 40
2461230.735532407
  9
$TDUUPDATE
 40
2458532.1544311
  9
$TDINDWG
 40
0.0
  9
$TDUSRTIMER
 40
0.0
  9
$USRTIMER
 70
1
  9
$ANGBASE
 50
0.0
  9
$ANGDIR
 70
0
  9
$PDMODE
 70
0
  9
$PDSIZE
 40
0.0
  9
$PLINEWID
 40
0.0
  9
$SPLFRAME
 70
0
  9
$SPLINETYPE
 70
6
  9
$SPLINESEGS
 70
8
  9
$HANDSEED
  5
34
  9
$SURFTAB1
 70
6
  9
$SURFTAB2
 70
6
  9
$SURFTYPE
 70
6
  9
$SURFU
 70
6
  9
$SURFV
 70
6
  9
$UCSBASE
  2

  9
$UCSNAME
  2

  9
$UCSORG
 10
0.0
 20
0.0
 30
0.0
  9
$UCSXDIR
 10
1.0
 20
0.0
 30
0.0
  9
$UCSYDIR
 10
0.0
 20
1.0
 30
0.0
  9
$UCSORTHOREF
  2

  9
$UCSORTHOVIEW
 70
0
  9
$UCSORGTOP
 10
0.0
 20
0.0
 30
0.0
  9
$UCSORGBOTTOM
 10
0.0
 20
0.0
 30
0.0
  9
$UCSORGLEFT
 10
0.0
 20
0.0
 30
0.0
  9
$UCSORGRIGHT
 10
0.0
 20
0.0
 30
0.0
  9
$UCSORGFRONT
 10
0.0
 20
0.0
 30
0.0
  9
$UCSORGBACK
 10
0.0
 20
0.0
 30
0.0
  9
$PUCSBASE
  2

  9
$PUCSNAME
  2

  9
$PUCSORG
 10
0.0
 20
0.0
 30
0.0
  9
$PUCSXDIR
 10
1.0
 20
0.0
 30
0.0
  9
$PUCSYDIR
 10
0.0
 20
1.0
 30
0.0
  9
$PUCSORTHOREF
  2

  9
$PUCSORTHOVIEW
 70
0
  9
$PUCSORGTOP
 10
0.0
 20
0.0
 30
0.0
  9
$PUCSORGBOTTOM
 10
0.0
 20
0.0
 30
0.0
  9
$PUCSORGLEFT
 10
0.0
 20
0.0
 30
0.0
  9
$PUCSORGRIGHT
 10
0.0
 20
0.0
 30
0.0
  9
$PUCSORGFRONT
 10
0.0
 20
0.0
 30
0.0
  9
$PUCSORGBACK
 10
0.0
 20
0.0
 30
0.0
  9
$USERI1
 70
0
  9
$USERI2
 70
0
  9
$USERI3
 70
0
  9
$USERI4
 70
0
  9
$USERI5
 70
0
  9
$USERR1
 40
0.0
  9
$USERR2
 40
0.0
  9
$USERR3
 40
0.0
  9
$USERR4
 40
0.0
  9
$USERR5
 40
0.0
  9
$WORLDVIEW
 70
1
  9
$SHADEDGE
 70
3
  9
$SHADEDIF
 70
70
  9
$TILEMODE
 70
1
  9
$MAXACTVP
 70
64
  9
$PINSBASE
 10
0.0
 20
0.0
 30
0.0
  9
$PLIMCHECK
 70
0
  9
$PEXTMIN
 10
1e+20
 20
1e+20
 30
1e+20
  9
$PEXTMAX
 10
-1e+20
 20
-1e+20
 30
-1e+20
  9
$PLIMMIN
 10
0.0
 20
0.0
  9
$PLIMMAX
 10
420.0
 20
297.0
  9
$UNITMODE
 70
0
  9
$VISRETAIN
 70
1
  9
$PLINEGEN
 70
0
  9
$PSLTSCALE
 70
1
  9
$TREEDEPTH
 70
3020
  9
$CMLSTYLE
  2
Standard
  9
$CMLJUST
 70
0
  9
$CMLSCALE
 40
20.0
  9
$PROXYGRAPHICS
 70
1
  9
$MEASUREMENT
 70
1
  9
$CELWEIGHT
370
-1
  9
$ENDCAPS
280
0
  9
$JOINSTYLE
280
0
  9
$LWDISPLAY
290
0
  9
$INSUNITS
 70
6
  9
$HYPERLINKBASE
  1

  9
$STYLESHEET
  1

  9
$XEDIT
290
1
  9
$CEPSNTYPE
380
0
  9
$PSTYLEMODE
290
1
  9
$FINGERPRINTGUID
  2
{25B37AC3-EEC8-43F2-9CDC-FD75F550B27C}
  9
$VERSIONGUID
  2
{4425D819-6356-4766-8899-C1BF52541AFA}
  9
$EXTNAMES
290
1
  9
$PSVPSCALE
 40
0.0
  9
$OLESTARTUP
290
0
  0
ENDSEC
  0
SECTION
  2
CLASSES
  0
CLASS
  1
ACDBDICTIONARYWDFLT
  2
AcDbDictionaryWithDefault
  3
ObjectDBX Classes
 90
0
280
0
281
0
  0
CLASS
  1
SUN
  2
AcDbSun
  3
SCENEOE
 90
1153
280
0
281
0
  0
CLASS
  1
VISUALSTYLE
  2
AcDbVisualStyle
  3
ObjectDBX Classes
 90
4095
280
0
281
0
  0
CLASS
  1
MATERIAL
  2
AcDbMaterial
  3
ObjectDBX Classes
 90
1153
280
0
281
0
  0
CLASS
  1
SCALE
  2
AcDbScale
  3
ObjectDBX Classes
 90
1153
280
0
281
0
  0
CLASS
  1
TABLESTYLE
  2
AcDbTableStyle
  3
ObjectDBX Classes
 90
4095
280
0
281
0
  0
CLASS
  1
MLEADERSTYLE
  2
AcDbMLeaderStyle
  3
ACDB_MLEADERSTYLE_CLASS
 90
4095
280
0
281
0
  0
CLASS
  1
DICTIONARYVAR
  2
AcDbDictionaryVar
  3
ObjectDBX Classes
 90
0
280
0
281
0
  0
CLASS
  1
CELLSTYLEMAP
  2
AcDbCellStyleMap
  3
ObjectDBX Classes
 90
1152
280
0
281
0
  0
CLASS
  1
MENTALRAYRENDERSETTINGS
  2
AcDbMentalRayRenderSettings
  3
SCENEOE
 90
1024
280
0
281
0
  0
CLASS
  1
ACDBDETAILVIEWSTYLE
  2
AcDbDetailViewStyle
  3
ObjectDBX Classes
 90
1025
280
0
281
0
  0
CLASS
  1
ACDBSECTIONVIEWSTYLE
  2
AcDbSectionViewStyle
  3
ObjectDBX Classes
 90
1025
280
0
281
0
  0
CLASS
  1
RASTERVARIABLES
  2
AcDbRasterVariables
  3
ISM
 90
0
280
0
281
0
  0
CLASS
  1
ACDBPLACEHOLDER
  2
AcDbPlaceHolder
  3
ObjectDBX Classes
 90
0
280
0
281
0
  0
CLASS
  1
LAYOUT
  2
AcDbLayout
  3
ObjectDBX Classes
 90
0
280
0
281
0
  0
ENDSEC
  0
SECTION
  2
TABLES
  0
TABLE
  2
VPORT
  5
8
330
0
100
AcDbSymbolTable
 70
1
  0
VPORT
  5
23
330
8
100
AcDbSymbolTableRecord
100
AcDbViewportTableRecord
  2
*Active
 70
0
 10
0.0
 20
0.0
 11
1.0
 21
1.0
 12
0.0
 22
0.0
 13
0.0
 23
0.0
 14
0.5
 24
0.5
 15
0.5
 25
0.5
 16
0.0
 26
0.0
 36
1.0
 17
0.0
 27
0.0
 37
0.0
 40
1000.0
 41
1.34
 42
50.0
 43
0.0
 44
0.0
 50
0.0
 51
0.0
 71
0
 72
1000
 73
1
 74
3
 75
0
 76
0
 77
0
 78
0
281
0
 65
0
146
0.0
  0
ENDTAB
  0
TABLE
  2
LTYPE
  5
2
330
0
100
AcDbSymbolTable
 70
3
  0
LTYPE
  5
24
330
2
100
AcDbSymbolTableRecord
100
AcDbLinetypeTableRecord
  2
ByBlock
 70
0
  3

 72
65
 73
0
 40
0.0
  0
LTYPE
  5
25
330
2
100
AcDbSymbolTableRecord
100
AcDbLinetypeTableRecord
  2
ByLayer
 70
0
  3

 72
65
 73
0
 40
0.0
  0
LTYPE
  5
26
330
2
100
AcDbSymbolTableRecord
100
AcDbLinetypeTableRecord
  2
Continuous
 70
0
  3

 72
65
 73
0
 40
0.0
  0
ENDTAB
  0
TABLE
  2
LAYER
  5
1
330
0
100
AcDbSymbolTable
 70
3
  0
LAYER
  5
27
330
1
100
AcDbSymbolTableRecord
100
AcDbLayerTableRecord
  2
0
 70
0
 62
7
  6
Continuous
370
-3
390
13
  0
LAYER
  5
28
330
1
100
AcDbSymbolTableRecord
100
AcDbLayerTableRecord
  2
Defpoints
 70
0
 62
7
  6
Continuous
290
0
370
-3
390
13
  0
LAYER
  5
2F
330
1
100
AcDbSymbolTableRecord
100
AcDbLayerTableRecord
  2
SECTION
 70
0
 62
7
  6
Continuous
370
-3
390
13
  0
ENDTAB
  0
TABLE
  2
STYLE
  5
5
330
0
100
AcDbSymbolTable
 70
1
  0
STYLE
  5
29
330
5
100
AcDbSymbolTableRecord
100
AcDbTextStyleTableRecord
  2
Standard
 70
0
 40
0.0
 41
1.0
 50
0.0
 71
0
 42
2.5
  3
txt
  4

  0
ENDTAB
  0
TABLE
  2
VIEW
  5
7
330
0
100
AcDbSymbolTable
 70
0
  0
ENDTAB
  0
TABLE
  2
UCS
  5
6
330
0
100
AcDbSymbolTable
 70
0
  0
ENDTAB
  0
TABLE
  2
APPID
  5
3
330
0
100
AcDbSymbolTable
 70
3
  0
APPID
  5
2A
330
3
100
AcDbSymbolTableRecord
100
AcDbRegAppTableRecord
  2
ACAD
 70
0
  0
APPID
  5
31
330
3
100
AcDbSymbolTableRecord
100
AcDbRegAppTableRecord
  2
HATCHBACKGROUNDCOLOR
 70
0
  0
APPID
  5
32
330
3
100
AcDbSymbolTableRecord
100
AcDbRegAppTableRecord
  2
EZDXF
 70
0
  0
ENDTAB
  0
TABLE
  2
DIMSTYLE
  5
4
330
0
100
AcDbSymbolTable
 70
1
100
AcDbDimStyleTable
  0
DIMSTYLE
105
2B
330
4
100
AcDbSymbolTableRecord
100
AcDbDimStyleTableRecord
  2
Standard
 70
0
  3

  4

 40
1.0
 41
2.5
 42
0.625
 43
3.75
 44
1.25
 45
0.0
 46
0.0
 47
0.0
 48
0.0
140
2.5
141
2.5
142
0.0
143
0.03937007874
144
1.0
145
0.0
146
1.0
147
0.625
148
0.0
 71
0
 72
0
 73
0
 74
0
 75
0
 76
0
 77
1
 78
8
 79
3
170
0
171
3
172
1
173
0
174
0
175
0
176
0
177
0
178
0
179
2
271
2
272
2
273
2
274
3
275
0
276
0
277
2
278
44
279
0
280
0
281
0
282
0
283
0
284
8
285
0
286
0
288
0
289
3
371
-2
372
-2
  0
ENDTAB
  0
TABLE
  2
BLOCK_RECORD
  5
9
330
0
100
AcDbSymbolTable
 70
2
  0
BLOCK_RECORD
  5
17
330
9
100
AcDbSymbolTableRecord
100
AcDbBlockTableRecord
  2
*Model_Space
340
1A
  0
BLOCK_RECORD
  5
1B
330
9
100
AcDbSymbolTableRecord
100
AcDbBlockTableRecord
  2
*Paper_Space
340
1E
  0
ENDTAB
  0
ENDSEC
  0
SECTION
  2
BLOCKS
  0
BLOCK
  5
18
330
17
100
AcDbEntity
  8
0
100
AcDbBlockBegin
  2
*Model_Space
 70
0
 10
0.0
 20
0.0
 30
0.0
  3
*Model_Space
  1

  0
ENDBLK
  5
19
330
17
100
AcDbEntity
  8
0
100
AcDbBlockEnd
  0
BLOCK
  5
1C
330
1B
100
AcDbEntity
  8
0
100
AcDbBlockBegin
  2
*Paper_Space
 70
0
 10
0.0
 20
0.0
 30
0.0
  3
*Paper_Space
  1

  0
ENDBLK
  5
1D
330
1B
100
AcDbEntity
  8
0
100
AcDbBlockEnd
  0
ENDSEC
  0
SECTION
  2
ENTITIES
  0
LWPOLYLINE
  5
30
330
17
100
AcDbEntity
  8
SECTION
100
AcDbPolyline
 90
1030
 70
1
 10
0.5999990742675436
 20
0.2502175179652113
 10
0.6000082308783021
 20
0.20021454421657836
 10
0.5750073528870416
 20
0.19520997088693548
 10
0.5750293275887088
 20
0.060202549953828566
 10
0.6250341338272847
 20
0.050209897995955544
 10
0.62504023783913
 20
0.012207757536089048
 10
0.6130418424327218
 20
0.00020508943271124735
 10
0.4405109185490801
 20
0.00017631949845053896
 10
0.44051091854862534
 20
0.00017026793489094416
 10
0.44051091878100124
 20
0.040163878016755916
 10
0.44317592923835036
 20
0.040221344796236735
 10
0.4458378278955024
 20
0.040362336660564324
 10
0.4484939976064197
 20
0.04058671498796684
 10
0.4511418268575653
 20
0.04089425917277367
 10
0.4537787123349517
 20
0.041284666840965656
 10
0.4564020614848232
 20
0.04175755414826199
 10
0.4590092950620601
 20
0.04231245615824264
 10
0.46159784966675943
 20
0.04294882729732308
 10
0.4641651802630804
 20
0.04366604189362988
 10
0.4667087626830835
 20
0.04446339479022754
 10
0.46922609610692234
 20
0.045340102039290286
 10
0.4717147055230271
 20
0.046295301673353606
 10
0.47417214416145725
 20
0.04732805455137168
 10
0.4765959958976964
 20
0.04843734528344612
 10
0.47898387763052597
 20
0.04962208322808692
 10
0.4813334416235193
 20
0.050881103565870944
 10
0.48364237781379416
 20
0.05221316844267676
 10
0.4859084160839302
 20
0.053616968189089675
 10
0.4881293284915955
 20
0.05509112260574511
 10
0.49030293146324766
 20
0.056634182322341076
 10
0.492427087939177
 20
0.05824463022099735
 10
0.4944997094739847
 20
0.059920882929191066
 10
0.496518758291586
 20
0.06166129237522
 10
0.49848224928746276
 20
0.06346414740983164
 10
0.5003882519813487
 20
0.06532767548810625
 10
0.50223489241489
 20
0.06725004441159399
 10
0.5040203549929174
 20
0.06922936413047864
 10
0.5057428842706031
 20
0.07126368860190269
 10
0.5074007866783177
 20
0.07335101770263464
 10
0.5089924321864601
 20
0.07548929919585134
 10
0.510516255908442
 20
0.07767643074953412
 10
0.5119707596390981
 20
0.07991026200215856
 10
0.5133545133280677
 20
0.08218859667817924
 10
0.5146661564858732
 20
0.08450919474648799
 10
0.5159043995204229
 20
0.0868697746232101
 10
0.5170680250066653
 20
0.08926801541520035
 10
0.5181558888816653
 20
0.09170155920082834
 10
0.5191669215714683
 20
0.09416801334964475
 10
0.5201001290402019
 20
0.09666495287387988
 10
0.5209545937705116
 20
0.09918992281291139
 10
0.5217294756625961
 20
0.10174044064683585
 10
0.5224240128618476
 20
0.10431399873755254
 10
0.5230375225078205
 20
0.1069080667941762
 10
0.5235694014058936
 20
0.10952009436005028
 10
0.5240191266184411
 20
0.11214751332204287
 10
0.5243862559809713
 20
0.11478774043325757
 10
0.5246704285368651
 20
0.11743817985461646
 10
0.5248713648911689
 20
0.12009622570622014
 10
0.5249888674852627
 20
0.12275926462962161
 10
0.525022820792401
 20
0.12542467835760363
 10
0.5249731914300355
 20
0.12808984628736653
 10
0.5248400281930117
 20
0.130752148058491
 10
0.5246234620058203
 20
0.13340896612794495
 10
0.5243237057939041
 20
0.1360576883446356
 10
0.5239410542735641
 20
0.1386957105169131
 10
0.5234758836636502
 20
0.1413204389737075
 10
0.5229286513135776
 20
0.14392929311361513
 10
0.5222998952558555
 20
0.14651970794284352
 10
0.5215902336763065
 20
0.1490891365972402
 10
0.520800364304705
 20
0.1516350528456769
 10
0.5199310637317467
 20
0.1541549535741069
 10
0.5189831866427994
 20
0.15664636124688514
 10
0.5179576649793489
 20
0.15910682634239492
 10
0.5168555070217735
 20
0.1615339297607079
 10
0.5156777963979948
 20
0.16392528520373162
 10
0.514425691019369
 20
0.16627854151965948
 10
0.5131004219401802
 20
0.16859138501536108
 10
0.5117032921493774
 20
0.17086154173148316
 10
0.5102356752877313
 20
0.17308677967730546
 10
0.5086990142985996
 20
0.1752649110258062
 10
0.507094820007751
 20
0.17739379426484447
 10
0.5054246696399787
 20
0.17947133630241296
 10
0.5036902052670484
 20
0.1814954945241425
 10
0.5018931321928903
 20
0.1834642788023757
 10
0.5000352172783096
 20
0.18537575345226287
 10
0.4981182872024874
 20
0.18722803913533426
 10
0.49614422666718383
 20
0.1890193147064565
 10
0.49411497654591585
 20
0.19074781900553717
 10
0.4920325319717449
 20
0.1924118525880658
 10
0.4898989403795895
 20
0.19400977939653785
 10
0.48771629949033013
 20
0.1955400283684412
 10
0.4854867552498945
 20
0.19700109498194252
 10
0.4832124997196843
 20
0.1983915427338161
 10
0.48089576891970864
 20
0.19971000455257126
 10
0.47853884063124497
 20
0.2009551841429129
 10
0.4761440321585724
 20
0.20212585725948884
 10
0.47371369804704955
 20
0.20322087291015123
 10
0.47125022777254344
 20
0.20423915448941443
 10
0.4687560433890212
 20
0.20517970083483306
 10
0.4662335971479479
 20
0.20604158721266685
 10
0.46368536908767055
 20
0.2068239662266933
 10
0.46111386459551795
 20
0.2075260686517595
 10
0.4585216119435245
 20
0.20814720418866273
 10
0.4559111598027812
 20
0.2086867621451347
 10
0.4532850747377779
 20
0.20914421203383426
 10
0.4506459386843744
 20
0.20951910409576158
 10
0.4479963464082175
 20
0.20981106974159047
 10
0.44533890295679157
 20
0.21001982191432944
 10
0.4426762210960078
 20
0.21014515537149236
 10
0.4400109187417911
 20
0.21018694688632422
 10
0.43734561638802916
 20
0.21014515537012812
 10
0.4346829345272454
 20
0.2100198219120557
 10
0.43202549107581945
 20
0.2098110697379525
 10
0.4293758988001173
 20
0.20951910409098673
 10
0.4267367627467138
 20
0.20914421202769518
 10
0.42411067768216526
 20
0.20868676213785875
 10
0.42150022554142197
 20
0.2081472041802499
 10
0.4189079728894285
 20
0.20752606864198242
 10
0.41633646839773064
 20
0.20682396621600674
 10
0.4137882403383628
 20
0.20604158720061605
 10
0.41126579409728947
 20
0.20517970082164538
 10
0.408771609714222
 20
0.2042391544750899
 10
0.40630813944017063
 20
0.2032208728949172
 10
0.4038778053295573
 20
0.20212585724289056
 10
0.4014829968568847
 20
0.20095518412540514
 10
0.3991260685693305
 20
0.199710004534154
 10
0.39680933776980964
 20
0.19839154271403459
 10
0.3945350822400542
 20
0.1970010949612515
 10
0.39230553800052803
 20
0.1955400283468407
 10
0.3901228971121782
 20
0.19400977937380048
 10
0.3879893055204775
 20
0.19241185256441895
 10
0.38590686094721605
 20
0.1907478189809808
 10
0.3838776108264028
 20
0.18901931468099065
 10
0.38190355029200873
 20
0.18722803910873154
 10
0.37998662021709606
 20
0.18537575342497803
 10
0.37812870530297005
 20
0.18346427877418137
 10
0.37633163222972144
 20
0.18149549449503866
 10
0.3745971678577007
 20
0.179471336272627
 10
0.37292701749129264
 20
0.1773937942343764
 10
0.37132282320135346
 20
0.17526491099465602
 10
0.3697861622131313
 20
0.17308677964524577
 10
0.3683185453523947
 20
0.17086154169896872
 10
0.36692141556250135
 20
0.16859138498216453
 10
0.36559614648467686
 20
0.1662785414857808
 10
0.3643440411069605
 20
0.1639252851693982
 10
0.36316633048454605
 20
0.16153392972591973
 10
0.36206417252788015
 20
0.15910682630692463
 10
0.36103865086533915
 20
0.1566463612109601
 10
0.3600907737777561
 20
0.15415495353772712
 10
0.3592214732057073
 20
0.15163505280884237
 10
0.35843160383547
 20
0.1490891365601783
 10
0.3577219422568305
 20
0.14651970790532687
 10
0.3570931862004727
 20
0.1439292930758711
 10
0.35654595385176435
 20
0.1413204389357361
 10
0.35608078324275994
 20
0.13869571047871432
 10
0.35569813172378417
 20
0.13605768830620946
 10
0.35539837551323217
 20
0.1334089660895188
 10
0.3551818093269503
 20
0.13075214801983748
 10
0.3550486460912907
 20
0.128089846248713
 10
0.3549990167298347
 20
0.1254246783189501
 10
0.3550329700383372
 20
0.12275926459096809
 10
0.3551504726337953
 20
0.12009622566756661
 10
0.35535140898900863
 20
0.11743817981596294
 10
0.3556355815462666
 20
0.11478774039483142
 10
0.35600271091061586
 20
0.11214751328384409
 10
0.35645243612407285
 20
0.10952009432207888
 10
0.3569843150230554
 20
0.10690806675620479
 10
0.3575978246703926
 20
0.10431399870003588
 10
0.3582923618710083
 20
0.10174044060954657
 10
0.35906724376400234
 20
0.09918992277607686
 10
0.35992170849522154
 20
0.0966649528375001
 10
0.3608549159653194
 20
0.09416801331371971
 10
0.36186594865603183
 20
0.09170155916535805
 10
0.3629538125323961
 20
0.0892680153801848
 10
0.364117438019548
 20
0.0868697745886493
 10
0.3653556810554619
 20
0.08450919471238194
 10
0.3666673242141769
 20
0.08218859664475531
 10
0.368051077904056
 20
0.07991026196941675
 10
0.3695055816360764
 20
0.07767643071747443
 10
0.3710294053589678
 20
0.07548929916447378
 10
0.3726210508675649
 20
0.07335101767193919
 10
0.374278953276189
 20
0.07126368857211673
 10
0.3760014825552389
 20
0.06922936410137481
 10
0.37778694513417577
 20
0.06725004438339965
 10
0.37963358556817184
 20
0.06532767546059404
 10
0.38153958826342205
 20
0.06346414738345629
 10
0.3835030792602083
 20
0.061661292349526775
 10
0.38552212807826436
 20
0.059920882904407335
 10
0.38759474961398155
 20
0.058244630197123115
 10
0.38971890609036564
 20
0.05663418229960371
 10
0.3918925090629273
 20
0.05509112258391724
 10
0.3941134214715021
 20
0.0536169681681713
 10
0.3963794597420929
 20
0.05221316842289525
 10
0.39868839593282246
 20
0.05088110354699893
 10
0.4010379599267253
 20
0.049622083210351775
 10
0.4034258416600096
 20
0.04843734526662047
 10
0.4058496933967035
 20
0.04732805453591027
 10
0.40830713203558844
 20
0.046295301659029064
 10
0.4107957414521479
 20
0.04534010202610261
 10
0.41331307487644153
 20
0.04446339477794936
 10
0.4158566572964446
 20
0.04366604188248857
 10
0.41842398789322033
 20
0.04294882728754601
 10
0.42101254249791964
 20
0.04231245614960244
 10
0.4236197760756113
 20
0.04175755414098603
 10
0.42624312522593755
 20
0.04128466683459919
 10
0.42888001070332393
 20
0.04089425916777145
 10
0.4315278399544695
 20
0.040586714984328864
 10
0.4341840096658416
 20
0.04036233665783584
 10
0.43684590832299364
 20
0.04022134479487249
 10
0.43951091878034276
 20
0.04016387801652854
 10
0.4395109185484216
 20
0.00017026793489094416
 10
0.2204978291651969
 20
0.0001342608650247712
 10
0.2204978293975728
 20
0.04012787094688974
 10
0.2231628398549219
 20
0.04018533772637056
 10
0.22582473851207396
 20
0.04032632959069815
 10
0.22848090822299127
 20
0.04055070791810067
 10
0.23112873747413687
 20
0.0408582521029075
 10
0.23376562295152326
 20
0.04124865977109948
 10
0.23638897210139476
 20
0.041721547078395815
 10
0.23899620567863167
 20
0.04227644908837647
 10
0.24158476028333098
 20
0.042912820227456905
 10
0.24415209087965195
 20
0.04363003482376371
 10
0.24669567329965503
 20
0.044427387720361367
 10
0.2492130067234939
 20
0.045304094969424114
 10
0.2517016161395986
 20
0.04625929460348743
 10
0.2541590547780288
 20
0.047292047481505506
 10
0.25658290651426796
 20
0.04840133821357995
 10
0.2589707882470975
 20
0.04958607615822075
 10
0.26132035224009087
 20
0.05084509649600477
 10
0.2636292884303657
 20
0.05217716137281059
 10
0.26589532670050176
 20
0.0535809611192235
 10
0.26811623910816706
 20
0.05505511553587894
 10
0.2702898420798192
 20
0.0565981752524749
 10
0.27241399855574855
 20
0.05820862315113118
 10
0.27448662009055624
 20
0.05988487585932489
 10
0.27650566890815753
 20
0.06162528530535383
 10
0.2784691599040343
 20
0.06342814033996547
 10
0.2803751625979203
 20
0.06529166841824008
 10
0.2822218030314616
 20
0.06721403734172782
 10
0.28400726560948897
 20
0.06919335706061247
 10
0.28572979488717465
 20
0.07122768153203651
 10
0.2873876972948892
 20
0.07331501063276846
 10
0.2889793428030316
 20
0.07545329212598517
 10
0.2905031665250135
 20
0.07764042367966795
 10
0.29195767025566965
 20
0.07987425493229239
 10
0.29334142394463925
 20
0.08215258960831306
 10
0.29465306710244477
 20
0.08447318767662182
 10
0.29589131013699443
 20
0.08683376755334393
 10
0.2970549356232368
 20
0.08923200834533418
 10
0.29814279949823685
 20
0.09166555213096217
 10
0.2991538321880398
 20
0.09413200627977858
 10
0.3000870396567734
 20
0.09662894580401371
 10
0.3009415043870831
 20
0.09915391574304522
 10
0.30171638627916764
 20
0.10170443357696968
 10
0.30241092347841914
 20
0.10427799166768636
 10
0.3030244331243921
 20
0.10687205972431002
 10
0.30355631202246514
 20
0.1094840872901841
 10
0.3040060372350126
 20
0.1121115062521767
 10
0.3043731665975429
 20
0.1147517333633914
 10
0.3046573391534366
 20
0.11740217278475029
 10
0.3048582755077405
 20
0.12006021863635397
 10
0.3049757781018343
 20
0.12272325755975544
 10
0.3050097314089726
 20
0.12538867128773745
 10
0.30496010204660706
 20
0.12805383921750035
 10
0.3048269388095832
 20
0.13071614098862483
 10
0.3046103726223919
 20
0.13337295905807878
 10
0.30431061641047563
 20
0.13602168127476943
 10
0.3039279648901356
 20
0.13865970344704692
 10
0.3034627942802217
 20
0.14128443190384132
 10
0.3029155619301491
 20
0.14389328604374896
 10
0.30228680587242707
 20
0.14648370087297735
 10
0.3015771442928781
 20
0.14905312952737404
 10
0.30078727492127655
 20
0.15159904577581074
 10
0.29991797434831824
 20
0.15411894650424074
 10
0.29897009725937096
 20
0.15661035417701896
 10
0.29794457559592047
 20
0.15907081927252875
 10
0.29684241763834507
 20
0.16149792269084173
 10
0.2956647070145664
 20
0.16388927813386545
 10
0.2944126016359405
 20
0.1662425344497933
 10
0.2930873325567518
 20
0.1685553779454949
 10
0.2916902027659489
 20
0.17082553466161698
 10
0.29022258590430283
 20
0.17305077260743928
 10
0.2886859249151712
 20
0.17522890395594004
 10
0.2870817306243225
 20
0.1773577871949783
 10
0.2854115802565502
 20
0.1794353292325468
 10
0.28367711588362
 20
0.1814594874542763
 10
0.2818800428094619
 20
0.18342827173250953
 10
0.2800221278948811
 20
0.1853397463823967
 10
0.27810519781905896
 20
0.18719203206546808
 10
0.2761311372837554
 20
0.18898330763659033
 10
0.2741018871624874
 20
0.190711811935671
 10
0.27201944258831645
 20
0.19237584551819964
 10
0.269885850996161
 20
0.19397377232667168
 10
0.2677032101069017
 20
0.19550402129857503
 10
0.26547366586646604
 20
0.19696508791207634
 10
0.2631994103362558
 20
0.19835553566394992
 10
0.2608826795362802
 20
0.1996739974827051
 10
0.2585257512478165
 20
0.20091917707304674
 10
0.2561309427751439
 20
0.20208985018962267
 10
0.2537006086636211
 20
0.20318486584028506
 10
0.251237138389115
 20
0.20420314741954826
 10
0.24874295400559276
 20
0.20514369376496688
 10
0.24622050776451943
 20
0.20600558014280068
 10
0.2436722797042421
 20
0.20678795915682713
 10
0.2411007752120895
 20
0.20749006158189331
 10
0.23850852256009603
 20
0.20811119711879655
 10
0.23589807041935273
 20
0.20865075507526853
 10
0.23327198535434945
 20
0.2091082049639681
 10
0.23063284930094596
 20
0.2094830970258954
 10
0.22798325702478905
 20
0.2097750626717243
 10
0.22532581357336312
 20
0.20998381484446327
 10
0.22266313171257934
 20
0.2101091483016262
 10
0.21999782935836265
 20
0.21015093981645805
 10
0.2173325270046007
 20
0.21010914830026195
 10
0.21466984514381693
 20
0.20998381484218953
 10
0.212012401692391
 20
0.20977506266808632
 10
0.20936280941668883
 20
0.20948309702112056
 10
0.20672367336328534
 20
0.209108204957829
 10
0.2040975882987368
 20
0.20865075506799258
 10
0.20148713615799352
 20
0.20811119711038373
 10
0.19889488350600004
 20
0.20749006157211625
 10
0.1963233790143022
 20
0.20678795914614057
 10
0.19377515095493436
 20
0.20600558013074988
 10
0.19125270471386102
 20
0.2051436937517792
 10
0.18875852033079354
 20
0.20420314740522372
 10
0.18629505005674218
 20
0.20318486582505102
 10
0.18386471594612885
 20
0.2020898501730244
 10
0.18146990747345626
 20
0.20091917705553897
 10
0.17911297918590208
 20
0.19967399746428782
 10
0.1767962483863812
 20
0.1983555356441684
 10
0.17452199285662573
 20
0.19696508789138534
 10
0.17229244861709958
 20
0.19550402127697453
 10
0.17010980772874973
 20
0.1939737723039343
 10
0.16797621613704905
 20
0.19237584549455278
 10
0.1658937715637876
 20
0.19071181191111464
 10
0.16386452144297436
 20
0.18898330761112447
 10
0.16189046090858028
 20
0.18719203203886536
 10
0.1599735308336676
 20
0.18533974635511186
 10
0.1581156159195416
 20
0.1834282717043152
 10
0.15631854284629298
 20
0.18145948742517248
 10
0.15458407847427225
 20
0.17943532920276084
 10
0.1529139281078642
 20
0.17735778716451023
 10
0.151309733817925
 20
0.17522890392478985
 10
0.14977307282970287
 20
0.1730507725753796
 10
0.14830545596896627
 20
0.17082553462910255
 10
0.1469083261790729
 20
0.16855537791229835
 10
0.14558305710124841
 20
0.16624253441591463
 10
0.14433095172353205
 20
0.16388927809953202
 10
0.1431532411011176
 20
0.16149792265605356
 10
0.1420510831444517
 20
0.15907081923705846
 10
0.1410255614819107
 20
0.15661035414109392
 10
0.14007768439432766
 20
0.15411894646786095
 10
0.13920838382227885
 20
0.1515990457389762
 10
0.13841851445204156
 20
0.14905312949031213
 10
0.13770885287340207
 20
0.1464837008354607
 10
0.13708009681704425
 20
0.14389328600600493
 10
0.1365328644683359
 20
0.14128443186586992
 10
0.13606769385933148
 20
0.13865970340884815
 10
0.13568504234035572
 20
0.13602168123634328
 10
0.13538528612980372
 20
0.13337295901965263
 10
0.13516871994352186
 20
0.1307161409499713
 10
0.13503555670786227
 20
0.12805383917884683
 10
0.13498592734640624
 20
0.12538867124908393
 10
0.13501988065490877
 20
0.12272325752110191
 10
0.13513738325036684
 20
0.12006021859770044
 10
0.13533831960558018
 20
0.11740217274609677
 10
0.13562249216283817
 20
0.11475173332496524
 10
0.1359896215271874
 20
0.11211150621397792
 10
0.1364393467406444
 20
0.1094840872522127
 10
0.13697122563962694
 20
0.10687205968633862
 10
0.13758473528696413
 20
0.10427799163016971
 10
0.13827927248757987
 20
0.1017044335396804
 10
0.1390541543805739
 20
0.09915391570621068
 10
0.1399086191117931
 20
0.09662894576763392
 10
0.14084182658189093
 20
0.09413200624385354
 10
0.14185285927260338
 20
0.09166555209549188
 10
0.14294072314896766
 20
0.08923200831031863
 10
0.14410434863611954
 20
0.08683376751878313
 10
0.14534259167203345
 20
0.08447318764251577
 10
0.14665423483074846
 20
0.08215258957488913
 10
0.14803798852062755
 20
0.07987425489955058
 10
0.14949249225264793
 20
0.07764042364760826
 10
0.15101631597553933
 20
0.0754532920946076
 10
0.15260796148413647
 20
0.07331501060207302
 10
0.15426586389276054
 20
0.07122768150225056
 10
0.15598839317181046
 20
0.06919335703150864
 10
0.15777385575074732
 20
0.06721403731353348
 10
0.1596204961847434
 20
0.06529166839072786
 10
0.1615264988799936
 20
0.06342814031359012
 10
0.16348998987677987
 20
0.0616252852796606
 10
0.1655090386948359
 20
0.05988487583454116
 10
0.1675816602305531
 20
0.05820862312725694
 10
0.16970581670693718
 20
0.056598175229737535
 10
0.17187941967949882
 20
0.05505511551405107
 10
0.17410033208807363
 20
0.053580961098305124
 10
0.17636637035866443
 20
0.05217716135302908
 10
0.178675306549394
 20
0.050845096477132756
 10
0.18102487054329686
 20
0.0495860761404856
 10
0.18341275227658116
 20
0.048401338196754295
 10
0.18583660401327506
 20
0.047292047466044096
 10
0.18829404265216
 20
0.04625929458916289
 10
0.19078265206871947
 20
0.04530409495623644
 10
0.19329998549301308
 20
0.04442738770808319
 10
0.19584356791301616
 20
0.0436300348126224
 10
0.19841089850979188
 20
0.04291282021767984
 10
0.2009994531144912
 20
0.04227644907973627
 10
0.20360668669218285
 20
0.04172154707111986
 10
0.2062300358425091
 20
0.04124865976473302
 10
0.20886692131989548
 20
0.04085825209790528
 10
0.21151475057104108
 20
0.04055070791446269
 10
0.21417092028241314
 20
0.04032632958796967
 10
0.2168328189395652
 20
0.04018533772500632
 10
0.2194978293969143
 20
0.04012787094666237
 10
0.21949782916499316
 20
0.0001342608650247712
 10
0.00048473978176843957
 20
9.702437296255084e-05
 10
0.00048473978176843957
 20
0.04009063445528227
 10
0.003149750239117566
 20
0.04014810123476309
 10
0.005811648896269617
 20
0.04028909309909068
 10
0.008467818607186928
 20
0.0405134714264932
 10
0.011115647858332522
 20
0.04082101561130003
 10
0.013752533335718908
 20
0.04121142327949201
 10
0.01637588248559041
 20
0.04168431058678834
 10
0.01898311606282732
 20
0.042239212596768994
 10
0.021571670667526632
 20
0.04287558373584943
 10
0.024139001263847604
 20
0.043592798332156235
 10
0.02668258368385068
 20
0.044390151228753894
 10
0.029199917107689544
 20
0.04526685847781664
 10
0.03168852652379428
 20
0.04622205811187996
 10
0.034145965162224456
 20
0.04725481098989803
 10
0.036569816898463614
 20
0.048364101721972474
 10
0.03895769863129317
 20
0.049548839666613276
 10
0.04130726262428652
 20
0.0508078600043973
 10
0.04361619881456136
 20
0.052139924881203115
 10
0.04588223708469741
 20
0.05354372462761603
 10
0.04810314949236272
 20
0.05501787904427147
 10
0.05027675246401486
 20
0.05656093876086743
 10
0.0524009089399442
 20
0.058171386659523705
 10
0.0544735304747519
 20
0.05984763936771742
 10
0.056492579292353184
 20
0.061588048813746354
 10
0.05845607028822997
 20
0.063390903848358
 10
0.06036207298211593
 20
0.0652544319266326
 10
0.06220871341565726
 20
0.06717680085012034
 10
0.06399417599368462
 20
0.069156120569005
 10
0.0657167052713703
 20
0.07119044504042904
 10
0.06737460767908487
 20
0.07327777414116099
 10
0.06896625318722727
 20
0.0754160556343777
 10
0.07049007690920917
 20
0.07760318718806047
 10
0.07194458063986531
 20
0.07983701844068491
 10
0.0733283343288349
 20
0.08211535311670559
 10
0.07463997748664042
 20
0.08443595118501435
 10
0.07587822052119009
 20
0.08679653106173646
 10
0.07704184600743247
 20
0.0891947718537267
 10
0.07812970988243251
 20
0.0916283156393547
 10
0.07914074257223547
 20
0.0940947697881711
 10
0.08007395004096907
 20
0.09659170931240624
 10
0.08092841477127877
 20
0.09911667925143774
 10
0.08170329666336329
 20
0.1016671970853622
 10
0.08239783386261479
 20
0.10424075517607889
 10
0.08301134350858774
 20
0.10683482323270255
 10
0.08354322240666079
 20
0.10944685079857663
 10
0.08399294761920828
 20
0.11207426976056922
 10
0.08436007698173853
 20
0.11471449687178392
 10
0.08464424953763228
 20
0.11736493629314282
 10
0.08484518589193613
 20
0.12002298214474649
 10
0.08496268848602995
 20
0.12268602106814797
 10
0.08499664179316824
 20
0.12535143479612998
 10
0.08494701243080272
 20
0.12801660272589288
 10
0.08481384919377888
 20
0.13067890449701736
 10
0.08459728300658753
 20
0.1333357225664713
 10
0.08429752679467128
 20
0.13598444478316196
 10
0.08391487527433128
 20
0.13862246695543945
 10
0.08344970466441737
 20
0.14124719541223385
 10
0.08290247231434478
 20
0.14385604955214149
 10
0.08227371625662272
 20
0.14644646438136988
 10
0.08156405467707373
 20
0.14901589303576657
 10
0.0807741853054722
 20
0.15156180928420326
 10
0.07990488473251389
 20
0.15408171001263327
 10
0.07895700764356661
 20
0.1565731176854115
 10
0.07793148598011612
 20
0.15903358278092128
 10
0.07682932802254072
 20
0.16146068619923426
 10
0.07565161739876203
 20
0.16385204164225797
 10
0.07439951202013617
 20
0.16620529795818584
 10
0.07307424294094744
 20
0.16851814145388744
 10
0.07167711315014458
 20
0.1707882981700095
 10
0.07020949628849849
 20
0.1730135361158318
 10
0.06867283529936685
 20
0.17519166746433257
 10
0.06706864100851817
 20
0.17732055070337083
 10
0.06539849064074588
 20
0.17939809274093932
 10
0.06366402626781564
 20
0.18142225096266884
 10
0.06186695319365754
 20
0.18339103524090206
 10
0.060009038279076776
 20
0.18530250989078922
 10
0.05809210820325461
 20
0.1871547955738606
 10
0.05611804766795103
 20
0.18894607114498285
 10
0.054088797546683054
 20
0.19067457544406352
 10
0.052006352972512104
 20
0.19233860902659217
 10
0.04987276138035668
 20
0.1939365358350642
 10
0.04769012049109733
 20
0.19546678480696755
 10
0.04546057625066169
 20
0.19692785142046887
 10
0.043186320720451477
 20
0.19831829917234245
 10
0.040869589920475846
 20
0.19963676099109762
 10
0.03851266163201217
 20
0.20088194058143927
 10
0.036117853159339575
 20
0.2020526136980152
 10
0.03368751904781675
 20
0.20314762934867758
 10
0.031224048773310642
 20
0.20416591092794079
 10
0.028729864389788418
 20
0.2051064572733594
 10
0.026207418148715078
 20
0.2059683436511932
 10
0.023659190088437754
 20
0.20675072266521966
 10
0.021087685596285155
 20
0.20745282509028584
 10
0.01849543294429168
 20
0.20807396062718908
 10
0.015884980803548387
 20
0.20861351858366106
 10
0.013258895738545107
 20
0.20907096847236062
 10
0.010619759685141617
 20
0.20944586053428793
 10
0.007970167408984707
 20
0.20973782618011683
 10
0.005312723957558774
 20
0.2099465783528558
 10
0.002650042096774996
 20
0.21007191181001872
 10
-1.5260257441696012e-05
 20
0.21011370332485058
 10
-0.0026805626112036407
 20
0.21007191180865448
 10
-0.005343244471987418
 20
0.20994657835058206
 10
-0.008000687923413352
 20
0.20973782617647885
 10
-0.010650280199115514
 20
0.20944586052951308
 10
-0.013289416252519004
 20
0.20907096846622153
 10
-0.015915501317067537
 20
0.2086135185763851
 10
-0.01852595345781083
 20
0.20807396061877625
 10
-0.021118206109804305
 20
0.20745282508050877
 10
-0.023689710601502156
 20
0.2067507226545331
 10
-0.026237938660869986
 20
0.2059683436391424
 10
-0.028760384901943326
 20
0.20510645726017174
 10
-0.0312545692850108
 20
0.20416591091361624
 10
-0.03371803955906216
 20
0.20314762933344355
 10
-0.03614837366967549
 20
0.20205261368141691
 10
-0.03854318214234809
 20
0.2008819405639315
 10
-0.04090011042990227
 20
0.19963676097268035
 10
-0.04321684122942315
 20
0.19831829915256094
 10
-0.04549109675917862
 20
0.19692785139977786
 10
-0.047720640998704766
 20
0.19546678478536705
 10
-0.04990328188705462
 20
0.19393653581232684
 10
-0.0520368734787553
 20
0.1923386090029453
 10
-0.05411931805201675
 20
0.19067457541950716
 10
-0.05614856817282998
 20
0.188946071119517
 10
-0.05812262870722407
 20
0.1871547955472579
 10
-0.06003955878213674
 20
0.18530250986350438
 10
-0.06189747369626275
 20
0.18339103521270772
 10
-0.06369454676951136
 20
0.181422250933565
 10
-0.0654290111415321
 20
0.17939809271115337
 10
-0.06709916150794015
 20
0.17732055067290275
 10
-0.06870335579787934
 20
0.17519166743318237
 10
-0.07024001678610148
 20
0.17301353608377212
 10
-0.07170763364683808
 20
0.17078829813749508
 10
-0.07310476343673145
 20
0.16851814142069088
 10
-0.07443003251455593
 20
0.16620529792430716
 10
-0.0756821378922723
 20
0.16385204160792455
 10
-0.07685984851468675
 20
0.1614606861644461
 10
-0.07796200647135265
 20
0.15903358274545099
 10
-0.07898752813389365
 20
0.15657311764948645
 10
-0.07993540522147669
 20
0.15408170997625348
 10
-0.0808047057935255
 20
0.15156180924736873
 10
-0.08159457516376278
 20
0.14901589299870466
 10
-0.08230423674240228
 20
0.14644646434385322
 10
-0.0829329927987601
 20
0.14385604951439745
 10
-0.08348022514746845
 20
0.14124719537426245
 10
-0.08394539575647286
 20
0.13862246691724067
 10
-0.08432804727544863
 20
0.1359844447447358
 10
-0.08462780348600063
 20
0.13333572252804515
 10
-0.08484436967228248
 20
0.13067890445836383
 10
-0.08497753290794208
 20
0.12801660268723936
 10
-0.0850271622693981
 20
0.12535143475747645
 10
-0.08499320896089557
 20
0.12268602102949444
 10
-0.08487570636543751
 20
0.12002298210609297
 10
-0.08467477001022417
 20
0.1173649362544893
 10
-0.08439059745296618
 20
0.11471449683335777
 10
-0.08402346808861694
 20
0.11207426972237045
 10
-0.08357374287515995
 20
0.10944685076060523
 10
-0.08304186397617741
 20
0.10683482319473114
 10
-0.08242835432884021
 20
0.10424075513856224
 10
-0.08173381712822447
 20
0.10166719704807292
 10
-0.08095893523523046
 20
0.09911667921460321
 10
-0.08010447050401126
 20
0.09659170927602645
 10
-0.07917126303391342
 20
0.09409476975224607
 10
-0.07816023034320096
 20
0.0916283156038844
 10
-0.07707236646683668
 20
0.08919477181871116
 10
-0.07590874097968481
 20
0.08679653102717566
 10
-0.0746704979437709
 20
0.0844359511509083
 10
-0.07335885478505588
 20
0.08211535308328166
 10
-0.0719751010951768
 20
0.0798370184079431
 10
-0.07052059736315641
 20
0.07760318715600079
 10
-0.06899677364026502
 20
0.07541605560300013
 10
-0.06740512813166788
 20
0.07327777411046554
 10
-0.06574722572304381
 20
0.07119044501064309
 10
-0.06402469644399389
 20
0.06915612053990117
 10
-0.06223923386505703
 20
0.06717680082192601
 10
-0.06039259343106096
 20
0.06525443189912039
 10
-0.05848659073581075
 20
0.06339090382198265
 10
-0.056523099739024474
 20
0.06158804878805313
 10
-0.05450405092096844
 20
0.05984763934293369
 10
-0.05243142938525125
 20
0.05817138663564947
 10
-0.05030727290886716
 20
0.05656093873813006
 10
-0.04813366993630552
 20
0.055017879022443594
 10
-0.04591275752773072
 20
0.05354372460669765
 10
-0.04364671925713992
 20
0.052139924861421605
 10
-0.04133778306641034
 20
0.05080785998552528
 10
-0.03898821907250749
 20
0.04954883964887813
 10
-0.03660033733922319
 20
0.04836410170514682
 10
-0.03417648560252928
 20
0.04725481097443662
 10
-0.03171904696364436
 20
0.04622205809755542
 10
-0.029230437547084875
 20
0.04526685846462897
 10
-0.026713104122791265
 20
0.044390151216475715
 10
-0.024169521702788188
 20
0.043592798321014925
 10
-0.02160219110601247
 20
0.042875583726072364
 10
-0.019013636501313158
 20
0.042239212588128794
 10
-0.0164064029236215
 20
0.041684310579512385
 10
-0.01378305377329525
 20
0.04121142327312555
 10
-0.011146168295908865
 20
0.040821015606297806
 10
-0.00849833904476327
 20
0.04051347142285522
 10
-0.005842169333391212
 20
0.040289093096362194
 10
-0.003180270676239161
 20
0.04014810123339885
 10
-0.0005152602188900346
 20
0.0400906344550549
 10
-0.0005152602184352872
 20
9.702437296255084e-05
 10
-0.22002834942759364
 20
6.617303370148875e-05
 10
-0.22002834942759364
 20
0.04005978311602121
 10
-0.2173633389702445
 20
0.04011724988959031
 10
-0.21470144031263771
 20
0.040258241748006185
 10
-0.2120452706008109
 20
0.040482620069269615
 10
-0.20939744134921057
 20
0.040790164247937355
 10
-0.2067605558709147
 20
0.04118057191021762
 10
-0.2041372067201337
 20
0.04165345921160224
 10
-0.2015299731410778
 20
0.0422083612154438
 10
-0.19894141853501424
 20
0.0428447323488399
 10
-0.19637408793732902
 20
0.043561946939234986
 10
-0.19383050551550696
 20
0.04435929982992093
 10
-0.1913131720898491
 20
0.04523600707352671
 10
-0.18882456267101588
 20
0.04619120670167831
 10
-0.18636712403076672
 20
0.047223959574239416
 10
-0.18394327229179908
 20
0.048333250300629516
 10
-0.18155539055624104
 20
0.04951798824004072
 10
-0.17920582656006445
 20
0.05077700857236778
 10
-0.17689689036660639
 20
0.05210907344417137
 10
-0.17463085209374185
 20
0.05351287318535469
 10
-0.17240993968243856
 20
0.05498702759700791
 10
-0.17023633670714844
 20
0.05653008730860165
 10
-0.16811218022803587
 20
0.05814053520248308
 10
-0.16603955868913545
 20
0.05981678790567457
 10
-0.16402050986744143
 20
0.06155719734738341
 10
-0.16205701886747192
 20
0.06336005237744757
 10
-0.16015101616903848
 20
0.06522358045140209
 10
-0.15830437573140443
 20
0.06714594937056972
 10
-0.1565189131488296
 20
0.06912526908558903
 10
-0.1547963838661417
 20
0.07115959355314772
 10
-0.15313848145387965
 20
0.07324692265001431
 10
-0.15154683594118978
 20
0.07538520413959304
 10
-0.15002301221420566
 20
0.07757233568963784
 10
-0.1485685084785473
 20
0.07980616693907905
 10
-0.14718475478412074
 20
0.0820845016119165
 10
-0.145873111621313
 20
0.08440509967726939
 10
-0.14463486858130636
 20
0.08676567955126302
 10
-0.14347124308960701
 20
0.08916392034052478
 10
-0.14238337920869526
 20
0.09159746412387904
 10
-0.14137234651343533
 20
0.09406391827042171
 10
-0.14043913903879002
 20
0.09656085779261048
 10
-0.13958467430302335
 20
0.09908582772959562
 10
-0.1388097924050271
 20
0.10163634556170109
 10
-0.1381152551998639
 20
0.10420990365105354
 10
-0.13750174554797923
 20
0.10680397170608558
 10
-0.13696986664399446
 20
0.10941599927105017
 10
-0.13652014142553526
 20
0.11204341823190589
 10
-0.13615301205663854
 20
0.1146836453422111
 10
-0.13586883949483308
 20
0.11733408476288787
 10
-0.13566790313461752
 20
0.11999213061426417
 10
-0.13555040053415723
 20
0.12265516953743827
 10
-0.13551644722110723
 20
0.1253205832651929
 10
-0.13556607657756103
 20
0.12798575119518318
 10
-0.13569923980867316
 20
0.13064805296653503
 10
-0.13591580598949804
 20
0.1333048710366711
 10
-0.13621556219550257
 20
0.13595359325404388
 10
-0.13659821370993086
 20
0.13859161542723086
 10
-0.13706338431393306
 20
0.14121634388493476
 10
-0.13761061665809393
 20
0.14382519802620664
 10
-0.13823937270944953
 20
0.14641561285679927
 10
-0.13894903428354155
 20
0.14898504151301495
 10
-0.13973890364923136
 20
0.15153095776327064
 10
-0.14060820421627795
 20
0.154050858493747
 10
-0.14155608129976827
 20
0.1565422661685716
 10
-0.1425816029577618
 20
0.1590027312663551
 10
-0.14368376090988022
 20
0.16142983468739658
 10
-0.14486147152820195
 20
0.16382119013314878
 10
-0.14611357690137083
 20
0.16617444645180512
 10
-0.1474388459751026
 20
0.16848728995068996
 10
-0.14883597576090324
 20
0.17075744666999526
 10
-0.1503035926175471
 20
0.1729826846190008
 10
-0.15184025360167652
 20
0.17516081597113953
 10
-0.15344444788752298
 20
0.17728969921381577
 10
-0.1551145982507478
 20
0.1793672412552496
 10
-0.15684906261913056
 20
0.18139139948084448
 10
-0.1586461356887412
 20
0.18336018376317043
 10
-0.16050405059922923
 20
0.1852716584173777
 10
-0.16242098067095867
 20
0.18712394410476918
 10
-0.16439504120171478
 20
0.1889152196804389
 10
-0.16642429131934477
 20
0.1906437239842944
 10
-0.168506735889423
 20
0.1923077575715979
 10
-0.1706403274783952
 20
0.1939056843848448
 10
-0.17282296836401656
 20
0.19543593336175036
 10
-0.17505251260126897
 20
0.1968969999802539
 10
-0.17732676812829595
 20
0.19828744773735707
 10
-0.1796434989255431
 20
0.1996059095615692
 10
-0.18200042721082355
 20
0.20085108915714045
 10
-0.1843952356812224
 20
0.20202176227917334
 10
-0.18682556979001674
 20
0.20311677793552008
 10
-0.18928904006224911
 20
0.20413505952024025
 10
-0.1917832244434976
 20
0.20507560587134321
 10
-0.19430567068275195
 20
0.20593749225486135
 10
-0.1968538987412103
 20
0.20671987127479952
 10
-0.1994254032315439
 20
0.20742197370555004
 10
-0.20201765588217313
 20
0.20804310924859237
 10
-0.20462810802200693
 20
0.2085826672107487
 10
-0.20725419308564597
 20
0.20904011710558734
 10
-0.2098933291385947
 20
0.20941500917365374
 10
-0.21254292141384212
 20
0.20970697482539435
 10
-0.2152003648648133
 20
0.2099157270042724
 10
-0.2178630467255971
 20
0.21004106046734705
 10
-0.22052834907935903
 20
0.210082851988318
 10
-0.22319365143312098
 20
0.210041060478261
 10
-0.2258563332943595
 20
0.20991572702610029
 10
-0.22851377674624018
 20
0.20970697485813616
 10
-0.23116336902285184
 20
0.20941500921708212
 10
-0.23380250507716482
 20
0.20904011715992965
 10
-0.2364285901430776
 20
0.20858266727600494
 10
-0.23903904228473039
 20
0.20804310932453518
 10
-0.2416312949380881
 20
0.20742197379217941
 10
-0.24420279943160494
 20
0.20671987137188808
 10
-0.24675102749279176
 20
0.2059374923624091
 10
-0.2492734737356841
 20
0.20507560598912278
 10
-0.2517676581210253
 20
0.20413505964825163
 10
-0.2542311283973504
 20
0.2031167780735359
 10
-0.2566614625106922
 20
0.2020217624271936
 10
-0.25905627098563855
 20
0.20085108931516515
 10
-0.26141319927637596
 20
0.19960590972891623
 10
-0.26372993007862533
 20
0.1982874479142538
 10
-0.266004185611564
 20
0.19689700016647294
 10
-0.26823372985472815
 20
0.19543593355729172
 10
-0.270416370746716
 20
0.19390568458925372
 10
-0.27254996234205464
 20
0.19230775778464704
 10
-0.2746324069189541
 20
0.19064372420598374
 10
-0.27666165704386003
 20
0.18891521991054105
 10
-0.2786357175818921
 20
0.18712394434282942
 10
-0.28055264766135224
 20
0.185271658663396
 10
-0.282410562579571
 20
0.18336018401669207
 10
-0.28420763565736706
 20
0.18139139974186946
 10
-0.2859421000339353
 20
0.17936724152332317
 10
-0.28761225040534555
 20
0.17728969948871054
 10
-0.2892164446998322
 20
0.17516081625262814
 10
-0.29075310569305657
 20
0.17298268490685587
 10
-0.2922207225587954
 20
0.17075744696376205
 10
-0.2936178523541457
 20
0.1684872902501411
 10
-0.29494312143697243
 20
0.16617444675671322
 10
-0.29619522682014576
 20
0.1638211904430591
 10
-0.2973729374480172
 20
0.16142983500230912
 10
-0.2984750954105948
 20
0.15900273158581513
 10
-0.29950061707859277
 20
0.1565422664923517
 10
-0.3004484941720875
 20
0.1540508588211651
 10
-0.3013177947495933
 20
0.1515309580943267
 10
-0.3021076641257423
 20
0.14898504184725425
 10
-0.30281732570983877
 20
0.14641561319399443
 10
-0.3034460817721083
 20
0.1438251983659029
 10
-0.30399331412672836
 20
0.14121634422713214
 10
-0.3044584847416445
 20
0.13859161577124723
 10
-0.3048411362669867
 20
0.1359535935994245
 10
-0.3051408924839052
 20
0.13330487138341596
 10
-0.305357458675644
 20
0.13064805331418938
 10
-0.30549062191767007
 20
0.12798575154329228
 10
-0.3055402512850378
 20
0.12532058361352938
 10
-0.30550629798290174
 20
0.12265516988554737
 10
-0.3053887953933554
 20
0.11999213096191852
 10
-0.30518785904405377
 20
0.1173340851098601
 10
-0.3049036864927075
 20
0.11468364568804645
 10
-0.3045365571347247
 20
0.11204341857614963
 10
-0.30408683192717945
 20
0.10941599961347492
 10
-0.3035549530341086
 20
0.1068039720462366
 10
-0.30294144339268314
 20
0.10420990398870345
 10
-0.3022469061979791
 20
0.10163634589662252
 10
-0.30147202431044207
 20
0.09908582806133381
 10
-0.3006175595851346
 20
0.09656085812071069
 10
-0.2996843521204937
 20
0.09406391859488394
 10
-0.2986733194352382
 20
0.09159746444402117
 10
-0.29758545556478566
 20
0.08916392065634682
 10
-0.29642183008309075
 20
0.08676567986231021
 10
-0.2951835870526338
 20
0.08440509998331436
 10
-0.293871943898921
 20
0.08208450191250449
 10
-0.29248819021404415
 20
0.0798061672339827
 10
-0.29103368648748074
 20
0.07757233597862978
 10
-0.28950986276959156
 20
0.07538520442221852
 10
-0.2879182172655419
 20
0.07324692292604595
 10
-0.2862603148614653
 20
0.07115959382235815
 10
-0.2845377855874176
 20
0.06912526934797825
 10
-0.2827523230130282
 20
0.06714594962568299
 10
-0.28090568258312487
 20
0.06522358069878464
 10
-0.27899967989242214
 20
0.06336005261709943
 10
-0.2770361888997286
 20
0.06155719757884981
 10
-0.27501714008531053
 20
0.05981678812895552
 10
-0.27294451855368607
 20
0.05814053541712383
 10
-0.2708203620804852
 20
0.0565300875146022
 10
-0.26864675911156155
 20
0.054987027794140886
 10
-0.2664258467066247
 20
0.05351287337339272
 10
-0.26415980843921716
 20
0.05210907362288708
 10
-0.26185087225121606
 20
0.050777008741761165
 10
-0.25950130826049644
 20
0.04951798839965704
 10
-0.2571134265299406
 20
0.04833325045069614
 10
-0.25468957479552046
 20
0.0472239597143016
 10
-0.25223213615890927
 20
0.046191206831736054
 10
-0.24974352674462352
 20
0.04523600719312526
 10
-0.2472261933221489
 20
0.044359299939287666
 10
-0.24468261090396481
 20
0.043561947038142534
 10
-0.24211528030855334
 20
0.04284473243728826
 10
-0.23952672570521827
 20
0.04220836129343297
 10
-0.23691949212889085
 20
0.04165345927890485
 10
-0.23429614297992885
 20
0.041180571966606294
 10
-0.2316592575029972
 20
0.040790164293639464
 10
-0.2290114282527611
 20
0.04048262010405779
 10
-0.2263552585418438
 20
0.04025824177188042
 10
-0.2236933598851465
 20
0.04011724990255061
 10
-0.22102834942779737
 20
0.04005978311806757
 10
-0.22102834942779737
 20
6.617303370148875e-05
 10
-0.43904143881081836
 20
2.8936541639268398e-05
 10
-0.43904143881081836
 20
0.040022546625550603
 10
-0.4363761599715872
 20
0.04008001762349522
 10
-0.43371399319721604
 20
0.04022102213434664
 10
-0.4310575558988603
 20
0.04044542152360009
 10
-0.42840945985426515
 20
0.040752995164893946
 10
-0.42577230864026205
 20
0.04114344065510522
 10
-0.4231486950729959
 20
0.04161637411311858
 10
-0.4205411986586114
 20
0.04217133055590239
 10
-0.4179523830562175
 20
0.04280776435734879
 10
-0.41538479355949676
 20
0.04352504978282923
 10
-0.41284095459150194
 20
0.04432248160605923
 10
-0.4103233672258284
 20
0.04519927580122385
 10
-0.40783450672370236
 20
0.04615457031468395
 10
-0.40537682010381104
 20
0.04718742591217051
 10
-0.40295272373487023
 20
0.04829682710214911
 10
-0.4005646009600241
 20
0.04948168313444512
 10
-0.39821479975262264
 20
0.05074082907276534
 10
-0.3959056304106525
 20
0.05207302693906968
 10
-0.3936393632816362
 20
0.05347696693274884
 10
-0.39141822653255076
 20
0.054951268716195045
 10
-0.38924440395931015
 20
0.05649448277335978
 10
-0.38712003283853846
 20
0.058105091834249833
 10
-0.38504720182709207
 20
0.05978151236718077
 10
-0.383027948907511
 20
0.061522096135149695
 10
-0.3810642593857665
 20
0.06332513181655486
 10
-0.3791580639381209
 20
0.06518884668798819
 10
-0.37731123671392197
 20
0.06711140836705454
 10
-0.3755255934916022
 20
0.06909092661362592
 10
-0.373802889894705
 20
0.07112545518884872
 10
-0.3721448196647543
 20
0.07321299376803836
 10
-0.37055301299778876
 20
0.07535148990768903
 10
-0.36902903493819394
 20
0.07753884106409714
 10
-0.36757438384393026
 20
0.07977289665882381
 10
-0.36619048991087766
 20
0.08205146019486165
 10
-0.3648787137672116
 20
0.0843722914155478
 10
-0.36364034513553634
 20
0.08673310850667804
 10
-0.3624766015655041
 20
0.08913159034091223
 10
-0.36138862723555576
 20
0.09156537875901449
 10
-0.36037749183014967
 20
0.09403208088906467
 10
-0.3594441894852025
 20
0.09652927149841162
 10
-0.35858963781311104
 20
0.09905449537859567
 10
-0.35781467699825953
 20
0.101605269759375
 10
-0.3571200689730176
 20
0.10417908674912724
 10
-0.3565064966683167
 20
0.10677341580185384
 10
-0.35597456334107846
 20
0.10938570620328392
 10
-0.3555247919816793
 20
0.11201338958039742
 10
-0.35515762480054036
 20
0.11465388242595509
 10
-0.3548734227915702
 20
0.11730458863826243
 10
-0.354672465378826
 20
0.11996290207434868
 10
-0.3545549501413916
 20
0.12262620911155864
 10
-0.3545209926192001
 20
0.1252918912180121
 10
-0.3545706261984378
 20
0.12795732752647382
 10
-0.35470380208062124
 20
0.1306198974111794
 10
-0.35492038932761716
 20
0.13327698306466118
 10
-0.3552201749944288
 20
0.13592597207184554
 10
-0.35560286433474175
 20
0.13856425997778388
 10
-0.3560680810933263
 20
0.14118925284901707
 10
-0.3566153678743831
 20
0.14379836982334382
 10
-0.35724418659219737
 20
0.1463890456475383
 10
-0.357953918999101
 20
0.14895873319983366
 10
-0.358743867294379
 20
0.15150490599376099
 10
-0.35961325481139284
 20
0.15402506066220667
 10
-0.36056122677746316
 20
0.15651671941827772
 10
-0.36158685115788103
 20
0.1589774324932023
 10
-0.3626891195708595
 20
0.16140478054217056
 10
-0.3638669482793375
 20
0.16379637702561922
 10
-0.36511917925599846
 20
0.16614987055390884
 10
-0.36644458132195723
 20
0.1684629471997141
 10
-0.3678418513577526
 20
0.1707333327735796
 10
-0.369309615583461
 20
0.17295879505900302
 10
-0.3708464309106603
 20
0.175137146007728
 10
-0.3724507863607869
 20
0.17726624389069912
 10
-0.37412110455034053
 20
0.1793439954042242
 10
-0.3758557432424823
 20
0.18136835772702398
 10
-0.37765299696047805
 20
0.18333734052998807
 10
-0.37951109866617116
 20
0.18524900793272536
 10
-0.38142822149484346
 20
0.18710148040622698
 10
-0.3834024805551053
 20
0.1888929366211869
 10
-0.38543193477744353
 20
0.19062161523902432
 10
-0.38751458882779843
 20
0.1922858166435617
 10
-0.3896483950638867
 20
0.1938839046110843
 10
-0.3918312555533703
 20
0.19541430792060055
 10
-0.3940610241329523
 20
0.1968755218977094
 10
-0.3963355085211333
 20
0.198266109893666
 10
-0.39865247247098523
 20
0.1995847046991912
 10
-0.40100963797112854
 20
0.2008300098871132
 10
-0.40340468748445346
 20
0.20200080108793372
 10
-0.40583526622594945
 20
0.20309592719377179
 10
-0.4082989844791882
 20
0.20411431148932024
 10
-0.41079341994600327
 20
0.20505495271140717
 10
-0.4133161201261828
 20
0.20591692603238698
 10
-0.41586460473126863
 20
0.20669938397054466
 10
-0.4184363681206378
 20
0.207401557222056
 10
-0.42102888176668785
 20
0.20802275541859672
 10
-0.4236395967413955
 20
0.20856236780559811
 10
-0.4262659462197007
 20
0.2090198638425136
 10
-0.42890534800608293
 20
0.20939479372418646
 10
-0.43155520707159667
 20
0.20968678882445602
 10
-0.4342129181063683
 20
0.20989556205699955
 10
-0.4368758680798237
 20
0.21002090815841257
 10
-0.4395414388109202
 20
0.21006270388988924
 10
-0.44220700954201675
 20
0.21002090815841257
 10
-0.44486995951547215
 20
0.20989556205699955
 10
-0.4475276705502438
 20
0.20968678882445602
 10
-0.4501775296157575
 20
0.20939479372418646
 10
-0.45281693140213974
 20
0.2090198638425136
 10
-0.45544328088044495
 20
0.20856236780559811
 10
-0.4580539958551526
 20
0.20802275541859672
 10
-0.4606465095012027
 20
0.207401557222056
 10
-0.4632182728905718
 20
0.20669938397054466
 10
-0.46576675749565766
 20
0.20591692603238698
 10
-0.4682894576758372
 20
0.20505495271140717
 10
-0.47078389314265223
 20
0.20411431148932024
 10
-0.473247611395891
 20
0.20309592719377179
 10
-0.475678190137387
 20
0.20200080108793372
 10
-0.4780732396507119
 20
0.2008300098871132
 10
-0.4804304051508552
 20
0.1995847046991912
 10
-0.48274736910070715
 20
0.198266109893666
 10
-0.48502185348888815
 20
0.1968755218977094
 10
-0.48725162206847017
 20
0.19541430792060055
 10
-0.48943448255795374
 20
0.1938839046110843
 10
-0.491568288794042
 20
0.1922858166435617
 10
-0.4936509428443969
 20
0.19062161523902432
 10
-0.49568039706673517
 20
0.1888929366211869
 10
-0.497654656126997
 20
0.18710148040622698
 10
-0.4995717789556693
 20
0.18524900793272536
 10
-0.5014298806613624
 20
0.18333734052998807
 10
-0.5032271343793582
 20
0.18136835772702398
 10
-0.5049617730714999
 20
0.1793439954042242
 10
-0.5066320912610536
 20
0.17726624389069912
 10
-0.5082364467111802
 20
0.175137146007728
 10
-0.5097732620383795
 20
0.17295879505900302
 10
-0.5112410262640878
 20
0.1707333327735796
 10
-0.5126382962998832
 20
0.1684629471997141
 10
-0.513963698365842
 20
0.16614987055390884
 10
-0.5152159293425029
 20
0.16379637702561922
 10
-0.516393758050981
 20
0.16140478054217056
 10
-0.5174960264639594
 20
0.1589774324932023
 10
-0.5185216508443773
 20
0.15651671941827772
 10
-0.5194696228104476
 20
0.15402506066220667
 10
-0.5203390103274614
 20
0.15150490599376099
 10
-0.5211289586227394
 20
0.14895873319983366
 10
-0.5218386910296431
 20
0.1463890456475383
 10
-0.5224675097474574
 20
0.14379836982334382
 10
-0.5230147965285141
 20
0.14118925284901707
 10
-0.5234800132870987
 20
0.13856425997778388
 10
-0.5238627026274116
 20
0.13592597207184554
 10
-0.5241624882942233
 20
0.13327698306466118
 10
-0.5243790755412192
 20
0.1306198974111794
 10
-0.5245122514234026
 20
0.12795732752647382
 10
-0.5245618850026403
 20
0.1252918912180121
 10
-0.5245279274804489
 20
0.12262620911155864
 10
-0.5244104122430144
 20
0.11996290207434868
 10
-0.5242094548302703
 20
0.11730458863826243
 10
-0.5239252528213001
 20
0.11465388242595509
 10
-0.5235580856401612
 20
0.11201338958039742
 10
-0.523108314280762
 20
0.10938570620328392
 10
-0.5225763809535238
 20
0.10677341580185384
 10
-0.5219628086488228
 20
0.10417908674912724
 10
-0.5212682006235809
 20
0.101605269759375
 10
-0.5204932398087294
 20
0.09905449537859567
 10
-0.5196386881366379
 20
0.09652927149841162
 10
-0.5187053857916908
 20
0.09403208088906467
 10
-0.5176942503862847
 20
0.09156537875901449
 10
-0.5166062760563364
 20
0.08913159034091223
 10
-0.5154425324863041
 20
0.08673310850667804
 10
-0.5142041638546289
 20
0.0843722914155478
 10
-0.5128923877109628
 20
0.08205146019486165
 10
-0.5115084937779102
 20
0.07977289665882381
 10
-0.5100538426836465
 20
0.07753884106409714
 10
-0.5085298646240517
 20
0.07535148990768903
 10
-0.5069380579570861
 20
0.07321299376803836
 10
-0.5052799877271354
 20
0.07112545518884872
 10
-0.5035572841302383
 20
0.06909092661362592
 10
-0.5017716409079185
 20
0.06711140836705454
 10
-0.49992481368371955
 20
0.06518884668798819
 10
-0.49801861823607396
 20
0.06332513181655486
 10
-0.49605492871432944
 20
0.061522096135149695
 10
-0.4940356757947484
 20
0.05978151236718077
 10
-0.491962844783302
 20
0.058105091834249833
 10
-0.4898384736625303
 20
0.05649448277335978
 10
-0.4876646510892897
 20
0.054951268716195045
 10
-0.4854435143402043
 20
0.05347696693274884
 10
-0.48317724721118793
 20
0.05207302693906968
 10
-0.4808680778692178
 20
0.05074082907276534
 10
-0.47851827666181634
 20
0.04948168313444512
 10
-0.4761301538869702
 20
0.04829682710214911
 10
-0.4737060575180294
 20
0.04718742591217051
 10
-0.4712483708981381
 20
0.04615457031468395
 10
-0.46875951039601205
 20
0.04519927580122385
 10
-0.4662419230303385
 20
0.04432248160605923
 10
-0.4636980840623437
 20
0.04352504978282923
 10
-0.46113049456562294
 20
0.04280776435734879
 10
-0.45854167896322906
 20
0.04217133055590239
 10
-0.45593418254884455
 20
0.04161637411311858
 10
-0.4533105689815784
 20
0.04114344065510522
 10
-0.4506734177675753
 20
0.040752995164893946
 10
-0.44802532172298015
 20
0.04044542152360009
 10
-0.4453688844246244
 20
0.04022102213434664
 10
-0.44270671765025327
 20
0.04008001762349522
 10
-0.4400414388110221
 20
0.040022546625550603
 10
-0.4400414388110221
 20
2.8936539820278995e-05
 10
-0.613030856828118
 20
0.0
 10
-0.6250335237673426
 20
0.011998998474155087
 10
-0.62504023783913
 20
0.05000113893402158
 10
-0.5750390942448576
 20
0.06000967088766629
 10
-0.5750616789991909
 20
0.19501831192246755
 10
-0.6000631658716884
 20
0.20001494991447544
 10
-0.6000723224824469
 20
0.2500179236631084
  0
ENDSEC
  0
SECTION
  2
OBJECTS
  0
DICTIONARY
  5
A
330
0
100
AcDbDictionary
281
1
  3
ACAD_LAYOUT
350
D
  3
ACAD_MATERIAL
350
E
  3
ACAD_PLOTSTYLENAME
350
12
  3
EZDXF_META
350
2D
  0
DICTIONARY
  5
D
330
A
100
AcDbDictionary
281
1
  3
Model
350
1A
  3
Layout1
350
1E
  0
DICTIONARY
  5
E
330
A
100
AcDbDictionary
281
1
  3
ByBlock
350
1F
  3
ByLayer
350
20
  3
Global
350
21
  0
ACDBDICTIONARYWDFLT
  5
12
330
A
100
AcDbDictionary
281
1
  3
Normal
350
13
100
AcDbDictionaryWithDefault
340
13
  0
ACDBPLACEHOLDER
  5
13
330
12
  0
LAYOUT
  5
1A
330
D
100
AcDbPlotSettings
  1

  4
A3
  6

 40
7.5
 41
20.0
 42
7.5
 43
20.0
 44
420.0
 45
297.0
 46
0.0
 47
0.0
 48
0.0
 49
0.0
140
0.0
141
0.0
142
1.0
143
1.0
 70
1024
 72
1
 73
0
 74
5
  7

 75
16
 76
0
 77
2
 78
300
147
1.0
148
0.0
149
0.0
100
AcDbLayout
  1
Model
 70
1
 71
0
 10
0.0
 20
0.0
 11
420.0
 21
297.0
 12
0.0
 22
0.0
 32
0.0
 14
1e+20
 24
1e+20
 34
1e+20
 15
-1e+20
 25
-1e+20
 35
-1e+20
146
0.0
 13
0.0
 23
0.0
 33
0.0
 16
1.0
 26
0.0
 36
0.0
 17
0.0
 27
1.0
 37
0.0
 76
1
330
17
  0
LAYOUT
  5
1E
330
D
100
AcDbPlotSettings
  1

  4
A3
  6

 40
7.5
 41
20.0
 42
7.5
 43
20.0
 44
420.0
 45
297.0
 46
0.0
 47
0.0
 48
0.0
 49
0.0
140
0.0
141
0.0
142
1.0
143
1.0
 70
0
 72
1
 73
0
 74
5
  7

 75
16
 76
0
 77
2
 78
300
147
1.0
148
0.0
149
0.0
100
AcDbLayout
  1
Layout1
 70
1
 71
1
 10
0.0
 20
0.0
 11
420.0
 21
297.0
 12
0.0
 22
0.0
 32
0.0
 14
1e+20
 24
1e+20
 34
1e+20
 15
-1e+20
 25
-1e+20
 35
-1e+20
146
0.0
 13
0.0
 23
0.0
 33
0.0
 16
1.0
 26
0.0
 36
0.0
 17
0.0
 27
1.0
 37
0.0
 76
1
330
1B
  0
MATERIAL
  5
1F
102
{ACAD_REACTORS
330
E
102
}
330
E
100
AcDbMaterial
  1
ByBlock
  2

 70
0
 40
1.0
 71
1
 41
1.0
 91
-1023410177
 42
1.0
 72
1
  3

 73
1
 74
1
 75
1
 44
0.5
 73
0
 45
1.0
 46
1.0
 77
1
  4

 78
1
 79
1
170
1
 48
1.0
171
1
  6

172
1
173
1
174
1
140
1.0
141
1.0
175
1
  7

176
1
177
1
178
1
143
1.0
179
1
  8

270
1
271
1
272
1
145
1.0
146
1.0
273
1
  9

274
1
275
1
276
1
 42
1.0
 72
1
  3

 73
1
 74
1
 75
1
 94
63
  0
MATERIAL
  5
20
102
{ACAD_REACTORS
330
E
102
}
330
E
100
AcDbMaterial
  1
ByLayer
  2

 70
0
 40
1.0
 71
1
 41
1.0
 91
-1023410177
 42
1.0
 72
1
  3

 73
1
 74
1
 75
1
 44
0.5
 73
0
 45
1.0
 46
1.0
 77
1
  4

 78
1
 79
1
170
1
 48
1.0
171
1
  6

172
1
173
1
174
1
140
1.0
141
1.0
175
1
  7

176
1
177
1
178
1
143
1.0
179
1
  8

270
1
271
1
272
1
145
1.0
146
1.0
273
1
  9

274
1
275
1
276
1
 42
1.0
 72
1
  3

 73
1
 74
1
 75
1
 94
63
  0
MATERIAL
  5
21
102
{ACAD_REACTORS
330
E
102
}
330
E
100
AcDbMaterial
  1
Global
  2

 70
0
 40
1.0
 71
1
 41
1.0
 91
-1023410177
 42
1.0
 72
1
  3

 73
1
 74
1
 75
1
 44
0.5
 73
0
 45
1.0
 46
1.0
 77
1
  4

 78
1
 79
1
170
1
 48
1.0
171
1
  6

172
1
173
1
174
1
140
1.0
141
1.0
175
1
  7

176
1
177
1
178
1
143
1.0
179
1
  8

270
1
271
1
272
1
145
1.0
146
1.0
273
1
  9

274
1
275
1
276
1
 42
1.0
 72
1
  3

 73
1
 74
1
 75
1
 94
63
  0
DICTIONARY
  5
2D
330
A
100
AcDbDictionary
280
1
281
1
  3
CREATED_BY_EZDXF
350
2E
  3
WRITTEN_BY_EZDXF
350
33
  0
DICTIONARYVAR
  5
2E
330
2D
100
DictionaryVariables
280
0
  1
1.4.4 @ 2026-07-08T20:39:10.094670+00:00
  0
DICTIONARYVAR
  5
33
330
2D
100
DictionaryVariables
280
0
  1
1.4.4 @ 2026-07-08T20:39:10.098082+00:00
  0
ENDSEC
  0
EOF
